<svg width="545" height="545" viewBox="0 0 545 545" fill="none" xmlns="http://www.w3.org/2000/svg">
<rect width="545" height="545" fill="white"/>
<path d="M326.781 104.975C321.957 98.5411 313.916 94.609 304.268 94.0728C297.478 93.7153 290.689 94.2515 284.256 94.9664C276.931 95.6814 269.248 96.3963 261.565 95.6814C259.778 95.5026 257.991 95.3239 256.205 95.1452C251.202 94.609 246.02 93.894 240.839 94.2515C230.833 94.609 222.792 98.3623 217.79 104.975C206.533 119.989 210.464 140.186 214.037 158.059C214.573 160.919 215.109 163.599 215.645 166.28C216.36 170.749 217.254 175.038 217.968 179.507C219.219 186.12 220.291 192.912 221.542 199.525C221.542 199.703 221.72 199.882 221.899 199.882C230.654 202.742 248.343 207.389 271.392 207.389C286.579 207.389 304.089 205.423 323.029 199.525C323.207 199.525 323.386 199.346 323.386 199.167C324.458 192.554 325.709 185.941 326.781 179.328C327.496 174.86 328.389 170.57 329.104 166.102C329.64 163.421 330.176 160.74 330.712 157.88C333.928 140.186 338.037 119.81 326.781 104.975Z" stroke="#231F20" stroke-width="3" stroke-miterlimit="10"/>
<path d="M203.138 105.512C198.135 99.0772 190.274 95.3238 180.625 94.7876C173.836 94.4301 167.225 94.9663 160.793 95.6813C153.467 96.3962 145.963 97.1111 138.28 96.2175C136.493 96.0387 134.706 95.86 132.919 95.6813C127.916 95.1451 122.735 94.4301 117.553 94.7876C108.084 95.3238 100.043 99.0772 95.219 105.512C83.9625 120.346 88.0721 140.543 91.4669 158.237C92.0029 161.097 92.5389 163.778 93.0749 166.28C93.7896 170.57 94.683 175.038 95.3977 179.328C96.4698 185.941 97.7205 192.733 98.7925 199.346C98.7925 199.524 98.9712 199.703 99.1499 199.703C107.726 202.563 125.236 207.21 148.107 207.21C163.115 207.21 180.447 205.244 199.208 199.346C199.386 199.346 199.565 199.167 199.565 198.988C200.637 192.375 201.888 185.762 202.96 179.328C203.674 175.038 204.568 170.57 205.282 166.28C205.818 163.599 206.176 160.918 206.89 158.237C210.285 140.543 214.216 120.346 203.138 105.512Z" stroke="#231F20" stroke-width="3" stroke-miterlimit="10"/>
<path d="M450.602 104.975C445.778 98.5411 437.738 94.609 428.089 94.0728C421.3 93.7153 414.51 94.2515 408.078 94.9664C400.752 95.6814 393.069 96.3963 385.386 95.6814C383.599 95.5026 381.813 95.3239 380.026 95.1452C375.023 94.609 369.842 93.894 364.66 94.2515C355.012 94.7877 346.971 98.7198 342.147 105.154C330.891 120.168 334.821 140.364 338.395 158.238C338.931 161.097 339.467 163.778 340.003 166.459C340.718 170.749 341.611 175.217 342.326 179.507C343.576 186.12 344.648 192.912 345.899 199.525C345.899 199.703 346.078 199.882 346.257 199.882C355.012 202.742 372.7 207.389 395.749 207.389C410.937 207.389 428.447 205.423 447.386 199.525C447.565 199.525 447.744 199.346 447.744 199.167C448.816 192.554 450.066 185.762 451.138 179.328C451.853 175.038 452.746 170.57 453.461 166.28C453.997 163.599 454.533 160.919 455.069 158.059C457.928 140.186 461.859 119.81 450.602 104.975Z" stroke="#231F20" stroke-width="3" stroke-miterlimit="10"/>
<path d="M98.2566 117.308C98.2566 117.308 116.839 101.579 149.179 109.265C181.519 116.95 193.311 107.12 193.311 107.12" stroke="#231F20" stroke-width="3" stroke-miterlimit="10"/>
<path d="M222.792 117.308C222.792 117.308 236.193 101.579 259.421 109.265C275.859 114.627 283.542 111.946 286.401 109.98C288.723 108.371 291.225 107.12 293.905 106.405C299.98 104.797 309.807 103.903 319.098 109.801" stroke="#231F20" stroke-width="3" stroke-miterlimit="10"/>
<path d="M444.349 117.308C444.349 117.308 425.767 101.579 393.427 109.265C361.086 116.95 349.294 107.12 349.294 107.12" stroke="#231F20" stroke-width="3" stroke-miterlimit="10"/>
<path d="M202.561 349.529C202.561 345.531 202.371 341.533 202.181 337.535C201.897 331.157 201.612 324.493 201.991 318.02C202.181 314.021 202.656 309.833 203.321 305.263C203.416 304.883 203.511 304.502 203.511 304.216V304.026V303.835H203.226C201.802 302.598 186.225 289.08 186.225 264.424V263.948C185.275 258.332 167.135 255 149.469 255C131.803 255 113.662 258.332 112.712 263.948V264.424C112.712 289.08 97.2311 302.693 95.7115 303.835H95.3316L95.4265 304.311C95.4265 304.597 95.5215 304.883 95.5215 305.168C96.1864 309.833 96.6613 314.117 96.9462 318.115C97.3261 324.588 97.0412 331.252 96.7562 337.63C96.5663 341.533 96.3763 345.626 96.3763 349.529C95.2366 358.192 94.8567 366.665 95.0466 374.756C95.2366 382.562 96.0914 390.083 97.5161 397.127C99.0357 404.457 100.555 411.502 103.88 417.214C104.734 418.737 105.969 420.545 107.964 420.926C110.433 421.402 112.428 419.498 113.472 417.499C114.802 414.929 115.372 411.978 115.942 409.122L116.037 408.36C117.081 402.649 117.746 395.89 118.411 388.845C120.691 365.046 123.255 338.201 142.915 327.539C148.709 324.398 153.933 324.112 158.587 326.682C164.095 329.729 177.487 342.58 181.476 396.08C181.761 399.697 182.141 403.981 182.996 408.36L183.091 409.122C183.661 411.978 184.136 414.929 185.56 417.499C186.51 419.213 188.22 420.926 190.309 420.926C190.594 420.926 190.784 420.926 191.069 420.831C192.969 420.45 194.298 418.641 195.153 417.118C198.477 411.407 199.997 404.362 201.517 397.032C202.941 389.988 203.796 382.467 203.986 374.661C204.081 366.665 203.701 358.097 202.561 349.529Z" stroke="#231F20" stroke-width="3" stroke-miterlimit="10"/>
<path d="M449.561 349.529C449.561 345.531 449.371 341.533 449.181 337.535C448.897 331.157 448.612 324.493 448.991 318.02C449.181 314.021 449.656 309.833 450.321 305.263C450.416 304.883 450.511 304.502 450.511 304.216V304.026V303.835H450.226C448.802 302.598 433.225 289.08 433.225 264.424V263.948C432.275 258.332 414.135 255 396.469 255C378.803 255 360.662 258.332 359.712 263.948V264.424C359.712 289.08 344.231 302.693 342.711 303.835H342.332L342.427 304.311C342.427 304.597 342.522 304.883 342.522 305.168C343.186 309.833 343.661 314.117 343.946 318.115C344.326 324.588 344.041 331.252 343.756 337.63C343.566 341.533 343.376 345.626 343.376 349.529C342.237 358.192 341.857 366.665 342.047 374.756C342.237 382.562 343.091 390.083 344.516 397.127C346.036 404.457 347.555 411.502 350.88 417.214C351.734 418.737 352.969 420.545 354.964 420.926C357.433 421.402 359.428 419.498 360.472 417.499C361.802 414.929 362.372 411.978 362.942 409.122L363.037 408.36C364.081 402.649 364.746 395.89 365.411 388.845C367.691 365.046 370.255 338.201 389.915 327.539C395.709 324.398 400.933 324.112 405.587 326.682C411.095 329.729 424.487 342.58 428.476 396.08C428.761 399.697 429.141 403.981 429.996 408.36L430.091 409.122C430.661 411.978 431.136 414.929 432.56 417.499C433.51 419.213 435.22 420.926 437.309 420.926C437.594 420.926 437.784 420.926 438.069 420.831C439.969 420.45 441.298 418.641 442.153 417.118C445.477 411.407 446.997 404.362 448.517 397.032C449.941 389.988 450.796 382.467 450.986 374.661C451.081 366.665 450.701 358.097 449.561 349.529Z" stroke="#231F20" stroke-width="3" stroke-miterlimit="10"/>
</svg>
