<svg width="545" height="545" viewBox="0 0 545 545" fill="none" xmlns="http://www.w3.org/2000/svg">
<rect width="545" height="545" fill="white"/>
<path d="M206.582 243.762C204.682 234.862 200.382 223.362 190.382 218.962C187.482 217.662 184.382 217.262 180.782 217.562C175.282 216.762 169.482 219.162 163.982 221.462C162.282 222.162 160.482 222.862 158.782 223.562C157.282 223.162 155.882 222.662 154.382 222.162C150.282 220.862 146.182 219.462 141.782 219.662C137.382 219.862 133.082 221.262 128.782 222.662C127.582 223.062 126.282 223.462 125.082 223.862C123.082 223.162 120.982 222.362 118.982 221.462C113.382 219.162 107.682 216.762 102.182 217.562C98.5819 217.262 95.3819 217.762 92.5819 218.962C82.5819 223.362 78.2819 234.862 76.3819 243.762C73.4819 256.962 75.6819 270.562 78.0819 283.462C78.9819 288.462 80.0819 293.562 81.1819 298.562C83.7819 310.662 86.4819 323.162 87.1819 335.662C87.5819 342.362 87.2819 349.162 86.9819 355.762C86.7819 359.762 86.5819 363.962 86.5819 368.062C85.4819 376.962 84.9819 385.762 85.1819 394.062C85.3819 402.162 86.2819 409.862 87.7819 417.162C89.2819 424.662 90.9819 431.962 94.3819 437.862C95.2819 439.462 96.5819 441.262 98.5819 441.662C98.8819 441.762 99.0819 441.762 99.3819 441.762C101.582 441.762 103.282 439.962 104.282 438.162C105.682 435.562 106.282 432.462 106.782 429.462L106.882 428.662C107.982 422.762 108.682 415.762 109.382 408.462C111.682 383.962 114.382 356.162 134.782 345.162C140.782 341.962 146.182 341.662 150.982 344.262C168.282 353.762 173.282 397.562 174.682 415.962C174.982 419.762 175.382 424.162 176.182 428.662L176.282 429.462C176.782 432.462 177.382 435.462 178.782 438.062C179.882 440.062 181.882 442.062 184.382 441.562C186.382 441.162 187.682 439.262 188.582 437.762C191.982 431.862 193.582 424.562 195.182 417.062C196.682 409.762 197.482 402.062 197.782 393.962C197.982 385.562 197.582 376.862 196.382 367.962C196.382 363.862 196.182 359.662 195.982 355.662C195.682 349.062 195.382 342.162 195.782 335.562C196.482 323.062 199.182 310.462 201.782 298.462C202.882 293.562 203.982 288.462 204.882 283.362C207.282 270.562 209.382 256.962 206.582 243.762Z" stroke="#231F20" stroke-width="3" stroke-miterlimit="10"/>
<path d="M468.982 243.762C467.082 234.862 462.782 223.362 452.782 218.962C449.882 217.662 446.782 217.262 443.182 217.562C437.682 216.762 431.882 219.162 426.382 221.462C424.682 222.162 422.882 222.862 421.182 223.562C419.682 223.162 418.282 222.662 416.782 222.162C412.682 220.862 408.582 219.462 404.182 219.662C399.782 219.862 395.482 221.262 391.182 222.662C389.982 223.062 388.682 223.462 387.482 223.862C385.482 223.162 383.382 222.362 381.382 221.462C375.782 219.162 370.082 216.762 364.582 217.562C360.982 217.262 357.782 217.762 354.982 218.962C344.982 223.362 340.682 234.862 338.782 243.762C335.982 256.962 338.082 270.562 340.582 283.362C341.482 288.362 342.582 293.462 343.682 298.462C346.282 310.562 348.982 323.062 349.682 335.562C350.082 342.262 349.782 349.062 349.482 355.662C349.282 359.662 349.082 363.862 349.082 367.962C347.982 376.862 347.482 385.662 347.682 393.962C347.882 402.062 348.782 409.762 350.282 417.062C351.782 424.562 353.482 431.862 356.882 437.762C357.782 439.362 359.082 441.162 361.082 441.562C363.582 442.062 365.682 440.062 366.682 438.062C368.082 435.462 368.682 432.362 369.182 429.362L369.282 428.562C370.382 422.662 371.082 415.662 371.782 408.362C374.082 383.862 376.782 356.062 397.182 345.062C403.182 341.862 408.582 341.562 413.382 344.162C430.682 353.662 435.682 397.462 437.082 415.862C437.382 419.662 437.782 424.062 438.582 428.562L438.682 429.362C439.182 432.362 439.782 435.362 441.182 437.962C442.182 439.762 443.882 441.562 446.082 441.562C446.382 441.562 446.582 441.562 446.882 441.462C448.882 441.062 450.182 439.162 451.082 437.662C454.482 431.762 456.082 424.462 457.682 416.962C459.182 409.662 459.982 401.962 460.282 393.862C460.482 385.462 460.082 376.762 458.882 367.862C458.882 363.762 458.682 359.562 458.482 355.562C458.182 348.962 457.882 342.062 458.282 335.462C458.982 322.862 461.682 310.362 464.282 298.362C465.382 293.462 466.482 288.362 467.382 283.262C469.682 270.562 471.782 256.962 468.982 243.762Z" stroke="#231F20" stroke-width="3" stroke-miterlimit="10"/>
<path d="M328.982 369.063C328.982 364.863 328.782 360.663 328.582 356.463C328.282 349.763 327.982 342.763 328.382 335.963C328.582 331.763 329.082 327.363 329.782 322.563C329.882 322.163 329.982 321.763 329.982 321.463V321.263V321.063H329.682C328.182 319.763 311.782 305.563 311.782 279.663V279.163C310.782 273.263 291.682 269.763 273.082 269.763C254.482 269.763 235.382 273.263 234.382 279.163V279.663C234.382 305.563 218.082 319.863 216.482 321.063H216.082L216.182 321.563C216.182 321.863 216.282 322.163 216.282 322.463C216.982 327.363 217.482 331.863 217.782 336.063C218.182 342.863 217.882 349.863 217.582 356.563C217.382 360.663 217.182 364.963 217.182 369.063C215.982 378.163 215.582 387.063 215.782 395.563C215.982 403.763 216.882 411.663 218.382 419.063C219.982 426.763 221.582 434.163 225.082 440.163C225.982 441.763 227.282 443.663 229.382 444.063C231.982 444.563 234.082 442.563 235.182 440.463C236.582 437.763 237.182 434.663 237.782 431.663L237.882 430.863C238.982 424.863 239.682 417.763 240.382 410.363C242.782 385.363 245.482 357.163 266.182 345.963C272.282 342.663 277.782 342.363 282.682 345.063C288.482 348.263 302.582 361.763 306.782 417.963C307.082 421.763 307.482 426.263 308.382 430.863L308.482 431.663C309.082 434.663 309.582 437.763 311.082 440.463C312.082 442.263 313.882 444.063 316.082 444.063C316.382 444.063 316.582 444.063 316.882 443.963C318.882 443.563 320.282 441.663 321.182 440.063C324.682 434.063 326.282 426.663 327.882 418.963C329.382 411.563 330.282 403.663 330.482 395.463C330.582 387.063 330.182 378.063 328.982 369.063Z" stroke="#231F20" stroke-width="3" stroke-miterlimit="10"/>
<path d="M336.282 127.062C334.382 118.262 330.182 106.962 320.282 102.562C317.482 101.362 314.382 100.862 310.782 101.162C305.282 100.362 299.682 102.662 294.182 104.962C292.482 105.662 290.782 106.362 289.082 106.962C287.682 106.562 286.182 106.062 284.782 105.662C280.782 104.362 276.682 102.962 272.382 103.162C268.082 103.362 263.782 104.762 259.582 106.062C258.382 106.462 257.082 106.862 255.882 107.262C253.882 106.562 251.882 105.762 249.882 104.962C244.382 102.662 238.682 100.362 233.282 101.162C229.682 100.862 226.582 101.362 223.782 102.562C213.882 106.862 209.682 118.262 207.782 127.062C205.082 140.062 207.182 153.562 209.482 166.162C210.382 171.162 211.482 176.162 212.582 180.962C214.582 190.162 216.582 199.662 217.782 209.062V209.362L218.082 209.462C229.382 213.762 252.082 216.662 275.382 216.662C293.682 216.662 312.282 214.862 325.982 210.362L326.282 210.262V209.962C327.382 200.162 329.482 190.362 331.582 180.862C332.582 176.062 333.682 170.962 334.682 166.062C336.982 153.562 339.082 140.162 336.282 127.062Z" stroke="#231F20" stroke-width="3" stroke-miterlimit="10"/>
<path d="M276.805 224H269.113V248.887H276.805V224Z" fill="#231F20"/>
<path d="M273 263C270.602 256.403 266.383 248.135 262 243.041L273 247.049L284 243.041C279.534 248.218 275.399 256.403 273 263Z" fill="#231F20"/>
</svg>
