<svg width="545" height="545" viewBox="0 0 545 545" fill="none" xmlns="http://www.w3.org/2000/svg">
<rect width="545" height="545" fill="white"/>
<path d="M311.639 331.219C310.389 329.968 308.423 328.896 307.708 328.538C307.887 327.824 307.887 326.93 307.887 326.394C309.853 325.679 311.103 324.785 311.282 323.891V323.713L313.247 307.984C313.247 307.806 313.426 307.627 313.426 307.448C313.426 303.159 291.806 300.656 271.616 300.656C251.247 300.656 229.806 302.98 229.806 307.448C229.806 307.627 229.806 307.806 229.985 307.984L231.95 323.355C231.95 323.534 231.95 323.534 231.95 323.713C231.95 324.785 233.201 325.679 235.524 326.394C235.524 326.572 235.524 326.751 235.524 326.93C233.559 328.002 232.308 328.717 232.129 329.432C231.95 329.611 231.95 330.147 232.129 330.862V331.041C232.129 331.398 233.38 332.649 236.417 334.615C236.596 336.403 236.953 338.19 237.132 340.156C236.953 340.156 236.775 340.156 236.775 340.156C234.631 341.228 233.559 342.122 233.201 342.658C233.023 342.837 233.023 343.373 233.201 343.909V344.088C233.201 344.446 234.631 346.054 238.204 348.02C238.561 350.701 238.919 353.382 239.276 356.421C236.596 357.85 236.239 358.565 236.06 358.744C235.881 358.923 235.881 359.28 236.06 359.995V360.174C236.06 360.531 237.311 361.783 240.348 363.749C240.706 366.251 241.063 368.932 241.599 371.792C239.097 373.043 238.561 373.758 238.561 374.115C238.383 374.294 238.383 374.83 238.561 375.187V375.366C238.561 375.902 239.812 377.153 242.85 378.762C243.207 381.443 243.743 384.124 244.1 386.805C241.778 387.877 241.42 388.414 241.42 388.771C241.42 388.95 241.42 389.486 241.42 390.201V390.38C241.42 390.737 242.492 391.81 245.172 393.239C245.53 395.742 246.066 398.065 246.423 400.746C246.244 400.746 246.244 400.746 246.066 400.746C243.922 401.819 243.564 402.533 243.386 402.712C243.207 402.891 243.207 403.427 243.386 404.321V404.499C243.386 405.036 244.636 406.287 247.495 407.895C247.853 410.398 248.389 412.9 248.746 415.402C248.567 415.402 248.567 415.402 248.389 415.402C246.244 416.475 246.066 417.011 246.066 417.189C246.066 417.368 246.066 417.726 246.066 418.619V418.798C246.066 419.156 247.316 420.407 249.997 421.836C250.533 424.875 251.069 427.913 251.783 430.952C250.354 431.845 250.175 432.203 250.175 432.382C250.175 432.56 250.175 432.918 250.175 433.633V433.812C250.175 434.169 251.069 435.063 252.855 436.314C253.391 439.352 254.106 442.391 254.642 445.429V445.608C254.821 445.787 258.037 451.149 270.187 450.97C270.723 450.97 271.438 450.97 271.974 450.97C272.51 450.97 273.046 450.97 273.76 450.97C274.118 450.97 274.296 450.97 274.654 450.97C286.089 450.97 289.126 445.787 289.305 445.608C289.305 445.608 289.305 445.608 289.305 445.429C289.484 444.893 289.484 444.535 289.662 443.999C292.521 443.82 292.7 443.284 292.878 442.927C292.878 442.748 292.878 441.854 292.878 441.318C292.878 441.14 292.878 440.782 292.521 440.425C291.985 439.71 291.092 439.173 290.734 438.995C291.27 435.956 291.985 432.918 292.521 429.879C295.737 429.701 295.916 429.164 296.095 428.807C296.095 428.628 296.095 427.556 296.095 427.198C296.095 427.02 295.916 426.662 295.737 426.305C295.023 425.59 293.95 425.054 293.593 424.696C294.129 422.194 294.487 419.692 295.023 417.189C298.775 417.011 298.953 416.296 299.132 415.938C299.132 415.76 299.132 414.508 299.132 414.151C299.132 413.972 298.953 413.615 298.596 413.257C297.703 412.364 296.452 411.649 296.095 411.47C296.631 408.789 296.988 406.108 297.524 403.427C301.455 403.427 301.633 402.712 301.812 402.176C301.812 401.997 301.812 400.925 301.812 400.389C301.812 400.21 301.633 399.852 301.276 399.495C300.383 398.601 298.953 397.886 298.596 397.708C298.953 395.205 299.489 392.703 299.847 390.201C304.314 390.022 304.492 389.307 304.671 388.771C304.671 388.592 304.671 387.699 304.671 387.341C304.671 386.984 304.492 386.805 304.135 386.269C303.242 385.196 301.455 384.303 300.919 383.945C301.276 381.264 301.812 378.583 302.17 376.081C306.636 375.902 306.815 375.009 306.994 374.473C306.994 374.294 307.172 373.221 306.994 372.864C306.994 372.506 306.815 372.328 306.458 371.792C305.564 370.898 303.956 369.825 303.242 369.468C303.599 366.43 304.135 363.749 304.492 360.889C309.495 360.71 309.853 359.817 309.853 359.28C309.853 359.102 310.031 357.85 309.853 357.493C309.853 357.136 309.674 356.778 309.316 356.599C308.066 355.348 305.743 354.097 305.386 353.918C305.743 351.952 305.922 350.165 306.1 348.378C310.925 348.199 311.103 347.305 311.282 346.769C311.282 346.59 311.461 345.16 311.282 344.982C311.282 344.624 311.103 344.267 310.746 344.088C309.674 343.016 307.887 341.943 306.994 341.586C307.172 339.62 307.53 337.654 307.708 335.866C312.711 335.688 312.89 334.794 313.069 334.258C313.069 334.079 313.247 332.828 313.069 332.471C311.997 331.934 311.818 331.577 311.639 331.219Z" stroke="#231F20" stroke-width="3" stroke-miterlimit="10"/>
<path d="M326.29 105.838C321.288 99.4033 313.426 95.65 303.777 95.1138C296.988 94.7563 290.377 95.2925 283.945 96.0074C276.619 96.7224 269.115 97.4373 261.432 96.5436C259.645 96.3649 257.858 96.1862 256.071 96.0074C251.069 95.4712 245.887 94.7563 240.705 95.1138C231.236 95.65 223.195 99.4033 218.371 105.838C207.115 120.672 211.224 140.869 214.619 158.564C215.155 161.423 215.691 164.104 216.227 166.607C216.942 170.896 217.835 175.364 218.55 179.654C219.622 186.267 220.873 193.059 221.945 199.672C221.945 199.851 222.123 200.029 222.302 200.029C230.878 202.889 248.388 207.536 271.259 207.536C286.267 207.536 303.599 205.57 322.36 199.672C322.538 199.672 322.717 199.493 322.717 199.314C323.789 192.701 325.04 186.088 326.112 179.654C326.826 175.364 327.72 170.896 328.435 166.607C328.971 163.926 329.328 161.245 330.043 158.564C333.437 140.869 337.368 120.672 326.29 105.838Z" stroke="#231F20" stroke-width="3" stroke-miterlimit="10"/>
<path d="M273.224 269.2C273.224 269.2 256.25 268.664 248.746 266.162C241.241 263.659 240.705 259.37 244.815 255.259C248.746 251.148 253.57 239.352 257.858 228.449C257.858 228.449 272.509 230.058 286.446 228.449C286.446 228.449 292.342 248.467 297.703 254.008C303.063 259.549 303.42 265.268 291.092 266.698C278.584 268.306 273.224 269.2 273.224 269.2Z" stroke="#231F20" stroke-width="3" stroke-miterlimit="10"/>
<path d="M272.152 230.055C279.948 230.055 286.267 228.935 286.267 227.553C286.267 226.171 279.948 225.051 272.152 225.051C264.356 225.051 258.037 226.171 258.037 227.553C258.037 228.935 264.356 230.055 272.152 230.055Z" stroke="#231F20" stroke-width="3" stroke-miterlimit="10"/>
<path d="M254.285 267.411C254.285 267.411 254.642 284.748 270.187 287.965C285.731 291.183 290.02 266.875 290.02 266.875L275.19 268.841C272.867 269.199 270.365 269.199 268.043 268.841L254.285 267.411Z" stroke="#231F20" stroke-width="3" stroke-miterlimit="10"/>
<path d="M235.167 326.57C235.167 326.57 264.469 330.86 307.708 327.285" stroke="#231F20" stroke-width="3" stroke-miterlimit="10"/>
<path d="M236.239 334.436C236.239 334.436 278.584 338.725 306.994 334.436L305.922 341.227C305.922 341.227 282.873 347.84 238.025 342.121L236.239 334.436Z" stroke="#231F20" stroke-width="3" stroke-miterlimit="10"/>
<path d="M237.311 346.947C237.311 346.947 278.584 351.237 306.279 346.947L305.207 353.739C305.207 353.739 282.873 360.352 239.097 354.633L237.311 346.947Z" stroke="#231F20" stroke-width="3" stroke-miterlimit="10"/>
<path d="M239.455 361.066C239.455 361.066 278.227 366.25 303.956 361.066L302.884 369.467C302.884 369.467 281.8 377.51 240.884 370.718L239.455 361.066Z" stroke="#231F20" stroke-width="3" stroke-miterlimit="10"/>
<path d="M241.778 377.332C241.778 377.332 277.334 381.8 301.097 377.332L300.204 384.66C300.204 384.66 280.907 391.631 243.207 385.732L241.778 377.332Z" stroke="#231F20" stroke-width="3" stroke-miterlimit="10"/>
<path d="M244.1 391.094C244.1 391.094 276.44 395.205 298.06 391.094L297.167 397.707C297.167 397.707 279.657 404.141 245.351 398.6L244.1 391.094Z" stroke="#231F20" stroke-width="3" stroke-miterlimit="10"/>
<path d="M246.959 407.358C246.959 407.358 274.475 408.251 296.273 404.141L295.38 410.754C295.38 410.754 282.515 420.226 248.21 414.865L246.959 407.358Z" stroke="#231F20" stroke-width="3" stroke-miterlimit="10"/>
<path d="M249.818 422.015C249.818 422.015 276.083 425.411 294.308 416.832L292.878 424.339C292.878 424.339 281.443 434.348 251.247 430.058L249.818 422.015Z" stroke="#231F20" stroke-width="3" stroke-miterlimit="10"/>
<path d="M252.855 435.956C252.855 435.956 274.475 438.637 291.806 430.236L290.198 438.637C290.198 438.637 282.873 447.752 254.285 443.641L252.855 435.956Z" stroke="#231F20" stroke-width="3" stroke-miterlimit="10"/>
<path d="M221.409 117.633C221.409 117.633 239.991 101.905 272.331 109.59C304.671 117.276 316.463 107.445 316.463 107.445" stroke="#231F20" stroke-width="3" stroke-miterlimit="10"/>
</svg>
