<svg width="545" height="545" viewBox="0 0 545 545" fill="none" xmlns="http://www.w3.org/2000/svg">
<rect width="545" height="545" fill="white"/>
<path d="M329.669 90.7964C329.414 87.4681 327.883 84.4811 325.587 82.3476C323.292 80.2141 320.231 78.8486 316.914 78.8486C316.659 78.8486 316.319 78.8486 315.979 78.8486C307.731 79.446 298.888 81.4089 290.385 83.8838C282.733 86.1026 275.505 88.7482 269.213 91.2231C268.533 90.7964 267.768 90.3697 267.088 89.943C267.003 89.943 267.003 89.8576 266.917 89.8576C266.237 89.4309 265.472 89.0896 264.707 88.7482C264.622 88.7482 264.537 88.6629 264.452 88.6629C263.686 88.3215 262.921 87.9801 262.156 87.6388C262.071 87.6388 261.986 87.5534 261.901 87.5534C261.05 87.2121 260.2 86.8707 259.35 86.5293C259.35 86.5293 259.35 86.5293 259.265 86.5293C255.183 84.9078 250.677 83.6277 246.17 82.689C237.242 80.7261 228.229 79.7874 221.597 79.3607C221.512 79.3607 221.427 79.3607 221.342 79.3607C221.002 79.3607 220.662 79.3607 220.407 79.3607C217.091 79.3607 214.03 80.6408 211.734 82.7743C209.438 84.9078 207.907 87.8948 207.652 91.2231C207.652 91.5645 207.652 91.9058 207.652 92.0765V95.5755C207.652 107.779 212.584 118.874 220.577 126.896C228.569 134.918 239.623 139.867 251.782 139.867H285.454C297.613 139.867 308.667 134.918 316.659 126.896C324.652 118.874 329.584 107.779 329.584 95.5755V91.6498C329.754 91.4791 329.669 91.1377 329.669 90.7964Z" stroke="#231F20" stroke-width="2.77358" stroke-miterlimit="10"/>
<path d="M269.742 91.594C269.742 91.594 232.439 77.7894 225.038 86.1738C217.636 94.5582 220.449 105.653 226.444 115.985C232.439 126.317 249.833 136.988 271.445 139.868" stroke="#231F20" stroke-width="2.77358" stroke-miterlimit="10"/>
<g clip-path="url(#clip0_22126_7289)">
<path d="M217.536 160.834C215.224 160.742 213.098 160.834 211.064 161.202C209.122 161.569 207.273 162.029 205.517 162.856C191.834 168.832 185.917 184.552 183.328 196.687C179.353 214.705 182.404 233.275 185.639 250.833C186.841 257.636 188.413 264.623 189.892 271.426C193.498 287.973 197.196 304.98 198.121 322.079C198.675 331.18 198.213 340.465 197.843 349.474C197.566 354.898 197.288 360.69 197.288 366.297C195.809 378.432 195.07 390.475 195.347 401.782C195.624 412.814 196.826 423.294 198.953 433.314C200.987 443.518 203.39 453.539 208.013 461.537C209.215 463.743 211.064 466.225 213.745 466.685C214.207 466.777 214.392 466.777 214.854 466.777C217.905 466.777 220.217 464.294 221.604 461.904C223.545 458.319 224.377 454.09 225.024 450.045L225.117 448.942C226.596 440.852 227.613 431.384 228.537 421.363C231.681 387.901 235.379 350.026 263.3 334.949C271.528 330.536 278.924 330.169 285.488 333.754C309.156 346.716 316.09 406.471 317.939 431.567C318.309 436.716 318.864 442.783 319.973 448.942L320.158 450.045C320.805 454.182 321.637 458.227 323.579 461.812C325.058 464.57 327.832 467.236 331.253 466.593C334.026 466.041 335.783 463.467 336.985 461.445C341.607 453.355 343.826 443.426 346.045 433.222C348.079 423.294 349.188 412.722 349.651 401.69C349.928 390.199 349.373 378.34 347.709 366.205C347.709 360.598 347.432 354.898 347.154 349.474C346.785 340.465 346.322 331.088 346.877 322.079C347.802 305.072 351.5 287.881 355.105 271.426C356.585 264.715 358.156 257.82 359.358 250.833C362.687 233.367 365.553 214.797 361.67 196.779C359.081 184.644 353.164 168.924 339.481 162.948C337.724 162.121 335.875 161.569 333.934 161.294C331.9 160.926 329.773 160.834 327.462 161.018" stroke="#231F20" stroke-width="2.77358" stroke-miterlimit="10"/>
<path d="M216.981 161.132C220.997 161.494 225.012 162.582 228.934 164.486L249.48 174.365C256.67 177.81 264.608 179.622 272.453 179.622C280.391 179.622 288.142 177.9 295.426 174.365L315.971 164.486C319.893 162.582 323.909 161.494 327.924 161.132" stroke="#231F20" stroke-width="2.77358" stroke-miterlimit="10"/>
<path d="M333.934 161.11V176.187C333.934 186.299 329.866 195.4 323.302 202.111C316.645 208.73 307.677 212.867 297.6 212.867H247.306C237.228 212.867 228.26 208.822 221.604 202.111C214.947 195.492 210.972 186.299 210.972 176.187L211.064 161.202" stroke="#231F20" stroke-width="2.77358" stroke-miterlimit="10"/>
</g>
<path d="M271.799 172.88C272.16 173.241 272.745 173.241 273.106 172.88L278.99 166.996C279.351 166.635 279.351 166.05 278.99 165.689C278.629 165.327 278.044 165.327 277.683 165.689L272.453 170.918L267.223 165.689C266.862 165.327 266.276 165.327 265.915 165.689C265.554 166.05 265.554 166.635 265.915 166.996L271.799 172.88ZM272.453 147.264L271.528 147.264L271.528 172.226L272.453 172.226L273.377 172.226L273.377 147.264L272.453 147.264Z" fill="#231F20"/>
<defs>
<clipPath id="clip0_22126_7289">
<rect width="184.906" height="308.792" fill="white" transform="translate(180 159.363)"/>
</clipPath>
</defs>
</svg>
