<svg width="545" height="545" viewBox="0 0 545 545" fill="none" xmlns="http://www.w3.org/2000/svg">
<rect width="545" height="545" fill="white"/>
<path d="M312.139 126.636C311.975 124.509 310.993 122.6 309.52 121.236C308.048 119.873 306.084 119 303.957 119C303.794 119 303.575 119 303.357 119C298.067 119.382 292.394 120.636 286.94 122.218C282.031 123.636 277.395 125.327 273.359 126.909C272.923 126.636 272.432 126.363 271.995 126.091C271.941 126.091 271.941 126.036 271.886 126.036C271.45 125.763 270.959 125.545 270.468 125.327C270.414 125.327 270.359 125.272 270.304 125.272C269.814 125.054 269.323 124.836 268.832 124.618C268.777 124.618 268.723 124.563 268.668 124.563C268.123 124.345 267.577 124.127 267.032 123.909C267.032 123.909 267.032 123.909 266.977 123.909C264.305 122.927 261.469 122.163 258.578 121.509C252.851 120.254 247.069 119.655 242.815 119.382C242.761 119.382 242.706 119.382 242.651 119.382C242.433 119.382 242.215 119.382 242.051 119.382C239.924 119.382 237.961 120.2 236.488 121.563C235.016 122.927 234.034 124.836 233.87 126.963C233.87 127.181 233.87 127.4 233.87 127.509V129.745C233.87 137.544 237.034 144.635 242.161 149.762C247.288 154.889 254.378 158.052 262.178 158.052H283.776C291.576 158.052 298.667 154.889 303.794 149.762C308.921 144.635 312.084 137.544 312.084 129.745V127.236C312.139 127.072 312.139 126.854 312.139 126.636Z" stroke="#231F20" stroke-width="2.5" stroke-miterlimit="10"/>
<path d="M273.929 127.452C273.929 127.452 250.453 118.64 245.795 123.992C241.138 129.399 242.908 136.427 246.68 143.022C250.453 149.564 261.399 156.429 275 158.268" stroke="#231F20" stroke-width="2.5" stroke-miterlimit="10"/>
<g clip-path="url(#clip0_22127_7309)">
<path d="M86.2322 187.153C84.4322 187.081 82.7762 187.153 81.1922 187.441C79.6802 187.729 78.2402 188.09 76.8722 188.738C66.2162 193.421 61.6082 205.741 59.5922 215.251C56.4962 229.371 58.8722 243.925 61.3922 257.685C62.3282 263.017 63.5522 268.492 64.7042 273.823C67.5122 286.792 70.3922 300.12 71.1122 313.52C71.5442 320.653 71.1842 327.929 70.8962 334.99C70.6802 339.24 70.4642 343.779 70.4642 348.174C69.3122 357.684 68.7362 367.122 68.9522 375.984C69.1682 384.629 70.1042 392.842 71.7602 400.695C73.3442 408.692 75.2162 416.545 78.8162 422.813C79.7522 424.542 81.1922 426.487 83.2802 426.847C83.6402 426.92 83.7842 426.92 84.1442 426.92C86.5202 426.92 88.3202 424.974 89.4002 423.101C90.9122 420.291 91.5602 416.977 92.0642 413.807L92.1362 412.943C93.2882 406.603 94.0802 399.182 94.8002 391.329C97.2482 365.105 100.128 335.422 121.872 323.607C128.28 320.148 134.04 319.86 139.152 322.67C157.584 332.828 162.984 379.658 164.424 399.326C164.712 403.361 165.144 408.116 166.008 412.943L166.152 413.807C166.656 417.049 167.304 420.219 168.816 423.029C169.968 425.19 172.128 427.28 174.792 426.775C176.952 426.343 178.32 424.326 179.256 422.741C182.856 416.401 184.584 408.62 186.312 400.623C187.896 392.842 188.76 384.557 189.12 375.912C189.336 366.906 188.904 357.612 187.608 348.102C187.608 343.707 187.392 339.24 187.176 334.99C186.888 327.929 186.528 320.581 186.96 313.52C187.68 300.192 190.56 286.719 193.368 273.823C194.52 268.564 195.744 263.161 196.68 257.685C199.272 243.997 201.504 229.444 198.48 215.323C196.464 205.813 191.856 193.493 181.2 188.81C179.832 188.162 178.392 187.729 176.88 187.513C175.296 187.225 173.64 187.153 171.84 187.297" stroke="#231F20" stroke-width="3" stroke-miterlimit="10"/>
<path d="M85.7998 187.386C88.9271 187.67 92.0544 188.522 95.1089 190.014L111.109 197.757C116.709 200.456 122.891 201.877 129 201.877C135.182 201.877 141.218 200.527 146.891 197.757L162.891 190.014C165.945 188.522 169.073 187.67 172.2 187.386" stroke="#231F20" stroke-width="3" stroke-miterlimit="10"/>
<path d="M176.88 187.369V199.185C176.88 207.11 173.712 214.242 168.6 219.501C163.416 224.689 156.432 227.931 148.584 227.931H109.416C101.568 227.931 94.5841 224.761 89.4001 219.501C84.2161 214.314 81.1201 207.11 81.1201 199.185L81.1921 187.441" stroke="#231F20" stroke-width="3" stroke-miterlimit="10"/>
</g>
<g clip-path="url(#clip1_22127_7309)">
<path d="M230.232 187.153C228.432 187.081 226.776 187.153 225.192 187.441C223.68 187.729 222.24 188.09 220.872 188.738C210.216 193.421 205.608 205.741 203.592 215.251C200.496 229.371 202.872 243.925 205.392 257.685C206.328 263.017 207.552 268.492 208.704 273.823C211.512 286.792 214.392 300.12 215.112 313.52C215.544 320.653 215.184 327.929 214.896 334.99C214.68 339.24 214.464 343.779 214.464 348.174C213.312 357.684 212.736 367.122 212.952 375.984C213.168 384.629 214.104 392.842 215.76 400.695C217.344 408.692 219.216 416.545 222.816 422.813C223.752 424.542 225.192 426.487 227.28 426.847C227.64 426.92 227.784 426.92 228.144 426.92C230.52 426.92 232.32 424.974 233.4 423.101C234.912 420.291 235.56 416.977 236.064 413.807L236.136 412.943C237.288 406.603 238.08 399.182 238.8 391.329C241.248 365.105 244.128 335.422 265.872 323.607C272.28 320.148 278.04 319.86 283.152 322.67C301.584 332.828 306.984 379.658 308.424 399.326C308.712 403.361 309.144 408.116 310.008 412.943L310.152 413.807C310.656 417.049 311.304 420.219 312.816 423.029C313.968 425.19 316.128 427.28 318.792 426.775C320.952 426.343 322.32 424.326 323.256 422.741C326.856 416.401 328.584 408.62 330.312 400.623C331.896 392.842 332.76 384.557 333.12 375.912C333.336 366.906 332.904 357.612 331.608 348.102C331.608 343.707 331.392 339.24 331.176 334.99C330.888 327.929 330.528 320.581 330.96 313.52C331.68 300.192 334.56 286.719 337.368 273.823C338.52 268.564 339.744 263.161 340.68 257.685C343.272 243.997 345.504 229.444 342.48 215.323C340.464 205.813 335.856 193.493 325.2 188.81C323.832 188.162 322.392 187.729 320.88 187.513C319.296 187.225 317.64 187.153 315.84 187.297" stroke="#231F20" stroke-width="3" stroke-miterlimit="10"/>
<path d="M229.8 187.386C232.927 187.67 236.054 188.522 239.109 190.014L255.109 197.757C260.709 200.456 266.891 201.877 273 201.877C279.182 201.877 285.218 200.527 290.891 197.757L306.891 190.014C309.945 188.522 313.073 187.67 316.2 187.386" stroke="#231F20" stroke-width="3" stroke-miterlimit="10"/>
<path d="M320.88 187.369V199.185C320.88 207.11 317.712 214.242 312.6 219.501C307.416 224.689 300.432 227.931 292.584 227.931H253.416C245.568 227.931 238.584 224.761 233.4 219.501C228.216 214.314 225.12 207.11 225.12 199.185L225.192 187.441" stroke="#231F20" stroke-width="3" stroke-miterlimit="10"/>
</g>
<g clip-path="url(#clip2_22127_7309)">
<path d="M374.232 187.153C372.432 187.081 370.776 187.153 369.192 187.441C367.68 187.729 366.24 188.09 364.872 188.738C354.216 193.421 349.608 205.741 347.592 215.251C344.496 229.371 346.872 243.925 349.392 257.685C350.328 263.017 351.552 268.492 352.704 273.823C355.512 286.792 358.392 300.12 359.112 313.52C359.544 320.653 359.184 327.929 358.896 334.99C358.68 339.24 358.464 343.779 358.464 348.174C357.312 357.684 356.736 367.122 356.952 375.984C357.168 384.629 358.104 392.842 359.76 400.695C361.344 408.692 363.216 416.545 366.816 422.813C367.752 424.542 369.192 426.487 371.28 426.847C371.64 426.92 371.784 426.92 372.144 426.92C374.52 426.92 376.32 424.974 377.4 423.101C378.912 420.291 379.56 416.977 380.064 413.807L380.136 412.943C381.288 406.603 382.08 399.182 382.8 391.329C385.248 365.105 388.128 335.422 409.872 323.607C416.28 320.148 422.04 319.86 427.152 322.67C445.584 332.828 450.984 379.658 452.424 399.326C452.712 403.361 453.144 408.116 454.008 412.943L454.152 413.807C454.656 417.049 455.304 420.219 456.816 423.029C457.968 425.19 460.128 427.28 462.792 426.775C464.952 426.343 466.32 424.326 467.256 422.741C470.856 416.401 472.584 408.62 474.312 400.623C475.896 392.842 476.76 384.557 477.12 375.912C477.336 366.906 476.904 357.612 475.608 348.102C475.608 343.707 475.392 339.24 475.176 334.99C474.888 327.929 474.528 320.581 474.96 313.52C475.68 300.192 478.56 286.719 481.368 273.823C482.52 268.564 483.744 263.161 484.68 257.685C487.272 243.997 489.504 229.444 486.48 215.323C484.464 205.813 479.856 193.493 469.2 188.81C467.832 188.162 466.392 187.729 464.88 187.513C463.296 187.225 461.64 187.153 459.84 187.297" stroke="#231F20" stroke-width="3" stroke-miterlimit="10"/>
<path d="M373.8 187.386C376.927 187.67 380.054 188.522 383.109 190.014L399.109 197.757C404.709 200.456 410.891 201.877 417 201.877C423.182 201.877 429.218 200.527 434.891 197.757L450.891 190.014C453.945 188.522 457.073 187.67 460.2 187.386" stroke="#231F20" stroke-width="3" stroke-miterlimit="10"/>
<path d="M464.88 187.369V199.185C464.88 207.11 461.712 214.242 456.6 219.501C451.416 224.689 444.432 227.931 436.584 227.931H397.416C389.568 227.931 382.584 224.761 377.4 219.501C372.216 214.314 369.12 207.11 369.12 199.185L369.192 187.441" stroke="#231F20" stroke-width="3" stroke-miterlimit="10"/>
</g>
<path d="M273.346 191.616C273.707 191.977 274.293 191.977 274.654 191.616L280.537 185.732C280.898 185.371 280.898 184.786 280.537 184.425C280.176 184.064 279.591 184.064 279.23 184.425L274 189.655L268.77 184.425C268.409 184.064 267.824 184.064 267.463 184.425C267.102 184.786 267.102 185.371 267.463 185.732L273.346 191.616ZM274 166L273.075 166L273.075 190.962L274 190.962L274.925 190.962L274.925 166L274 166Z" fill="#231F20"/>
<defs>
<clipPath id="clip0_22127_7309">
<rect width="144" height="242" fill="white" transform="translate(57 186)"/>
</clipPath>
<clipPath id="clip1_22127_7309">
<rect width="144" height="242" fill="white" transform="translate(201 186)"/>
</clipPath>
<clipPath id="clip2_22127_7309">
<rect width="144" height="242" fill="white" transform="translate(345 186)"/>
</clipPath>
</defs>
</svg>
