<svg width="545" height="545" viewBox="0 0 545 545" fill="none" xmlns="http://www.w3.org/2000/svg">
<rect width="545" height="545" fill="white"/>
<g clip-path="url(#clip0_22117_7001)">
<path d="M149.401 159.602C149.401 159.602 151.586 149.346 158.554 141.955C165.522 134.564 169.439 133.471 169.439 133.471C169.439 133.471 173.582 131.171 180.098 133.81C186.614 136.45 196.483 142.144 204.656 143.614C212.83 145.085 220.89 144.142 221.304 153.154C221.719 162.166 224.205 172.762 220.287 179.022C216.37 185.281 208.31 196.217 184.392 217.333C160.475 238.45 133.393 256.474 136.708 276.723C140.022 296.973 163.563 317.486 196.294 327.328C196.294 327.328 199.571 326.46 208.686 327.969C217.801 329.439 225.335 328.76 228.574 336.453C228.574 336.453 233.546 332.607 241.342 332.757C249.139 332.908 255.58 333.7 257.312 333.851C259.045 334.002 269.403 333.776 274.224 342.524C274.224 342.524 277.049 331.626 290.872 328.798C304.696 325.97 310.345 330.005 315.317 336.604C315.317 336.604 318.142 318.579 326.73 313.338C335.318 308.096 344.32 308.247 349.028 311.603C349.028 311.603 345.789 302.025 359.876 295.125C373.962 288.224 378.332 286.791 384.32 285.547C390.309 284.303 402.4 282.493 408.916 289.77C408.916 289.77 407.824 273.895 422.174 268.805C436.487 263.714 443.907 264.845 448.05 266.014C452.194 267.183 453.022 267.598 462.024 275.253C471.026 282.907 475.433 286.49 477.806 287.621C480.141 288.752 485.565 290.11 484.285 300.404C483.042 310.698 480.518 322.35 471.215 329.364C461.911 336.34 446.318 348.105 417.24 359.643C388.162 371.182 367.07 379.138 338.595 386.831C310.119 394.523 280.251 404.554 254.45 407.985C228.649 411.416 192.679 417.751 147.97 403.762C147.97 403.762 115.464 394.636 90.6428 367.864C65.8213 341.091 62.6197 324.613 61.6781 308.21C60.7365 291.807 65.294 270.841 66.9136 262.771C68.5332 254.702 68.9099 248.405 77.7236 241.278C77.7236 241.278 76.3676 221.443 98.0253 217.296C98.0253 217.296 90.6805 197.951 116.105 188.977C116.105 189.015 116.632 160.696 149.401 159.602Z" stroke="#231F20" stroke-width="2.5" stroke-miterlimit="10"/>
<path d="M174.072 137.581C174.072 137.581 181.944 140.107 188.912 143.237C195.88 146.405 201.228 148.893 211.21 150.213C211.21 150.213 217.537 150.025 213.357 155.04C209.176 160.055 200.814 167.936 188.648 169.52C176.482 171.141 165.484 166.013 165.484 166.013C165.484 166.013 156.896 163.072 155.728 158.056C154.561 153.041 159.231 146.48 166.84 141.201" stroke="#231F20" stroke-width="2.5" stroke-miterlimit="10"/>
<path d="M170.155 144.82C170.155 144.82 161.642 150.213 162.471 155.115C163.262 160.054 166.049 163.071 175.013 161.563C175.013 161.563 179.044 164.353 190.419 165.07" stroke="#231F20" stroke-width="2.5" stroke-miterlimit="10"/>
<path d="M133.129 168.841C133.129 168.841 120.248 178.532 121.566 187.393C122.884 196.255 135.653 200.704 144.391 202.439C153.13 204.173 172.979 205.795 181.831 189.656C181.831 189.656 189.439 178.645 185.108 173.14" stroke="#231F20" stroke-width="2.5" stroke-miterlimit="10"/>
<path d="M136.745 172.988C136.745 172.988 121.189 185.281 137.084 191.88C137.084 191.88 139.834 192.559 146.199 191.88C152.565 191.201 153.054 194.784 154.787 195.387C156.519 195.99 158.139 196.744 161.152 195.387" stroke="#231F20" stroke-width="2.5" stroke-miterlimit="10"/>
<path d="M197.01 172.989C197.01 172.989 214.6 169.482 219.308 157.265" stroke="#231F20" stroke-width="2.5" stroke-miterlimit="10"/>
<path d="M168.007 208.622C168.007 208.622 192.189 200.553 192.038 172.988C192.038 172.988 201.153 173.403 201.831 182C202.509 190.598 201.831 194.369 201.831 194.369" stroke="#231F20" stroke-width="2.5" stroke-miterlimit="10"/>
<path d="M139.909 229.664C139.909 229.664 154.938 221.142 158.516 211.036C158.516 211.036 167.556 212.394 168.008 218.276C168.46 224.159 168.008 227.778 168.008 227.778" stroke="#231F20" stroke-width="2.5" stroke-miterlimit="10"/>
<path d="M114.862 193.69C114.862 193.69 92.2999 206.059 108.27 221.255C108.27 221.255 130.417 237.394 151.359 209.302" stroke="#231F20" stroke-width="2.5" stroke-miterlimit="10"/>
<path d="M116.331 221.745C116.331 221.745 124.805 212.544 134.598 217.71" stroke="#231F20" stroke-width="2.5" stroke-miterlimit="10"/>
<path d="M95.8405 223.329C95.8405 223.329 84.4279 226.27 85.1812 236.979C85.9345 247.688 100.549 255.042 109.739 252.968C118.929 250.894 127.932 246.029 133.318 235.886" stroke="#231F20" stroke-width="2.5" stroke-miterlimit="10"/>
<path d="M97.1963 246.444C97.1963 246.444 103.223 237.847 112.978 244.634" stroke="#231F20" stroke-width="2.5" stroke-miterlimit="10"/>
<path d="M85.6708 245.162C85.6708 245.162 76.2544 245.426 74.1075 255.306C71.9606 265.185 76.2544 271.972 76.2544 271.972C76.2544 271.972 80.6236 282.908 99.607 280.306C99.607 280.306 112.3 280.306 116.707 255.117" stroke="#231F20" stroke-width="2.5" stroke-miterlimit="10"/>
<path d="M89.7388 274.461C89.7388 274.461 94.9743 264.997 105.069 269.408" stroke="#231F20" stroke-width="2.5" stroke-miterlimit="10"/>
<path d="M122.168 255.607C122.168 255.607 135.653 250.554 139.08 237.922" stroke="#231F20" stroke-width="2.5" stroke-miterlimit="10"/>
<path d="M117.799 270.464C117.799 270.464 121.227 264.695 121.679 257.417" stroke="#231F20" stroke-width="2.5" stroke-miterlimit="10"/>
<path d="M123.524 270.879C123.524 270.879 128.007 276.007 129.061 283.473C130.154 290.94 125.521 296.03 125.521 296.03" stroke="#231F20" stroke-width="2.5" stroke-miterlimit="10"/>
<path d="M67.0264 262.281C67.0264 262.281 66.6874 269.672 69.324 274.235C71.9606 278.797 75.2375 281.889 75.2375 281.889C75.2375 281.889 61.6402 297.915 85.2565 315.412" stroke="#231F20" stroke-width="2.5" stroke-miterlimit="10"/>
<path d="M77.686 329.401C77.686 329.401 79.1173 323.481 81.4526 319.673C83.7878 315.864 86.8764 311.528 90.7936 318.956C94.7485 326.385 98.3644 339.432 112.715 346.408C127.065 353.384 129.89 352.403 129.89 352.403" stroke="#231F20" stroke-width="2.5" stroke-miterlimit="10"/>
<path d="M124.127 373.256C124.127 373.256 127.63 357.871 128.61 354.967C129.627 352.064 130.681 349.99 134.937 354.176C139.194 358.361 147.706 369.259 177.688 371.333" stroke="#231F20" stroke-width="2.5" stroke-miterlimit="10"/>
<path d="M174.109 388.113C174.109 388.113 175.993 380.496 176.52 376.273C177.047 372.049 176.708 369.033 182.245 371.257C187.782 373.482 191.096 376.273 205.786 377.781C220.476 379.289 228.875 376.989 228.875 376.989" stroke="#231F20" stroke-width="2.5" stroke-miterlimit="10"/>
<path d="M225.937 395.541C225.937 395.541 228.461 387.585 228.348 380.383C228.272 373.218 235.429 375.895 239.082 376.8C242.736 377.705 266.352 382.117 278.593 371.898" stroke="#231F20" stroke-width="2.5" stroke-miterlimit="10"/>
<path d="M281.945 385.85C281.945 385.85 283.64 377.781 281.945 370.503" stroke="#231F20" stroke-width="2.5" stroke-miterlimit="10"/>
<path d="M330.195 354.062C310.044 373.671 284.432 368.052 284.432 368.052" stroke="#231F20" stroke-width="2.5" stroke-miterlimit="10"/>
<path d="M330.986 371.333C330.986 371.333 332.191 358.399 330.195 354.213C330.195 354.213 357.992 358.625 377.201 340.752C377.201 340.752 413.624 345.918 432.231 319.371C432.231 319.371 440.291 326.008 438.86 338.451" stroke="#231F20" stroke-width="2.5" stroke-miterlimit="10"/>
<path d="M434.001 317.259C434.001 317.259 447.335 321.445 467.561 310.585C467.561 310.585 474.793 307.531 477.844 303.345C480.894 299.122 478.936 296.972 477.844 295.803C476.751 294.634 468.54 288.563 468.54 288.563" stroke="#231F20" stroke-width="2.5" stroke-miterlimit="10"/>
<path d="M429.444 291.053C429.444 291.053 428.351 304.326 439.463 306.211C450.574 308.097 462.476 304.967 464.435 291.053" stroke="#231F20" stroke-width="2.5" stroke-miterlimit="10"/>
<path d="M446 270.632C446 270.632 431.634 267.77 420.675 274.227C417.713 275.989 415.528 278.777 414.677 282.079C413.011 288.463 413.159 300.02 430.338 310" stroke="#231F20" stroke-width="2.5" stroke-miterlimit="10"/>
<path d="M416.034 301.988C416.034 301.988 407.183 282.795 381.834 290.148C381.834 290.148 344.583 300.178 358.03 314.168" stroke="#231F20" stroke-width="2.5" stroke-miterlimit="10"/>
<path d="M412.795 311.565C412.795 311.565 420.931 327.327 393.624 323.67C393.624 323.67 374.452 331.475 370.987 311.565" stroke="#231F20" stroke-width="2.5" stroke-miterlimit="10"/>
<path d="M376.787 334.152C376.787 334.152 416.675 337.584 427.259 314.167" stroke="#231F20" stroke-width="2.5" stroke-miterlimit="10"/>
<path d="M350.949 312.923C350.949 312.923 371.815 327.365 374.565 335.585" stroke="#231F20" stroke-width="2.5" stroke-miterlimit="10"/>
<path d="M330.458 348.331C330.458 348.331 354.677 353.723 371.401 336.98" stroke="#231F20" stroke-width="2.5" stroke-miterlimit="10"/>
<path d="M335.242 344.22C335.242 344.22 327.784 343.089 326.127 336.98C324.47 330.872 328.538 326.535 331.212 325.178" stroke="#231F20" stroke-width="2.5" stroke-miterlimit="10"/>
<path d="M347.71 316.543C347.71 316.543 337.314 311.113 328.237 319.371C319.159 327.629 319.461 343.014 326.542 346.521" stroke="#231F20" stroke-width="2.5" stroke-miterlimit="10"/>
<path d="M286.089 362.396C286.089 362.396 309.893 367.788 322.775 351.838" stroke="#231F20" stroke-width="2.5" stroke-miterlimit="10"/>
<path d="M281.343 360.397C281.343 360.397 272.567 346.068 286.089 335.322C286.089 335.322 296.372 327.064 310.345 336.981" stroke="#231F20" stroke-width="2.5" stroke-miterlimit="10"/>
<path d="M230.042 367.487C230.042 367.487 255.09 380.383 277.576 364.696" stroke="#231F20" stroke-width="2.5" stroke-miterlimit="10"/>
<path d="M180.287 363.641C180.287 363.641 197.726 377.065 227.444 367.939" stroke="#231F20" stroke-width="2.5" stroke-miterlimit="10"/>
<path d="M136.143 346.86C136.143 346.86 150.38 368.09 177.688 363.603" stroke="#231F20" stroke-width="2.5" stroke-miterlimit="10"/>
<path d="M98.2134 314.846C98.2134 314.846 102.244 341.392 130.982 344.484" stroke="#231F20" stroke-width="2.5" stroke-miterlimit="10"/>
<path d="M87.8176 283.473C87.8176 283.473 75.6516 283.623 77.4972 292.975C79.3428 302.327 83.4484 304.627 83.4484 304.627C83.4484 304.627 87.4786 307.945 94.1454 307.229" stroke="#231F20" stroke-width="2.5" stroke-miterlimit="10"/>
<path d="M105.859 277.704C105.859 277.704 109.626 274.499 115.389 273.744C121.152 272.99 121.83 277.779 122.959 280.72C124.089 283.624 125.784 289.016 122.169 294.484C118.553 299.952 112.79 305.759 112.79 305.759C112.79 305.759 117.046 301.498 123.524 299.16C130.003 296.822 132.489 299.348 135.314 301.837C138.139 304.326 142.056 307.191 143.977 309.906C143.977 309.906 146.877 313.904 145.22 320.54C143.562 327.177 137.461 338.263 137.461 338.263C137.461 338.263 144.391 326.423 152.828 321.935C152.828 321.935 156.105 319.635 162.019 322.388C167.932 325.14 170.87 326.423 174.034 328.044C177.198 329.665 181.228 331.815 181.944 340.714C182.659 349.613 180.964 355.571 180.964 355.571C180.964 355.571 185.898 344.108 191.36 337.924C196.821 331.739 200.475 332.682 205.334 333.776C210.155 334.869 213.055 335.133 215.805 335.397C218.554 335.661 224.393 336.415 226.2 342.335C228.008 348.255 227.443 356.928 227.443 356.928C227.443 356.928 227.067 349.726 230.155 344.485C233.244 339.243 235.466 337.358 242.095 338.037C248.724 338.715 251.775 339.168 257.199 338.979C262.623 338.791 265.373 340.337 267.067 341.921C268.762 343.504 274.036 349.311 274.601 353.497C274.601 353.497 273.245 346.257 274.337 342.335" stroke="#231F20" stroke-width="2.5" stroke-miterlimit="10"/>
<path d="M133.996 294.861C133.996 294.861 142.772 301.423 145.936 304.515C149.099 307.607 149.89 308.738 150.757 311.491C151.623 314.243 151.171 317.486 151.171 317.486C151.171 317.486 158.704 313.942 166.011 317.486C173.318 321.031 177.085 322.916 179.985 325.028C182.885 327.102 186.313 330.684 186.351 336.642C186.351 336.642 189.778 330.005 196.294 327.441" stroke="#231F20" stroke-width="2.5" stroke-miterlimit="10"/>
</g>
<defs>
<clipPath id="clip0_22117_7001">
<rect width="426" height="283" fill="white" transform="translate(60 131)"/>
</clipPath>
</defs>
</svg>
