<svg width="545" height="545" viewBox="0 0 545 545" fill="none" xmlns="http://www.w3.org/2000/svg">
<rect width="545" height="545" fill="white"/>
<g clip-path="url(#clip0_22129_7332)">
<path d="M105.242 174.473C105.242 174.473 106.763 171.775 105.242 162.858C103.721 153.941 101.381 133.644 124.314 116.749C124.314 116.749 142.683 106.307 165.148 115.106C165.148 115.106 190.07 126.722 183.401 149.131C183.401 149.131 180.359 154.293 179.423 159.456C178.487 164.618 178.136 170.602 174.041 177.524C169.945 184.446 165.85 192.072 165.265 199.229C164.68 206.504 165.85 209.789 161.638 219.058C157.426 228.444 157.075 231.377 156.373 239.942C155.671 248.389 153.448 256.015 153.331 258.949C153.214 261.882 152.863 268.452 152.746 272.793C152.629 277.134 150.289 285.347 156.139 291.8C161.989 298.253 163.159 299.074 166.552 307.756C169.945 316.439 172.402 325.707 184.688 333.568C196.856 341.429 206.334 346.826 216.864 346.474C216.864 346.474 222.598 347.882 227.98 345.653C233.362 343.424 238.51 339.552 250.328 341.077C262.262 342.602 268.931 339.787 276.42 338.496C283.908 337.088 290.226 336.032 292.332 334.155C294.555 332.278 300.055 327.702 304.618 325.121C309.181 322.54 318.658 320.545 324.275 313.74C329.774 306.935 336.092 302.829 345.101 299.661C354.228 296.376 363.822 294.029 371.895 282.766C380.086 271.503 395.647 256.25 410.039 256.25C424.431 256.25 435.078 261.882 444.906 272.324C454.735 282.766 460.702 295.554 459.298 304.941C457.894 314.327 453.214 324.299 445.14 329.11C436.95 333.92 432.621 336.149 428.409 341.781C424.197 347.413 420.218 351.871 410.741 353.396C401.264 354.922 397.285 354.335 397.285 354.335C397.285 354.335 396.466 357.151 397.052 359.497C397.637 361.844 396.232 365.598 392.488 368.532C388.744 371.465 385.936 374.985 383.245 377.8C380.554 380.616 378.214 381.672 372.363 382.493C366.513 383.315 364.524 382.963 362.184 383.901C359.844 384.84 356.1 385.075 353.994 382.845C353.994 382.845 355.749 389.298 351.303 393.405C346.856 397.511 343.814 400.562 342.059 403.143C340.304 405.724 337.847 408.892 332.348 409.479C326.849 410.065 319.243 411.942 315.148 411.121C315.148 411.121 312.223 411.356 308.947 408.657C308.947 408.657 307.543 410.535 307.894 413.585C308.362 416.635 307.075 419.921 303.565 421.915C300.055 423.91 298.066 425.787 293.385 428.251C288.705 430.715 287.184 432.123 279.696 431.067C272.207 430.011 272.09 428.603 267.995 428.603C267.995 428.603 263.081 428.837 259.571 426.608L256.88 424.496C256.88 424.496 256.763 431.301 250.913 432.24C245.062 433.179 235.117 434.586 229.618 432.24C224.119 429.893 218.736 430.363 214.992 424.848C214.992 424.848 211.599 434.586 198.144 429.541C184.571 424.496 172.637 418.747 167.722 414.172C162.808 409.596 161.521 410.3 160.117 406.663C160.117 406.663 147.598 404.434 136.716 392.936C125.718 381.438 119.984 372.521 119.282 360.671C119.282 360.671 112.847 356.33 110.741 353.279C108.635 350.229 103.253 342.25 102.668 332.512L102.2 323.244C102.2 323.244 90.2652 314.327 88.7441 299.778C87.2231 285.23 90.1482 280.302 90.7332 275.609C91.3182 270.916 90.3822 268.687 87.4571 257.658C87.4571 257.658 83.947 245.339 86.9891 236.774C89.9142 227.857 93.5413 223.633 92.6053 216.828C91.6693 210.023 91.4353 200.989 93.5413 195.123C95.6474 189.257 101.03 181.865 102.551 179.049C104.072 176.233 105.242 174.473 105.242 174.473Z" stroke="#231F20" stroke-width="2.5" stroke-miterlimit="10"/>
<path d="M112.613 169.076C112.613 169.076 108.284 170.249 105.593 173.417" stroke="#231F20" stroke-width="2.5" stroke-miterlimit="10"/>
<path d="M95.4135 216.359C95.4135 216.359 93.4244 218.119 92.7224 220.466" stroke="#231F20" stroke-width="2.5" stroke-miterlimit="10"/>
<path d="M97.6366 260.475C97.6366 260.475 98.1046 262.469 95.9985 265.754C93.8925 269.039 91.4354 269.978 90.8503 272.559" stroke="#231F20" stroke-width="2.5" stroke-miterlimit="10"/>
<path d="M106.763 307.756C106.763 307.756 102.785 316.086 102.083 323.008" stroke="#231F20" stroke-width="2.5" stroke-miterlimit="10"/>
<path d="M128.877 341.664C128.877 341.664 120.92 352.106 119.165 360.554" stroke="#231F20" stroke-width="2.5" stroke-miterlimit="10"/>
<path d="M161.17 383.783C161.17 383.783 156.49 398.214 160.117 406.545" stroke="#231F20" stroke-width="2.5" stroke-miterlimit="10"/>
<path d="M209.961 400.209C209.961 400.209 210.078 418.043 214.992 424.026" stroke="#231F20" stroke-width="2.5" stroke-miterlimit="10"/>
<path d="M248.689 393.17C248.689 393.17 251.732 415.931 256.88 424.848" stroke="#231F20" stroke-width="2.5" stroke-miterlimit="10"/>
<path d="M302.161 386.014C302.161 386.014 303.331 389.181 303.799 393.64C304.267 398.098 303.799 404.199 308.947 408.423" stroke="#231F20" stroke-width="2.5" stroke-miterlimit="10"/>
<path d="M344.048 352.928C344.048 352.928 348.261 354.218 349.08 361.61C349.899 369.001 350.25 375.572 353.409 381.79" stroke="#231F20" stroke-width="2.5" stroke-miterlimit="10"/>
<path d="M378.331 323.127C378.331 323.127 380.905 330.049 384.532 334.156C388.159 338.262 390.265 341.195 392.722 343.894C395.062 346.592 397.637 351.051 397.169 354.101" stroke="#231F20" stroke-width="2.5" stroke-miterlimit="10"/>
<path d="M416.591 310.338C416.591 310.338 421.74 313.036 426.42 320.428C431.1 327.82 432.621 336.971 432.621 336.971" stroke="#231F20" stroke-width="2.5" stroke-miterlimit="10"/>
<path d="M138.237 189.844C150.127 189.844 159.766 180.179 159.766 168.256C159.766 156.333 150.127 146.668 138.237 146.668C126.347 146.668 116.708 156.333 116.708 168.256C116.708 180.179 126.347 189.844 138.237 189.844Z" stroke="#231F20" stroke-width="2.5" stroke-miterlimit="10"/>
<path d="M120.452 234.897C132.343 234.897 141.981 225.232 141.981 213.309C141.981 201.386 132.343 191.721 120.452 191.721C108.562 191.721 98.9236 201.386 98.9236 213.309C98.9236 225.232 108.562 234.897 120.452 234.897Z" stroke="#231F20" stroke-width="2.5" stroke-miterlimit="10"/>
<path d="M134.844 333.921C147.122 333.921 157.075 324.938 157.075 313.858C157.075 302.777 147.122 293.795 134.844 293.795C122.566 293.795 112.613 302.777 112.613 313.858C112.613 324.938 122.566 333.921 134.844 333.921Z" stroke="#231F20" stroke-width="2.5" stroke-miterlimit="10"/>
<path d="M242.254 383.784C254.532 383.784 264.485 374.801 264.485 363.721C264.485 352.641 254.532 343.658 242.254 343.658C229.977 343.658 220.023 352.641 220.023 363.721C220.023 374.801 229.977 383.784 242.254 383.784Z" stroke="#231F20" stroke-width="2.5" stroke-miterlimit="10"/>
<path d="M318.541 367.124C330.819 367.124 340.772 358.141 340.772 347.061C340.772 335.98 330.819 326.998 318.541 326.998C306.264 326.998 296.311 335.98 296.311 347.061C296.311 358.141 306.264 367.124 318.541 367.124Z" stroke="#231F20" stroke-width="2.5" stroke-miterlimit="10"/>
<path d="M392.137 314.561C404.157 314.561 413.9 305.579 413.9 294.498C413.9 283.418 404.157 274.436 392.137 274.436C380.118 274.436 370.375 283.418 370.375 294.498C370.375 305.579 380.118 314.561 392.137 314.561Z" stroke="#231F20" stroke-width="2.5" stroke-miterlimit="10"/>
<path d="M392.488 308.812C400.953 308.812 407.816 302.194 407.816 294.029C407.816 285.865 400.953 279.246 392.488 279.246C384.023 279.246 377.161 285.865 377.161 294.029C377.161 302.194 384.023 308.812 392.488 308.812Z" stroke="#231F20" stroke-width="2.5" stroke-miterlimit="10"/>
<path d="M393.424 308.813C398.271 308.813 402.2 305.031 402.2 300.365C402.2 295.7 398.271 291.918 393.424 291.918C388.578 291.918 384.649 295.7 384.649 300.365C384.649 305.031 388.578 308.813 393.424 308.813Z" stroke="#231F20" stroke-width="2.5" stroke-miterlimit="10"/>
<path d="M394.477 306.818C397.644 306.818 400.211 304.349 400.211 301.303C400.211 298.258 397.644 295.789 394.477 295.789C391.311 295.789 388.744 298.258 388.744 301.303C388.744 304.349 391.311 306.818 394.477 306.818Z" stroke="#231F20" stroke-width="2.5" stroke-miterlimit="10"/>
<path d="M318.307 360.554C326.773 360.554 333.635 353.673 333.635 345.184C333.635 336.696 326.773 329.814 318.307 329.814C309.842 329.814 302.98 336.696 302.98 345.184C302.98 353.673 309.842 360.554 318.307 360.554Z" stroke="#231F20" stroke-width="2.5" stroke-miterlimit="10"/>
<path d="M319.828 360.553C324.481 360.553 328.253 356.771 328.253 352.106C328.253 347.44 324.481 343.658 319.828 343.658C315.176 343.658 311.404 347.44 311.404 352.106C311.404 356.771 315.176 360.553 319.828 360.553Z" stroke="#231F20" stroke-width="2.5" stroke-miterlimit="10"/>
<path d="M319.711 357.385C322.555 357.385 324.86 355.074 324.86 352.223C324.86 349.372 322.555 347.061 319.711 347.061C316.868 347.061 314.563 349.372 314.563 352.223C314.563 355.074 316.868 357.385 319.711 357.385Z" stroke="#231F20" stroke-width="2.5" stroke-miterlimit="10"/>
<path d="M241.435 374.516C249.513 374.516 256.061 368.632 256.061 361.375C256.061 354.118 249.513 348.234 241.435 348.234C233.358 348.234 226.81 354.118 226.81 361.375C226.81 368.632 233.358 374.516 241.435 374.516Z" stroke="#231F20" stroke-width="2.5" stroke-miterlimit="10"/>
<path d="M241.903 374.516C246.814 374.516 250.796 371.889 250.796 368.65C250.796 365.41 246.814 362.783 241.903 362.783C236.992 362.783 233.011 365.41 233.011 368.65C233.011 371.889 236.992 374.516 241.903 374.516Z" stroke="#231F20" stroke-width="2.5" stroke-miterlimit="10"/>
<path d="M241.903 374.397C244.94 374.397 247.403 372.769 247.403 370.76C247.403 368.751 244.94 367.123 241.903 367.123C238.866 367.123 236.404 368.751 236.404 370.76C236.404 372.769 238.866 374.397 241.903 374.397Z" stroke="#231F20" stroke-width="2.5" stroke-miterlimit="10"/>
<path d="M134.844 325.591C143.309 325.591 150.172 319.182 150.172 311.277C150.172 303.371 143.309 296.963 134.844 296.963C126.379 296.963 119.516 303.371 119.516 311.277C119.516 319.182 126.379 325.591 134.844 325.591Z" stroke="#231F20" stroke-width="2.5" stroke-miterlimit="10"/>
<path d="M138.237 179.635C146.121 179.635 152.512 172.859 152.512 164.5C152.512 156.141 146.121 149.365 138.237 149.365C130.354 149.365 123.963 156.141 123.963 164.5C123.963 172.859 130.354 179.635 138.237 179.635Z" stroke="#231F20" stroke-width="2.5" stroke-miterlimit="10"/>
<path d="M118.697 227.388C128.067 227.388 135.663 219.404 135.663 209.554C135.663 199.705 128.067 191.721 118.697 191.721C109.327 191.721 101.732 199.705 101.732 209.554C101.732 219.404 109.327 227.388 118.697 227.388Z" stroke="#231F20" stroke-width="2.5" stroke-miterlimit="10"/>
<path d="M136.95 173.653C141.344 173.653 144.906 169.871 144.906 165.205C144.906 160.54 141.344 156.758 136.95 156.758C132.556 156.758 128.994 160.54 128.994 165.205C128.994 169.871 132.556 173.653 136.95 173.653Z" stroke="#231F20" stroke-width="2.5" stroke-miterlimit="10"/>
<path d="M119.516 224.807C124.363 224.807 128.292 221.025 128.292 216.36C128.292 211.694 124.363 207.912 119.516 207.912C114.67 207.912 110.741 211.694 110.741 216.36C110.741 221.025 114.67 224.807 119.516 224.807Z" stroke="#231F20" stroke-width="2.5" stroke-miterlimit="10"/>
<path d="M134.844 324.651C139.69 324.651 143.619 320.869 143.619 316.203C143.619 311.538 139.69 307.756 134.844 307.756C129.997 307.756 126.069 311.538 126.069 316.203C126.069 320.869 129.997 324.651 134.844 324.651Z" stroke="#231F20" stroke-width="2.5" stroke-miterlimit="10"/>
<path d="M134.844 321.015C137.623 321.015 139.875 318.862 139.875 316.205C139.875 313.548 137.623 311.395 134.844 311.395C132.065 311.395 129.813 313.548 129.813 316.205C129.813 318.862 132.065 321.015 134.844 321.015Z" stroke="#231F20" stroke-width="2.5" stroke-miterlimit="10"/>
<path d="M136.95 170.603C139.729 170.603 141.981 168.186 141.981 165.206C141.981 162.225 139.729 159.809 136.95 159.809C134.171 159.809 131.919 162.225 131.919 165.206C131.919 168.186 134.171 170.603 136.95 170.603Z" stroke="#231F20" stroke-width="2.5" stroke-miterlimit="10"/>
<path d="M119.516 224.807C122.941 224.807 125.718 221.865 125.718 218.236C125.718 214.608 122.941 211.666 119.516 211.666C116.092 211.666 113.315 214.608 113.315 218.236C113.315 221.865 116.092 224.807 119.516 224.807Z" stroke="#231F20" stroke-width="2.5" stroke-miterlimit="10"/>
<path d="M117.644 174.59C117.644 174.59 117.878 182.92 112.028 193.127" stroke="#231F20" stroke-width="2.5" stroke-miterlimit="10"/>
<path d="M147.481 187.73C147.481 187.73 143.97 190.898 143.151 195.239C142.332 199.698 140.343 204.86 140.343 204.86" stroke="#231F20" stroke-width="2.5" stroke-miterlimit="10"/>
<path d="M107.465 230.555C107.465 230.555 112.028 241.583 112.496 253.551C112.964 265.518 110.741 287.223 116.708 302.007" stroke="#231F20" stroke-width="2.5" stroke-miterlimit="10"/>
<path d="M129.813 232.785C129.813 232.785 126.771 235.718 127.824 243.11C128.877 250.384 130.398 254.96 129.462 262.821C128.526 270.682 126.654 275.727 129.111 281.358C131.451 286.873 134.025 293.795 134.025 293.795" stroke="#231F20" stroke-width="2.5" stroke-miterlimit="10"/>
<path d="M155.086 322.305C155.086 322.305 163.276 334.272 170.179 339.904C177.083 345.535 180.593 350.932 193.346 353.396C206.1 355.86 212.886 356.447 223.065 353.396" stroke="#231F20" stroke-width="2.5" stroke-miterlimit="10"/>
<path d="M137.769 333.803C137.769 333.803 151.108 342.133 159.181 353.866C167.371 365.598 171.232 366.068 179.306 367.123C187.379 368.297 195.803 369.118 205.866 371.582C215.928 374.046 224.236 376.744 227.746 378.973" stroke="#231F20" stroke-width="2.5" stroke-miterlimit="10"/>
<path d="M256.412 348.234C256.412 348.234 261.209 353.044 274.548 348.234C287.886 343.424 298.3 338.73 298.3 338.73" stroke="#231F20" stroke-width="2.5" stroke-miterlimit="10"/>
<path d="M260.156 375.689C260.156 375.689 267.527 376.041 274.197 368.649C280.866 361.14 299.821 362.196 304.735 362.783" stroke="#231F20" stroke-width="2.5" stroke-miterlimit="10"/>
<path d="M323.221 327.467C323.221 327.467 350.132 316.673 369.789 292.973" stroke="#231F20" stroke-width="2.5" stroke-miterlimit="10"/>
<path d="M340.655 344.479C340.655 344.479 347.793 327.936 360.546 318.902C373.3 309.868 382.309 312.449 382.309 312.449" stroke="#231F20" stroke-width="2.5" stroke-miterlimit="10"/>
</g>
<defs>
<clipPath id="clip0_22129_7332">
<rect width="377" height="325" fill="white" transform="translate(84 110)"/>
</clipPath>
</defs>
</svg>
