<svg width="545" height="545" viewBox="0 0 545 545" fill="none" xmlns="http://www.w3.org/2000/svg">
<rect width="545" height="545" fill="white"/>
<path d="M84.8038 259.017C81.9801 256.092 73.2739 248.684 66.0736 258.498C66.0736 258.498 61.6028 267.935 69.2267 278.694C76.2387 288.602 84.3802 299.502 91.0629 293.746C92.0982 292.849 92.3806 291.386 91.8629 290.112C90.4981 286.762 87.7216 278.316 85.9332 261.33C85.7921 260.433 85.4156 259.631 84.8038 259.017Z" stroke="#020202" stroke-width="2.625" stroke-miterlimit="10"/>
<path d="M110.687 267.889C110.687 267.889 102.075 252.979 93.2277 255.762C84.3802 258.546 85.5567 263.359 87.3451 272.372C89.1334 281.384 91.1099 293.793 98.4043 302.24C105.699 310.686 110.593 310.874 115.629 305.59" stroke="#020202" stroke-width="2.625" stroke-miterlimit="10"/>
<path d="M130.782 272.937C130.782 272.937 118.735 253.591 110.781 268.36C101.558 285.535 115.911 309.836 121.276 312.997C126.641 316.158 132.241 315.262 134.924 310.308" stroke="#020202" stroke-width="2.625" stroke-miterlimit="10"/>
<path d="M167.113 277.939C167.113 277.939 154.266 253.025 143.159 253.403C132.1 253.733 130.735 266.945 130.641 277.939C130.547 289.216 131.3 301.956 136.006 314.696C140.712 327.436 152.572 330.597 165.984 321.443" stroke="#020202" stroke-width="2.625" stroke-miterlimit="10"/>
<path d="M190.455 334.231C190.267 334.278 190.126 334.325 189.938 334.372C187.491 334.939 167.819 338.713 164.478 309.128C160.901 277.562 173.419 265.246 178.784 259.395C184.149 253.545 196.244 256.847 202.268 265.765C205.044 269.823 207.256 274.259 208.903 277.845C210.833 282.091 211.445 286.763 210.692 291.387C209.515 298.417 208.291 309.931 210.786 317.716C214.315 328.804 193.138 333.665 190.455 334.231Z" stroke="#020202" stroke-width="2.625" stroke-miterlimit="10"/>
<path d="M248.952 253.308C245.469 251.515 241.375 251.468 237.846 253.12C230.222 256.753 216.527 265.86 211.868 286.055C207.256 306.061 210.974 319.792 214.88 327.766C216.998 332.06 221.374 334.797 226.175 334.797H256.858C261.705 334.797 266.176 332.013 268.247 327.578C271.965 319.603 276.153 305.306 271.729 286.055C267.023 265.624 255.87 256.895 248.952 253.308Z" stroke="#020202" stroke-width="2.625" stroke-miterlimit="10"/>
<path d="M242.552 248.448C239.54 246.466 235.822 246.042 232.434 247.268C225.092 249.864 211.774 256.941 205.656 274.919C199.585 292.802 201.703 305.683 204.526 313.327C206.079 317.48 209.797 320.358 214.174 320.83L242.222 323.708C246.646 324.18 250.975 322.009 253.281 318.187C257.423 311.251 262.599 298.559 260.294 280.534C257.893 261.377 248.528 252.364 242.552 248.448Z" fill="white" stroke="#020202" stroke-width="2.625" stroke-miterlimit="10"/>
<path d="M310.461 255.432C305.472 252.081 298.884 252.081 293.895 255.432C286.413 260.433 276.577 270.814 273.659 291.481C268.718 326.115 281.471 336.542 281.471 336.542H326.085C326.085 336.542 336.815 333.853 336.485 299.88C336.25 276.334 320.249 262.037 310.461 255.432Z" stroke="#020202" stroke-width="2.625" stroke-miterlimit="10"/>
<path d="M332.767 325.077C332.767 325.077 336.673 335.127 357.05 334.797C377.381 334.466 379.875 322.812 381.663 315.64C383.452 308.467 380.534 272.796 370.463 263.595C360.392 254.394 352.58 255.432 344.297 265.671C336.014 275.91 335.12 287.423 335.12 287.423" stroke="#020202" stroke-width="2.625" stroke-miterlimit="10"/>
<path d="M378.04 280.44C378.04 280.44 383.405 261.802 399.264 257.319C415.124 252.837 413.571 275.485 413.571 281.761C413.571 288.037 413.571 326.162 398.135 328.191C382.699 330.22 378.887 322.576 378.887 322.576" stroke="#020202" stroke-width="2.625" stroke-miterlimit="10"/>
<path d="M413.382 273.975C413.382 273.975 416.724 265.246 426.136 262.085C435.548 258.923 436.442 269.918 436.63 275.533C436.866 281.148 433.948 308.515 425.006 314.319C416.065 320.17 410.465 310.733 410.465 310.733" stroke="#020202" stroke-width="2.625" stroke-miterlimit="10"/>
<path d="M435.783 267.228C435.783 267.228 442.701 259.112 448.96 256.753C455.219 254.441 460.349 256.659 459.455 269.446C458.561 282.233 453.619 296.341 446.278 305.307C438.936 314.272 431.501 303.938 431.501 303.938" stroke="#020202" stroke-width="2.625" stroke-miterlimit="10"/>
<path d="M459.031 261.518C459.031 261.518 463.502 252.411 473.338 254.676C483.174 256.941 481.856 268.36 479.832 274.636C477.809 280.911 469.338 291.716 463.738 294.736C458.137 297.756 453.667 291.716 453.667 291.716" stroke="#020202" stroke-width="2.625" stroke-miterlimit="10"/>
<path d="M244.199 255.951C244.199 255.951 264.67 279.685 251.587 311.96Z" fill="white"/>
<path d="M244.199 255.951C244.199 255.951 264.67 279.685 251.587 311.96" stroke="#020202" stroke-width="2.625" stroke-miterlimit="10"/>
<path d="M305.345 206H297.268V232.131H305.345V206Z" fill="#231F20"/>
<path d="M301.35 246.95C298.832 240.023 294.403 231.342 289.8 225.993L301.35 230.202L312.9 225.993C308.211 231.429 303.868 240.023 301.35 246.95Z" fill="#231F20"/>
</svg>
