<svg width="24" height="24" viewBox="0 0 24 24" fill="none" xmlns="http://www.w3.org/2000/svg">
<path d="M18.8057 9.80664L18.8084 9.80702L19.5141 5.22114C19.5468 5.00933 19.5631 4.79533 19.5629 4.58102C19.5629 2.26202 17.6759 0.375017 15.3569 0.375017H14.7797C13.7744 0.375017 12.8226 0.724517 12.0629 1.36614C11.3039 0.723522 10.3409 0.372162 9.34637 0.375017H8.76925C6.44988 0.375017 4.56288 2.26202 4.5625 4.58139C4.5625 4.79439 4.579 5.01002 4.61162 5.22189L5.31737 9.80739L5.32 9.80702C5.38862 10.9515 7.45975 11.4968 8.662 11.7165C8.6203 11.9957 8.52382 12.2638 8.37812 12.5055C8.23241 12.7472 8.04036 12.9578 7.813 13.125H6.06325C6.00077 13.125 5.93927 13.1406 5.88435 13.1704C5.82943 13.2002 5.78283 13.2432 5.74881 13.2956C5.71478 13.348 5.6944 13.4081 5.68952 13.4704C5.68464 13.5327 5.69542 13.5952 5.72087 13.6523L6.97975 16.4846C7.11812 16.7963 7.18863 17.1274 7.18863 17.469C7.19102 19.3559 7.63024 21.2166 8.47187 22.9054C8.57922 23.1222 8.74519 23.3045 8.95094 23.4317C9.15669 23.5589 9.39398 23.6259 9.63587 23.625C9.98106 23.6246 10.312 23.4873 10.5561 23.2432C10.8002 22.9991 10.9375 22.6682 10.9379 22.323C10.9379 20.9753 11.0864 19.6241 11.3785 18.3079L11.5161 17.6884C11.5433 17.5638 11.6124 17.4522 11.7119 17.3724C11.8114 17.2926 11.9353 17.2494 12.0629 17.25C12.3276 17.25 12.5522 17.4304 12.6096 17.6884L12.7472 18.3079C13.0398 19.6262 13.1875 20.9726 13.1879 22.323C13.1883 22.6682 13.3256 22.9991 13.5697 23.2432C13.8137 23.4873 14.1447 23.6246 14.4899 23.625C14.7319 23.6259 14.9693 23.5589 15.1751 23.4317C15.381 23.3045 15.5471 23.1222 15.6546 22.9054C16.4965 21.2167 16.9357 19.3559 16.9379 17.469C16.9379 17.1278 17.0084 16.7966 17.1471 16.4846L18.4056 13.6523C18.431 13.5952 18.4417 13.5326 18.4367 13.4704C18.4318 13.4081 18.4114 13.348 18.3773 13.2956C18.3433 13.2432 18.2967 13.2002 18.2418 13.1704C18.1868 13.1406 18.1254 13.125 18.0629 13.125H16.3131C16.0858 12.9578 15.8937 12.7472 15.748 12.5055C15.6023 12.2638 15.5058 11.9957 15.4641 11.7165C16.6664 11.4968 18.7371 10.9515 18.8057 9.80664ZM8.76925 1.12502H9.34637C10.2723 1.12502 11.143 1.48539 11.7977 2.14014C11.8681 2.21044 11.9634 2.24994 12.0629 2.24994C12.1623 2.24994 12.2577 2.21044 12.328 2.14014C12.6493 1.81726 13.0314 1.5613 13.4522 1.38705C13.8731 1.21281 14.3243 1.12375 14.7797 1.12502H15.3569C17.2626 1.12502 18.8132 2.67564 18.8132 4.58177C18.8132 4.75614 18.7998 4.93352 18.7731 5.10752L18.2106 8.76264C17.089 7.93052 14.5652 7.50002 12.0629 7.50002C9.5605 7.50002 7.03675 7.93052 5.91512 8.76264L5.35262 5.10752C5.326 4.9334 5.31259 4.75753 5.3125 4.58139C5.31287 2.67564 6.8635 1.12502 8.76925 1.12502ZM16.4616 16.1798C16.2806 16.5853 16.1874 17.0245 16.1879 17.4686C16.1858 19.2392 15.7737 20.9852 14.9838 22.5698C14.9277 22.6804 14.8361 22.769 14.7236 22.8213C14.6112 22.8736 14.4844 22.8865 14.3637 22.858C14.243 22.8296 14.1354 22.7613 14.0581 22.6643C13.9809 22.5672 13.9385 22.447 13.9379 22.323C13.9377 20.9178 13.784 19.5169 13.4792 18.1451L13.3416 17.5256C13.2074 16.9219 12.6816 16.5 12.0629 16.5C11.4441 16.5 10.9184 16.9219 10.7841 17.5256L10.6465 18.1451C10.3418 19.5169 10.188 20.9178 10.1879 22.323C10.1879 22.6275 9.94 22.875 9.63587 22.875C9.53331 22.8754 9.4327 22.8469 9.34547 22.793C9.25823 22.739 9.18787 22.6617 9.14237 22.5698C8.35246 20.9852 7.94031 19.2392 7.93825 17.4686C7.93876 17.0246 7.84561 16.5854 7.66487 16.1798L6.64 13.875H17.4861L16.4616 16.1798ZM8.86412 13.125C9.23613 12.6261 9.43734 12.0205 9.43787 11.3981V10.875C9.43787 10.4614 9.77425 10.125 10.1879 10.125H13.9379C14.3515 10.125 14.6879 10.4614 14.6879 10.875V11.3981C14.6879 12.0311 14.8956 12.6323 15.2616 13.125H8.86412ZM15.4379 10.9594V10.875C15.4379 10.0478 14.7651 9.37502 13.9379 9.37502H10.1879C9.36062 9.37502 8.68787 10.0478 8.68787 10.875V10.9594C6.7855 10.6009 6.06287 10.0395 6.06287 9.75002C6.06287 9.22652 8.1235 8.25002 12.0629 8.25002C16.0022 8.25002 18.0629 9.22652 18.0629 9.75002C18.0629 10.0395 17.3403 10.6009 15.4379 10.9594Z" fill="white"/>
<path d="M8.6875 2.625V1.875C7.24 1.875 6.0625 3.0525 6.0625 4.5H6.8125C6.8125 3.46613 7.65363 2.625 8.6875 2.625Z" fill="white"/>
</svg>
