<svg width="16" height="16" viewBox="0 0 16 16" fill="none" xmlns="http://www.w3.org/2000/svg">
<g clip-path="url(#clip0_21323_38530)">
<path fill-rule="evenodd" clip-rule="evenodd" d="M5.76034 0C6.08701 0 6.40034 0.126667 6.63367 0.36C6.86701 0.586667 7.00034 0.9 7.00701 1.22667H8.61367C8.69367 1.11333 8.80034 1.01333 8.92701 0.946667C9.05367 0.88 9.19367 0.84 9.33367 0.833333L13.5937 0.426667C14.9337 0.293333 15.027 2.96667 13.5937 2.82667L9.33367 2.42667C9.20034 2.42 9.07367 2.38667 8.95367 2.32667C8.83367 2.26667 8.73367 2.18667 8.64701 2.08H7.00034V2.48C7.00034 2.51333 6.987 2.54667 6.96034 2.57333C6.94034 2.6 6.90701 2.61333 6.87367 2.61333H6.18701V3.46667H6.36701C6.48034 3.46667 6.58034 3.52 6.66034 3.6C6.73367 3.67333 6.77367 3.78 6.77367 3.89333C6.77367 4 6.73367 4.10667 6.66034 4.18667C6.58034 4.26667 6.48034 4.31333 6.36701 4.32H5.14701C5.08701 4.32 5.02701 4.31333 4.97367 4.29333C4.92034 4.28 4.86701 4.24667 4.82701 4.20667C4.78701 4.16667 4.74701 4.11333 4.72701 4.06C4.70034 4.00667 4.69367 3.95333 4.69367 3.89333C4.69367 3.83333 4.70701 3.78 4.72701 3.72C4.74701 3.66667 4.78701 3.62 4.82701 3.58C4.86701 3.54 4.92034 3.50667 4.97367 3.48667C5.02701 3.46667 5.08701 3.46 5.14701 3.46H5.32701V2.62H4.64034C4.60701 2.62 4.57367 2.60667 4.54701 2.58C4.52701 2.55333 4.51367 2.52 4.51367 2.48667V1.24667C4.51367 0.913333 4.64701 0.6 4.88034 0.366667C5.11367 0.133333 5.42701 0 5.76034 0ZM8.01367 15.3333C8.00034 15.3333 8.00034 15.3333 8.01367 15.3333V15.3333Z" fill="#00A2B5"/>
<path fill-rule="evenodd" clip-rule="evenodd" d="M3.69275 16.3533C3.55275 16.3399 3.40608 16.2999 3.27942 16.2266C3.17275 16.1666 3.05942 16.0733 2.97942 15.9733C2.67275 15.6199 2.49275 14.9933 2.39942 14.5399C2.27942 13.8999 2.21275 13.2466 2.19275 12.6066C2.15942 11.9599 2.15942 11.1933 2.19275 10.3466C2.02608 9.95994 1.87275 9.54661 1.72608 9.09328C1.57275 8.61328 1.45942 8.11994 1.39942 7.63327C1.33275 7.23994 1.31275 6.82661 1.35942 6.41994C1.43275 5.90661 1.67942 5.44661 2.05275 5.10661C2.38608 4.77994 2.83275 4.56661 3.32608 4.49994C3.46608 4.48661 3.59942 4.47327 3.73275 4.47327C4.10608 4.47327 4.47275 4.53327 4.81942 4.65327C5.08608 4.73994 5.26608 4.79994 5.41942 4.85328C5.59942 4.93327 5.75275 4.97327 5.89942 4.98661C5.95275 4.98661 6.17275 4.90661 6.51275 4.78661L6.83942 4.66661C7.24608 4.51327 7.68608 4.43994 8.13942 4.43994C8.54608 4.43994 8.95275 4.55327 9.32608 4.75994C9.78608 5.02661 10.1128 5.45328 10.2661 5.95328C10.3794 6.37328 10.4194 6.79994 10.3794 7.22661C10.3461 7.79328 10.2394 8.36661 10.0728 8.92661C9.91275 9.42661 9.71275 9.90661 9.47942 10.3399C9.58608 11.0733 9.63275 11.8333 9.61275 12.5999C9.59275 13.2266 9.51275 13.8733 9.37942 14.5199C9.22608 15.1866 9.02608 15.6733 8.77942 15.9599C8.71275 16.0466 8.60608 16.1466 8.47942 16.2133C8.35942 16.2799 8.22608 16.3266 8.07942 16.3399C8.07275 16.3399 8.06608 16.3399 8.05942 16.3399C7.86608 16.3399 7.72608 16.3066 7.60608 16.2399C7.49275 16.1799 7.37275 16.0866 7.27942 15.9733C7.04608 15.6933 6.86608 15.2133 6.74608 14.5199C6.71275 14.3466 6.68608 14.1266 6.67942 14.0333L6.67275 13.9533C6.55942 12.7599 6.43942 11.9666 5.87275 11.9199C5.50608 12.0133 5.39275 12.1733 5.32608 12.3399C5.18608 12.6533 5.15275 13.1599 5.11275 13.7466L5.08608 14.0933C5.06608 14.2799 5.05275 14.3999 5.03275 14.5133C4.91275 15.2199 4.73942 15.6999 4.49942 15.9933C4.39942 16.1133 4.27942 16.2066 4.15275 16.2666C4.01942 16.3266 3.87275 16.3599 3.72608 16.3599L3.69275 16.3533ZM5.78608 10.5333C7.70608 10.5333 7.89275 12.3466 8.04608 13.8066C8.04608 13.8066 8.05942 13.9933 8.06608 14.0466C8.15942 13.5466 8.21942 13.0466 8.23275 12.5599C8.25275 11.8133 8.19942 11.0599 8.07942 10.3266C8.05275 10.1666 8.07942 10.0066 8.16608 9.86661C8.41275 9.45328 8.61275 9.00661 8.75942 8.52661C8.89942 8.07994 8.97942 7.61328 9.00608 7.13994C9.03275 6.85994 9.01275 6.60661 8.94608 6.34661C8.89942 6.17994 8.78608 6.03328 8.63275 5.95328C8.47275 5.85994 8.29942 5.81328 8.11942 5.81328C7.83275 5.81994 7.55942 5.87327 7.31275 5.96661L6.99275 6.07994C6.47275 6.26661 6.18608 6.35994 5.85942 6.35994C5.57275 6.35994 5.34608 6.27994 5.00608 6.16661L4.92608 6.13994C4.79942 6.09327 4.65275 6.03994 4.47275 5.97994L4.39275 5.95994C4.17275 5.88661 3.93942 5.84661 3.70608 5.84661C3.65942 5.84661 3.61942 5.84661 3.57275 5.85327L3.50608 5.86661C3.31942 5.88661 3.13942 5.97327 2.99275 6.10661C2.83942 6.23994 2.74608 6.41994 2.71275 6.61328C2.69275 6.86661 2.70608 7.15327 2.75275 7.43994C2.80608 7.85327 2.89942 8.25994 3.03275 8.68661C3.17942 9.14661 3.33942 9.55328 3.50608 9.92661C3.55275 10.0333 3.57275 10.1266 3.57275 10.2266C3.53942 11.0466 3.53942 11.8199 3.57275 12.5466C3.58608 13.0399 3.63275 13.5199 3.70608 13.9866L3.72608 13.7133C3.77275 12.9799 3.81275 12.3399 4.04608 11.7933C4.32608 11.1266 4.84608 10.7133 5.64608 10.5399L5.68608 10.5333H5.78608Z" fill="#00A2B5"/>
</g>
<defs>
<clipPath id="clip0_21323_38530">
<rect width="16" height="16" fill="white"/>
</clipPath>
</defs>
</svg>
