<svg width="222" height="187" viewBox="0 0 222 187" fill="none" xmlns="http://www.w3.org/2000/svg">
<path d="M128.895 1.30705C129.41 1.35723 129.923 1.41706 130.434 1.49388C131.45 1.64701 132.464 1.86574 133.428 2.23262C134.339 2.57939 135.211 3.06777 135.906 3.76678C136.071 3.93298 136.222 4.13368 136.357 4.32705C136.502 4.53558 136.617 4.76448 136.71 5.00097C136.899 5.481 137.003 5.99056 137.102 6.4962C137.128 6.6313 137.153 6.76823 137.156 6.90646C137.159 7.01804 137.14 7.12831 137.147 7.24015C137.186 7.87985 137.082 8.53078 136.968 9.15898C136.488 11.8139 135.309 14.2805 134.135 16.6806C131.982 21.0835 129.596 25.7424 125.367 28.1546C123.87 29.0088 122.117 29.5419 120.426 29.2255C117.091 28.6015 115.192 25.0855 113.911 21.9079C111.823 16.7303 110.088 11.1011 111.146 5.61218C111.377 4.4138 111.764 3.19817 112.586 2.30447C114.13 0.625801 116.69 0.547146 118.955 0.633118C122.274 0.75881 125.589 0.98355 128.895 1.30705Z" fill="#F9FAFB"/>
<path d="M186.701 141.852C187.156 144.064 187.906 146.293 189.415 147.957C190.435 149.081 191.751 149.89 193.117 150.538C196.311 152.054 199.877 152.76 203.4 152.574C206.219 152.426 209.054 151.689 211.398 150.098C213.742 148.508 215.549 146.003 215.967 143.178C216.218 141.482 215.974 139.756 215.729 138.059C215.263 134.831 214.798 131.604 214.332 128.377C214.125 126.941 213.91 125.479 213.285 124.174C211.802 121.084 208.222 119.468 204.828 119.44C201.434 119.412 198.173 120.694 195.07 122.086C193.247 122.904 191.424 123.779 189.876 125.051C188.296 126.35 187.094 128.058 186.66 130.09C186.136 132.544 185.998 135.115 186.145 137.618C186.228 139.04 186.414 140.457 186.701 141.852Z" fill="#F9FAFB"/>
<path d="M185.113 116.614C189.269 119.467 194.787 119.965 199.557 118.372C203.112 117.185 206.548 114.495 207.1 110.748C207.521 107.899 206.215 105.124 205.411 102.361C205.114 101.341 204.884 100.304 204.638 99.2711C203.918 96.2404 202.845 92.5075 200.205 90.5926C197.939 88.9492 194.855 88.9717 192.163 89.7063C186.897 91.1437 182.379 95.1523 180.282 100.248C178.582 104.379 178.829 108.724 181.208 112.515C182.115 113.962 183.279 115.248 184.638 116.272C184.794 116.39 184.952 116.503 185.113 116.614Z" fill="#F9FAFB"/>
<path d="M174.03 71.2169C171.568 73.5159 169.756 76.6577 169.538 80.0404C169.32 83.4231 170.895 86.9934 173.812 88.6595C175.548 89.6509 177.587 89.924 179.573 90.0863C182 90.2846 184.471 90.3424 186.839 89.7727C191.067 88.7557 194.787 85.598 196.303 81.4768C197.82 77.3556 196.988 72.3873 194.049 69.147C192.112 67.0103 189.3 65.7392 186.446 65.5976C183.59 65.456 181.033 66.7458 178.56 68.0537C176.931 68.9158 175.384 69.9527 174.03 71.2169Z" fill="#F9FAFB"/>
<path d="M160.61 56.0834C160.049 57.3463 159.552 58.6589 159.404 60.0349C159.255 61.411 159.485 62.8699 160.273 64.0014C160.881 64.8739 161.781 65.5003 162.732 65.9615C165.664 67.3817 169.059 67.336 172.303 67.1348C175.681 66.9255 179.224 66.5165 181.984 64.5342C183.43 63.496 184.589 62.0544 185.3 60.4115C186.106 58.5509 186.331 56.479 186.277 54.4486C186.222 52.3476 185.87 50.2245 184.957 48.3365C184.045 46.4485 182.532 44.8082 180.605 44.0235C179.626 43.6247 178.573 43.4541 177.525 43.3245C176.675 43.2192 175.815 43.1518 174.959 43.2053C174.129 43.2573 173.374 43.4852 172.586 43.734C171.444 44.0943 170.416 44.5626 169.391 45.1963C168.118 45.9834 166.953 46.9429 165.905 48.0153C164.843 49.1013 163.898 50.3023 163.059 51.5721C162.218 52.8449 161.483 54.1878 160.841 55.5735C160.762 55.7426 160.685 55.9127 160.61 56.0834Z" fill="#F9FAFB"/>
<path d="M154.667 29.2026C152.73 32.6919 151.424 36.5133 150.525 40.4108C150.152 42.0234 149.848 43.6981 150.141 45.3272C150.433 46.9562 151.442 48.5468 152.988 49.0885C153.983 49.4374 155.074 49.3229 156.115 49.1612C160.795 48.4337 165.425 46.7717 169.084 43.7295C171.161 42.002 172.953 39.721 173.384 37.0354C173.699 35.0764 173.258 33.0447 172.403 31.2583C171.548 29.472 170.296 27.9086 168.941 26.4732C167.877 25.3456 166.72 24.2706 165.335 23.5865C164.412 23.1299 163.378 22.8624 162.346 22.8976C161.684 22.9201 160.983 22.9687 160.377 23.2656C158.819 24.0291 157.468 25.1852 156.396 26.5513C155.745 27.3818 155.18 28.2789 154.667 29.2026Z" fill="#F9FAFB"/>
<path d="M138.371 10.2184C137.645 11.3681 137.185 12.7727 136.794 14.0913C135.768 17.5432 135.525 21.194 135.642 24.7811C135.765 28.527 135.887 34.1342 140.354 35.3342C141.978 35.7703 143.702 35.2647 145.242 34.5879C150.371 32.3351 154.608 28.0762 156.869 22.9017C158.583 18.9789 157.428 15.0725 154.18 12.3546C152.165 10.6686 149.697 9.64425 147.233 8.75892C145.523 8.14457 143.724 7.57726 141.924 7.81035C140.258 8.02619 139.158 8.97294 138.371 10.2184Z" fill="#F9FAFB"/>
<path d="M91.7671 1.30705C91.253 1.35723 90.7398 1.41706 90.2288 1.49388C89.2124 1.64701 88.1983 1.86574 87.2345 2.23262C86.3234 2.57939 85.4511 3.06777 84.757 3.76678C84.592 3.93298 84.4406 4.13368 84.3061 4.32705C84.161 4.53558 84.046 4.76448 83.9526 5.00097C83.763 5.481 83.6595 5.99056 83.5608 6.4962C83.5345 6.6313 83.5089 6.76823 83.5061 6.90646C83.5037 7.01804 83.5226 7.12831 83.5156 7.24015C83.4758 7.87985 83.5807 8.53078 83.6941 9.15898C84.1736 11.8139 85.353 14.2805 86.5267 16.6806C88.6796 21.0835 91.0657 25.7424 95.2949 28.1546C96.7927 29.0088 98.5454 29.5419 100.236 29.2255C103.571 28.6015 105.47 25.0855 106.751 21.9079C108.84 16.7303 110.574 11.1011 109.516 5.61218C109.285 4.4138 108.898 3.19817 108.076 2.30447C106.532 0.625801 103.972 0.547146 101.707 0.633118C98.3884 0.75881 95.0731 0.98355 91.7671 1.30705Z" fill="#F9FAFB"/>
<path d="M31.7407 167.413C31.1749 170.989 31.188 171.101 30.4748 173.964C30.2442 174.889 30.0547 177.648 29.1263 179.407C27.5216 182.448 23.8257 183.662 20.4975 184.395C17.5135 185.052 14.4227 185.39 11.4039 184.925C3.73028 183.741 1.60473 180.418 0.7732 174.829C0.386875 172.231 0.482413 169.555 0.975391 166.976C2.04966 161.354 2.18911 158.448 5.61568 155.908C8.07851 154.082 11.338 153.777 14.3824 154.01C17.7824 154.27 21.4148 154.704 24.5343 156.095C26.1225 156.803 27.6507 157.649 29.0943 158.624C30.3338 159.461 31.4156 160.876 31.735 162.346C32.0927 163.992 32.0224 165.633 31.7407 167.413Z" fill="#F9FAFB"/>
<path d="M33.9634 141.852C33.5079 144.064 32.7587 146.293 31.2493 147.957C30.2296 149.081 28.9131 149.89 27.5475 150.538C24.3533 152.054 20.7876 152.76 17.2642 152.574C14.4457 152.426 11.61 151.689 9.26625 150.098C6.92247 148.508 5.11532 146.003 4.69723 143.178C4.44622 141.482 4.69102 139.756 4.93583 138.059C5.40118 134.831 5.86679 131.604 6.33214 128.377C6.53925 126.941 6.7541 125.479 7.38007 124.174C8.8621 121.084 12.4426 119.468 15.8366 119.44C19.2307 119.412 22.4922 120.694 25.5949 122.086C27.4173 122.904 29.2405 123.779 30.7881 125.051C32.3688 126.35 33.5709 128.058 34.0045 130.09C34.5285 132.544 34.6664 135.115 34.5197 137.618C34.4363 139.04 34.2509 140.457 33.9634 141.852Z" fill="#F9FAFB"/>
<path d="M35.5475 116.613C31.3909 119.466 25.8734 119.964 21.1035 118.371C17.5485 117.184 14.1124 114.494 13.5598 110.747C13.1397 107.898 14.4453 105.123 15.2495 102.36C15.5462 101.34 15.7765 100.303 16.0218 99.2701C16.7423 96.2394 17.8156 92.5066 20.4556 90.5917C22.7214 88.9483 25.8055 88.9707 28.4971 89.7053C33.7634 91.1428 38.2813 95.1513 40.3782 100.247C42.0784 104.378 41.831 108.723 39.4524 112.514C38.5447 113.961 37.381 115.247 36.0219 116.271C35.8665 116.389 35.7082 116.502 35.5475 116.613Z" fill="#F9FAFB"/>
<path d="M46.6298 71.2169C49.0916 73.5159 50.9042 76.6577 51.1222 80.0404C51.3401 83.4231 49.7649 86.9934 46.8473 88.6595C45.1114 89.6509 43.0728 89.924 41.0862 90.0863C38.6598 90.2846 36.189 90.3424 33.8204 89.7727C29.5923 88.7557 25.8729 85.598 24.3562 81.4768C22.8393 77.3556 23.6719 72.3873 26.6101 69.147C28.5477 67.0103 31.3599 65.7392 34.2132 65.5976C37.069 65.456 39.6264 66.7458 42.0996 68.0537C43.729 68.9158 45.2761 69.9527 46.6298 71.2169Z" fill="#F9FAFB"/>
<path d="M60.0564 56.0834C60.6165 57.3463 61.1136 58.6589 61.2621 60.0349C61.4106 61.411 61.181 62.8699 60.3926 64.0014C59.7847 64.8739 58.885 65.5003 57.9337 65.9615C55.0024 67.3817 51.6068 67.336 48.3628 67.1348C44.9848 66.9255 41.4415 66.5165 38.682 64.5342C37.2363 63.496 36.0769 62.0544 35.3654 60.4115C34.56 58.5509 34.335 56.479 34.3882 54.4486C34.4433 52.3476 34.796 50.2245 35.7083 48.3365C36.6207 46.4485 38.1337 44.8082 40.0605 44.0235C41.0392 43.6247 42.0928 43.4541 43.1402 43.3245C43.9906 43.2192 44.8505 43.1518 45.7071 43.2053C46.5368 43.2573 47.2916 43.4852 48.0798 43.734C49.2217 44.0943 50.2495 44.5626 51.2747 45.1963C52.5481 45.9834 53.7125 46.9429 54.761 48.0153C55.8231 49.1013 56.7677 50.3023 57.6065 51.5721C58.4473 52.8449 59.183 54.1878 59.825 55.5735C59.9035 55.7426 59.9805 55.9127 60.0564 56.0834Z" fill="#F9FAFB"/>
<path d="M65.9905 29.2026C67.9278 32.6919 69.2337 36.5133 70.1331 40.4108C70.5052 42.0234 70.8099 43.6981 70.5171 45.3272C70.2243 46.9565 69.2161 48.5468 67.6698 49.0885C66.6743 49.4374 65.5837 49.3229 64.5425 49.1612C59.8622 48.4337 55.2322 46.7717 51.574 43.7295C49.4967 42.002 47.7048 39.721 47.2736 37.0354C46.9588 35.0764 47.3996 33.0447 48.2549 31.2583C49.1099 29.472 50.3616 27.9086 51.7165 26.4732C52.7807 25.3456 53.9377 24.2706 55.3223 23.5865C56.2461 23.1299 57.2793 22.8624 58.3112 22.8976C58.9741 22.9201 59.6747 22.9687 60.2803 23.2656C61.8385 24.0291 63.1896 25.1852 64.2613 26.5513C64.9123 27.3818 65.4776 28.2789 65.9905 29.2026Z" fill="#F9FAFB"/>
<path d="M82.2922 10.2184C83.0186 11.3681 83.478 12.7727 83.8695 14.0913C84.8947 17.5432 85.1385 21.194 85.0207 24.7811C84.8978 28.527 84.7757 34.1342 80.3089 35.3342C78.6853 35.7703 76.9616 35.2647 75.4207 34.5879C70.2921 32.3351 66.0546 28.0762 63.7937 22.9017C62.0798 18.9789 63.2354 15.0725 66.4836 12.3546C68.4986 10.6686 70.9661 9.64425 73.4299 8.75892C75.1397 8.14457 76.9391 7.57726 78.7388 7.81035C80.4055 8.02619 81.5056 8.97294 82.2922 10.2184Z" fill="#F9FAFB"/>
<path d="M188.915 167.413C189.481 170.989 189.468 171.101 190.181 173.964C190.412 174.889 190.601 177.648 191.53 179.407C193.134 182.448 196.83 183.662 200.158 184.395C203.142 185.052 206.233 185.39 209.252 184.925C216.926 183.741 219.051 180.418 219.883 174.829C220.269 172.231 220.174 169.555 219.681 166.976C218.606 161.354 218.467 158.448 215.04 155.908C212.577 154.082 209.318 153.777 206.274 154.01C202.874 154.27 199.241 154.704 196.122 156.095C194.534 156.803 193.005 157.649 191.562 158.624C190.322 159.461 189.24 160.876 188.921 162.346C188.563 163.992 188.634 165.633 188.915 167.413Z" fill="#F9FAFB"/>
<path d="M122.194 28.9994C121.457 28.9994 120.68 28.8764 119.863 28.603C117.68 27.8732 115.808 25.9392 114.3 22.8554C112.441 19.052 111.269 14.9842 110.817 10.765C110.61 8.8347 110.647 7.2007 110.93 5.76923C111.011 5.35923 111.114 4.95864 111.236 4.57895C111.661 3.252 112.415 2.19238 113.361 1.59501C114.172 1.08232 115.127 0.888683 115.954 0.766912C118.823 0.344107 121.692 0.558908 124.877 0.859417C127.75 1.13092 130.331 1.42072 132.822 2.22243C135.511 3.08816 136.905 4.62155 137.084 6.91091C137.278 9.40279 136.252 11.9075 135.26 14.3293C135.043 14.858 134.838 15.3573 134.647 15.8556C133.524 18.7758 132.323 20.9293 130.361 23.5367C128.374 26.176 125.729 28.9994 122.194 28.9994ZM111.038 5.79092C110.757 7.21089 110.721 8.83418 110.926 10.7527C111.377 14.9591 112.545 19.0141 114.399 22.8058C115.893 25.8621 117.743 27.7767 119.897 28.4972C124.566 30.0575 127.894 26.6299 130.273 23.4693C132.229 20.8708 133.426 18.7249 134.544 15.8152C134.736 15.3158 134.941 14.8156 135.158 14.2862C136.146 11.8764 137.167 9.38449 136.974 6.91927C136.799 4.68034 135.43 3.17858 132.789 2.32827C130.308 1.52969 127.733 1.24068 124.867 0.969962C121.689 0.669713 118.826 0.455699 115.97 0.876675C115.154 0.996879 114.213 1.18738 113.419 1.6891C112.496 2.27261 111.757 3.31107 111.34 4.61319C111.22 4.98896 111.118 5.3851 111.038 5.79092Z" fill="#5B6664"/>
<path d="M31.8471 167.906C31.2794 171.492 31.2926 171.605 30.577 174.477C30.3457 175.405 30.1555 178.171 29.2241 179.936C27.6141 182.985 23.9061 184.203 20.5669 184.938C17.5732 185.598 14.4722 185.936 11.4435 185.469C3.74468 184.282 1.61215 180.949 0.777888 175.344C0.390294 172.738 0.486146 170.054 0.980743 167.467C2.05854 161.829 2.19845 158.915 5.63628 156.367C8.10719 154.536 11.3774 154.23 14.4318 154.463C17.8429 154.724 21.4872 155.159 24.617 156.554C26.2104 157.265 27.7437 158.113 29.192 159.091C30.4356 159.93 31.5209 161.35 31.8414 162.824C32.2002 164.475 32.1298 166.121 31.8471 167.906Z" fill="#07AD94"/>
<path d="M31.3137 167.758C30.916 170.276 30.2784 172.744 29.877 175.252C29.6581 176.621 29.4744 178.059 28.9031 179.333C28.1837 180.939 26.7916 182.052 25.2643 182.823C22.1583 184.39 18.2409 185.058 14.8104 185.124C11.7272 185.183 8.2399 184.637 5.55913 182.984C0.353289 179.774 0.711097 171.946 1.67516 166.748C2.15214 164.177 2.41589 161.261 3.85305 159.011C5.6993 156.121 9.077 155.027 12.3267 154.958C16.4553 154.871 20.9917 155.497 24.7704 157.234C26.6478 158.096 28.9055 159.149 30.2289 160.799C31.7964 162.754 31.6622 165.407 31.3137 167.758C31.2095 168.461 32.2733 168.765 32.3785 168.055C32.6643 166.128 32.8602 164.009 32.2143 162.127C31.6544 160.496 30.4786 159.271 29.0726 158.345C25.408 155.932 21.4567 154.664 17.1346 154.159C13.332 153.714 9.05422 153.405 5.69827 155.645C3.28617 157.255 2.03917 159.606 1.39352 162.395C0.455628 166.448 -0.350903 170.688 0.157167 174.855C0.464444 177.373 1.09169 179.993 2.72912 181.986C4.55543 184.21 7.35797 185.248 10.0843 185.795C14.1701 186.615 18.3435 186.171 22.3405 185.079C25.9757 184.086 29.3467 182.241 30.4045 178.34C30.8693 176.626 31.0753 174.833 31.48 173.101C31.8689 171.436 32.1119 169.744 32.3785 168.055C32.4899 167.352 31.4259 167.049 31.3137 167.758Z" fill="#231F20"/>
<path d="M15.9873 171.425C15.5672 172.114 14.9695 172.426 14.194 172.36C13.8201 172.328 13.4852 172.205 13.1892 171.992C12.8932 171.778 12.6708 171.477 12.5219 171.087C12.3661 170.698 12.3107 170.233 12.3557 169.692C12.4002 169.159 12.5314 168.714 12.7495 168.356C12.9613 167.99 13.2307 167.727 13.5579 167.567C13.885 167.406 14.2355 167.342 14.6094 167.374C14.9971 167.407 15.3315 167.537 15.6125 167.763C15.8871 167.981 16.0905 168.26 16.2226 168.599C16.4009 168.217 16.6658 167.926 17.0171 167.726C17.3616 167.525 17.7554 167.443 18.1985 167.481C18.6485 167.519 19.0371 167.668 19.3643 167.926C19.6914 168.184 19.9315 168.525 20.0844 168.949C20.2373 169.374 20.2921 169.846 20.2488 170.365C20.2056 170.885 20.0734 171.341 19.8525 171.733C19.6321 172.119 19.3392 172.411 18.974 172.61C18.6088 172.809 18.2012 172.89 17.7511 172.851C17.3011 172.813 16.9229 172.666 16.6165 172.409C16.3101 172.153 16.1004 171.825 15.9873 171.425ZM14.6605 168.518C14.2727 168.485 13.9649 168.581 13.737 168.806C13.5091 169.031 13.3776 169.354 13.3424 169.777C13.3078 170.192 13.3842 170.53 13.5717 170.79C13.7593 171.05 14.0503 171.197 14.445 171.23C14.7912 171.26 15.0854 171.16 15.3278 170.929C15.5638 170.691 15.6982 170.375 15.7311 169.98C15.764 169.585 15.6803 169.251 15.4801 168.975C15.2799 168.7 15.0067 168.548 14.6605 168.518ZM16.6242 170.056C16.5862 170.513 16.6693 170.897 16.8735 171.207C17.0714 171.51 17.3815 171.68 17.8039 171.716C18.1985 171.749 18.532 171.638 18.8044 171.382C19.0698 171.126 19.2224 170.759 19.2622 170.281C19.3014 169.81 19.2077 169.429 18.9809 169.138C18.7547 168.84 18.4478 168.674 18.06 168.641C17.6446 168.606 17.3108 168.72 17.0587 168.984C16.8071 169.242 16.6623 169.599 16.6242 170.056Z" fill="white"/>
<path d="M189.537 167.909C190.105 171.495 190.092 171.608 190.807 174.479C191.039 175.407 191.229 178.174 192.16 179.939C193.77 182.988 197.478 184.206 200.817 184.941C203.811 185.601 206.912 185.939 209.941 185.472C217.64 184.285 219.772 180.952 220.606 175.347C220.994 172.741 220.898 170.057 220.403 167.47C219.326 161.832 219.186 158.918 215.748 156.37C213.277 154.539 210.007 154.233 206.952 154.466C203.541 154.727 199.897 155.162 196.767 156.557C195.174 157.267 193.641 158.116 192.192 159.094C190.949 159.933 189.863 161.353 189.543 162.827C189.184 164.478 189.254 166.124 189.537 167.909Z" fill="#F9FAFB"/>
<path d="M189.005 168.056C189.472 171.015 190.122 173.92 190.656 176.863C191.296 180.386 193.09 182.745 196.369 184.161C200.051 185.752 204.517 186.492 208.502 186.193C211.559 185.963 214.929 185.209 217.382 183.242C222.652 179.017 221.544 170.629 220.479 164.844C219.961 162.028 219.407 159.113 217.334 157.004C214.759 154.383 211.11 153.691 207.581 153.868C202.792 154.107 198.161 154.977 193.94 157.358C192.078 158.408 190.256 159.59 189.364 161.635C188.495 163.628 188.694 165.961 189.005 168.056C189.11 168.765 190.174 168.464 190.07 167.76C189.777 165.782 189.589 163.49 190.573 161.671C191.569 159.829 193.557 158.797 195.333 157.867C198.838 156.032 202.602 155.37 206.507 155.059C209.983 154.782 213.669 155.041 216.339 157.583C218.236 159.39 218.801 161.903 219.276 164.396C220.021 168.308 220.661 172.12 219.926 176.094C219.526 178.253 218.803 180.396 217.188 181.94C215.227 183.817 212.393 184.552 209.794 184.932C206.028 185.484 202.044 184.88 198.43 183.738C196.672 183.183 194.881 182.391 193.6 181.009C192.37 179.681 191.957 177.955 191.659 176.213C191.177 173.383 190.519 170.601 190.07 167.76C189.958 167.051 188.894 167.352 189.005 168.056Z" fill="#5B6664"/>
<path d="M204.912 168.434C205.212 167.683 205.749 167.274 206.525 167.208C206.899 167.176 207.249 167.241 207.576 167.401C207.903 167.561 208.173 167.821 208.384 168.179C208.602 168.537 208.734 168.986 208.779 169.527C208.823 170.06 208.767 170.521 208.612 170.911C208.463 171.307 208.241 171.612 207.945 171.826C207.649 172.039 207.314 172.162 206.94 172.194C206.553 172.227 206.202 172.156 205.887 171.981C205.58 171.811 205.333 171.571 205.147 171.259C205.035 171.666 204.822 171.998 204.508 172.255C204.202 172.511 203.827 172.658 203.384 172.696C202.934 172.735 202.527 172.654 202.161 172.455C201.796 172.256 201.503 171.96 201.282 171.568C201.061 171.175 200.929 170.719 200.886 170.2C200.842 169.681 200.897 169.209 201.05 168.784C201.203 168.366 201.444 168.029 201.771 167.771C202.098 167.513 202.487 167.364 202.937 167.326C203.387 167.288 203.784 167.369 204.128 167.57C204.473 167.77 204.734 168.058 204.912 168.434ZM206.701 171.074C207.088 171.041 207.376 170.895 207.563 170.635C207.751 170.374 207.827 170.033 207.792 169.611C207.757 169.195 207.626 168.875 207.398 168.651C207.17 168.426 206.859 168.33 206.464 168.364C206.118 168.394 205.845 168.542 205.644 168.811C205.451 169.085 205.37 169.42 205.403 169.815C205.436 170.209 205.574 170.525 205.817 170.763C206.06 171 206.354 171.104 206.701 171.074ZM204.51 169.891C204.472 169.434 204.327 169.069 204.074 168.798C203.829 168.533 203.495 168.419 203.072 168.455C202.678 168.488 202.367 168.654 202.141 168.952C201.922 169.25 201.832 169.638 201.872 170.116C201.911 170.587 202.067 170.946 202.339 171.195C202.611 171.451 202.941 171.562 203.329 171.529C203.744 171.494 204.054 171.324 204.259 171.021C204.465 170.725 204.548 170.348 204.51 169.891Z" fill="#231F20"/>
<path d="M187.312 142.27C187.769 144.488 188.521 146.724 190.035 148.393C191.058 149.52 192.379 150.332 193.749 150.982C196.954 152.502 200.531 153.21 204.066 153.024C206.894 152.875 209.739 152.136 212.091 150.54C214.442 148.945 216.255 146.433 216.675 143.6C216.927 141.899 216.681 140.167 216.435 138.465C215.969 135.228 215.501 131.991 215.035 128.755C214.827 127.315 214.611 125.848 213.983 124.539C212.496 121.44 208.904 119.82 205.499 119.791C202.094 119.763 198.822 121.049 195.709 122.445C193.88 123.265 192.051 124.143 190.498 125.419C188.912 126.722 187.706 128.435 187.271 130.473C186.746 132.935 186.607 135.513 186.754 138.023C186.838 139.45 187.024 140.871 187.312 142.27Z" fill="#F9FAFB"/>
<path d="M186.781 142.419C187.48 145.68 188.805 148.602 191.657 150.463C194.68 152.436 198.423 153.426 201.991 153.588C208.266 153.873 215.967 150.995 217.175 143.941C217.47 142.22 217.275 140.495 217.035 138.781C216.739 136.666 216.426 134.553 216.121 132.439C215.631 129.046 215.608 125.006 213.151 122.356C208.263 117.085 200.549 119.626 195.009 122.153C191.575 123.72 188.045 125.848 186.895 129.724C185.705 133.737 185.979 138.364 186.781 142.419C186.92 143.123 187.984 142.825 187.845 142.122C187.161 138.658 187.022 135.039 187.625 131.55C188.203 128.201 190.192 125.983 193.077 124.356C198.108 121.517 205.371 118.412 210.814 121.861C213.632 123.646 214.166 126.569 214.613 129.669C215.124 133.214 215.768 136.767 216.128 140.331C216.446 143.489 215.727 146.343 213.487 148.648C211.139 151.064 207.795 152.19 204.514 152.437C200.806 152.716 196.99 151.994 193.656 150.318C190.235 148.597 188.637 145.812 187.845 142.122C187.695 141.42 186.63 141.717 186.781 142.419Z" fill="#5B6664"/>
<path d="M205.643 138.726L198.593 136.938L198.405 135.755L205.336 137.593L204.73 133.784L205.728 133.622L206.518 138.583L205.643 138.726Z" fill="#231F20"/>
<path d="M185.72 116.957C189.89 119.819 195.426 120.319 200.211 118.721C203.778 117.53 207.225 114.832 207.78 111.075C208.201 108.217 206.892 105.434 206.085 102.662C205.787 101.64 205.556 100.6 205.31 99.5635C204.587 96.5238 203.51 92.7799 200.862 90.8594C198.588 89.2111 195.494 89.2337 192.794 89.9704C187.51 91.4121 182.977 95.4325 180.873 100.543C179.168 104.687 179.416 109.044 181.802 112.847C182.713 114.298 183.88 115.587 185.244 116.615C185.4 116.733 185.559 116.847 185.72 116.957Z" fill="#F9FAFB"/>
<path d="M185.441 117.44C190.727 120.953 198.192 121.16 203.592 117.738C205.908 116.27 207.873 114.028 208.312 111.224C208.872 107.644 206.978 104.142 206.156 100.748C205.461 97.8761 204.836 94.8472 203.102 92.3956C201.42 90.0195 198.84 88.8834 195.983 88.9343C190.028 89.0404 184.345 93.0944 181.414 98.1901C179.63 101.291 178.783 104.915 179.467 108.471C180.17 112.128 182.443 115.334 185.441 117.44C186.026 117.852 186.578 116.883 185.998 116.476C180.653 112.719 178.92 105.848 181.742 99.9461C184.03 95.1593 188.548 91.4175 193.721 90.3196C196.555 89.7179 199.654 90.0586 201.668 92.3571C203.361 94.2895 204.095 96.9195 204.695 99.3724C205.048 100.819 205.37 102.267 205.82 103.687C206.282 105.143 206.839 106.585 207.12 108.092C207.69 111.158 206.663 113.855 204.309 115.843C199.289 120.081 191.329 120.018 185.998 116.476C185.402 116.08 184.849 117.047 185.441 117.44Z" fill="#5B6664"/>
<path d="M195.941 105.688C196.23 105.531 196.425 105.334 196.528 105.097C196.631 104.861 196.636 104.568 196.543 104.218C196.403 103.688 196.093 103.347 195.615 103.196C195.143 103.043 194.436 103.087 193.493 103.328C193.835 103.423 194.13 103.616 194.38 103.908C194.63 104.201 194.807 104.541 194.91 104.931C195.027 105.374 195.033 105.79 194.928 106.179C194.831 106.572 194.626 106.912 194.314 107.199C194.003 107.492 193.596 107.706 193.093 107.843C192.624 107.97 192.18 107.989 191.761 107.901C191.344 107.82 190.98 107.627 190.669 107.322C190.365 107.016 190.146 106.608 190.011 106.097C189.827 105.405 189.834 104.82 190.031 104.342C190.236 103.869 190.596 103.476 191.11 103.164C191.626 102.859 192.299 102.593 193.131 102.368C195.586 101.702 197.043 102.236 197.502 103.969C197.68 104.641 197.638 105.217 197.377 105.699C197.119 106.186 196.733 106.536 196.221 106.746L195.941 105.688ZM193.877 104.941C193.769 104.531 193.552 104.216 193.228 103.994C192.911 103.777 192.522 103.732 192.059 103.857C191.596 103.983 191.262 104.214 191.057 104.55C190.859 104.891 190.824 105.301 190.95 105.778C191.062 106.201 191.281 106.498 191.607 106.669C191.934 106.846 192.316 106.876 192.752 106.758C193.208 106.634 193.538 106.415 193.742 106.101C193.955 105.791 194 105.404 193.877 104.941Z" fill="#231F20"/>
<path d="M174.603 71.4249C172.133 73.7308 170.315 76.8818 170.096 80.2745C169.878 83.6672 171.458 87.2481 174.385 88.9192C176.126 89.9135 178.172 90.1874 180.165 90.3502C182.599 90.5491 185.078 90.607 187.455 90.0357C191.697 89.0156 195.428 85.8486 196.95 81.7152C198.472 77.5819 197.636 72.5988 194.689 69.349C192.745 67.2059 189.923 65.9311 187.06 65.789C184.195 65.647 181.629 66.9406 179.148 68.2524C177.514 69.117 175.961 70.157 174.603 71.4249Z" fill="#F9FAFB"/>
<path d="M174.213 71.0325C170.314 74.7656 168.07 80.5527 170.667 85.6957C171.892 88.1197 174.023 89.7281 176.617 90.3896C179.627 91.1573 183.104 91.2936 186.165 90.848C191.423 90.0822 196.176 86.3537 197.727 81.1285C199.263 75.9521 197.353 69.9309 192.762 67.0252C186.601 63.1253 179.11 66.5809 174.213 71.0325C173.683 71.5139 174.466 72.302 174.994 71.8224C177.079 69.9265 179.574 68.5002 182.15 67.3984C184.753 66.2853 187.424 66.008 190.122 66.9709C195.018 68.7188 197.697 73.9102 197.044 79.0043C196.436 83.7533 192.828 87.7177 188.386 89.1906C185.672 90.0908 182.764 90.0203 179.951 89.7756C177.296 89.5447 174.618 88.9901 172.778 86.8785C168.715 82.2141 171.019 75.6284 174.994 71.8224C175.511 71.3273 174.729 70.5382 174.213 71.0325Z" fill="#5B6664"/>
<path d="M187.275 79.7241L186.381 76.3486L184.379 76.8913C184.604 76.9815 184.817 77.147 185.017 77.3878C185.22 77.6354 185.363 77.9171 185.446 78.2328C185.596 78.797 185.596 79.2865 185.447 79.7013C185.3 80.1227 185.061 80.4573 184.732 80.7051C184.404 80.9596 184.035 81.1423 183.626 81.2532C183.13 81.3877 182.661 81.4103 182.221 81.3209C181.789 81.2364 181.411 81.0328 181.088 80.7099C180.767 80.3937 180.534 79.9602 180.388 79.4094C180.194 78.6772 180.22 78.0404 180.464 77.4989C180.709 76.9574 181.118 76.562 181.692 76.3129L181.988 77.4313C181.693 77.5907 181.485 77.8234 181.365 78.1296C181.251 78.4339 181.245 78.7775 181.346 79.1604C181.473 79.6373 181.711 79.9543 182.062 80.1112C182.414 80.2749 182.829 80.2921 183.305 80.1631C183.788 80.0322 184.125 79.8113 184.315 79.5004C184.513 79.1877 184.549 78.7962 184.425 78.326C184.338 77.9968 184.18 77.7408 183.952 77.5579C183.732 77.3798 183.468 77.2786 183.16 77.2542L182.872 76.166L187.107 75.018L188.281 79.4514L187.275 79.7241Z" fill="#231F20"/>
<path d="M161.133 56.2504C160.571 57.5171 160.072 58.8335 159.923 60.2137C159.774 61.5938 160.005 63.0571 160.796 64.1919C161.406 65.067 162.308 65.6952 163.263 66.1578C166.204 67.5822 169.61 67.5364 172.865 67.3346C176.254 67.1246 179.809 66.7145 182.578 64.7263C184.028 63.685 185.191 62.2391 185.905 60.5914C186.713 58.7253 186.939 56.6472 186.885 54.6108C186.83 52.5036 186.476 50.3742 185.561 48.4806C184.646 46.587 183.128 44.9419 181.195 44.1549C180.213 43.7549 179.156 43.5838 178.105 43.4538C177.251 43.3482 176.389 43.2806 175.529 43.3343C174.697 43.3865 173.94 43.615 173.149 43.8645C172.003 44.2259 170.972 44.6956 169.943 45.3311C168.666 46.1205 167.498 47.0829 166.446 48.1585C165.38 49.2477 164.432 50.4523 163.591 51.7258C162.747 53.0024 162.009 54.3493 161.365 55.7391C161.286 55.9087 161.209 56.0793 161.133 56.2504Z" fill="#F9FAFB"/>
<path d="M160.615 56.1071C159.488 58.9416 158.528 62.3018 160.641 64.9231C162.123 66.7625 164.547 67.4714 166.782 67.776C169.356 68.1266 171.991 68.0029 174.57 67.7644C177.846 67.4612 181.292 66.7496 183.802 64.4422C187.349 61.1816 188.237 55.6005 187.059 51.0682C185.687 45.7846 181.321 42.3274 175.831 42.7381C168.609 43.2783 163.233 49.7864 160.615 56.1071C160.341 56.7694 161.409 57.0585 161.68 56.4041C163.816 51.2451 167.846 46.0409 173.322 44.3439C178.37 42.779 183.554 44.8728 185.524 49.8985C187.048 53.7866 186.75 58.6787 184.339 62.1437C181.19 66.6679 174.736 66.9297 169.75 66.8668C167.371 66.8369 164.698 66.6186 162.654 65.2605C159.499 63.1643 160.489 59.3997 161.68 56.4038C161.945 55.737 160.877 55.4472 160.615 56.1071Z" fill="#5B6664"/>
<path d="M171.188 53.5951L171.978 53.1718L178.031 53.9015L178.699 55.1758L174.389 57.4847L174.839 58.3435L173.93 58.8309L173.48 57.9721L172.083 58.7204L171.542 57.6862L172.938 56.9379L171.188 53.5951ZM177.115 54.7589L172.731 54.3174L173.872 56.4967L177.115 54.7589Z" fill="#231F20"/>
<path d="M155.171 29.2886C153.227 32.7883 151.917 36.621 151.014 40.53C150.641 42.1474 150.335 43.8271 150.629 45.4609C150.923 47.0948 151.934 48.6901 153.486 49.2334C154.485 49.5833 155.579 49.4685 156.623 49.3062C161.319 48.5766 165.964 46.9097 169.635 43.8585C171.719 42.1259 173.516 39.8381 173.949 37.1447C174.265 35.1798 173.823 33.1421 172.965 31.3505C172.107 29.5589 170.851 27.9908 169.491 26.5511C168.424 25.4202 167.263 24.342 165.874 23.6559C164.947 23.198 163.91 22.9296 162.875 22.965C162.21 22.9876 161.507 23.0363 160.9 23.334C159.336 24.0998 157.981 25.2593 156.906 26.6295C156.252 27.4624 155.685 28.3622 155.171 29.2886Z" fill="#F9FAFB"/>
<path d="M154.697 29.0055C153.27 31.6183 152.152 34.3851 151.308 37.2447C150.536 39.8572 149.578 42.8602 150.1 45.6081C150.518 47.8044 152.075 49.7496 154.366 49.9865C156.976 50.2568 160.009 49.298 162.448 48.446C167.033 46.8447 172.127 43.8343 173.996 39.0458C176.107 33.6408 172.315 28.0533 168.36 24.6774C166.356 22.9673 163.565 21.7392 160.944 22.7191C158.131 23.7706 156.129 26.4774 154.697 29.0055C154.344 29.6303 155.298 30.1938 155.651 29.5693C156.846 27.4597 158.302 25.4721 160.418 24.23C162.843 22.8064 165.569 23.7502 167.578 25.4674C171.012 28.4014 174.598 33.1729 173.194 37.9848C171.912 42.3782 167.34 45.306 163.37 46.9123C161.427 47.6988 159.393 48.2518 157.333 48.6232C156.059 48.853 154.58 49.1649 153.364 48.5608C152.249 48.0067 151.543 46.8837 151.246 45.687C150.567 42.9493 151.706 39.7122 152.506 37.0979C153.306 34.4847 154.342 31.9639 155.651 29.569C155.995 28.9397 155.042 28.3755 154.697 29.0055Z" fill="#5B6664"/>
<path d="M161.999 33.8479C162.518 33.4618 163.06 33.3257 163.623 33.4395C164.192 33.5586 164.702 33.891 165.155 34.4365C165.465 34.8109 165.667 35.1907 165.761 35.5759C165.855 35.9611 165.846 36.3199 165.733 36.6524C165.621 36.9848 165.422 37.2724 165.135 37.5153C164.807 37.7941 164.453 37.9442 164.074 37.9655C163.694 37.9869 163.362 37.9083 163.079 37.7297L163.047 37.7567C163.214 38.1532 163.243 38.5476 163.135 38.94C163.032 39.3278 162.785 39.6881 162.393 40.0209C162.08 40.2862 161.742 40.4501 161.379 40.5126C161.015 40.575 160.644 40.5252 160.266 40.3631C159.893 40.1966 159.543 39.9154 159.215 39.5196C158.735 38.942 158.486 38.3423 158.467 37.7206C158.458 37.0997 158.717 36.5421 159.246 36.0476L159.978 36.9301C159.715 37.1899 159.576 37.4951 159.56 37.8459C159.549 38.1922 159.683 38.5338 159.963 38.8708C160.233 39.1971 160.529 39.3742 160.851 39.4023C161.177 39.4259 161.481 39.3186 161.762 39.0802C162.132 38.7655 162.295 38.4225 162.249 38.0514C162.213 37.6812 161.99 37.25 161.582 36.758L161.409 36.5494L162.156 35.9153L162.336 36.1319C162.701 36.5607 163.045 36.8289 163.369 36.9366C163.698 37.0497 164.01 36.9803 164.307 36.7285C164.561 36.5126 164.694 36.2588 164.704 35.9671C164.721 35.6709 164.602 35.3704 164.349 35.0655C164.101 34.766 163.831 34.5985 163.54 34.5631C163.254 34.5232 162.986 34.5817 162.737 34.7385L161.999 33.8479Z" fill="#231F20"/>
<path d="M138.823 10.253C138.095 11.4062 137.634 12.8149 137.241 14.1374C136.212 17.5995 135.968 21.2611 136.086 24.8588C136.209 28.6158 136.332 34.2396 140.813 35.4431C142.442 35.8805 144.171 35.3734 145.717 34.6946C150.863 32.4352 155.114 28.1637 157.383 22.9739C159.102 19.0394 157.943 15.1215 154.684 12.3955C152.662 10.7046 150.187 9.67717 147.715 8.78923C145.999 8.17306 144.194 7.60407 142.388 7.83785C140.716 8.05434 139.613 9.00388 138.823 10.253Z" fill="#F9FAFB"/>
<path d="M138.349 9.96839C135.298 15.0814 135.18 21.9958 135.683 27.7724C135.862 29.8369 136.229 32.0416 137.463 33.7551C138.798 35.6083 140.997 36.4252 143.219 36.063C145.965 35.6154 148.646 33.9742 150.814 32.2782C153.018 30.5545 154.923 28.441 156.397 26.0476C157.826 23.7261 158.99 21.1304 158.669 18.3331C158.37 15.7338 156.893 13.4785 154.906 11.8601C152.329 9.76109 148.877 8.34714 145.679 7.55721C142.755 6.83464 140.084 7.35697 138.349 9.96839C137.952 10.5667 138.908 11.1266 139.303 10.5321C141.027 7.93723 143.807 8.09579 146.487 8.95412C148.936 9.73802 151.429 10.7033 153.54 12.209C155.679 13.7351 157.386 15.9953 157.602 18.7079C157.798 21.1718 156.702 23.448 155.443 25.4836C152.942 29.5305 149 33.0246 144.493 34.5785C142.072 35.4135 139.499 35.0354 138.103 32.7146C137.167 31.1602 136.899 29.2495 136.763 27.4668C136.341 21.9536 136.391 15.4122 139.303 10.5324C139.671 9.9152 138.717 9.35301 138.349 9.96839Z" fill="#5B6664"/>
<path d="M143.88 22.7757C144.728 22.55 145.404 22.3555 145.906 22.192C146.418 22.0254 146.876 21.8171 147.281 21.5672C147.687 21.3173 147.977 21.0106 148.151 20.6473C148.331 20.2715 148.382 19.9326 148.304 19.6308C148.232 19.332 148.005 19.0891 147.625 18.9021C147.257 18.7213 146.913 18.6994 146.593 18.8363C146.282 18.97 146.025 19.2311 145.823 19.6196L144.794 19.1139C145.156 18.409 145.63 17.9682 146.215 17.7916C146.811 17.6117 147.423 17.6766 148.053 17.9861C148.733 18.3202 149.173 18.7686 149.373 19.3314C149.579 19.8973 149.531 20.4934 149.231 21.1198C149.014 21.5708 148.69 21.9495 148.257 22.2558C147.834 22.5589 147.384 22.7983 146.906 22.974C146.438 23.1465 145.857 23.3293 145.163 23.5225L144.562 23.6915L147.527 25.1488L147.098 26.0414L142.552 23.8072L142.926 23.0273L143.88 22.7757Z" fill="#231F20"/>
<path d="M129.316 1.31107C129.832 1.36139 130.347 1.4214 130.86 1.49845C131.879 1.65203 132.897 1.87141 133.864 2.23938C134.778 2.58716 135.653 3.077 136.349 3.77808C136.515 3.94476 136.667 4.14606 136.802 4.34C136.947 4.54914 137.063 4.77873 137.156 5.01591C137.346 5.49737 137.45 6.00843 137.549 6.51557C137.576 6.65107 137.601 6.7884 137.604 6.92704C137.606 7.03896 137.588 7.14955 137.594 7.26172C137.634 7.90331 137.529 8.55617 137.415 9.18622C136.934 11.849 135.751 14.3228 134.573 16.7301C132.413 21.146 130.019 25.8187 125.776 28.238C124.274 29.0948 122.515 29.6295 120.819 29.3121C117.473 28.6862 115.568 25.1599 114.282 21.9729C112.187 16.7799 110.447 11.134 111.508 5.62893C111.74 4.427 112.128 3.20777 112.953 2.31144C114.502 0.627799 117.071 0.548912 119.343 0.635139C122.673 0.761202 125.999 0.986607 129.316 1.31107Z" fill="#F9FAFB"/>
<path d="M129.319 1.86947C131.878 2.13234 135.813 2.62533 136.754 5.53029C137.681 8.3928 136.297 11.7163 135.121 14.3034C133.092 18.7672 130.823 23.8905 126.813 26.895C124.622 28.5375 121.66 29.6283 119.14 28.0595C117.186 26.8439 116.018 24.6096 115.122 22.5502C112.827 17.2786 110.752 10.9599 112.175 5.17674C113.047 1.63386 115.98 1.09002 119.155 1.18725C122.548 1.29104 125.94 1.54422 129.319 1.86947C130.026 1.93761 130.021 0.820073 129.319 0.752455C125.636 0.397852 121.894 0.0309438 118.191 0.0537452C115.618 0.0697325 112.941 0.675143 111.701 3.20322C110.359 5.93731 110.469 9.47548 110.893 12.4127C111.4 15.9291 112.582 19.3357 113.948 22.5971C114.922 24.9239 116.175 27.3631 118.291 28.8316C120.691 30.4982 123.623 30.099 126.057 28.7202C131.191 25.8126 133.976 19.6326 136.27 14.4326C137.547 11.5389 138.97 7.85474 137.636 4.73381C136.311 1.63596 132.227 1.05097 129.319 0.752455C128.612 0.679857 128.617 1.7974 129.319 1.86947Z" fill="#5B6664"/>
<path d="M120.883 10.7218V9.63775H123.051V17.2363H121.852V10.7218H120.883Z" fill="#231F20"/>
<path d="M34.0755 142.271C33.6185 144.489 32.8669 146.725 31.3525 148.394C30.3294 149.521 29.0086 150.333 27.6385 150.983C24.4339 152.503 20.8564 153.211 17.3214 153.025C14.4937 152.876 11.6487 152.137 9.29723 150.541C6.94575 148.946 5.13266 146.434 4.7132 143.601C4.46137 141.9 4.70697 140.168 4.95259 138.466C5.41946 135.229 5.88661 131.992 6.35348 128.756C6.56127 127.316 6.77682 125.849 7.40485 124.54C8.89175 121.441 12.484 119.821 15.8892 119.792C19.2944 119.764 22.5666 121.05 25.6795 122.446C27.5079 123.266 29.3371 124.144 30.8898 125.42C32.4757 126.723 33.6817 128.436 34.1167 130.474C34.6424 132.936 34.7808 135.514 34.6336 138.024C34.5499 139.451 34.3639 140.872 34.0755 142.271Z" fill="#07AD94"/>
<path d="M16.9035 134.193L23.0425 138.128L22.8541 139.312L16.8434 135.366L16.2372 139.174L15.2393 139.012L16.029 134.05L16.9035 134.193Z" fill="white"/>
<path d="M33.542 142.123C32.8295 145.444 31.4838 148.214 28.4636 149.93C25.6528 151.527 22.3782 152.369 19.1663 152.483C13.1236 152.699 5.58105 149.728 5.17325 142.671C5.07505 140.972 5.38985 139.267 5.63132 137.593C5.88937 135.805 6.14741 134.016 6.40546 132.227C6.8384 129.226 6.84462 125.489 9.01759 123.148C13.6457 118.162 21.0853 120.909 26.2427 123.313C29.4922 124.828 32.7088 126.866 33.5832 130.623C34.4496 134.345 34.2778 138.399 33.542 142.123C33.4034 142.826 34.4675 143.126 34.6068 142.42C35.3325 138.748 35.4678 134.952 34.8273 131.254C34.2177 127.735 32.0958 125.255 29.0686 123.508C23.6177 120.363 15.7266 117.13 9.86506 120.997C7.05604 122.851 6.24639 125.662 5.78314 128.863C5.19061 132.959 4.30324 137.132 4.07809 141.268C3.68609 148.467 9.92696 152.879 16.4272 153.517C20.5361 153.92 24.7975 153.088 28.4724 151.189C32.0362 149.347 33.777 146.287 34.6068 142.42C34.7571 141.72 33.6928 141.42 33.542 142.123Z" fill="#231F20"/>
<path d="M35.663 116.958C31.4927 119.82 25.9571 120.32 21.1715 118.722C17.6049 117.531 14.1575 114.833 13.6031 111.076C13.1815 108.218 14.4915 105.435 15.2982 102.663C15.5959 101.641 15.827 100.601 16.0732 99.5645C16.796 96.5248 17.8728 92.7809 20.5215 90.8603C22.7947 89.2121 25.889 89.2346 28.5894 89.9714C33.873 91.4131 38.4057 95.4335 40.5095 100.544C42.2153 104.688 41.9671 109.045 39.5807 112.848C38.67 114.299 37.5025 115.588 36.1389 116.616C35.983 116.734 35.8241 116.848 35.663 116.958Z" fill="#07AD94"/>
<path d="M24.8138 103.163C24.4857 103.153 24.2187 103.225 24.0129 103.378C23.807 103.531 23.6578 103.782 23.5653 104.131C23.4247 104.662 23.5243 105.114 23.8641 105.486C24.1971 105.857 24.8313 106.177 25.7667 106.445C25.5179 106.19 25.3574 105.873 25.2854 105.494C25.2134 105.114 25.229 104.73 25.3322 104.34C25.4497 103.897 25.6501 103.533 25.9336 103.25C26.2121 102.959 26.5574 102.768 26.9694 102.678C27.3831 102.581 27.8415 102.601 28.3446 102.738C28.814 102.865 29.2083 103.072 29.5274 103.36C29.8482 103.642 30.0679 103.993 30.1864 104.414C30.2983 104.833 30.2866 105.298 30.1514 105.808C29.9681 106.5 29.6731 107.003 29.2663 107.318C28.8546 107.624 28.349 107.782 27.7496 107.792C27.152 107.796 26.4374 107.685 25.6058 107.46C23.151 106.794 22.1532 105.595 22.6122 103.862C22.7902 103.19 23.1109 102.712 23.5745 102.427C24.0399 102.136 24.5464 102.028 25.094 102.105L24.8138 103.163ZM26.2313 104.854C26.1228 105.263 26.1543 105.646 26.326 106.003C26.4927 106.35 26.8074 106.587 27.2702 106.712C27.733 106.837 28.1366 106.806 28.4809 106.619C28.8204 106.423 29.0533 106.087 29.1796 105.61C29.2917 105.186 29.249 104.819 29.0515 104.506C28.8557 104.186 28.5399 103.968 28.1039 103.849C27.6479 103.726 27.2537 103.749 26.9213 103.918C26.5841 104.078 26.3541 104.39 26.2313 104.854Z" fill="white"/>
<path d="M35.3847 116.476C30.56 119.682 23.89 119.973 18.8422 117.07C16.4711 115.706 14.3717 113.49 14.1033 110.625C13.8108 107.501 15.4469 104.451 16.1838 101.489C17.4688 96.3231 18.8599 89.9352 25.3995 90.0519C30.7722 90.1478 35.9322 93.7575 38.7189 98.2599C40.5001 101.138 41.4712 104.569 40.8887 107.962C40.296 111.412 38.2103 114.49 35.3847 116.476C34.8051 116.883 35.3565 117.852 35.942 117.441C41.4631 113.56 43.6053 106.551 40.9867 100.262C38.6723 94.7041 33.4693 90.2479 27.5587 89.1639C24.78 88.6542 21.7552 88.9506 19.5682 90.9217C17.4636 92.8184 16.4908 95.7001 15.7969 98.3807C15.364 100.053 15.0197 101.743 14.4974 103.391C13.9297 105.182 13.2475 106.952 13.0374 108.834C12.7027 111.833 13.916 114.551 16.148 116.511C21.4992 121.211 30.146 121.293 35.942 117.441C36.5335 117.047 35.9809 116.08 35.3847 116.476Z" fill="#231F20"/>
<path d="M46.7816 71.4289C49.2515 73.7347 51.07 76.8857 51.2887 80.2785C51.5073 83.6712 49.9269 87.252 46.9998 88.9231C45.2582 89.9175 43.2129 90.1913 41.2198 90.3541C38.7854 90.553 36.3064 90.6109 33.9301 90.0396C29.6881 89.0196 25.9565 85.8525 24.4348 81.7191C22.913 77.5858 23.7482 72.6027 26.6961 69.3529C28.6401 67.2098 31.4615 65.935 34.3242 65.7929C37.1894 65.6509 39.7552 66.9445 42.2364 68.2563C43.8713 69.1209 45.4235 70.1609 46.7816 71.4289Z" fill="#F9FAFB"/>
<path d="M34.7784 75.3708L33.8843 78.7462L35.8863 79.2888C35.7359 79.0969 35.6334 78.8459 35.579 78.536C35.5263 78.2193 35.5417 77.9031 35.6253 77.5874C35.7748 77.0232 36.0165 76.5991 36.3505 76.3153C36.6862 76.0247 37.0581 75.8555 37.4662 75.8077C37.876 75.7532 38.2854 75.7814 38.6945 75.8923C39.1909 76.0268 39.6077 76.2442 39.9451 76.5444C40.2776 76.8361 40.5038 77.2034 40.6237 77.6463C40.7454 78.0825 40.7333 78.5759 40.5874 79.1268C40.3934 79.8589 40.0566 80.3976 39.577 80.7428C39.0974 81.088 38.5476 81.2233 37.9276 81.1488L38.2238 80.0304C38.5586 80.042 38.8537 79.9456 39.1091 79.7412C39.3578 79.535 39.5329 79.2405 39.6343 78.8576C39.7606 78.3807 39.7107 77.9856 39.4846 77.6723C39.2603 77.3523 38.91 77.1278 38.4338 76.9987C37.9509 76.8678 37.55 76.8888 37.2311 77.0615C36.9055 77.2324 36.6804 77.553 36.5558 78.0232C36.4686 78.3524 36.4786 78.6538 36.5858 78.9277C36.6881 79.193 36.8667 79.4142 37.1217 79.5913L36.8334 80.6795L32.598 79.5315L33.7724 75.0981L34.7784 75.3708Z" fill="#231F20"/>
<path d="M46.3849 71.8223C50.001 75.2845 52.2061 80.7246 49.5818 85.4639C48.3019 87.775 46.1584 89.0225 43.6303 89.4953C40.7992 90.0248 37.6244 90.1828 34.7869 89.6505C30.2083 88.7916 26.0634 85.4175 24.7169 80.8316C23.2945 75.9864 25.1001 70.3423 29.5258 67.7771C35.1838 64.4976 41.9739 67.8127 46.3849 71.8223C46.9121 72.3017 47.6959 71.5141 47.1658 71.0324C44.8529 68.9297 42.0677 67.3313 39.1815 66.1747C36.3717 65.049 33.4163 64.919 30.579 66.0386C25.4014 68.0813 22.5624 73.5912 23.2342 79.0793C23.8757 84.3199 27.8146 88.6344 32.6989 90.2677C35.8203 91.3116 39.2768 91.1685 42.4988 90.7851C45.2307 90.4601 47.8262 89.5999 49.6196 87.3827C53.7888 82.2277 51.5182 75.1993 47.1661 71.0324C46.6497 70.5384 45.8672 71.327 46.3849 71.8223Z" fill="#5B6664"/>
<path d="M60.2501 56.2494C60.8121 57.5161 61.3108 58.8326 61.4598 60.2127C61.6087 61.5929 61.3784 63.0561 60.5874 64.1909C59.9776 65.066 59.0749 65.6942 58.1204 66.1568C55.1795 67.5813 51.7728 67.5354 48.5181 67.3336C45.129 67.1237 41.5741 66.7135 38.8055 64.7253C37.3551 63.684 36.1918 62.2381 35.478 60.5904C34.6699 58.7243 34.4443 56.6462 34.4976 54.6098C34.5528 52.5027 34.9067 50.3732 35.8221 48.4796C36.7374 46.5861 38.2554 44.941 40.1885 44.1539C41.1704 43.754 42.2275 43.5828 43.2784 43.4528C44.1315 43.3472 44.9943 43.2796 45.8537 43.3333C46.6861 43.3855 47.4434 43.614 48.2342 43.8635C49.3798 44.2249 50.411 44.6946 51.4396 45.3302C52.7172 46.1196 53.8854 47.0819 54.9373 48.1575C56.0029 49.2468 56.9506 50.4513 57.7921 51.7248C58.6357 53.0014 59.3739 54.3483 60.018 55.7381C60.0967 55.9077 60.1739 56.0783 60.2501 56.2494Z" fill="#F9FAFB"/>
<path d="M47.1222 58.9965L46.332 58.5731L43.5281 53.0976L44.1954 51.8233L48.5045 54.1321L48.9541 53.2733L49.8637 53.7607L49.4141 54.6195L50.8106 55.3678L50.269 56.402L48.8725 55.6537L47.1222 58.9965ZM44.7438 53.3824L46.846 57.2994L47.9871 55.1202L44.7438 53.3824Z" fill="#231F20"/>
<path d="M59.7068 56.4031C60.768 59.073 61.845 62.4418 59.4394 64.7041C57.8494 66.1993 55.4518 66.6278 53.3667 66.7909C51.1919 66.9612 48.9855 66.8483 46.8167 66.6462C43.761 66.3616 40.46 65.6982 38.1709 63.4668C35.1049 60.4777 34.3481 55.5497 35.3565 51.5005C36.5921 46.5389 40.5924 43.401 45.7371 43.8675C52.3244 44.4656 57.3175 50.6343 59.7068 56.4031C59.9773 57.0562 61.0465 56.7695 60.7716 56.1061C58.4212 50.4317 53.974 44.7342 47.8393 43.118C42.4267 41.6919 37.0499 44.0822 34.901 49.3425C33.1037 53.7421 33.5131 59.388 36.4558 63.1985C40.0812 67.8929 47.2076 68.2153 52.6402 67.953C55.2227 67.8282 58.1243 67.3884 60.1239 65.5806C62.9428 63.0318 62.0124 59.2281 60.7716 56.1061C60.5099 55.4473 59.4415 55.735 59.7068 56.4031Z" fill="#5B6664"/>
<path d="M66.2144 29.2896C68.158 32.7892 69.4682 36.622 70.3706 40.531C70.744 42.1483 71.0497 43.8281 70.7559 45.4619C70.4621 47.096 69.4506 48.6911 67.8992 49.2344C66.9004 49.5842 65.8063 49.4695 64.7617 49.3072C60.066 48.5776 55.4208 46.9107 51.7506 43.8595C49.6665 42.1268 47.8687 39.8391 47.436 37.1456C47.1202 35.1808 47.5624 33.1431 48.4205 31.3514C49.2784 29.5598 50.5342 27.9918 51.8936 26.5521C52.9613 25.4212 54.122 24.343 55.5112 23.6569C56.438 23.199 57.4746 22.9306 58.5099 22.966C59.175 22.9885 59.8779 23.0373 60.4854 23.335C62.0488 24.1008 63.4043 25.2603 64.4795 26.6305C65.1327 27.4634 65.6998 28.3631 66.2144 29.2896Z" fill="#F9FAFB"/>
<path d="M55.6834 38.1688C55.2136 37.7224 54.9828 37.2084 54.9909 36.6268C55.0033 36.0398 55.2336 35.4717 55.6816 34.9225C55.9891 34.5455 56.3215 34.2754 56.6789 34.1121C57.0363 33.9488 57.3868 33.8929 57.7304 33.9443C58.074 33.9958 58.3898 34.1418 58.6779 34.3822C59.0087 34.6583 59.2189 34.9832 59.3087 35.3568C59.3985 35.7304 59.3824 36.0745 59.2604 36.389L59.2924 36.4157C59.6476 36.1782 60.0257 36.0774 60.4267 36.1134C60.8224 36.145 61.2176 36.3256 61.6124 36.6551C61.9271 36.9178 62.1479 37.2243 62.2747 37.5745C62.4016 37.9247 62.4206 38.3027 62.3318 38.7083C62.2377 39.1095 62.0282 39.5093 61.7031 39.9078C61.2288 40.4893 60.6911 40.8461 60.0903 40.9782C59.4884 41.1004 58.8991 40.9434 58.3223 40.5072L59.0471 39.6187C59.3474 39.8331 59.6695 39.9165 60.0134 39.8686C60.352 39.8163 60.6596 39.6206 60.9363 39.2813C61.2043 38.9528 61.3227 38.6263 61.2916 38.3016C61.2551 37.9725 61.0955 37.69 60.8128 37.454C60.4394 37.1423 60.0764 37.043 59.7241 37.1562C59.3708 37.2595 58.9921 37.5589 58.588 38.0543L58.4167 38.2643L57.6644 37.6365L57.8423 37.4184C58.1928 36.9777 58.3909 36.5865 58.4367 36.2445C58.4868 35.8972 58.3625 35.5989 58.0638 35.3495C57.8077 35.1357 57.5369 35.05 57.2514 35.0923C56.9605 35.13 56.6899 35.3024 56.4395 35.6094C56.1935 35.9109 56.0798 36.2097 56.0984 36.5058C56.1116 36.7974 56.217 37.0529 56.4147 37.2722L55.6834 38.1688Z" fill="#231F20"/>
<path d="M65.7346 29.5706C66.8948 31.6938 67.8452 33.9142 68.6002 36.2166C69.3577 38.5271 70.1544 41.0432 70.2995 43.4853C70.463 46.2369 69.1699 48.9741 66.1176 48.8976C63.9664 48.8436 61.674 48.1858 59.6417 47.5101C55.5321 46.1439 51.09 43.6632 48.9173 39.7131C46.305 34.9638 49.2383 30.0646 52.5743 26.6392C54.4569 24.7063 57.119 22.7868 59.9607 23.7222C62.5704 24.5813 64.4439 27.2907 65.7346 29.5706C66.0878 30.1944 67.0423 29.6322 66.6884 29.0069C65.33 26.608 63.6109 24.3666 61.1478 23.0515C59.0391 21.9256 56.4666 22.3611 54.4936 23.5848C52.236 24.9851 50.2708 27.2454 48.837 29.4755C47.376 31.7477 46.4581 34.4902 46.8907 37.2188C47.7004 42.3261 52.6907 45.8286 57.0573 47.7135C59.6031 48.8124 62.3194 49.541 65.0623 49.9103C67.4887 50.2369 69.6334 49.5408 70.7599 47.2106C72.095 44.4492 71.1496 41.1488 70.3936 38.3602C69.5119 35.1082 68.3022 31.9598 66.6884 29.0066C66.3443 28.3776 65.3903 28.9403 65.7346 29.5706Z" fill="#5B6664"/>
<path d="M82.5626 10.2481C83.2914 11.4013 83.7523 12.81 84.1451 14.1325C85.1737 17.5946 85.4182 21.2562 85.3001 24.8539C85.1768 28.6109 85.0542 34.2347 80.5728 35.4382C78.9439 35.8757 77.2145 35.3685 75.6685 34.6897C70.523 32.4303 66.2717 28.1588 64.0034 22.969C62.2838 19.0345 63.4432 15.1166 66.702 12.3907C68.7237 10.6997 71.1993 9.67229 73.6712 8.78434C75.3866 8.16818 77.1919 7.59919 78.9975 7.83297C80.6697 8.04945 81.7734 8.999 82.5626 10.2481Z" fill="#F9FAFB"/>
<path d="M74.6029 24.5083C74.952 23.6942 75.2183 23.0369 75.4019 22.5363C75.5888 22.0264 75.7103 21.5332 75.7666 21.0564C75.8229 20.5797 75.7639 20.1597 75.5894 19.7964C75.4089 19.4205 75.1771 19.1705 74.894 19.0464C74.6171 18.9192 74.2884 18.9491 73.908 19.136C73.54 19.3168 73.3103 19.5768 73.2187 19.916C73.1305 20.2458 73.1748 20.6112 73.3518 21.0119L72.3228 21.5176C71.9986 20.7942 71.9489 20.1451 72.1739 19.57C72.402 18.9856 72.831 18.5387 73.461 18.2292C74.1408 17.8952 74.7611 17.8226 75.3221 18.0115C75.8892 18.1974 76.3232 18.6035 76.624 19.23C76.8405 19.681 76.9342 20.1731 76.905 20.7062C76.879 21.2299 76.7866 21.7359 76.628 22.2242C76.4726 22.7032 76.2554 23.2783 75.9765 23.9496L75.7359 24.5323L78.7015 23.0751L79.1302 23.9678L74.5835 26.2018L74.2091 25.4219L74.6029 24.5083Z" fill="#231F20"/>
<path d="M82.0846 10.5319C84.7915 15.0689 84.9234 20.9875 84.7016 26.1205C84.5483 29.6671 83.8622 35.0975 79.2222 35.0445C76.7324 35.0162 74.1897 33.4914 72.1908 32.0987C70.1785 30.6965 68.3872 28.9416 66.9337 26.9547C65.5162 25.0169 64.0913 22.6722 63.8109 20.2343C63.5275 17.7689 64.4954 15.4012 66.1774 13.6397C68.232 11.4877 71.0799 10.3026 73.8169 9.32471C76.7412 8.28004 80.0824 7.51789 82.0846 10.5319C82.4789 11.1255 83.436 10.567 83.0383 9.96814C81.626 7.84262 79.565 6.97564 77.0474 7.3022C74.0511 7.69061 70.7817 9.06943 68.2022 10.6435C65.894 12.0522 63.8907 14.0716 63.057 16.7197C62.2328 19.3372 62.8311 21.9405 64.0288 24.3255C66.5111 29.2682 70.8392 33.3638 75.9466 35.4109C78.3374 36.3694 81.0472 36.5395 83.0787 34.7101C84.5944 33.3452 85.2247 31.2697 85.524 29.3046C85.9652 26.4064 85.9877 23.3427 85.7851 20.4269C85.54 16.8956 84.8713 13.0408 83.038 9.96839C82.6714 9.35328 81.7162 9.91415 82.0846 10.5319Z" fill="#5B6664"/>
<path d="M98.4699 28.9994C94.9351 28.9994 92.2902 26.1762 90.3039 23.5367C88.3415 20.9293 87.1399 18.7758 86.0176 15.8556C85.826 15.3573 85.6212 14.8577 85.4045 14.3288C84.4121 11.907 83.3859 9.40253 83.5806 6.91091C83.7596 4.62155 85.1535 3.0879 87.8426 2.22243C90.3338 1.42072 92.9147 1.13066 95.7873 0.859417C98.9724 0.558908 101.842 0.344107 104.711 0.766912C105.538 0.888683 106.493 1.08232 107.304 1.59501C108.249 2.19238 109.004 3.25226 109.429 4.57895C109.551 4.95916 109.654 5.35975 109.735 5.76923C110.018 7.2007 110.055 8.83496 109.848 10.765C109.396 14.9839 108.224 19.0518 106.364 22.8554C104.856 25.9392 102.985 27.8732 100.802 28.603C99.9845 28.8764 99.2077 28.9994 98.4699 28.9994ZM101.236 0.641231C99.4923 0.641231 97.7016 0.790172 95.7974 0.970217C92.9312 1.24094 90.3568 1.52995 87.8756 2.32852C85.2341 3.17883 83.8652 4.68061 83.6901 6.91954C83.4975 9.38476 84.5185 11.8764 85.5063 14.2859C85.7232 14.8154 85.9283 15.3158 86.1201 15.8154C87.2383 18.7251 88.4358 20.871 90.3914 23.4695C92.77 26.6304 96.0995 30.0578 100.767 28.4975C102.921 27.7773 104.771 25.8621 106.266 22.8061C108.12 19.0141 109.288 14.9591 109.738 10.753C109.944 8.83443 109.907 7.21116 109.627 5.79119C109.546 5.38563 109.445 4.98948 109.324 4.61345C108.907 3.31132 108.169 2.27287 107.246 1.68935C106.452 1.18763 105.511 0.997134 104.695 0.87693C103.55 0.70786 102.403 0.641231 101.236 0.641231Z" fill="#5B6664"/>
<path d="M92.0677 1.31009C91.5518 1.36041 91.037 1.42042 90.5243 1.49748C89.5045 1.65106 88.4871 1.87043 87.5202 2.2384C86.6061 2.58619 85.7309 3.07602 85.0345 3.7771C84.869 3.94379 84.7171 4.14508 84.5822 4.33902C84.4365 4.54817 84.3212 4.77775 84.2275 5.01494C84.0373 5.49639 83.9334 6.00745 83.8344 6.51459C83.808 6.65009 83.7823 6.78742 83.7795 6.92607C83.7772 7.03798 83.7961 7.14857 83.7891 7.26075C83.7492 7.90233 83.8544 8.55519 83.9681 9.18525C84.4492 11.848 85.6325 14.3219 86.81 16.7291C88.9701 21.145 91.364 25.8178 95.6071 28.2371C97.1098 29.0938 98.8682 29.6285 100.564 29.3111C103.91 28.6852 105.816 25.1589 107.101 21.9719C109.196 16.7789 110.937 11.1331 109.875 5.62795C109.643 4.42603 109.255 3.2068 108.431 2.31046C106.881 0.626823 104.312 0.547936 102.04 0.634162C98.7107 0.760226 95.3845 0.98563 92.0677 1.31009Z" fill="#F9FAFB"/>
<path d="M95.1038 10.6602V9.57623H97.2719V17.1748H96.0732V10.6602H95.1038Z" fill="#231F20"/>
<path d="M92.0691 0.751095C89.3994 1.02524 86.1015 1.47735 84.3216 3.76536C82.4518 6.16895 83.328 9.72362 84.2589 12.3112C85.3305 15.289 86.8179 18.1987 88.3662 20.9511C89.7681 23.4436 91.4426 25.8548 93.7075 27.6207C95.8502 29.2912 98.6895 30.5453 101.408 29.6718C103.897 28.8722 105.532 26.5718 106.66 24.3168C109.49 18.6613 111.786 11.4314 110.326 5.07788C109.606 1.94333 107.48 0.352731 104.365 0.0969353C100.336 -0.233555 96.0792 0.365042 92.0691 0.751095C91.3677 0.818713 91.3607 1.93652 92.0691 1.86811C95.0548 1.5806 98.0467 1.36413 101.043 1.23308C103.51 1.1251 106.898 0.810076 108.444 3.23359C109.999 5.67125 109.814 9.36745 109.43 12.1146C109.028 14.9895 108.132 17.7778 107.1 20.4781C106.22 22.7802 105.249 25.2446 103.502 27.0318C101.419 29.1631 98.6203 29.2367 96.0782 27.8581C91.66 25.4619 89.3093 20.5905 87.185 16.2344C85.793 13.38 83.877 9.77157 84.4068 6.47269C84.9903 2.84018 89.0453 2.17921 92.0691 1.86864C92.7691 1.7963 92.7766 0.678235 92.0691 0.751095Z" fill="#5B6664"/>
<path d="M77.3168 79.024V84.5842C77.3168 85.1934 77.4756 85.661 77.7931 85.9871C78.1105 86.3046 78.5567 86.4633 79.1316 86.4633C79.7151 86.4633 80.1656 86.3046 80.483 85.9871C80.8005 85.661 80.9593 85.1934 80.9593 84.5842V79.024H82.7741V84.5713C82.7741 85.335 82.6067 85.9828 82.2721 86.5148C81.946 87.0382 81.5041 87.4329 80.9464 87.6989C80.3972 87.9649 79.7837 88.0979 79.1059 88.0979C78.4366 88.0979 77.8274 87.9649 77.2782 87.6989C76.7376 87.4329 76.3086 87.0382 75.9911 86.5148C75.6737 85.9828 75.5149 85.335 75.5149 84.5713V79.024H77.3168ZM86.3169 81.907C86.5486 81.581 86.8661 81.3107 87.2694 81.0962C87.6813 80.8731 88.1489 80.7615 88.6723 80.7615C89.2815 80.7615 89.8307 80.9117 90.3198 81.212C90.8174 81.5123 91.2079 81.9414 91.491 82.4991C91.7827 83.0483 91.9286 83.6875 91.9286 84.4169C91.9286 85.1462 91.7827 85.794 91.491 86.3603C91.2079 86.9181 90.8174 87.3514 90.3198 87.6603C89.8307 87.9692 89.2815 88.1236 88.6723 88.1236C88.1489 88.1236 87.6855 88.0164 87.2823 87.8019C86.8876 87.5874 86.5658 87.3171 86.3169 86.991V91.4057H84.515V80.8774H86.3169V81.907ZM90.0881 84.4169C90.0881 83.9878 89.998 83.6189 89.8178 83.31C89.6462 82.9925 89.4145 82.7522 89.1228 82.5892C88.8396 82.4262 88.5307 82.3447 88.1961 82.3447C87.87 82.3447 87.5611 82.4305 87.2694 82.6021C86.9862 82.7651 86.7546 83.0054 86.5744 83.3228C86.4028 83.6403 86.3169 84.0136 86.3169 84.4426C86.3169 84.8716 86.4028 85.2449 86.5744 85.5624C86.7546 85.8798 86.9862 86.1244 87.2694 86.296C87.5611 86.459 87.87 86.5405 88.1961 86.5405C88.5307 86.5405 88.8396 86.4547 89.1228 86.2831C89.4145 86.1115 89.6462 85.867 89.8178 85.5495C89.998 85.232 90.0881 84.8545 90.0881 84.4169ZM95.0399 81.907C95.2716 81.581 95.5891 81.3107 95.9924 81.0962C96.4042 80.8731 96.8719 80.7615 97.3953 80.7615C98.0045 80.7615 98.5537 80.9117 99.0428 81.212C99.5404 81.5123 99.9308 81.9414 100.214 82.4991C100.506 83.0483 100.652 83.6875 100.652 84.4169C100.652 85.1462 100.506 85.794 100.214 86.3603C99.9308 86.9181 99.5404 87.3514 99.0428 87.6603C98.5537 87.9692 98.0045 88.1236 97.3953 88.1236C96.8719 88.1236 96.4085 88.0164 96.0052 87.8019C95.6105 87.5874 95.2888 87.3171 95.0399 86.991V91.4057H93.238V80.8774H95.0399V81.907ZM98.8111 84.4169C98.8111 83.9878 98.721 83.6189 98.5408 83.31C98.3692 82.9925 98.1375 82.7522 97.8458 82.5892C97.5626 82.4262 97.2537 82.3447 96.9191 82.3447C96.593 82.3447 96.2841 82.4305 95.9924 82.6021C95.7092 82.7651 95.4775 83.0054 95.2973 83.3228C95.1257 83.6403 95.0399 84.0136 95.0399 84.4426C95.0399 84.8716 95.1257 85.2449 95.2973 85.5624C95.4775 85.8798 95.7092 86.1244 95.9924 86.296C96.2841 86.459 96.593 86.5405 96.9191 86.5405C97.2537 86.5405 97.5626 86.4547 97.8458 86.2831C98.1375 86.1115 98.3692 85.867 98.5408 85.5495C98.721 85.232 98.8111 84.8545 98.8111 84.4169ZM108.589 84.2881C108.589 84.5456 108.572 84.7772 108.538 84.9832H103.325C103.368 85.498 103.548 85.9013 103.866 86.193C104.183 86.4848 104.574 86.6306 105.037 86.6306C105.706 86.6306 106.183 86.3432 106.466 85.7683H108.409C108.203 86.4547 107.809 87.0211 107.225 87.4672C106.642 87.9048 105.925 88.1236 105.076 88.1236C104.389 88.1236 103.772 87.9735 103.222 87.6732C102.682 87.3643 102.257 86.931 101.948 86.3732C101.648 85.8155 101.498 85.1719 101.498 84.4426C101.498 83.7047 101.648 83.0568 101.948 82.4991C102.248 81.9414 102.669 81.5123 103.209 81.212C103.75 80.9117 104.372 80.7615 105.076 80.7615C105.754 80.7615 106.359 80.9074 106.891 81.1992C107.431 81.4909 107.847 81.907 108.139 82.4476C108.439 82.9796 108.589 83.5931 108.589 84.2881ZM106.723 83.7733C106.715 83.31 106.547 82.941 106.221 82.6664C105.895 82.3833 105.496 82.2417 105.024 82.2417C104.578 82.2417 104.201 82.379 103.892 82.6536C103.591 82.9196 103.407 83.2928 103.338 83.7733H106.723ZM111.707 81.9843C111.938 81.6067 112.239 81.3107 112.608 81.0962C112.985 80.8817 113.414 80.7744 113.895 80.7744V82.6664H113.418C112.852 82.6664 112.423 82.7994 112.131 83.0654C111.848 83.3314 111.707 83.7948 111.707 84.4555V88.0078H109.905V80.8774H111.707V81.9843ZM123.414 79.024V85.3307C123.414 86.2059 123.161 86.8881 122.654 87.3771C122.148 87.8577 121.47 88.0979 120.621 88.0979C119.763 88.0979 119.068 87.8491 118.536 87.3514C118.012 86.8537 117.75 86.1587 117.75 85.2663H119.552C119.561 85.6525 119.651 85.9528 119.823 86.1673C120.003 86.3818 120.26 86.4891 120.595 86.4891C120.921 86.4891 121.17 86.3861 121.341 86.1802C121.513 85.9742 121.599 85.6911 121.599 85.3307V79.024H123.414ZM125.052 84.4169C125.052 83.6961 125.194 83.0568 125.477 82.4991C125.769 81.9414 126.159 81.5123 126.648 81.212C127.146 80.9117 127.699 80.7615 128.309 80.7615C128.841 80.7615 129.304 80.8688 129.699 81.0833C130.102 81.2978 130.424 81.5681 130.664 81.8942V80.8774H132.479V88.0078H130.664V86.9653C130.432 87.2999 130.11 87.5788 129.699 87.8019C129.295 88.0164 128.828 88.1236 128.296 88.1236C127.695 88.1236 127.146 87.9692 126.648 87.6603C126.159 87.3514 125.769 86.9181 125.477 86.3603C125.194 85.794 125.052 85.1462 125.052 84.4169ZM130.664 84.4426C130.664 84.005 130.578 83.6317 130.407 83.3228C130.235 83.0054 130.003 82.7651 129.711 82.6021C129.42 82.4305 129.107 82.3447 128.772 82.3447C128.437 82.3447 128.128 82.4262 127.845 82.5892C127.562 82.7522 127.33 82.9925 127.15 83.31C126.979 83.6189 126.893 83.9878 126.893 84.4169C126.893 84.8459 126.979 85.2234 127.15 85.5495C127.33 85.867 127.562 86.1115 127.845 86.2831C128.137 86.4547 128.446 86.5405 128.772 86.5405C129.107 86.5405 129.42 86.459 129.711 86.296C130.003 86.1244 130.235 85.8841 130.407 85.5752C130.578 85.2577 130.664 84.8802 130.664 84.4426ZM144.123 80.8774L142.038 88.0078H140.095L138.795 83.0268L137.495 88.0078H135.539L133.441 80.8774H135.268L136.53 86.3089L137.894 80.8774H139.799L141.137 86.296L142.399 80.8774H144.123ZM85.361 108.543C84.5287 107.737 83.8809 106.707 83.4175 105.454C82.9628 104.202 82.7354 102.859 82.7354 101.426C82.7354 99.9585 82.9756 98.5814 83.4562 97.2943C83.9367 95.9986 84.636 94.9389 85.5541 94.1152H87.3689V94.2825C86.425 95.1835 85.7043 96.2646 85.2066 97.5259C84.7175 98.7873 84.4729 100.087 84.4729 101.426C84.4729 102.73 84.7046 103.991 85.168 105.21C85.6399 106.42 86.3092 107.471 87.1758 108.363V108.543H85.361ZM98.2879 97.024V106.008H96.4859V100.164L94.0791 106.008H92.7148L90.2951 100.164V106.008H88.4932V97.024H90.5396L93.3969 103.704L96.2543 97.024H98.2879ZM99.606 102.417C99.606 101.696 99.7476 101.057 100.031 100.499C100.322 99.9414 100.713 99.5123 101.202 99.212C101.7 98.9117 102.253 98.7615 102.862 98.7615C103.394 98.7615 103.858 98.8688 104.252 99.0833C104.656 99.2978 104.977 99.5681 105.218 99.8942V98.8774H107.032V106.008H105.218V104.965C104.986 105.3 104.664 105.579 104.252 105.802C103.849 106.016 103.381 106.124 102.849 106.124C102.249 106.124 101.7 105.969 101.202 105.66C100.713 105.351 100.322 104.918 100.031 104.36C99.7476 103.794 99.606 103.146 99.606 102.417ZM105.218 102.443C105.218 102.005 105.132 101.632 104.96 101.323C104.789 101.005 104.557 100.765 104.265 100.602C103.973 100.43 103.66 100.345 103.326 100.345C102.991 100.345 102.682 100.426 102.399 100.589C102.116 100.752 101.884 100.992 101.704 101.31C101.532 101.619 101.447 101.988 101.447 102.417C101.447 102.846 101.532 103.223 101.704 103.549C101.884 103.867 102.116 104.112 102.399 104.283C102.691 104.455 103 104.541 103.326 104.541C103.66 104.541 103.973 104.459 104.265 104.296C104.557 104.124 104.789 103.884 104.96 103.575C105.132 103.258 105.218 102.88 105.218 102.443ZM112.731 106.008L111.264 103.794L109.964 106.008H108.033L110.363 102.43L108.007 98.8774H110.041L111.495 101.078L112.808 98.8774H114.739L112.396 102.43L114.764 106.008H112.731ZM116.657 98.0279C116.339 98.0279 116.073 97.9292 115.859 97.7319C115.653 97.5259 115.55 97.2728 115.55 96.9725C115.55 96.6722 115.653 96.4233 115.859 96.226C116.073 96.0201 116.339 95.9171 116.657 95.9171C116.974 95.9171 117.236 96.0201 117.442 96.226C117.657 96.4233 117.764 96.6722 117.764 96.9725C117.764 97.2728 117.657 97.5259 117.442 97.7319C117.236 97.9292 116.974 98.0279 116.657 98.0279ZM117.545 98.8774V106.008H115.743V98.8774H117.545ZM121.127 96.4834V106.008H119.325V96.4834H121.127ZM124.709 96.4834V106.008H122.907V96.4834H124.709ZM126.026 102.417C126.026 101.696 126.168 101.057 126.451 100.499C126.743 99.9414 127.133 99.5123 127.622 99.212C128.12 98.9117 128.673 98.7615 129.283 98.7615C129.815 98.7615 130.278 98.8688 130.673 99.0833C131.076 99.2978 131.398 99.5681 131.638 99.8942V98.8774H133.453V106.008H131.638V104.965C131.406 105.3 131.085 105.579 130.673 105.802C130.269 106.016 129.802 106.124 129.27 106.124C128.669 106.124 128.12 105.969 127.622 105.66C127.133 105.351 126.743 104.918 126.451 104.36C126.168 103.794 126.026 103.146 126.026 102.417ZM131.638 102.443C131.638 102.005 131.552 101.632 131.381 101.323C131.209 101.005 130.977 100.765 130.686 100.602C130.394 100.43 130.081 100.345 129.746 100.345C129.411 100.345 129.102 100.426 128.819 100.589C128.536 100.752 128.304 100.992 128.124 101.31C127.953 101.619 127.867 101.988 127.867 102.417C127.867 102.846 127.953 103.223 128.124 103.549C128.304 103.867 128.536 104.112 128.819 104.283C129.111 104.455 129.42 104.541 129.746 104.541C130.081 104.541 130.394 104.459 130.686 104.296C130.977 104.124 131.209 103.884 131.381 103.575C131.552 103.258 131.638 102.88 131.638 102.443ZM134.749 108.543V108.363C135.616 107.471 136.281 106.42 136.744 105.21C137.216 103.991 137.452 102.73 137.452 101.426C137.452 100.087 137.203 98.7873 136.706 97.5259C136.217 96.2646 135.5 95.1835 134.556 94.2825V94.1152H136.371C137.289 94.9389 137.988 95.9986 138.469 97.2943C138.95 98.5814 139.19 99.9585 139.19 101.426C139.19 102.859 138.958 104.202 138.495 105.454C138.04 106.707 137.396 107.737 136.564 108.543H134.749Z" fill="#231F20"/>
</svg>
