<svg width="231" height="195" viewBox="0 0 231 195" fill="none" xmlns="http://www.w3.org/2000/svg">
<path d="M100.771 193.403C100.255 193.353 99.7399 193.293 99.2267 193.216C98.206 193.063 97.1877 192.844 96.2199 192.477C95.3051 192.131 94.4291 191.642 93.7321 190.943C93.5664 190.777 93.4144 190.576 93.2793 190.383C93.1335 190.174 93.0182 189.945 92.9246 189.709C92.7342 189.229 92.6302 188.719 92.5312 188.214C92.5047 188.079 92.4791 187.942 92.4762 187.803C92.4739 187.692 92.4928 187.582 92.4858 187.47C92.4459 186.83 92.5511 186.179 92.6652 185.551C93.1468 182.896 94.3311 180.43 95.5097 178.029C97.6716 173.626 100.068 168.968 104.314 166.555C105.818 165.701 107.578 165.168 109.276 165.484C112.625 166.109 114.532 169.624 115.819 172.802C117.916 177.98 119.658 183.609 118.595 189.098C118.363 190.296 117.975 191.512 117.149 192.405C115.599 194.084 113.027 194.163 110.753 194.077C107.42 193.951 104.091 193.726 100.771 193.403Z" fill="#F9FAFB"/>
<path d="M42.7243 52.8565C42.2669 50.6451 41.5146 48.4163 39.9989 46.752C38.9749 45.6278 37.6529 44.8191 36.2816 44.171C33.0741 42.6549 29.4935 41.9488 25.9554 42.1346C23.1253 42.283 20.2777 43.0202 17.9239 44.6108C15.5704 46.2014 13.7557 48.7063 13.3359 51.5306C13.0838 53.2268 13.3297 54.9533 13.5755 56.6503C14.0428 59.8777 14.5103 63.1052 14.9776 66.3324C15.1856 67.7681 15.4013 69.2301 16.0299 70.5354C17.5181 73.6252 21.1135 75.2406 24.5217 75.2691C27.9298 75.2973 31.2048 74.015 34.3207 72.623C36.1509 71.8054 37.9814 70.93 39.5355 69.6582C41.1228 68.3589 42.3299 66.6512 42.7653 64.6193C43.2914 62.1648 43.4299 59.594 43.2826 57.0914C43.1988 55.6685 43.0127 54.252 42.7243 52.8565Z" fill="#F9FAFB"/>
<path d="M44.3139 78.0943C40.1399 75.2411 34.5994 74.7427 29.8096 76.336C26.2399 77.5234 22.7894 80.2131 22.2345 83.9598C21.8126 86.8091 23.1237 89.5838 23.9312 92.3474C24.2291 93.3668 24.4605 94.4039 24.7068 95.4369C25.4303 98.4676 26.508 102.2 29.159 104.115C31.4342 105.759 34.5312 105.736 37.234 105.002C42.5223 103.564 47.0592 99.5557 49.1646 94.4604C50.8719 90.3287 50.6235 85.9839 48.235 82.1928C47.3235 80.7459 46.155 79.4602 44.7905 78.4359C44.6341 78.3183 44.4752 78.2046 44.3139 78.0943Z" fill="#F9FAFB"/>
<path d="M55.4435 123.495C57.9155 121.196 59.7357 118.054 59.9546 114.672C60.1734 111.289 58.5916 107.719 55.6621 106.052C53.919 105.061 51.872 104.788 49.877 104.626C47.4405 104.427 44.9591 104.37 42.581 104.939C38.3352 105.956 34.6003 109.114 33.0773 113.235C31.5541 117.356 32.3901 122.325 35.3406 125.565C37.2863 127.702 40.1102 128.973 42.9754 129.114C45.8431 129.256 48.4111 127.966 50.8946 126.658C52.5306 125.796 54.0842 124.759 55.4435 123.495Z" fill="#F9FAFB"/>
<path d="M68.9282 138.629C69.4907 137.366 69.9899 136.053 70.139 134.677C70.2881 133.301 70.0576 131.842 69.2659 130.711C68.6555 129.838 67.752 129.212 66.7967 128.75C63.8532 127.33 60.4435 127.376 57.186 127.577C53.7939 127.786 50.2358 128.195 47.4647 130.178C46.0131 131.216 44.8488 132.658 44.1346 134.3C43.3258 136.161 43.1 138.233 43.1534 140.263C43.2086 142.364 43.5629 144.487 44.479 146.375C45.3952 148.263 46.9145 149.904 48.8492 150.688C49.832 151.087 50.89 151.258 51.9418 151.387C52.7957 151.493 53.6593 151.56 54.5194 151.507C55.3526 151.455 56.1106 151.227 56.902 150.978C58.0487 150.618 59.0808 150.149 60.1102 149.516C61.3889 148.729 62.5582 147.769 63.611 146.697C64.6776 145.611 65.6261 144.41 66.4684 143.14C67.3127 141.867 68.0512 140.524 68.6962 139.138C68.775 138.969 68.8523 138.799 68.9282 138.629Z" fill="#F9FAFB"/>
<path d="M74.8916 165.508C76.837 162.019 78.1486 158.198 79.0515 154.3C79.4252 152.688 79.7312 151.013 79.4371 149.384C79.1431 147.755 78.1307 146.164 76.5779 145.622C75.5783 145.274 74.4832 145.388 73.4376 145.55C68.7378 146.277 64.0885 147.939 60.4151 150.981C58.3292 152.709 56.5298 154.99 56.0967 157.675C55.7806 159.635 56.2233 161.666 57.0821 163.453C57.9407 165.239 59.1976 166.802 60.5582 168.238C61.6269 169.365 62.7888 170.44 64.179 171.124C65.1066 171.581 66.1441 171.849 67.1803 171.813C67.846 171.791 68.5495 171.742 69.1576 171.445C70.7223 170.682 72.0791 169.526 73.1552 168.16C73.8092 167.329 74.3768 166.432 74.8916 165.508Z" fill="#F9FAFB"/>
<path d="M91.2562 184.488C91.9857 183.338 92.447 181.933 92.8401 180.615C93.8696 177.163 94.1144 173.512 93.9962 169.925C93.8727 166.179 93.7501 160.572 89.2647 159.372C87.6344 158.936 85.9035 159.441 84.3561 160.118C79.2062 162.371 74.951 166.63 72.6807 171.804C70.9597 175.727 72.1198 179.634 75.3818 182.351C77.4052 184.037 79.8829 185.062 82.3571 185.947C84.074 186.561 85.8809 187.129 87.6881 186.896C89.3617 186.68 90.4664 185.733 91.2562 184.488Z" fill="#F9FAFB"/>
<path d="M138.056 193.403C138.572 193.353 139.087 193.293 139.601 193.216C140.621 193.063 141.64 192.844 142.607 192.477C143.522 192.131 144.398 191.642 145.095 190.943C145.261 190.777 145.413 190.576 145.548 190.383C145.694 190.174 145.809 189.945 145.903 189.709C146.093 189.229 146.197 188.719 146.296 188.214C146.323 188.079 146.349 187.942 146.351 187.803C146.354 187.692 146.335 187.582 146.342 187.47C146.382 186.83 146.276 186.179 146.163 185.551C145.681 182.896 144.497 180.43 143.318 178.029C141.156 173.626 138.76 168.968 134.513 166.555C133.009 165.701 131.249 165.168 129.552 165.484C126.203 166.109 124.296 169.624 123.009 172.802C120.912 177.98 119.17 183.609 120.233 189.098C120.465 190.296 120.853 191.512 121.679 192.405C123.229 194.084 125.8 194.163 128.075 194.077C131.407 193.951 134.736 193.726 138.056 193.403Z" fill="#F9FAFB"/>
<path d="M198.327 27.2959C198.895 23.7204 198.882 23.6075 199.598 20.7448C199.829 19.8195 200.02 17.0608 200.952 15.3017C202.563 12.2613 206.275 11.0473 209.617 10.314C212.613 9.65654 215.717 9.31867 218.748 9.78433C226.454 10.9681 228.588 14.2912 229.423 19.8801C229.811 22.4781 229.715 25.154 229.22 27.7334C228.141 33.3553 228.001 36.2605 224.56 38.8008C222.087 40.6265 218.814 40.9315 215.757 40.6989C212.343 40.4395 208.696 40.0051 205.563 38.6142C203.968 37.906 202.434 37.0602 200.984 36.0852C199.739 35.2482 198.653 33.8327 198.332 32.3631C197.973 30.7168 198.044 29.0757 198.327 27.2959Z" fill="#F9FAFB"/>
<path d="M196.102 52.8565C196.559 50.645 197.311 48.4163 198.827 46.752C199.851 45.6278 201.173 44.8191 202.544 44.171C205.752 42.6549 209.332 41.9488 212.871 42.1346C215.701 42.283 218.548 43.0202 220.902 44.6108C223.255 46.2014 225.07 48.7063 225.49 51.5306C225.742 53.2268 225.496 54.9533 225.25 56.6503C224.783 59.8777 224.315 63.1052 223.848 66.3324C223.64 67.7681 223.424 69.2301 222.796 70.5354C221.308 73.6252 217.712 75.2406 214.304 75.2691C210.896 75.2973 207.621 74.015 204.505 72.623C202.675 71.8054 200.844 70.93 199.29 69.6582C197.703 68.3589 196.496 66.6512 196.06 64.6193C195.534 62.1647 195.396 59.594 195.543 57.0914C195.627 55.6685 195.813 54.252 196.102 52.8565Z" fill="#F9FAFB"/>
<path d="M194.509 78.0943C198.683 75.2411 204.223 74.7427 209.013 76.336C212.583 77.5234 216.033 80.2131 216.588 83.9598C217.01 86.8091 215.699 89.5838 214.892 92.3474C214.594 93.3668 214.362 94.4039 214.116 95.4369C213.393 98.4676 212.315 102.2 209.664 104.115C207.389 105.759 204.292 105.736 201.589 105.002C196.301 103.564 191.764 99.5557 189.658 94.4604C187.951 90.3287 188.199 85.9839 190.588 82.1928C191.499 80.7459 192.668 79.4602 194.033 78.4359C194.189 78.3183 194.348 78.2046 194.509 78.0943Z" fill="#F9FAFB"/>
<path d="M183.376 123.494C180.904 121.195 179.084 118.053 178.865 114.671C178.646 111.288 180.228 107.718 183.157 106.051C184.901 105.06 186.948 104.787 188.943 104.625C191.379 104.426 193.86 104.369 196.239 104.938C200.484 105.955 204.219 109.113 205.742 113.234C207.265 117.355 206.429 122.324 203.479 125.564C201.533 127.701 198.709 128.972 195.844 129.113C192.976 129.255 190.408 127.965 187.925 126.657C186.289 125.795 184.735 124.758 183.376 123.494Z" fill="#F9FAFB"/>
<path d="M169.899 138.629C169.337 137.366 168.837 136.053 168.688 134.677C168.539 133.301 168.77 131.842 169.561 130.711C170.172 129.838 171.075 129.212 172.031 128.75C174.974 127.33 178.384 127.376 181.641 127.577C185.034 127.786 188.592 128.195 191.363 130.178C192.814 131.216 193.979 132.658 194.693 134.3C195.502 136.161 195.728 138.233 195.674 140.263C195.619 142.364 195.265 144.487 194.349 146.375C193.432 148.263 191.913 149.904 189.978 150.688C188.996 151.087 187.938 151.258 186.886 151.387C186.032 151.493 185.168 151.56 184.308 151.507C183.475 151.455 182.717 151.227 181.926 150.978C180.779 150.618 179.747 150.149 178.717 149.516C177.439 148.729 176.269 147.769 175.217 146.697C174.15 145.611 173.202 144.41 172.359 143.14C171.515 141.867 170.776 140.524 170.131 139.138C170.053 138.969 169.975 138.799 169.899 138.629Z" fill="#F9FAFB"/>
<path d="M163.937 165.508C161.992 162.019 160.68 158.198 159.777 154.3C159.403 152.688 159.097 151.013 159.391 149.384C159.686 147.754 160.698 146.164 162.251 145.622C163.25 145.274 164.345 145.388 165.391 145.55C170.091 146.277 174.74 147.939 178.414 150.981C180.499 152.709 182.299 154.99 182.732 157.675C183.048 159.635 182.605 161.666 181.746 163.453C180.888 165.239 179.631 166.802 178.27 168.238C177.202 169.365 176.04 170.44 174.65 171.124C173.722 171.581 172.684 171.849 171.648 171.813C170.983 171.791 170.279 171.742 169.671 171.445C168.106 170.682 166.75 169.526 165.673 168.16C165.02 167.329 164.452 166.432 163.937 165.508Z" fill="#F9FAFB"/>
<path d="M147.569 184.49C146.839 183.34 146.378 181.935 145.985 180.617C144.955 177.165 144.711 173.514 144.829 169.927C144.952 166.181 145.075 160.574 149.56 159.374C151.191 158.938 152.922 159.443 154.469 160.12C159.619 162.373 163.874 166.632 166.144 171.806C167.865 175.729 166.705 179.636 163.443 182.353C161.42 184.039 158.942 185.064 156.468 185.949C154.751 186.563 152.944 187.131 151.137 186.898C149.463 186.682 148.359 185.735 147.569 184.49Z" fill="#F9FAFB"/>
<path d="M40.4997 27.2959C39.9316 23.7204 39.9448 23.6075 39.2286 20.7448C38.997 19.8195 38.8067 17.0608 37.8744 15.3017C36.2631 12.2613 32.5518 11.0473 29.2097 10.314C26.2133 9.65654 23.1096 9.31867 20.0782 9.78433C12.3727 10.9681 10.238 14.2912 9.40324 19.8801C9.0153 22.4781 9.11124 25.154 9.60627 27.7334C10.685 33.3553 10.825 36.2605 14.2659 38.8008C16.739 40.6265 20.0121 40.9315 23.0691 40.6989C26.4833 40.4395 30.1308 40.0051 33.2633 38.6142C34.8581 37.906 36.3927 37.0602 37.8423 36.0852C39.087 35.2482 40.1733 33.8327 40.494 32.3631C40.8532 30.7168 40.7827 29.0757 40.4997 27.2959Z" fill="#F9FAFB"/>
<path d="M100.771 193.403C100.255 193.353 99.7399 193.293 99.2267 193.216C98.206 193.063 97.1877 192.844 96.2199 192.477C95.3051 192.131 94.4291 191.642 93.7321 190.943C93.5664 190.777 93.4144 190.576 93.2793 190.383C93.1335 190.174 93.0182 189.945 92.9246 189.709C92.7342 189.229 92.6302 188.719 92.5312 188.214C92.5047 188.079 92.4791 187.942 92.4762 187.803C92.4739 187.692 92.4928 187.582 92.4858 187.47C92.4459 186.83 92.5511 186.179 92.6652 185.551C93.1468 182.896 94.3311 180.43 95.5097 178.029C97.6716 173.626 100.068 168.968 104.314 166.555C105.818 165.701 107.578 165.168 109.276 165.484C112.625 166.109 114.532 169.624 115.819 172.802C117.916 177.98 119.658 183.609 118.595 189.098C118.363 190.296 117.975 191.512 117.149 192.405C115.599 194.084 113.027 194.163 110.753 194.077C107.42 193.951 104.091 193.726 100.771 193.403Z" fill="#F9FAFB"/>
<path d="M40.4997 27.2959C39.9316 23.7204 39.9448 23.6075 39.2286 20.7448C38.997 19.8195 38.8067 17.0608 37.8744 15.3017C36.2631 12.2613 32.5518 11.0473 29.2097 10.314C26.2133 9.65654 23.1096 9.31867 20.0782 9.78433C12.3727 10.9681 10.238 14.2912 9.40324 19.8801C9.0153 22.4781 9.11124 25.154 9.60627 27.7334C10.685 33.3553 10.825 36.2605 14.2659 38.8008C16.739 40.6265 20.0121 40.9315 23.0691 40.6989C26.4833 40.4395 30.1308 40.0051 33.2633 38.6142C34.8581 37.906 36.3927 37.0602 37.8423 36.0852C39.087 35.2482 40.1733 33.8327 40.494 32.3631C40.8532 30.7168 40.7827 29.0757 40.4997 27.2959Z" fill="#1D4ED8"/>
<path d="M42.7243 52.8565C42.2669 50.6451 41.5146 48.4163 39.9989 46.752C38.9749 45.6278 37.6529 44.8191 36.2816 44.171C33.0741 42.6549 29.4935 41.9488 25.9554 42.1346C23.1253 42.283 20.2777 43.0202 17.9239 44.6108C15.5704 46.2014 13.7557 48.7063 13.3359 51.5306C13.0838 53.2268 13.3297 54.9533 13.5755 56.6503C14.0428 59.8777 14.5103 63.1052 14.9776 66.3324C15.1856 67.7681 15.4013 69.2301 16.0299 70.5354C17.5181 73.6252 21.1135 75.2406 24.5217 75.2691C27.9298 75.2973 31.2048 74.015 34.3207 72.623C36.1509 71.8054 37.9814 70.93 39.5355 69.6582C41.1228 68.3589 42.3299 66.6512 42.7653 64.6193C43.2914 62.1648 43.4299 59.594 43.2826 57.0914C43.1988 55.6685 43.0127 54.252 42.7243 52.8565Z" fill="#F9FAFB"/>
<path d="M44.3139 78.0943C40.1399 75.2411 34.5994 74.7427 29.8096 76.336C26.2399 77.5234 22.7894 80.2131 22.2345 83.9598C21.8126 86.8091 23.1237 89.5838 23.9312 92.3474C24.2291 93.3668 24.4605 94.4039 24.7068 95.4369C25.4303 98.4676 26.508 102.2 29.159 104.115C31.4342 105.759 34.5312 105.736 37.234 105.002C42.5223 103.564 47.0592 99.5557 49.1646 94.4604C50.8719 90.3287 50.6235 85.9839 48.235 82.1928C47.3235 80.7459 46.155 79.4602 44.7905 78.4359C44.6341 78.3183 44.4752 78.2046 44.3139 78.0943Z" fill="#1D4ED8"/>
<path d="M55.4435 123.495C57.9155 121.196 59.7357 118.054 59.9546 114.672C60.1734 111.289 58.5916 107.719 55.6621 106.052C53.919 105.061 51.872 104.788 49.877 104.626C47.4405 104.427 44.9591 104.37 42.581 104.939C38.3352 105.956 34.6003 109.114 33.0773 113.235C31.5541 117.356 32.3901 122.325 35.3406 125.565C37.2863 127.702 40.1102 128.973 42.9754 129.114C45.8431 129.256 48.4111 127.966 50.8946 126.658C52.5306 125.796 54.0842 124.759 55.4435 123.495Z" fill="#F9FAFB"/>
<path d="M68.9282 138.629C69.4907 137.366 69.9899 136.053 70.139 134.677C70.2881 133.301 70.0576 131.842 69.2659 130.711C68.6555 129.838 67.752 129.212 66.7967 128.75C63.8532 127.33 60.4435 127.376 57.186 127.577C53.7939 127.786 50.2358 128.195 47.4647 130.178C46.0131 131.216 44.8488 132.658 44.1346 134.3C43.3258 136.161 43.1 138.233 43.1534 140.263C43.2086 142.364 43.5629 144.487 44.479 146.375C45.3952 148.263 46.9145 149.904 48.8492 150.688C49.832 151.087 50.89 151.258 51.9418 151.387C52.7957 151.493 53.6593 151.56 54.5194 151.507C55.3526 151.455 56.1106 151.227 56.902 150.978C58.0487 150.618 59.0808 150.149 60.1102 149.516C61.3889 148.729 62.5582 147.769 63.611 146.697C64.6776 145.611 65.6261 144.41 66.4684 143.14C67.3127 141.867 68.0512 140.524 68.6962 139.138C68.775 138.969 68.8523 138.799 68.9282 138.629Z" fill="#F9FAFB"/>
<path d="M74.8916 165.508C76.837 162.019 78.1486 158.198 79.0515 154.3C79.4252 152.688 79.7312 151.013 79.4371 149.384C79.1431 147.755 78.1307 146.164 76.5779 145.622C75.5783 145.274 74.4832 145.388 73.4376 145.55C68.7378 146.277 64.0885 147.939 60.4151 150.981C58.3292 152.709 56.5298 154.99 56.0967 157.675C55.7806 159.635 56.2233 161.666 57.0821 163.453C57.9407 165.239 59.1976 166.802 60.5582 168.238C61.6269 169.365 62.7888 170.44 64.179 171.124C65.1066 171.581 66.1441 171.849 67.1803 171.813C67.846 171.791 68.5495 171.742 69.1576 171.445C70.7223 170.682 72.0791 169.526 73.1552 168.16C73.8092 167.329 74.3768 166.432 74.8916 165.508Z" fill="#F9FAFB"/>
<path d="M91.2562 184.488C91.9857 183.338 92.447 181.933 92.8401 180.615C93.8696 177.163 94.1144 173.512 93.9962 169.925C93.8727 166.179 93.7501 160.572 89.2647 159.372C87.6344 158.936 85.9035 159.441 84.3561 160.118C79.2062 162.371 74.951 166.63 72.6807 171.804C70.9597 175.727 72.1198 179.634 75.3818 182.351C77.4052 184.037 79.8829 185.062 82.3571 185.947C84.074 186.561 85.8809 187.129 87.6881 186.896C89.3617 186.68 90.4664 185.733 91.2562 184.488Z" fill="#F9FAFB"/>
<path d="M138.056 193.403C138.572 193.353 139.087 193.293 139.601 193.216C140.621 193.063 141.64 192.844 142.607 192.477C143.522 192.131 144.398 191.642 145.095 190.943C145.261 190.777 145.413 190.576 145.548 190.383C145.694 190.174 145.809 189.945 145.903 189.709C146.093 189.229 146.197 188.719 146.296 188.214C146.323 188.079 146.349 187.942 146.351 187.803C146.354 187.692 146.335 187.582 146.342 187.47C146.382 186.83 146.276 186.179 146.163 185.551C145.681 182.896 144.497 180.43 143.318 178.029C141.156 173.626 138.76 168.968 134.513 166.555C133.009 165.701 131.249 165.168 129.552 165.484C126.203 166.109 124.296 169.624 123.009 172.802C120.912 177.98 119.17 183.609 120.233 189.098C120.465 190.296 120.853 191.512 121.679 192.405C123.229 194.084 125.8 194.163 128.075 194.077C131.407 193.951 134.736 193.726 138.056 193.403Z" fill="#F9FAFB"/>
<path d="M198.327 27.2959C198.895 23.7204 198.882 23.6075 199.598 20.7448C199.829 19.8195 200.02 17.0608 200.952 15.3017C202.563 12.2613 206.275 11.0473 209.617 10.314C212.613 9.65654 215.717 9.31867 218.748 9.78433C226.454 10.9681 228.588 14.2912 229.423 19.8801C229.811 22.4781 229.715 25.154 229.22 27.7334C228.141 33.3553 228.001 36.2605 224.56 38.8008C222.087 40.6265 218.814 40.9315 215.757 40.6989C212.343 40.4395 208.696 40.0051 205.563 38.6142C203.968 37.906 202.434 37.0602 200.984 36.0852C199.739 35.2482 198.653 33.8327 198.332 32.3631C197.973 30.7168 198.044 29.0757 198.327 27.2959Z" fill="#F9FAFB"/>
<path d="M196.102 52.8565C196.559 50.645 197.311 48.4163 198.827 46.752C199.851 45.6278 201.173 44.8191 202.544 44.171C205.752 42.6549 209.332 41.9488 212.871 42.1346C215.701 42.283 218.548 43.0202 220.902 44.6108C223.255 46.2014 225.07 48.7063 225.49 51.5306C225.742 53.2268 225.496 54.9533 225.25 56.6503C224.783 59.8777 224.315 63.1052 223.848 66.3324C223.64 67.7681 223.424 69.2301 222.796 70.5354C221.308 73.6252 217.712 75.2406 214.304 75.2691C210.896 75.2973 207.621 74.015 204.505 72.623C202.675 71.8054 200.844 70.93 199.29 69.6582C197.703 68.3589 196.496 66.6512 196.06 64.6193C195.534 62.1647 195.396 59.594 195.543 57.0914C195.627 55.6685 195.813 54.252 196.102 52.8565Z" fill="#F9FAFB"/>
<path d="M183.376 123.494C180.904 121.195 179.084 118.053 178.865 114.671C178.646 111.288 180.228 107.718 183.157 106.051C184.901 105.06 186.948 104.787 188.943 104.625C191.379 104.426 193.86 104.369 196.239 104.938C200.484 105.955 204.219 109.113 205.742 113.234C207.265 117.355 206.429 122.324 203.479 125.564C201.533 127.701 198.709 128.972 195.844 129.113C192.976 129.255 190.408 127.965 187.925 126.657C186.289 125.795 184.735 124.758 183.376 123.494Z" fill="#1D4ED8"/>
<path d="M194.509 78.0943C198.683 75.2411 204.223 74.7427 209.013 76.336C212.583 77.5234 216.033 80.2131 216.588 83.9598C217.01 86.8091 215.699 89.5838 214.892 92.3474C214.594 93.3668 214.362 94.4039 214.116 95.4369C213.393 98.4676 212.315 102.2 209.664 104.115C207.389 105.759 204.292 105.736 201.589 105.002C196.301 103.564 191.764 99.5557 189.658 94.4604C187.951 90.3287 188.199 85.9839 190.588 82.1928C191.499 80.7459 192.668 79.4602 194.033 78.4359C194.189 78.3183 194.348 78.2046 194.509 78.0943Z" fill="#F9FAFB"/>
<path d="M169.899 138.629C169.337 137.366 168.837 136.053 168.688 134.677C168.539 133.301 168.77 131.842 169.561 130.711C170.172 129.838 171.075 129.212 172.031 128.75C174.974 127.33 178.384 127.376 181.641 127.577C185.034 127.786 188.592 128.195 191.363 130.178C192.814 131.216 193.979 132.658 194.693 134.3C195.502 136.161 195.728 138.233 195.674 140.263C195.619 142.364 195.265 144.487 194.349 146.375C193.432 148.263 191.913 149.904 189.978 150.688C188.996 151.087 187.938 151.258 186.886 151.387C186.032 151.493 185.168 151.56 184.308 151.507C183.475 151.455 182.717 151.227 181.926 150.978C180.779 150.618 179.747 150.149 178.717 149.516C177.439 148.729 176.269 147.769 175.217 146.697C174.15 145.611 173.202 144.41 172.359 143.14C171.515 141.867 170.776 140.524 170.131 139.138C170.053 138.969 169.975 138.799 169.899 138.629Z" fill="#F9FAFB"/>
<path d="M163.937 165.508C161.992 162.019 160.68 158.198 159.777 154.3C159.403 152.688 159.097 151.013 159.391 149.384C159.686 147.754 160.698 146.164 162.251 145.622C163.25 145.274 164.345 145.388 165.391 145.55C170.091 146.277 174.74 147.939 178.414 150.981C180.499 152.709 182.299 154.99 182.732 157.675C183.048 159.635 182.605 161.666 181.746 163.453C180.888 165.239 179.631 166.802 178.27 168.238C177.202 169.365 176.04 170.44 174.65 171.124C173.722 171.581 172.684 171.849 171.648 171.813C170.983 171.791 170.279 171.742 169.671 171.445C168.106 170.682 166.75 169.526 165.673 168.16C165.02 167.329 164.452 166.432 163.937 165.508Z" fill="#F9FAFB"/>
<path d="M147.569 184.49C146.839 183.34 146.378 181.935 145.985 180.617C144.955 177.165 144.711 173.514 144.829 169.927C144.952 166.181 145.075 160.574 149.56 159.374C151.191 158.938 152.922 159.443 154.469 160.12C159.619 162.373 163.874 166.632 166.144 171.806C167.865 175.729 166.705 179.636 163.443 182.353C161.42 184.039 158.942 185.064 156.468 185.949C154.751 186.563 152.944 187.131 151.137 186.898C149.463 186.682 148.359 185.735 147.569 184.49Z" fill="#F9FAFB"/>
<path d="M41.0319 27.1485C40.5641 24.1988 39.9142 21.3024 39.3795 18.3684C38.7393 14.8551 36.9433 12.5038 33.6616 11.0914C29.9757 9.50494 25.5059 8.767 21.5177 9.06568C18.4585 9.29486 15.0851 10.0467 12.6296 12.0078C7.35568 16.2202 8.46426 24.5835 9.52978 30.3512C10.0487 33.159 10.6036 36.0656 12.6776 38.1684C15.2552 40.7818 18.9079 41.4714 22.4398 41.2955C27.233 41.0572 31.8674 40.1891 36.093 37.8156C37.9567 36.7688 39.7799 35.5905 40.6722 33.551C41.5419 31.5637 41.3428 29.2375 41.0319 27.1485C40.9269 26.4422 39.8616 26.7422 39.9661 27.4446C40.2594 29.416 40.4476 31.7016 39.4628 33.5152C38.4654 35.3514 36.476 36.3805 34.6984 37.3076C31.1898 39.1376 27.4225 39.7979 23.5149 40.1081C20.0357 40.3843 16.3461 40.1259 13.6742 37.5909C11.7752 35.7894 11.2096 33.2834 10.7346 30.7978C9.98903 26.8974 9.34773 23.0971 10.0842 19.1348C10.4843 16.9824 11.2076 14.8451 12.8239 13.3055C14.7871 11.435 17.6238 10.702 20.2242 10.3223C23.9944 9.772 27.9811 10.3743 31.599 11.5131C33.3582 12.0669 35.1503 12.8566 36.4327 14.2347C37.6644 15.5585 38.0778 17.279 38.3752 19.016C38.8581 21.8376 39.5169 24.612 39.9661 27.4446C40.0781 28.1507 41.1434 27.8509 41.0319 27.1485Z" fill="#231F20"/>
<path d="M43.2598 52.71C42.5594 49.4582 41.2338 46.5454 38.379 44.6895C35.3533 42.7229 31.6067 41.7348 28.0362 41.5733C21.7559 41.2893 14.0475 44.1596 12.8386 51.1928C12.5437 52.9078 12.7382 54.6283 12.9786 56.3368C13.2753 58.4458 13.5887 60.5528 13.894 62.6605C14.3838 66.0432 14.4074 70.0716 16.8662 72.7132C21.7582 77.969 29.4793 75.4358 35.0245 72.9157C38.4609 71.3541 41.9944 69.2323 43.1449 65.3675C44.3365 61.366 44.0619 56.7533 43.2598 52.71C43.1206 52.0076 42.055 52.3049 42.194 53.006C42.8791 56.4598 43.0179 60.0683 42.4147 63.5469C41.8359 66.8854 39.8451 69.0969 36.9582 70.7197C31.9228 73.5499 24.6532 76.646 19.2058 73.2076C16.3847 71.4271 15.8505 68.5134 15.4029 65.4218C14.8913 61.8881 14.2466 58.3447 13.887 54.7919C13.5683 51.6428 14.2884 48.7971 16.5296 46.4996C18.8798 44.0906 22.2273 42.968 25.5113 42.7216C29.2221 42.4433 33.0418 43.1626 36.3781 44.8345C39.8021 46.55 41.4018 49.3268 42.1943 53.0063C42.3447 53.7061 43.4105 53.4098 43.2598 52.71Z" fill="#5B6664"/>
<path d="M44.5949 77.6155C39.3039 74.1128 31.8322 73.9064 26.4273 77.3191C24.1093 78.7827 22.1429 81.0175 21.7039 83.8135C21.1433 87.3833 23.0391 90.8747 23.8614 94.2582C24.5571 97.1219 25.1823 100.142 26.9185 102.586C28.6014 104.955 31.1837 106.088 34.0431 106.037C40.0037 105.932 45.6913 101.89 48.6252 96.8089C50.4108 93.7168 51.2585 90.1039 50.5742 86.5581C49.8707 82.9123 47.5949 79.7159 44.5949 77.6155C44.0094 77.2055 43.4563 78.1708 44.0371 78.5774C49.3868 82.3228 51.1208 89.1739 48.2972 95.0581C46.0069 99.8307 41.4844 103.561 36.3074 104.656C33.4708 105.256 30.3691 104.916 28.3535 102.625C26.6591 100.698 25.9237 98.0757 25.3239 95.6301C24.9702 94.1879 24.6476 92.7439 24.1972 91.3281C23.7354 89.8763 23.1778 88.4388 22.897 86.9357C22.3257 83.8789 23.3536 81.1897 25.71 79.2079C30.734 74.9825 38.7017 75.0455 44.0371 78.5774C44.6333 78.9722 45.1875 78.008 44.5949 77.6155Z" fill="#231F20"/>
<path d="M55.8378 123.887C59.7405 120.165 61.9859 114.395 59.3862 109.267C58.161 106.85 56.0273 105.246 53.4316 104.587C50.4191 103.821 46.9386 103.685 43.8753 104.13C38.6125 104.893 33.8551 108.611 32.3031 113.82C30.7657 118.982 32.6771 124.985 37.2719 127.882C43.4391 131.771 50.9365 128.325 55.8378 123.887C56.3681 123.407 55.5842 122.621 55.0562 123.099C52.969 124.989 50.4718 126.412 47.8932 127.51C45.2886 128.62 42.6153 128.896 39.9151 127.936C35.014 126.194 32.3332 121.017 32.9864 115.938C33.5953 111.203 37.206 107.251 41.6517 105.782C44.3685 104.885 47.2794 104.955 50.0942 105.199C52.7514 105.429 55.4322 105.982 57.2734 108.087C61.3399 112.738 59.0349 119.304 55.0562 123.099C54.5386 123.593 55.321 124.38 55.8378 123.887Z" fill="#5B6664"/>
<path d="M69.4465 138.768C70.574 135.942 71.5356 132.592 69.4208 129.978C67.937 128.144 65.5112 127.438 63.274 127.134C60.698 126.784 58.0602 126.908 55.4793 127.145C52.2005 127.448 48.7514 128.157 46.2391 130.458C42.6894 133.709 41.8002 139.273 42.9788 143.792C44.3529 149.06 48.7223 152.507 54.2167 152.098C61.4454 151.559 66.8261 145.07 69.4465 138.768C69.7211 138.108 68.652 137.82 68.3807 138.472C66.2422 143.616 62.2088 148.805 56.7287 150.497C51.6759 152.057 46.4876 149.97 44.5157 144.959C42.9902 141.082 43.2884 136.204 45.7018 132.75C48.853 128.239 55.3126 127.978 60.3039 128.04C62.6849 128.07 65.3594 128.288 67.4052 129.642C70.5631 131.732 69.5723 135.485 68.3807 138.473C68.1152 139.137 69.1841 139.426 69.4465 138.768Z" fill="#5B6664"/>
<path d="M75.3648 165.791C76.7939 163.186 77.9126 160.428 78.7577 157.577C79.5299 154.972 80.4891 151.978 79.9658 149.238C79.5475 147.048 77.9898 145.108 75.6967 144.872C73.0841 144.603 70.0486 145.559 67.6074 146.408C63.0188 148.005 57.9202 151.006 56.0489 155.781C53.9368 161.17 57.7319 166.741 61.6906 170.107C63.6959 171.812 66.4892 173.036 69.1127 172.059C71.9281 171.011 73.9321 168.312 75.3648 165.791C75.719 165.168 74.7642 164.607 74.4105 165.229C73.2148 167.333 71.7572 169.314 69.6394 170.553C67.2116 171.972 64.4839 171.031 62.4724 169.319C59.0355 166.394 55.4471 161.636 56.852 156.839C58.1349 152.458 62.7113 149.539 66.6845 147.937C68.6296 147.153 70.6655 146.602 72.7265 146.232C74.0023 146.002 75.4828 145.691 76.6995 146.294C77.8156 146.846 78.5222 147.966 78.8194 149.159C79.4993 151.889 78.3594 155.116 77.5581 157.723C76.7571 160.328 75.7201 162.842 74.41 165.23C74.0659 165.857 75.0202 166.42 75.3648 165.791Z" fill="#5B6664"/>
<path d="M91.7323 184.773C94.7857 179.675 94.904 172.781 94.4009 167.021C94.2212 164.963 93.8542 162.765 92.6189 161.056C91.2826 159.209 89.0818 158.394 86.8579 158.755C84.1095 159.202 81.4269 160.838 79.2564 162.529C77.0504 164.248 75.1442 166.355 73.6689 168.741C72.238 171.056 71.0732 173.644 71.395 176.433C71.6942 179.025 73.1723 181.273 75.1608 182.887C77.7399 184.98 81.1953 186.389 84.3957 187.177C87.3221 187.897 89.9956 187.377 91.7323 184.773C92.1301 184.176 91.1729 183.618 90.7777 184.211C89.0523 186.798 86.2701 186.64 83.5869 185.784C81.1362 185.003 78.6413 184.04 76.5284 182.539C74.387 181.017 72.6788 178.764 72.4626 176.059C72.266 173.603 73.3637 171.333 74.6229 169.304C77.1264 165.269 81.0724 161.785 85.5826 160.235C88.0065 159.403 90.5812 159.78 91.9792 162.094C92.9153 163.644 93.1839 165.549 93.3203 167.326C93.7422 172.823 93.6919 179.345 90.778 184.211C90.4092 184.826 91.3646 185.387 91.7323 184.773Z" fill="#5B6664"/>
<path d="M107.498 165.711C108.239 165.711 109.018 165.834 109.839 166.107C112.031 166.837 113.911 168.771 115.425 171.855C117.292 175.658 118.469 179.726 118.923 183.945C119.13 185.875 119.093 187.509 118.809 188.941C118.728 189.351 118.625 189.751 118.502 190.131C118.075 191.458 117.318 192.518 116.368 193.115C115.553 193.628 114.595 193.821 113.764 193.943C110.884 194.366 108.002 194.151 104.804 193.851C101.919 193.579 99.3278 193.289 96.826 192.488C94.1257 191.622 92.726 190.088 92.5465 187.799C92.351 185.307 93.3815 182.802 94.3783 180.381C94.5959 179.852 94.8015 179.353 94.9937 178.854C96.1206 175.934 97.3272 173.781 99.2978 171.173C101.292 168.534 103.949 165.711 107.498 165.711ZM118.701 188.919C118.983 187.499 119.019 185.876 118.813 183.957C118.361 179.751 117.187 175.696 115.326 171.904C113.825 168.848 111.968 166.933 109.804 166.213C105.117 164.652 101.774 168.08 99.3854 171.241C97.4219 173.839 96.2194 175.985 95.0966 178.895C94.9039 179.394 94.6981 179.894 94.4802 180.424C93.4883 182.834 92.463 185.325 92.6564 187.791C92.832 190.03 94.2069 191.531 96.8594 192.382C99.3509 193.18 101.936 193.469 104.814 193.74C108.005 194.04 110.88 194.254 113.748 193.833C114.568 193.713 115.512 193.523 116.31 193.021C117.237 192.437 117.979 191.399 118.397 190.097C118.518 189.721 118.62 189.325 118.701 188.919Z" fill="#5B6664"/>
<path d="M100.77 192.847C98.2084 192.585 94.2707 192.093 93.3286 189.197C92.4003 186.343 93.7855 183.029 94.9626 180.45C96.9938 175.999 99.2651 170.891 103.278 167.895C105.472 166.257 108.435 165.17 110.958 166.734C112.914 167.946 114.083 170.174 114.98 172.227C117.276 177.483 119.353 183.783 117.929 189.549C117.056 193.082 114.121 193.624 110.943 193.527C107.547 193.424 104.152 193.171 100.77 192.847C100.063 192.779 100.067 193.893 100.77 193.961C104.457 194.314 108.202 194.68 111.908 194.657C114.483 194.641 117.162 194.038 118.404 191.517C119.747 188.791 119.637 185.263 119.213 182.335C118.705 178.829 117.522 175.432 116.155 172.18C115.179 169.86 113.925 167.428 111.808 165.964C109.405 164.303 106.471 164.701 104.034 166.075C98.8961 168.974 96.1093 175.136 93.8125 180.321C92.5344 183.206 91.1107 186.879 92.4462 189.991C93.7718 193.08 97.8599 193.663 100.77 193.961C101.478 194.033 101.472 192.919 100.77 192.847Z" fill="#5B6664"/>
<path d="M198.862 27.4459C199.26 24.9357 199.898 22.4749 200.3 19.9742C200.519 18.6096 200.703 17.1758 201.275 15.905C201.995 14.3039 203.388 13.1939 204.917 12.4256C208.025 10.8635 211.946 10.1977 215.38 10.1315C218.466 10.0722 221.956 10.6171 224.639 12.2652C229.85 15.4652 229.491 23.2701 228.526 28.453C228.049 31.017 227.785 33.9241 226.347 36.1672C224.499 39.0487 221.118 40.1397 217.866 40.2081C213.733 40.2952 209.193 39.6711 205.411 37.9394C203.532 37.0792 201.272 36.0297 199.948 34.3845C198.379 32.4356 198.513 29.7901 198.862 27.4459C198.966 26.7448 197.901 26.4422 197.796 27.1498C197.51 29.0718 197.314 31.1845 197.961 33.0604C198.521 34.6866 199.698 35.908 201.105 36.8312C204.773 39.2371 208.728 40.5016 213.053 41.0054C216.859 41.4489 221.141 41.7569 224.5 39.5235C226.914 37.918 228.162 35.5743 228.808 32.7936C229.747 28.7527 230.554 24.5244 230.046 20.3703C229.738 17.8591 229.11 15.2475 227.472 13.2597C225.644 11.0422 222.839 10.0077 220.11 9.46231C216.021 8.64519 211.843 9.0876 207.843 10.1762C204.205 11.1663 200.831 13.0063 199.772 16.8954C199.307 18.6046 199.1 20.3917 198.695 22.119C198.306 23.7794 198.063 25.4662 197.796 27.1498C197.685 27.8512 198.75 28.153 198.862 27.4459Z" fill="#5B6664"/>
<path d="M214.207 23.7956C214.628 23.106 215.225 22.7942 216.001 22.86C216.375 22.8918 216.71 23.0144 217.006 23.2278C217.302 23.4412 217.524 23.7425 217.673 24.1318C217.828 24.5216 217.884 24.9865 217.838 25.5267C217.794 26.0599 217.662 26.5055 217.444 26.8635C217.232 27.2291 216.963 27.4922 216.636 27.6527C216.308 27.8132 215.958 27.8775 215.584 27.8458C215.196 27.8129 214.862 27.6834 214.581 27.4573C214.306 27.2387 214.103 26.9599 213.971 26.6209C213.793 27.0033 213.528 27.2946 213.176 27.4949C212.832 27.6957 212.438 27.7774 211.995 27.7397C211.545 27.7015 211.156 27.5534 210.829 27.2955C210.502 27.0376 210.262 26.6964 210.109 26.272C209.956 25.8476 209.902 25.3757 209.945 24.8563C209.989 24.337 210.121 23.881 210.342 23.4883C210.563 23.1025 210.855 22.8101 211.221 22.611C211.586 22.4119 211.994 22.3314 212.444 22.3696C212.894 22.4079 213.272 22.555 213.578 22.8112C213.885 23.0673 214.094 23.3955 214.207 23.7956ZM215.533 26.7013C215.921 26.7342 216.229 26.6383 216.457 26.4136C216.685 26.1888 216.816 25.8653 216.852 25.4429C216.887 25.0274 216.81 24.6896 216.623 24.4296C216.435 24.1696 216.144 24.0229 215.75 23.9894C215.403 23.96 215.109 24.0605 214.867 24.291C214.631 24.529 214.496 24.8453 214.463 25.24C214.43 25.6347 214.514 25.9696 214.714 26.2446C214.914 26.5196 215.187 26.6719 215.533 26.7013ZM213.57 25.1642C213.608 24.7071 213.525 24.3235 213.321 24.0132C213.123 23.7105 212.813 23.5412 212.391 23.5054C211.996 23.4718 211.662 23.583 211.39 23.8388C211.125 24.0952 210.972 24.4623 210.932 24.9401C210.892 25.411 210.986 25.7921 211.213 26.0833C211.439 26.3814 211.746 26.547 212.134 26.5799C212.549 26.6152 212.883 26.5006 213.135 26.2361C213.387 25.9785 213.532 25.6212 213.57 25.1642Z" fill="#231F20"/>
<path d="M25.1036 26.7642C24.8038 27.515 24.2661 27.9233 23.4907 27.9892C23.1168 28.021 22.7662 27.9566 22.439 27.7961C22.1118 27.6356 21.8425 27.3761 21.6312 27.0174C21.413 26.6594 21.2812 26.2103 21.2361 25.6702C21.1914 25.137 21.247 24.6755 21.4026 24.2857C21.5508 23.8895 21.7728 23.5847 22.0687 23.3713C22.3647 23.1578 22.6996 23.0352 23.0735 23.0034C23.4612 22.9705 23.8123 23.0418 24.1269 23.2173C24.4339 23.3865 24.6807 23.627 24.8671 23.939C24.9795 23.5319 25.1923 23.2 25.5055 22.9432C25.8118 22.6871 26.1866 22.5402 26.6297 22.5025C27.0797 22.4643 27.4874 22.5447 27.8528 22.7438C28.2181 22.9429 28.5113 23.2388 28.7324 23.6314C28.9536 24.0241 29.0859 24.4801 29.1293 24.9995C29.1728 25.5188 29.1181 25.9907 28.9654 26.4152C28.812 26.8327 28.5718 27.1704 28.2447 27.4283C27.9177 27.6863 27.5291 27.8343 27.0791 27.8726C26.629 27.9108 26.2317 27.8295 25.8872 27.6287C25.5426 27.4278 25.2814 27.1397 25.1036 26.7642ZM23.3136 24.1233C22.9259 24.1562 22.6383 24.3027 22.4508 24.5627C22.2634 24.8227 22.1874 25.1639 22.2227 25.5863C22.2575 26.0018 22.3889 26.3219 22.6169 26.5466C22.8449 26.7713 23.1562 26.8669 23.5509 26.8334C23.897 26.804 24.1705 26.6552 24.3712 26.3871C24.5644 26.1126 24.6445 25.7781 24.6115 25.3834C24.5784 24.9887 24.4404 24.6726 24.1974 24.4352C23.9544 24.1978 23.6598 24.0939 23.3136 24.1233ZM25.5046 25.3075C25.5429 25.7645 25.6884 26.1287 25.9413 26.4001C26.1866 26.6652 26.5204 26.7798 26.9428 26.7439C27.3374 26.7104 27.6478 26.5445 27.8739 26.2464C28.0931 25.9488 28.1826 25.5611 28.1427 25.0833C28.1033 24.6124 27.9476 24.2526 27.6758 24.0037C27.4033 23.7479 27.0732 23.6364 26.6855 23.6694C26.2701 23.7047 25.96 23.874 25.7552 24.1773C25.5499 24.4737 25.4664 24.8504 25.5046 25.3075Z" fill="white"/>
<path d="M213.283 60.9273L207.145 56.9959L207.334 55.8123L213.343 59.7545L213.952 55.9461L214.95 56.1081L214.157 61.0692L213.283 60.9273Z" fill="#231F20"/>
<path d="M24.3752 56.3749L31.4276 58.1658L31.6168 59.3495L24.683 57.5076L25.2917 61.3159L24.2937 61.4779L23.5007 56.5168L24.3752 56.3749Z" fill="#231F20"/>
<path d="M205.363 91.8624C205.691 91.8719 205.958 91.8001 206.164 91.647C206.37 91.4939 206.52 91.2428 206.613 90.8935C206.754 90.363 206.654 89.9115 206.315 89.5391C205.982 89.1685 205.348 88.8497 204.412 88.5827C204.661 88.837 204.821 89.1538 204.893 89.533C204.964 89.9123 204.949 90.2967 204.845 90.6862C204.727 91.1294 204.526 91.4926 204.242 91.7759C203.964 92.0677 203.618 92.2587 203.206 92.3489C202.792 92.4458 202.333 92.4264 201.83 92.2905C201.36 92.1637 200.966 91.9565 200.647 91.6688C200.326 91.3878 200.107 91.0371 199.988 90.6165C199.877 90.1977 199.889 89.7331 200.025 89.2227C200.209 88.531 200.504 88.0278 200.912 87.7131C201.324 87.4069 201.83 87.2484 202.429 87.2376C203.027 87.2335 203.742 87.3437 204.574 87.5683C207.029 88.2313 208.027 89.4291 207.566 91.1617C207.387 91.8333 207.066 92.3116 206.602 92.5965C206.136 92.8882 205.629 92.9961 205.081 92.9201L205.363 91.8624ZM203.946 90.1735C204.055 89.7639 204.024 89.3811 203.852 89.0253C203.686 88.6781 203.371 88.4419 202.908 88.317C202.445 88.192 202.041 88.2233 201.697 88.4109C201.357 88.6071 201.124 88.9436 200.997 89.4204C200.884 89.8435 200.927 90.2112 201.124 90.5236C201.32 90.8427 201.635 91.0612 202.072 91.1789C202.528 91.3021 202.922 91.279 203.255 91.1097C203.592 90.9489 203.823 90.6369 203.946 90.1735Z" fill="#231F20"/>
<path d="M34.0812 89.3206C33.7922 89.4778 33.5965 89.6746 33.494 89.911C33.3915 90.1474 33.3867 90.4402 33.4795 90.7895C33.6206 91.32 33.9305 91.6609 34.4094 91.8124C34.8816 91.9656 35.589 91.9221 36.5318 91.6819C36.1902 91.587 35.8943 91.3934 35.644 91.1011C35.3937 90.8088 35.2167 90.4679 35.1132 90.0784C34.9953 89.6352 34.989 89.2194 35.0943 88.8311C35.1911 88.4379 35.3956 88.0984 35.7079 87.8125C36.0183 87.52 36.4252 87.3058 36.9283 87.1699C37.3979 87.0431 37.8422 87.0239 38.2612 87.1123C38.6784 87.194 39.0425 87.3872 39.3536 87.6919C39.658 87.9983 39.878 88.4068 40.0137 88.9172C40.1977 89.6089 40.1914 90.1936 39.9948 90.6713C39.7898 91.1441 39.4303 91.5363 38.9164 91.8478C38.4006 92.1526 37.7268 92.4173 36.8949 92.6419C34.4396 93.3049 32.9816 92.7701 32.5209 91.0375C32.3423 90.366 32.3832 89.7899 32.6437 89.3093C32.9024 88.822 33.2878 88.4732 33.8 88.2629L34.0812 89.3206ZM36.1462 90.0694C36.2551 90.4791 36.4721 90.7948 36.7971 91.0165C37.1136 91.2333 37.5033 91.2793 37.9662 91.1543C38.4291 91.0293 38.7632 90.7987 38.9686 90.4625C39.1656 90.1215 39.2006 89.7125 39.0738 89.2357C38.9613 88.8126 38.7421 88.5155 38.4162 88.3444C38.0885 88.1666 37.7066 88.1366 37.2706 88.2543C36.8144 88.3775 36.4843 88.5962 36.2802 88.9104C36.0676 89.2197 36.023 89.606 36.1462 90.0694Z" fill="white"/>
<path d="M195.388 119.573L196.285 116.199L194.283 115.658C194.433 115.85 194.535 116.101 194.589 116.41C194.642 116.727 194.626 117.043 194.542 117.359C194.392 117.923 194.15 118.347 193.816 118.631C193.48 118.921 193.107 119.091 192.699 119.139C192.289 119.194 191.879 119.166 191.47 119.055C190.974 118.921 190.557 118.704 190.22 118.405C189.887 118.113 189.661 117.746 189.542 117.304C189.42 116.868 189.433 116.375 189.579 115.824C189.774 115.092 190.111 114.553 190.591 114.208C191.071 113.863 191.622 113.727 192.242 113.801L191.945 114.919C191.61 114.908 191.314 115.004 191.059 115.209C190.81 115.415 190.634 115.71 190.532 116.092C190.406 116.569 190.455 116.964 190.681 117.277C190.905 117.597 191.256 117.821 191.732 117.949C192.215 118.08 192.616 118.059 192.935 117.886C193.261 117.714 193.487 117.394 193.612 116.924C193.699 116.595 193.689 116.293 193.582 116.02C193.48 115.755 193.302 115.534 193.047 115.357L193.336 114.269L197.573 115.413L196.394 119.845L195.388 119.573Z" fill="white"/>
<path d="M42.7574 115.209L43.6547 118.584L45.6572 118.043C45.4319 117.953 45.2188 117.787 45.0182 117.546C44.8157 117.299 44.6725 117.017 44.5886 116.701C44.4386 116.137 44.4379 115.648 44.5866 115.234C44.7335 114.812 44.9717 114.478 45.3014 114.231C45.6293 113.977 45.9979 113.794 46.4071 113.684C46.9036 113.55 47.3722 113.528 47.8131 113.617C48.2455 113.702 48.6233 113.906 48.9465 114.229C49.2678 114.545 49.5017 114.979 49.6482 115.53C49.8428 116.262 49.8179 116.898 49.5735 117.439C49.3291 117.98 48.92 118.375 48.3461 118.623L48.0488 117.505C48.3445 117.346 48.5523 117.114 48.6723 116.808C48.7855 116.504 48.7913 116.16 48.6895 115.778C48.5627 115.301 48.3238 114.984 47.9729 114.827C47.6201 114.663 47.2056 114.645 46.7293 114.774C46.2462 114.904 45.9094 115.125 45.7188 115.435C45.5214 115.748 45.4852 116.139 45.6102 116.609C45.6977 116.938 45.8557 117.194 46.0841 117.377C46.3041 117.555 46.5683 117.657 46.8768 117.681L47.1661 118.769L42.9296 119.913L41.7511 115.481L42.7574 115.209Z" fill="#231F20"/>
<path d="M183.038 135.887L183.828 136.309L186.631 141.775L185.962 143.048L181.649 140.746L181.198 141.604L180.288 141.118L180.739 140.26L179.341 139.514L179.884 138.481L181.282 139.227L183.038 135.887ZM185.414 141.491L183.313 137.581L182.168 139.759L185.414 141.491Z" fill="#231F20"/>
<path d="M58.8638 141.274L58.073 141.696L52.0112 140.962L51.3419 139.689L55.6546 137.387L55.2036 136.529L56.1139 136.043L56.565 136.901L57.9627 136.155L58.5059 137.188L57.1082 137.934L58.8638 141.274ZM52.9275 140.106L57.3181 140.551L56.1736 138.374L52.9275 140.106Z" fill="#231F20"/>
<path d="M174.47 156.652C174.94 157.097 175.172 157.61 175.163 158.191C175.151 158.776 174.92 159.344 174.471 159.892C174.162 160.268 173.829 160.538 173.471 160.701C173.113 160.864 172.762 160.92 172.418 160.869C172.073 160.818 171.757 160.672 171.469 160.432C171.137 160.157 170.927 159.833 170.837 159.46C170.747 159.087 170.763 158.743 170.886 158.429L170.854 158.403C170.498 158.64 170.119 158.741 169.717 158.705C169.321 158.674 168.925 158.493 168.529 158.165C168.214 157.903 167.993 157.597 167.866 157.247C167.739 156.898 167.72 156.52 167.809 156.116C167.904 155.715 168.114 155.316 168.44 154.918C168.915 154.337 169.454 153.981 170.056 153.849C170.659 153.727 171.249 153.883 171.827 154.318L171.101 155.206C170.8 154.992 170.477 154.909 170.132 154.956C169.793 155.009 169.485 155.204 169.208 155.543C168.939 155.871 168.82 156.197 168.851 156.521C168.888 156.85 169.048 157.132 169.331 157.367C169.705 157.678 170.068 157.777 170.421 157.664C170.775 157.561 171.155 157.262 171.56 156.767L171.732 156.557L172.485 157.184L172.307 157.401C171.955 157.841 171.757 158.232 171.711 158.573C171.661 158.92 171.785 159.218 172.084 159.467C172.341 159.68 172.612 159.765 172.898 159.723C173.189 159.685 173.461 159.513 173.712 159.207C173.958 158.906 174.072 158.607 174.054 158.312C174.041 158.021 173.935 157.766 173.737 157.547L174.47 156.652Z" fill="#231F20"/>
<path d="M68.0611 160.957C67.541 161.343 66.9984 161.478 66.4334 161.364C65.864 161.245 65.3525 160.913 64.899 160.369C64.5877 159.995 64.385 159.616 64.2909 159.231C64.1968 158.847 64.206 158.489 64.3186 158.157C64.4311 157.825 64.6307 157.538 64.9172 157.296C65.2462 157.018 65.6008 156.868 65.981 156.847C66.3613 156.825 66.6934 156.904 66.9776 157.082L67.0094 157.055C66.8426 156.66 66.8131 156.266 66.9211 155.874C67.0238 155.487 67.2714 155.128 67.6641 154.796C67.9772 154.531 68.3158 154.367 68.68 154.305C69.0441 154.243 69.4157 154.293 69.7946 154.455C70.1682 154.621 70.5196 154.902 70.8486 155.297C71.3289 155.874 71.5787 156.472 71.5981 157.093C71.6078 157.713 71.3478 158.269 70.8182 158.763L70.0845 157.881C70.3479 157.622 70.4876 157.318 70.5035 156.967C70.5141 156.622 70.3793 156.281 70.0991 155.944C69.8279 155.619 69.5314 155.442 69.2095 155.414C68.8823 155.39 68.5781 155.497 68.2969 155.735C67.9255 156.049 67.7628 156.391 67.8091 156.761C67.8455 157.131 68.0683 157.561 68.4774 158.053L68.6508 158.261L67.9026 158.894L67.7225 158.677C67.357 158.249 67.0119 157.982 66.6872 157.874C66.358 157.761 66.0449 157.83 65.7477 158.081C65.493 158.297 65.3603 158.55 65.3496 158.841C65.3335 159.137 65.4522 159.437 65.7057 159.741C65.9547 160.04 66.2251 160.208 66.5168 160.243C66.8032 160.283 67.0712 160.225 67.3208 160.068L68.0611 160.957Z" fill="#231F20"/>
<path d="M155.529 170.257C155.18 171.07 154.914 171.727 154.731 172.226C154.544 172.735 154.423 173.228 154.367 173.704C154.311 174.18 154.371 174.6 154.546 174.963C154.727 175.339 154.959 175.588 155.242 175.713C155.52 175.84 155.849 175.81 156.23 175.624C156.598 175.444 156.828 175.184 156.919 174.846C157.007 174.516 156.962 174.151 156.785 173.751L157.814 173.247C158.14 173.97 158.19 174.618 157.965 175.192C157.737 175.776 157.308 176.222 156.678 176.53C155.998 176.863 155.377 176.935 154.815 176.746C154.247 176.56 153.812 176.154 153.51 175.528C153.293 175.077 153.199 174.585 153.228 174.053C153.253 173.53 153.345 173.024 153.503 172.537C153.659 172.059 153.876 171.484 154.154 170.814L154.394 170.232L151.427 171.685L150.997 170.793L155.547 168.566L155.922 169.345L155.529 170.257Z" fill="#231F20"/>
<path d="M86.2016 171.988C85.352 172.214 84.6756 172.409 84.1724 172.573C83.6599 172.739 83.2007 172.948 82.7948 173.198C82.3888 173.448 82.0983 173.755 81.9233 174.118C81.7423 174.493 81.6909 174.832 81.7693 175.133C81.8415 175.431 82.0679 175.674 82.4486 175.86C82.8169 176.04 83.1613 176.062 83.4819 175.925C83.7933 175.791 84.0503 175.53 84.2529 175.142L85.2827 175.646C84.92 176.35 84.4452 176.791 83.8585 176.968C83.2625 177.148 82.6493 177.084 82.0189 176.776C81.3386 176.443 80.8987 175.995 80.699 175.433C80.4931 174.868 80.541 174.273 80.8428 173.647C81.06 173.196 81.3852 172.817 81.8183 172.511C82.2422 172.208 82.6932 171.968 83.1715 171.792C83.6405 171.62 84.2225 171.437 84.9175 171.243L85.5198 171.074L82.5521 169.621L82.9821 168.729L87.532 170.956L87.1563 171.735L86.2016 171.988Z" fill="#231F20"/>
<path d="M135.017 184.071L135.017 185.155L132.849 185.155L132.849 177.557L134.048 177.557L134.048 184.071L135.017 184.071Z" fill="#231F20"/>
<path d="M109.213 184.011L109.213 185.095L107.045 185.095L107.045 177.496L108.243 177.496L108.243 184.011L109.213 184.011Z" fill="#231F20"/>
<path d="M196.633 53.0056C197.346 49.6946 198.693 46.9333 201.716 45.2222C204.529 43.6297 207.807 42.7902 211.022 42.6762C217.07 42.4617 224.619 45.4239 225.027 52.4595C225.125 54.1539 224.81 55.8534 224.568 57.5225C224.31 59.3059 224.052 61.0896 223.794 62.8731C223.36 65.8649 223.354 69.5907 221.179 71.9247C216.547 76.8962 209.101 74.1579 203.939 71.7603C200.687 70.2497 197.467 68.2177 196.592 64.4721C195.725 60.7609 195.897 56.7192 196.633 53.0056C196.772 52.3056 195.707 52.0061 195.567 52.7096C194.841 56.3714 194.706 60.1562 195.347 63.8428C195.957 67.3515 198.081 69.8246 201.111 71.5662C206.566 74.7022 214.464 77.9258 220.331 74.0696C223.143 72.2216 223.953 69.419 224.417 66.2273C225.01 62.1435 225.898 57.9824 226.123 53.8583C226.515 46.6806 220.269 42.2814 213.763 41.6459C209.651 41.2442 205.385 42.0739 201.707 43.9671C198.14 45.8031 196.398 48.8547 195.567 52.7096C195.417 53.4081 196.482 53.707 196.633 53.0056Z" fill="#5B6664"/>
<path d="M194.787 78.578C199.616 75.3811 206.292 75.091 211.344 77.9858C213.717 79.3457 215.818 81.5546 216.087 84.4115C216.38 87.5264 214.742 90.5673 214.005 93.5206C212.719 98.6714 211.326 105.04 204.781 104.924C199.404 104.828 194.239 101.229 191.45 96.7402C189.667 93.8708 188.695 90.4494 189.278 87.067C189.871 83.6268 191.959 80.5579 194.787 78.578C195.367 78.1719 194.815 77.2058 194.229 77.6161C188.703 81.4848 186.559 88.4736 189.18 94.7438C191.497 100.285 196.704 104.729 202.62 105.809C205.401 106.318 208.429 106.022 210.617 104.057C212.724 102.166 213.698 99.2925 214.392 96.6198C214.825 94.9524 215.17 93.2677 215.693 91.6245C216.261 89.839 216.944 88.0736 217.154 86.1971C217.489 83.2076 216.275 80.4976 214.041 78.5429C208.685 73.8571 200.03 73.7756 194.229 77.6161C193.637 78.0083 194.19 78.9731 194.787 78.578Z" fill="#5B6664"/>
<path d="M183.772 123.097C180.153 119.645 177.946 114.221 180.573 109.496C181.854 107.192 183.999 105.948 186.529 105.477C189.363 104.949 192.541 104.791 195.381 105.322C199.963 106.178 204.112 109.542 205.459 114.115C206.883 118.946 205.076 124.573 200.646 127.131C194.983 130.401 188.187 127.095 183.772 123.097C183.245 122.619 182.46 123.405 182.991 123.885C185.306 125.981 188.093 127.575 190.982 128.728C193.794 129.851 196.752 129.98 199.592 128.864C204.774 126.827 207.616 121.334 206.943 115.862C206.301 110.637 202.359 106.335 197.47 104.706C194.346 103.666 190.887 103.808 187.662 104.191C184.928 104.515 182.33 105.372 180.535 107.583C176.362 112.723 178.635 119.73 182.991 123.885C183.507 124.378 184.291 123.591 183.772 123.097Z" fill="#231F20"/>
<path d="M170.442 138.474C169.38 135.812 168.302 132.453 170.71 130.198C172.301 128.707 174.701 128.28 176.788 128.117C178.965 127.947 181.173 128.06 183.344 128.261C186.402 128.545 189.706 129.206 191.997 131.431C195.066 134.412 195.823 139.325 194.814 143.362C193.577 148.309 189.574 151.438 184.424 150.973C177.831 150.376 172.834 144.226 170.442 138.474C170.172 137.823 169.101 138.109 169.377 138.77C171.729 144.428 176.18 150.109 182.32 151.72C187.738 153.142 193.119 150.759 195.27 145.514C197.069 141.127 196.659 135.498 193.714 131.699C190.085 127.018 182.952 126.697 177.515 126.958C174.93 127.083 172.026 127.521 170.025 129.324C167.204 131.865 168.135 135.658 169.377 138.77C169.638 139.427 170.708 139.14 170.442 138.474Z" fill="#5B6664"/>
<path d="M164.411 165.226C163.25 163.109 162.298 160.895 161.543 158.6C160.785 156.296 159.987 153.787 159.842 151.352C159.678 148.609 160.973 145.88 164.028 145.956C166.181 146.01 168.475 146.666 170.509 147.339C174.622 148.702 179.068 151.175 181.243 155.113C183.858 159.849 180.922 164.733 177.583 168.149C175.698 170.076 173.034 171.99 170.19 171.057C167.578 170.201 165.703 167.499 164.411 165.226C164.057 164.604 163.102 165.165 163.456 165.788C164.816 168.18 166.536 170.415 169.002 171.726C171.112 172.848 173.687 172.414 175.662 171.194C177.921 169.798 179.888 167.544 181.323 165.321C182.786 163.055 183.704 160.321 183.271 157.6C182.461 152.508 177.466 149.016 173.096 147.137C170.548 146.041 167.829 145.314 165.084 144.946C162.655 144.621 160.509 145.315 159.381 147.638C158.045 150.391 158.991 153.682 159.748 156.462C160.63 159.705 161.841 162.844 163.456 165.788C163.801 166.415 164.755 165.854 164.411 165.226Z" fill="#5B6664"/>
<path d="M148.047 184.209C145.337 179.686 145.205 173.784 145.427 168.667C145.581 165.131 146.268 159.716 150.912 159.769C153.404 159.797 155.949 161.317 157.949 162.706C159.963 164.104 161.756 165.854 163.211 167.835C164.63 169.767 166.056 172.105 166.337 174.535C166.62 176.994 165.651 179.354 163.968 181.111C161.912 183.256 159.061 184.438 156.322 185.413C153.395 186.454 150.051 187.214 148.047 184.209C147.652 183.617 146.694 184.174 147.092 184.771C148.506 186.891 150.569 187.755 153.088 187.429C156.087 187.042 159.36 185.667 161.941 184.098C164.252 182.693 166.257 180.68 167.091 178.04C167.916 175.43 167.317 172.834 166.118 170.456C163.634 165.528 159.302 161.445 154.19 159.404C151.797 158.448 149.085 158.278 147.052 160.102C145.535 161.463 144.904 163.533 144.604 165.492C144.163 168.382 144.14 171.436 144.343 174.343C144.588 177.864 145.258 181.708 147.093 184.771C147.459 185.384 148.416 184.825 148.047 184.209Z" fill="#5B6664"/>
<path d="M131.327 165.711C134.877 165.711 137.533 168.534 139.527 171.173C141.498 173.781 142.705 175.934 143.832 178.854C144.024 179.353 144.23 179.852 144.447 180.381C145.444 182.803 146.474 185.307 146.279 187.799C146.099 190.088 144.699 191.622 141.999 192.488C139.497 193.289 136.906 193.579 134.021 193.851C130.823 194.151 127.941 194.366 125.06 193.943C124.23 193.821 123.271 193.628 122.456 193.115C121.507 192.518 120.749 191.458 120.323 190.131C120.2 189.751 120.097 189.35 120.016 188.941C119.732 187.509 119.694 185.875 119.902 183.945C120.356 179.726 121.532 175.658 123.4 171.855C124.914 168.771 126.793 166.837 128.986 166.107C129.806 165.834 130.586 165.711 131.327 165.711ZM128.549 194.069C130.301 194.069 132.099 193.92 134.011 193.74C136.889 193.469 139.474 193.18 141.966 192.381C144.618 191.531 145.993 190.029 146.169 187.79C146.362 185.325 145.337 182.834 144.345 180.424C144.127 179.895 143.921 179.394 143.729 178.895C142.606 175.985 141.403 173.839 139.439 171.24C137.051 168.08 133.708 164.652 129.02 166.213C126.858 166.933 125 168.848 123.499 171.904C121.637 175.696 120.464 179.751 120.012 183.957C119.805 185.876 119.842 187.499 120.124 188.919C120.205 189.324 120.307 189.72 120.428 190.097C120.846 191.399 121.588 192.437 122.515 193.021C123.312 193.522 124.257 193.713 125.076 193.833C126.226 194.002 127.377 194.069 128.549 194.069Z" fill="#5B6664"/>
<path d="M138.052 193.959C140.724 193.686 144.025 193.235 145.806 190.954C147.678 188.557 146.801 185.013 145.869 182.433C144.797 179.464 143.308 176.563 141.758 173.819C140.355 171.334 138.679 168.93 136.412 167.169C134.268 165.503 131.426 164.253 128.705 165.124C126.214 165.921 124.577 168.215 123.448 170.463C120.616 176.102 118.318 183.31 119.779 189.645C120.5 192.77 122.627 194.356 125.746 194.611C129.778 194.941 134.038 194.344 138.052 193.959C138.754 193.892 138.761 192.777 138.052 192.845C135.064 193.132 132.069 193.348 129.07 193.479C126.601 193.586 123.21 193.9 121.663 191.484C120.106 189.053 120.291 185.368 120.676 182.629C121.078 179.763 121.975 176.983 123.008 174.29C123.888 171.995 124.861 169.538 126.609 167.756C128.694 165.631 131.495 165.558 134.039 166.932C138.462 169.321 140.814 174.178 142.94 178.522C144.334 181.367 146.251 184.965 145.721 188.254C145.137 191.876 141.079 192.535 138.052 192.845C137.351 192.917 137.344 194.032 138.052 193.959Z" fill="#5B6664"/>
<path d="M87.8214 95.5772H90.7817V97.0059H86.0195V88.022H87.8214V95.5772ZM95.0932 97.1217C94.4068 97.1217 93.789 96.9715 93.2398 96.6712C92.6906 96.3623 92.2573 95.929 91.9398 95.3713C91.6309 94.8135 91.4765 94.17 91.4765 93.4406C91.4765 92.7113 91.6352 92.0678 91.9527 91.51C92.2788 90.9523 92.7207 90.5233 93.2784 90.2229C93.8361 89.914 94.4582 89.7596 95.1447 89.7596C95.8311 89.7596 96.4532 89.914 97.0109 90.2229C97.5687 90.5233 98.0063 90.9523 98.3238 91.51C98.6498 92.0678 98.8129 92.7113 98.8129 93.4406C98.8129 94.17 98.6455 94.8135 98.3109 95.3713C97.9848 95.929 97.5386 96.3623 96.9723 96.6712C96.4146 96.9715 95.7882 97.1217 95.0932 97.1217ZM95.0932 95.5515C95.4193 95.5515 95.7239 95.4742 96.007 95.3198C96.2988 95.1568 96.5304 94.9165 96.702 94.599C96.8737 94.2815 96.9595 93.8954 96.9595 93.4406C96.9595 92.7628 96.7793 92.2437 96.4189 91.8833C96.0671 91.5143 95.6338 91.3298 95.1189 91.3298C94.6041 91.3298 94.1708 91.5143 93.819 91.8833C93.4758 92.2437 93.3042 92.7628 93.3042 93.4406C93.3042 94.1185 93.4715 94.6419 93.8061 95.0109C94.1493 95.3713 94.5784 95.5515 95.0932 95.5515ZM110.019 89.8754L107.934 97.0059H105.991L104.691 92.0249L103.391 97.0059H101.435L99.3366 89.8754H101.164L102.426 95.3069L103.79 89.8754H105.695L107.033 95.294L108.295 89.8754H110.019ZM117.623 93.2862C117.623 93.5436 117.606 93.7753 117.571 93.9812H112.359C112.402 94.4961 112.582 94.8993 112.899 95.1911C113.217 95.4828 113.607 95.6287 114.07 95.6287C114.74 95.6287 115.216 95.3412 115.499 94.7663H117.443C117.237 95.4528 116.842 96.0191 116.259 96.4653C115.675 96.9029 114.959 97.1217 114.109 97.1217C113.423 97.1217 112.805 96.9715 112.256 96.6712C111.715 96.3623 111.29 95.929 110.982 95.3713C110.681 94.8135 110.531 94.17 110.531 93.4406C110.531 92.7027 110.681 92.0549 110.982 91.4972C111.282 90.9394 111.702 90.5104 112.243 90.2101C112.783 89.9098 113.406 89.7596 114.109 89.7596C114.787 89.7596 115.392 89.9055 115.924 90.1972C116.464 90.4889 116.881 90.9051 117.172 91.4457C117.473 91.9777 117.623 92.5912 117.623 93.2862ZM115.757 92.7714C115.748 92.308 115.581 91.9391 115.255 91.6645C114.929 91.3813 114.53 91.2397 114.058 91.2397C113.611 91.2397 113.234 91.377 112.925 91.6516C112.625 91.9176 112.44 92.2909 112.372 92.7714H115.757ZM120.74 90.9823C120.972 90.6048 121.272 90.3087 121.641 90.0942C122.018 89.8797 122.448 89.7725 122.928 89.7725V91.6645H122.452C121.885 91.6645 121.456 91.7975 121.165 92.0635C120.882 92.3295 120.74 92.7928 120.74 93.4535V97.0059H118.938V89.8754H120.74V90.9823ZM132.447 88.022V94.3287C132.447 95.2039 132.194 95.8861 131.688 96.3752C131.181 96.8557 130.504 97.096 129.654 97.096C128.796 97.096 128.101 96.8471 127.569 96.3494C127.046 95.8518 126.784 95.1568 126.784 94.2644H128.586C128.594 94.6505 128.684 94.9508 128.856 95.1653C129.036 95.3798 129.294 95.4871 129.628 95.4871C129.954 95.4871 130.203 95.3841 130.375 95.1782C130.546 94.9723 130.632 94.6891 130.632 94.3287V88.022H132.447ZM134.086 93.4149C134.086 92.6941 134.227 92.0549 134.51 91.4972C134.802 90.9394 135.192 90.5104 135.682 90.2101C136.179 89.9098 136.733 89.7596 137.342 89.7596C137.874 89.7596 138.337 89.8669 138.732 90.0814C139.135 90.2959 139.457 90.5662 139.697 90.8922V89.8754H141.512V97.0059H139.697V95.9633C139.466 96.298 139.144 96.5768 138.732 96.7999C138.329 97.0144 137.861 97.1217 137.329 97.1217C136.728 97.1217 136.179 96.9672 135.682 96.6583C135.192 96.3494 134.802 95.9161 134.51 95.3584C134.227 94.7921 134.086 94.1442 134.086 93.4149ZM139.697 93.4406C139.697 93.003 139.611 92.6298 139.44 92.3209C139.268 92.0034 139.037 91.7631 138.745 91.6001C138.453 91.4285 138.14 91.3427 137.805 91.3427C137.471 91.3427 137.162 91.4242 136.879 91.5872C136.595 91.7503 136.364 91.9905 136.184 92.308C136.012 92.6169 135.926 92.9859 135.926 93.4149C135.926 93.8439 136.012 94.2215 136.184 94.5475C136.364 94.865 136.595 95.1096 136.879 95.2812C137.17 95.4528 137.479 95.5386 137.805 95.5386C138.14 95.5386 138.453 95.4571 138.745 95.294C139.037 95.1224 139.268 94.8822 139.44 94.5733C139.611 94.2558 139.697 93.8783 139.697 93.4406ZM153.157 89.8754L151.072 97.0059H149.128L147.828 92.0249L146.528 97.0059H144.572L142.474 89.8754H144.302L145.563 95.3069L146.927 89.8754H148.832L150.171 95.294L151.432 89.8754H153.157ZM86.2622 117.541C85.4299 116.735 84.782 115.705 84.3187 114.452C83.8639 113.2 83.6365 111.857 83.6365 110.424C83.6365 108.957 83.8768 107.579 84.3573 106.292C84.8378 104.997 85.5371 103.937 86.4552 103.113H88.27V103.281C87.3262 104.182 86.6054 105.263 86.1077 106.524C85.6186 107.785 85.3741 109.085 85.3741 110.424C85.3741 111.728 85.6058 112.989 86.0691 114.208C86.541 115.418 87.2103 116.469 88.0769 117.361V117.541H86.2622ZM99.189 106.022V115.006H97.3871V109.163L94.9802 115.006H93.6159L91.1962 109.163V115.006H89.3943V106.022H91.4408L94.2981 112.702L97.1554 106.022H99.189ZM100.507 111.415C100.507 110.694 100.649 110.055 100.932 109.497C101.224 108.939 101.614 108.51 102.103 108.21C102.601 107.91 103.154 107.76 103.763 107.76C104.295 107.76 104.759 107.867 105.153 108.081C105.557 108.296 105.879 108.566 106.119 108.892V107.875H107.934V115.006H106.119V113.963C105.887 114.298 105.565 114.577 105.153 114.8C104.75 115.014 104.283 115.122 103.751 115.122C103.15 115.122 102.601 114.967 102.103 114.658C101.614 114.349 101.224 113.916 100.932 113.358C100.649 112.792 100.507 112.144 100.507 111.415ZM106.119 111.441C106.119 111.003 106.033 110.63 105.861 110.321C105.69 110.003 105.458 109.763 105.166 109.6C104.875 109.429 104.561 109.343 104.227 109.343C103.892 109.343 103.583 109.424 103.3 109.587C103.017 109.75 102.785 109.991 102.605 110.308C102.433 110.617 102.348 110.986 102.348 111.415C102.348 111.844 102.433 112.221 102.605 112.548C102.785 112.865 103.017 113.11 103.3 113.281C103.592 113.453 103.901 113.539 104.227 113.539C104.561 113.539 104.875 113.457 105.166 113.294C105.458 113.122 105.69 112.882 105.861 112.573C106.033 112.256 106.119 111.878 106.119 111.441ZM113.645 107.772C114.494 107.772 115.181 108.043 115.704 108.583C116.228 109.115 116.489 109.862 116.489 110.823V115.006H114.687V111.067C114.687 110.501 114.546 110.068 114.263 109.767C113.979 109.459 113.593 109.304 113.104 109.304C112.607 109.304 112.212 109.459 111.92 109.767C111.637 110.068 111.495 110.501 111.495 111.067V115.006H109.693V107.875H111.495V108.764C111.736 108.455 112.04 108.214 112.409 108.043C112.787 107.863 113.199 107.772 113.645 107.772ZM117.739 111.415C117.739 110.694 117.881 110.055 118.164 109.497C118.456 108.939 118.851 108.51 119.348 108.21C119.846 107.91 120.399 107.76 121.009 107.76C121.472 107.76 121.914 107.863 122.334 108.068C122.755 108.266 123.089 108.532 123.338 108.866V105.481H125.166V115.006H123.338V113.95C123.115 114.302 122.802 114.585 122.399 114.8C121.995 115.014 121.528 115.122 120.996 115.122C120.395 115.122 119.846 114.967 119.348 114.658C118.851 114.349 118.456 113.916 118.164 113.358C117.881 112.792 117.739 112.144 117.739 111.415ZM123.351 111.441C123.351 111.003 123.265 110.63 123.094 110.321C122.922 110.003 122.69 109.763 122.399 109.6C122.107 109.429 121.794 109.343 121.459 109.343C121.124 109.343 120.816 109.424 120.532 109.587C120.249 109.75 120.018 109.991 119.837 110.308C119.666 110.617 119.58 110.986 119.58 111.415C119.58 111.844 119.666 112.221 119.837 112.548C120.018 112.865 120.249 113.11 120.532 113.281C120.824 113.453 121.133 113.539 121.459 113.539C121.794 113.539 122.107 113.457 122.399 113.294C122.69 113.122 122.922 112.882 123.094 112.573C123.265 112.256 123.351 111.878 123.351 111.441ZM127.84 107.026C127.522 107.026 127.256 106.927 127.042 106.73C126.836 106.524 126.733 106.271 126.733 105.971C126.733 105.67 126.836 105.421 127.042 105.224C127.256 105.018 127.522 104.915 127.84 104.915C128.157 104.915 128.419 105.018 128.625 105.224C128.839 105.421 128.946 105.67 128.946 105.971C128.946 106.271 128.839 106.524 128.625 106.73C128.419 106.927 128.157 107.026 127.84 107.026ZM128.728 107.875V115.006H126.926V107.875H128.728ZM132.31 108.918C132.542 108.575 132.859 108.296 133.262 108.081C133.674 107.867 134.142 107.76 134.665 107.76C135.274 107.76 135.824 107.91 136.313 108.21C136.81 108.51 137.201 108.939 137.484 109.497C137.776 110.046 137.922 110.686 137.922 111.415C137.922 112.144 137.776 112.792 137.484 113.358C137.201 113.916 136.81 114.349 136.313 114.658C135.824 114.967 135.274 115.122 134.665 115.122C134.133 115.122 133.666 115.019 133.262 114.813C132.868 114.598 132.55 114.324 132.31 113.989V115.006H130.508V105.481H132.31V108.918ZM136.081 111.415C136.081 110.986 135.991 110.617 135.811 110.308C135.639 109.991 135.407 109.75 135.116 109.587C134.833 109.424 134.524 109.343 134.189 109.343C133.863 109.343 133.554 109.429 133.262 109.6C132.979 109.763 132.748 110.003 132.567 110.321C132.396 110.638 132.31 111.012 132.31 111.441C132.31 111.87 132.396 112.243 132.567 112.56C132.748 112.878 132.979 113.122 133.262 113.294C133.554 113.457 133.863 113.539 134.189 113.539C134.524 113.539 134.833 113.453 135.116 113.281C135.407 113.11 135.639 112.865 135.811 112.548C135.991 112.23 136.081 111.853 136.081 111.415ZM141.033 105.481V115.006H139.231V105.481H141.033ZM149.442 111.286C149.442 111.544 149.424 111.775 149.39 111.981H144.177C144.22 112.496 144.401 112.899 144.718 113.191C145.036 113.483 145.426 113.629 145.889 113.629C146.559 113.629 147.035 113.341 147.318 112.766H149.261C149.056 113.453 148.661 114.019 148.077 114.465C147.494 114.903 146.777 115.122 145.928 115.122C145.241 115.122 144.624 114.972 144.075 114.671C143.534 114.362 143.109 113.929 142.8 113.371C142.5 112.814 142.35 112.17 142.35 111.441C142.35 110.703 142.5 110.055 142.8 109.497C143.101 108.939 143.521 108.51 144.062 108.21C144.602 107.91 145.224 107.76 145.928 107.76C146.606 107.76 147.211 107.905 147.743 108.197C148.283 108.489 148.699 108.905 148.991 109.446C149.291 109.978 149.442 110.591 149.442 111.286ZM147.575 110.771C147.567 110.308 147.399 109.939 147.073 109.664C146.747 109.381 146.348 109.24 145.876 109.24C145.43 109.24 145.053 109.377 144.744 109.652C144.443 109.918 144.259 110.291 144.19 110.771H147.575ZM150.294 117.541V117.361C151.16 116.469 151.825 115.418 152.289 114.208C152.76 112.989 152.996 111.728 152.996 110.424C152.996 109.085 152.748 107.785 152.25 106.524C151.761 105.263 151.044 104.182 150.1 103.281V103.113H151.915C152.833 103.937 153.533 104.997 154.013 106.292C154.494 107.579 154.734 108.957 154.734 110.424C154.734 111.857 154.502 113.2 154.039 114.452C153.584 115.705 152.941 116.735 152.108 117.541H150.294Z" fill="#231F20"/>
<circle cx="24.0728" cy="23.436" r="22.6293" stroke="#1D4ED8" stroke-width="1.41433" stroke-dasharray="2.83 2.83"/>
<circle cx="35.3867" cy="89.9101" r="19.8006" stroke="#1D4ED8" stroke-width="1.41433" stroke-dasharray="2.83 2.83"/>
<circle cx="192.379" cy="115.368" r="18.3863" stroke="#1D4ED8" stroke-width="1.41433" stroke-dasharray="2.83 2.83"/>
</svg>
