<svg width="51" height="42" viewBox="0 0 51 42" fill="none" xmlns="http://www.w3.org/2000/svg">
<path d="M49.7468 26.8359C49.7468 26.8359 41.0175 30.9176 27.8292 30.5918C14.6408 30.2659 10.0618 29.4427 5.17405 26.8359C5.17405 26.8359 2.8931 32.2896 2.0013 33.7645C1.1095 35.2394 -0.519748 38.4979 6.88904 40.453C6.88904 40.453 19.4428 40.453 28.4809 40.453C37.5189 40.453 41.189 40.453 41.189 40.453C41.189 40.453 47.4659 38.9781 49.1809 35.4795C50.8959 31.9638 49.7468 26.8359 49.7468 26.8359Z" stroke="#231F20" stroke-width="1.372" stroke-miterlimit="10"/>
<path d="M4.84766 27.6423L11.1246 14.3511C11.1246 14.3511 15.3606 18.2612 27.5885 18.2612C39.8165 18.2612 45.9219 13.9395 45.9219 13.9395C45.9219 13.9395 48.9403 19.719 49.8321 27.1449C49.8321 27.1449 36.3007 31.6211 24.6387 30.6435C12.9767 29.666 11.6905 30.5749 4.84766 27.6423Z" stroke="#231F20" stroke-width="1.372" stroke-miterlimit="10"/>
<path d="M10.834 14.8316C10.834 14.8316 13.4579 8.53757 15.7903 5.91363C18.1056 3.28968 24.7083 -1.66667 33.6949 2.79233C42.6815 7.25132 45.7342 13.957 45.7342 13.957C45.7342 13.957 30.4536 23.4409 10.834 14.8316Z" stroke="#231F20" stroke-width="1.372" stroke-miterlimit="10"/>
</svg>
