<svg width="256" height="125" viewBox="0 0 256 125" fill="none" xmlns="http://www.w3.org/2000/svg">
<path d="M205.4 0C210.923 0 215.4 4.47715 215.4 10V31C215.4 36.5228 219.877 41 225.4 41H246C251.523 41 256 45.4772 256 51V115C256 120.523 251.523 125 246 125H10C4.47715 125 0 120.523 0 115V10C0 4.47715 4.47715 0 10 0H205.4Z" fill="url(#paint0_linear_22182_29905)"/>
<path d="M10 0.5H205.4C210.647 0.500206 214.9 4.75342 214.9 10V31C214.9 36.799 219.601 41.5 225.4 41.5H246C251.247 41.5 255.5 45.7533 255.5 51V115C255.5 120.247 251.247 124.5 246 124.5H10C4.7533 124.5 0.5 120.247 0.5 115V10L0.512695 9.51074C0.767337 4.49142 4.91739 0.5 10 0.5Z" stroke="#FDB10B" stroke-opacity="0.2"/>
<defs>
<linearGradient id="paint0_linear_22182_29905" x1="20.4651" y1="12.4008" x2="391.138" y2="416.168" gradientUnits="userSpaceOnUse">
<stop offset="0.0434836" stop-color="white" stop-opacity="0"/>
<stop offset="0.107994" stop-color="white" stop-opacity="0"/>
<stop offset="1" stop-color="#FECF0A"/>
</linearGradient>
</defs>
</svg>
