<svg width="256" height="125" viewBox="0 0 256 125" fill="none" xmlns="http://www.w3.org/2000/svg">
<path d="M208.205 0C213.728 0 218.205 4.47715 218.205 10V31C218.205 36.5228 222.682 41 228.205 41H246C251.523 41 256 45.4772 256 51V115C256 120.523 251.523 125 246 125H10C4.47715 125 0 120.523 0 115V10C0 4.47715 4.47715 0 10 0H208.205Z" fill="url(#paint0_linear_21223_34065)"/>
<path d="M10 0.5H208.205C213.452 0.5 217.705 4.7533 217.705 10V31C217.705 36.799 222.406 41.5 228.205 41.5H246C251.247 41.5 255.5 45.7533 255.5 51V115C255.5 120.247 251.247 124.5 246 124.5H10C4.7533 124.5 0.5 120.247 0.5 115V10L0.512695 9.51074C0.767337 4.49142 4.91739 0.5 10 0.5Z" stroke="#FDB10B" stroke-opacity="0.2"/>
<defs>
<linearGradient id="paint0_linear_21223_34065" x1="29.7674" y1="12.4008" x2="365.601" y2="544.498" gradientUnits="userSpaceOnUse">
<stop offset="0.0434836" stop-color="white"/>
<stop offset="0.107994" stop-color="white"/>
<stop offset="1" stop-color="#FECF0A"/>
</linearGradient>
</defs>
</svg>
