<svg width="256" height="125" viewBox="0 0 256 125" fill="none" xmlns="http://www.w3.org/2000/svg">
<path d="M205.843 0C211.366 0 215.843 4.47715 215.843 10V31C215.843 36.5228 220.32 41 225.843 41H246C251.523 41 256 45.4772 256 51V115C256 120.523 251.523 125 246 125H10C4.47715 125 0 120.523 0 115V10C0 4.47715 4.47715 0 10 0H205.843Z" fill="url(#paint0_linear_22181_29900)"/>
<path d="M10 0.5H205.843C211.089 0.5 215.343 4.7533 215.343 10V31C215.343 36.7989 220.044 41.4999 225.843 41.5H246C251.247 41.5 255.5 45.7533 255.5 51V115C255.5 120.247 251.247 124.5 246 124.5H10C4.7533 124.5 0.5 120.247 0.5 115V10L0.512695 9.51074C0.767337 4.49142 4.91739 0.5 10 0.5Z" stroke="#0B8043" stroke-opacity="0.2"/>
<defs>
<linearGradient id="paint0_linear_22181_29900" x1="31.628" y1="12.4008" x2="361.693" y2="631.796" gradientUnits="userSpaceOnUse">
<stop offset="0.00423105" stop-color="white" stop-opacity="0"/>
<stop offset="0.0759759" stop-color="white" stop-opacity="0"/>
<stop offset="1" stop-color="#07AD94"/>
</linearGradient>
</defs>
</svg>
