<svg xmlns="http://www.w3.org/2000/svg" width="177" height="125" viewBox="0 0 177 125" fill="none">
  <path d="M125.65 0C131.173 0 135.65 4.47715 135.65 10V31C135.65 36.5228 140.127 41 145.65 41H166.25C171.773 41 176.25 45.4772 176.25 51V115C176.25 120.523 171.773 125 166.25 125H10.25C4.72715 125 0.25 120.523 0.25 115V10C0.25 4.47715 4.72715 0 10.25 0H125.65Z" fill="url(#paint0_linear_21321_33801)"/>
  <path d="M10.25 0.5H125.65C130.897 0.500206 135.15 4.75342 135.15 10V31C135.15 36.799 139.851 41.5 145.65 41.5H166.25C171.497 41.5 175.75 45.7533 175.75 51V115C175.75 120.247 171.497 124.5 166.25 124.5H10.25C5.0033 124.5 0.75 120.247 0.75 115V10L0.762695 9.51074C1.01734 4.49142 5.16739 0.5 10.25 0.5Z" stroke="#1D4ED8" stroke-opacity="0.2"/>
  <defs>
    <linearGradient id="paint0_linear_21321_33801" x1="20.7151" y1="12.4008" x2="417.012" y2="437.818" gradientUnits="userSpaceOnUse">
      <stop offset="0.00423105" stop-color="white" stop-opacity="0"/>
      <stop offset="0.0759759" stop-color="white" stop-opacity="0"/>
      <stop offset="1" stop-color="#1D4ED8"/>
    </linearGradient>
  </defs>
</svg>