<svg width="17" height="16" viewBox="0 0 17 16" fill="none" xmlns="http://www.w3.org/2000/svg">
<g clip-path="url(#clip0_21321_33812)">
<path fill-rule="evenodd" clip-rule="evenodd" d="M8.25066 4.00033C6.96339 4.00033 5.7051 4.38255 4.63531 5.09854C3.57218 5.81008 2.7428 6.81941 2.25083 7.99991C2.7428 9.18042 3.57218 10.1897 4.63531 10.9013C5.7051 11.6173 6.96339 11.9995 8.25066 11.9995C9.53794 11.9995 10.7962 11.6173 11.866 10.9013C12.9291 10.1897 13.7585 9.18042 14.2505 7.99991C13.7585 6.81941 12.9291 5.81008 11.866 5.09854C10.7962 4.38255 9.53794 4.00033 8.25066 4.00033ZM3.8937 3.99048C5.18293 3.12762 6.69933 2.66699 8.25066 2.66699C9.802 2.66699 11.3184 3.12762 12.6076 3.99048C13.8968 4.85335 14.9008 6.07958 15.4923 7.51374C15.4953 7.52108 15.4982 7.52847 15.501 7.53591C15.6121 7.83527 15.6121 8.16456 15.501 8.46391C15.4982 8.47136 15.4953 8.47875 15.4923 8.48609C14.9008 9.92024 13.8968 11.1465 12.6076 12.0093C11.3184 12.8722 9.802 13.3328 8.25066 13.3328C6.69933 13.3328 5.18293 12.8722 3.8937 12.0093C2.60448 11.1465 1.60049 9.92024 1.00902 8.48609C1.00599 8.47875 1.0031 8.47136 1.00033 8.46391C0.889212 8.16456 0.889212 7.83527 1.00033 7.53591C1.0031 7.52847 1.00599 7.52108 1.00902 7.51374C1.60049 6.07958 2.60448 4.85335 3.8937 3.99048Z" fill="#07AD94"/>
<path fill-rule="evenodd" clip-rule="evenodd" d="M8.24967 6.66634C7.51329 6.66634 6.91634 7.26329 6.91634 7.99967C6.91634 8.73605 7.51329 9.33301 8.24967 9.33301C8.98605 9.33301 9.58301 8.73605 9.58301 7.99967C9.58301 7.26329 8.98605 6.66634 8.24967 6.66634ZM5.58301 7.99967C5.58301 6.52692 6.77692 5.33301 8.24967 5.33301C9.72243 5.33301 10.9163 6.52692 10.9163 7.99967C10.9163 9.47243 9.72243 10.6663 8.24967 10.6663C6.77692 10.6663 5.58301 9.47243 5.58301 7.99967Z" fill="#07AD94"/>
</g>
<defs>
<clipPath id="clip0_21321_33812">
<rect width="16" height="16" fill="white" transform="translate(0.25)"/>
</clipPath>
</defs>
</svg>
