<svg width="16" height="16" viewBox="0 0 16 16" fill="none" xmlns="http://www.w3.org/2000/svg">
<path fill-rule="evenodd" clip-rule="evenodd" d="M2.58579 1.25278C2.96086 0.877706 3.46957 0.666992 4 0.666992H10C10.1768 0.666992 10.3464 0.73723 10.4714 0.862254L13.8047 4.19559C13.9298 4.32061 14 4.49018 14 4.66699V13.3337C14 13.8641 13.7893 14.3728 13.4142 14.7479C13.0391 15.1229 12.5304 15.3337 12 15.3337H4C3.46957 15.3337 2.96086 15.1229 2.58579 14.7479C2.21071 14.3728 2 13.8641 2 13.3337V2.66699C2 2.13656 2.21071 1.62785 2.58579 1.25278ZM4 2.00033C3.82319 2.00033 3.65362 2.07056 3.5286 2.19559C3.40357 2.32061 3.33333 2.49018 3.33333 2.66699V13.3337C3.33333 13.5105 3.40357 13.68 3.5286 13.8051C3.65362 13.9301 3.82319 14.0003 4 14.0003H12C12.1768 14.0003 12.3464 13.9301 12.4714 13.8051C12.5964 13.68 12.6667 13.5105 12.6667 13.3337V4.94313L9.72386 2.00033H4Z" fill="white"/>
<path fill-rule="evenodd" clip-rule="evenodd" d="M9.33366 0.666992C9.70185 0.666992 10.0003 0.965469 10.0003 1.33366V4.00033C10.0003 4.17714 10.0706 4.34671 10.1956 4.47173C10.3206 4.59675 10.4902 4.66699 10.667 4.66699H13.3337C13.7018 4.66699 14.0003 4.96547 14.0003 5.33366C14.0003 5.70185 13.7018 6.00033 13.3337 6.00033H10.667C10.1366 6.00033 9.62785 5.78961 9.25278 5.41454C8.87771 5.03947 8.66699 4.53076 8.66699 4.00033V1.33366C8.66699 0.965469 8.96547 0.666992 9.33366 0.666992Z" fill="white"/>
<path fill-rule="evenodd" clip-rule="evenodd" d="M5.33366 10C5.70185 10 6.00033 10.2985 6.00033 10.6667V12C6.00033 12.3682 5.70185 12.6667 5.33366 12.6667C4.96547 12.6667 4.66699 12.3682 4.66699 12V10.6667C4.66699 10.2985 4.96547 10 5.33366 10Z" fill="white"/>
<path fill-rule="evenodd" clip-rule="evenodd" d="M7.99967 8.66699C8.36786 8.66699 8.66634 8.96547 8.66634 9.33366V12.0003C8.66634 12.3685 8.36786 12.667 7.99967 12.667C7.63148 12.667 7.33301 12.3685 7.33301 12.0003V9.33366C7.33301 8.96547 7.63148 8.66699 7.99967 8.66699Z" fill="white"/>
<path fill-rule="evenodd" clip-rule="evenodd" d="M10.6667 7.33301C11.0349 7.33301 11.3333 7.63148 11.3333 7.99967V11.9997C11.3333 12.3679 11.0349 12.6663 10.6667 12.6663C10.2985 12.6663 10 12.3679 10 11.9997V7.99967C10 7.63148 10.2985 7.33301 10.6667 7.33301Z" fill="white"/>
</svg>
