<svg width="32" height="32" viewBox="0 0 32 32" fill="none" xmlns="http://www.w3.org/2000/svg">
<rect width="32" height="32" rx="6" fill="#DDFFED"/>
<rect x="0.5" y="0.5" width="31" height="31" rx="5.5" stroke="#0B8043" stroke-opacity="0.15"/>
<path fill-rule="evenodd" clip-rule="evenodd" d="M9.90901 8.40901C10.331 7.98705 10.9033 7.75 11.5 7.75H18.25C18.4489 7.75 18.6397 7.82902 18.7803 7.96967L22.5303 11.7197C22.671 11.8603 22.75 12.0511 22.75 12.25V22C22.75 22.5967 22.5129 23.169 22.091 23.591C21.669 24.0129 21.0967 24.25 20.5 24.25H16.375C15.9608 24.25 15.625 23.9142 15.625 23.5C15.625 23.0858 15.9608 22.75 16.375 22.75H20.5C20.6989 22.75 20.8897 22.671 21.0303 22.5303C21.171 22.3897 21.25 22.1989 21.25 22V12.5607L17.9393 9.25H11.5C11.3011 9.25 11.1103 9.32902 10.9697 9.46967C10.829 9.61032 10.75 9.80109 10.75 10V17.125C10.75 17.5392 10.4142 17.875 10 17.875C9.58579 17.875 9.25 17.5392 9.25 17.125V10C9.25 9.40326 9.48705 8.83097 9.90901 8.40901Z" fill="#0B8043"/>
<path fill-rule="evenodd" clip-rule="evenodd" d="M17.5 7.75C17.9142 7.75 18.25 8.08579 18.25 8.5V11.5C18.25 11.6989 18.329 11.8897 18.4697 12.0303C18.6103 12.171 18.8011 12.25 19 12.25H22C22.4142 12.25 22.75 12.5858 22.75 13C22.75 13.4142 22.4142 13.75 22 13.75H19C18.4033 13.75 17.831 13.5129 17.409 13.091C16.9871 12.669 16.75 12.0967 16.75 11.5V8.5C16.75 8.08579 17.0858 7.75 17.5 7.75Z" fill="#0B8043"/>
<path fill-rule="evenodd" clip-rule="evenodd" d="M15.0106 15.4284C15.2948 15.3106 15.5995 15.25 15.9072 15.25C16.2149 15.25 16.5196 15.3106 16.8039 15.4284C17.0882 15.5461 17.3465 15.7187 17.5641 15.9363C17.7816 16.1539 17.9542 16.4122 18.072 16.6964C18.1897 16.9807 18.2503 17.2854 18.2503 17.5931C18.2503 17.9008 18.1897 18.2055 18.072 18.4898C17.9542 18.7741 17.7816 19.0324 17.5641 19.2499L13.8045 23.0065C13.8044 23.0066 13.8044 23.0066 13.8044 23.0066C13.5371 23.274 13.2067 23.4698 12.8437 23.5758L10.691 24.2036C10.691 24.2036 10.691 24.2036 10.691 24.2036C10.4974 24.2601 10.2921 24.2635 10.0968 24.2134C9.9014 24.1634 9.72309 24.0617 9.58048 23.9191C9.43788 23.7765 9.33623 23.5982 9.28617 23.4028C9.23612 23.2075 9.23951 23.0022 9.29597 22.8086C9.29597 22.8086 9.29597 22.8086 9.29598 22.8086L9.92379 20.6559C10.0298 20.293 10.2254 19.9627 10.4928 19.6954C10.4929 19.6953 10.493 19.6952 10.493 19.6951L14.2503 15.9364L14.7801 16.466L14.2504 15.9363C14.468 15.7187 14.7263 15.5461 15.0106 15.4284ZM15.3112 16.9968C15.3111 16.9969 15.3111 16.9969 15.3111 16.9969L11.5534 20.7561C11.4643 20.8451 11.3991 20.9552 11.3637 21.0761C11.3637 21.0761 11.3637 21.0761 11.3637 21.0762C11.3637 21.0762 11.3637 21.0763 11.3637 21.0763L10.9274 22.5722L12.4233 22.1359C12.4233 22.1359 12.4234 22.1359 12.4235 22.1359C12.5444 22.1005 12.6545 22.0353 12.7435 21.9462L16.5034 18.1893C16.5817 18.111 16.6438 18.018 16.6862 17.9158C16.7285 17.8135 16.7503 17.7038 16.7503 17.5931C16.7503 17.4824 16.7285 17.3728 16.6862 17.2705C16.6438 17.1682 16.5817 17.0752 16.5034 16.9969C16.4251 16.9187 16.3322 16.8565 16.2299 16.8142C16.1276 16.7718 16.0179 16.75 15.9072 16.75C15.7965 16.75 15.6869 16.7718 15.5846 16.8142C15.4823 16.8565 15.3894 16.9186 15.3112 16.9968ZM10.2713 22.7635C10.2712 22.7635 10.2711 22.7636 10.271 22.7636C10.271 22.7636 10.271 22.7636 10.271 22.7636M10.2713 22.7635L10.271 22.7636Z" fill="#0B8043"/>
</svg>
