<svg width="32" height="32" viewBox="0 0 32 32" fill="none" xmlns="http://www.w3.org/2000/svg">
<path d="M0 6C0 2.68629 2.68629 0 6 0H26C29.3137 0 32 2.68629 32 6V26C32 29.3137 29.3137 32 26 32H6C2.68629 32 0 29.3137 0 26V6Z" fill="#E6F0FF"/>
<path d="M6 0.5H26C29.0376 0.5 31.5 2.96243 31.5 6V26C31.5 29.0376 29.0376 31.5 26 31.5H6C2.96243 31.5 0.5 29.0376 0.5 26V6C0.5 2.96243 2.96243 0.5 6 0.5Z" stroke="#1D4ED8" stroke-opacity="0.1"/>
<path fill-rule="evenodd" clip-rule="evenodd" d="M14.8766 8.05248C15.2182 7.85559 15.6057 7.75195 16 7.75195C16.3943 7.75195 16.7818 7.85559 17.1234 8.05248C17.1239 8.05278 17.1245 8.05309 17.125 8.0534L22.3721 11.0517C22.3731 11.0523 22.374 11.0528 22.375 11.0534C22.7167 11.2507 23.0005 11.5344 23.198 11.876C23.3954 12.2176 23.4996 12.6051 23.5 12.9996V19.0012C23.4996 19.3958 23.3954 19.7833 23.198 20.1249C23.0005 20.4665 22.7167 20.7502 22.375 20.9474C22.374 20.948 22.3731 20.9485 22.3721 20.9491L17.125 23.9474C17.1245 23.9477 17.124 23.948 17.1236 23.9483C16.7819 24.1452 16.3944 24.2489 16 24.2489C15.6056 24.2489 15.2181 24.1452 14.8764 23.9483C14.876 23.948 14.8755 23.9477 14.875 23.9474L9.6279 20.9491C9.62693 20.9485 9.62596 20.948 9.625 20.9474C9.2833 20.7502 8.99948 20.4665 8.80202 20.1249C8.60456 19.7833 8.5004 19.3958 8.5 19.0012V12.9996C8.5004 12.6051 8.60456 12.2176 8.80202 11.876C8.99948 11.5344 9.2833 11.2507 9.625 11.0534C9.62596 11.0528 9.62693 11.0523 9.6279 11.0517L14.8766 8.05248ZM16 9.25195C15.8683 9.25195 15.739 9.28661 15.625 9.35243C15.624 9.35299 15.6231 9.35355 15.6221 9.3541L10.3738 12.3531C10.2604 12.4189 10.1663 12.5131 10.1007 12.6266C10.0349 12.7404 10.0002 12.8695 10 13.0009V19C10.0002 19.1314 10.0349 19.2604 10.1007 19.3742C10.1663 19.4877 10.2604 19.5819 10.3738 19.6477C10.3742 19.6479 10.3746 19.6482 10.375 19.6484L15.6221 22.6467C15.6231 22.6473 15.624 22.6478 15.625 22.6484C15.739 22.7142 15.8683 22.7489 16 22.7489C16.1317 22.7489 16.261 22.7142 16.375 22.6484C16.376 22.6478 16.3769 22.6473 16.3779 22.6467L21.625 19.6484C21.6254 19.6482 21.6258 19.6479 21.6262 19.6477C21.7396 19.582 21.8337 19.4877 21.8993 19.3742C21.9651 19.2603 21.9999 19.1312 22 18.9996V13.0012C21.9999 12.8697 21.9651 12.7405 21.8993 12.6266C21.8337 12.5131 21.7395 12.4188 21.6262 12.3531C21.6258 12.3529 21.6254 12.3527 21.625 12.3524L16.3779 9.3541C16.3769 9.35355 16.376 9.35299 16.375 9.35243C16.261 9.28661 16.1317 9.25195 16 9.25195Z" fill="#1D4ED8"/>
<path fill-rule="evenodd" clip-rule="evenodd" d="M8.82448 11.8764C9.03087 11.5173 9.48932 11.3935 9.84845 11.5999L15.9997 15.1351L22.151 11.5999C22.5102 11.3935 22.9686 11.5173 23.175 11.8764C23.3814 12.2355 23.2576 12.694 22.8984 12.9004L16.3734 16.6504C16.1421 16.7834 15.8574 16.7834 15.626 16.6504L9.10102 12.9004C8.74189 12.694 8.61808 12.2355 8.82448 11.8764Z" fill="#1D4ED8"/>
<path fill-rule="evenodd" clip-rule="evenodd" d="M16 15.25C16.4142 15.25 16.75 15.5858 16.75 16V23.5C16.75 23.9142 16.4142 24.25 16 24.25C15.5858 24.25 15.25 23.9142 15.25 23.5V16C15.25 15.5858 15.5858 15.25 16 15.25Z" fill="#1D4ED8"/>
</svg>
