<svg width="33" height="32" viewBox="0 0 33 32" fill="none" xmlns="http://www.w3.org/2000/svg">
<rect x="0.75" width="32" height="32" rx="6" fill="#DDFFED"/>
<rect x="1.25" y="0.5" width="31" height="31" rx="5.5" stroke="#0B8043" stroke-opacity="0.15"/>
<path fill-rule="evenodd" clip-rule="evenodd" d="M9.15901 9.90901C9.58097 9.48705 10.1533 9.25 10.75 9.25H16.75C17.3467 9.25 17.919 9.48705 18.341 9.90901C18.7629 10.331 19 10.9033 19 11.5V20.5C19 20.9142 18.6642 21.25 18.25 21.25C17.8358 21.25 17.5 20.9142 17.5 20.5V11.5C17.5 11.3011 17.421 11.1103 17.2803 10.9697C17.1397 10.829 16.9489 10.75 16.75 10.75H10.75C10.5511 10.75 10.3603 10.829 10.2197 10.9697C10.079 11.1103 10 11.3011 10 11.5V19.75H11.5C11.9142 19.75 12.25 20.0858 12.25 20.5C12.25 20.9142 11.9142 21.25 11.5 21.25H10C9.60218 21.25 9.22065 21.092 8.93934 20.8107C8.65803 20.5294 8.5 20.1478 8.5 19.75V11.5C8.5 10.9033 8.73705 10.331 9.15901 9.90901Z" fill="#0B8043"/>
<path fill-rule="evenodd" clip-rule="evenodd" d="M13.75 20.5C13.75 20.0858 14.0858 19.75 14.5 19.75H19C19.4142 19.75 19.75 20.0858 19.75 20.5C19.75 20.9142 19.4142 21.25 19 21.25H14.5C14.0858 21.25 13.75 20.9142 13.75 20.5Z" fill="#0B8043"/>
<path fill-rule="evenodd" clip-rule="evenodd" d="M17.5 13C17.5 12.5858 17.8358 12.25 18.25 12.25L20.8911 12.25C21.1159 12.2503 21.3378 12.3012 21.5403 12.3988C21.7427 12.4964 21.9206 12.6382 22.0609 12.8138C22.0609 12.8138 22.061 12.8139 22.0611 12.814L24.67 16.0752C24.6701 16.0752 24.6701 16.0753 24.6702 16.0754C24.8831 16.3409 24.9994 16.6709 25 17.0112L25 17.0125V19.75C25 20.1478 24.842 20.5294 24.5607 20.8107C24.2794 21.092 23.8978 21.25 23.5 21.25H22C21.5858 21.25 21.25 20.9142 21.25 20.5C21.25 20.0858 21.5858 19.75 22 19.75H23.5L23.5 17.0138L20.8893 13.7505L20.8889 13.75L18.25 13.75C17.8358 13.75 17.5 13.4142 17.5 13Z" fill="#0B8043"/>
<path fill-rule="evenodd" clip-rule="evenodd" d="M20.5 19.75C20.0858 19.75 19.75 20.0858 19.75 20.5C19.75 20.9142 20.0858 21.25 20.5 21.25C20.9142 21.25 21.25 20.9142 21.25 20.5C21.25 20.0858 20.9142 19.75 20.5 19.75ZM18.25 20.5C18.25 19.2574 19.2574 18.25 20.5 18.25C21.7426 18.25 22.75 19.2574 22.75 20.5C22.75 21.7426 21.7426 22.75 20.5 22.75C19.2574 22.75 18.25 21.7426 18.25 20.5Z" fill="#0B8043"/>
<path fill-rule="evenodd" clip-rule="evenodd" d="M13 19.75C12.5858 19.75 12.25 20.0858 12.25 20.5C12.25 20.9142 12.5858 21.25 13 21.25C13.4142 21.25 13.75 20.9142 13.75 20.5C13.75 20.0858 13.4142 19.75 13 19.75ZM10.75 20.5C10.75 19.2574 11.7574 18.25 13 18.25C14.2426 18.25 15.25 19.2574 15.25 20.5C15.25 21.7426 14.2426 22.75 13 22.75C11.7574 22.75 10.75 21.7426 10.75 20.5Z" fill="#0B8043"/>
</svg>
