<svg width="33" height="32" viewBox="0 0 33 32" fill="none" xmlns="http://www.w3.org/2000/svg">
<path d="M0.5 6C0.5 2.68629 3.18629 0 6.5 0H26.5C29.8137 0 32.5 2.68629 32.5 6V26C32.5 29.3137 29.8137 32 26.5 32H6.5C3.18629 32 0.5 29.3137 0.5 26V6Z" fill="#FFF5E3"/>
<path d="M6.5 0.5H26.5C29.5376 0.5 32 2.96243 32 6V26C32 29.0376 29.5376 31.5 26.5 31.5H6.5C3.46243 31.5 1 29.0376 1 26V6C1 2.96243 3.46243 0.5 6.5 0.5Z" stroke="#A16207" stroke-opacity="0.1"/>
<path fill-rule="evenodd" clip-rule="evenodd" d="M16.5004 11.5C15.0522 11.5 13.6366 11.93 12.4331 12.7355C11.2371 13.536 10.304 14.6715 9.75057 15.9995C10.304 17.3276 11.2371 18.4631 12.4331 19.2636C13.6366 20.0691 15.0522 20.4991 16.5004 20.4991C17.9486 20.4991 19.3641 20.0691 20.5676 19.2636C21.7637 18.4631 22.6967 17.3276 23.2502 15.9995C22.6967 14.6715 21.7637 13.536 20.5676 12.7355C19.3641 11.93 17.9486 11.5 16.5004 11.5ZM11.5988 11.4889C13.0492 10.5182 14.7551 10 16.5004 10C18.2456 10 19.9516 10.5182 21.402 11.4889C22.8523 12.4596 23.9818 13.8392 24.6472 15.4526C24.6506 15.4608 24.6539 15.4692 24.657 15.4775C24.782 15.8143 24.782 16.1848 24.657 16.5215C24.6539 16.5299 24.6506 16.5382 24.6472 16.5465C23.9818 18.1599 22.8523 19.5394 21.402 20.5101C19.9516 21.4809 18.2456 21.9991 16.5004 21.9991C14.7551 21.9991 13.0492 21.4809 11.5988 20.5101C10.1484 19.5394 9.01894 18.1599 8.35353 16.5465C8.35012 16.5382 8.34687 16.5299 8.34376 16.5215C8.21875 16.1848 8.21875 15.8143 8.34376 15.4775C8.34687 15.4692 8.35012 15.4608 8.35353 15.4526C9.01894 13.8392 10.1484 12.4596 11.5988 11.4889Z" fill="#FEB10A"/>
<path fill-rule="evenodd" clip-rule="evenodd" d="M16.5 14.5C15.6716 14.5 15 15.1716 15 16C15 16.8284 15.6716 17.5 16.5 17.5C17.3284 17.5 18 16.8284 18 16C18 15.1716 17.3284 14.5 16.5 14.5ZM13.5 16C13.5 14.3431 14.8431 13 16.5 13C18.1569 13 19.5 14.3431 19.5 16C19.5 17.6569 18.1569 19 16.5 19C14.8431 19 13.5 17.6569 13.5 16Z" fill="#FEB10A"/>
</svg>
