<svg width="33" height="32" viewBox="0 0 33 32" fill="none" xmlns="http://www.w3.org/2000/svg">
<path d="M0.25 6C0.25 2.68629 2.93629 0 6.25 0H26.25C29.5637 0 32.25 2.68629 32.25 6V26C32.25 29.3137 29.5637 32 26.25 32H6.25C2.93629 32 0.25 29.3137 0.25 26V6Z" fill="#FFF5E3"/>
<path d="M6.25 0.5H26.25C29.2876 0.5 31.75 2.96243 31.75 6V26C31.75 29.0376 29.2876 31.5 26.25 31.5H6.25C3.21243 31.5 0.75 29.0376 0.75 26V6C0.75 2.96243 3.21243 0.5 6.25 0.5Z" stroke="#A16207" stroke-opacity="0.1"/>
<path fill-rule="evenodd" clip-rule="evenodd" d="M19.6254 10.1505C18.2881 9.37888 16.7266 9.08904 15.2015 9.32933C13.6763 9.56961 12.2796 10.3255 11.2443 11.4709C10.209 12.6163 9.59771 14.0821 9.5123 15.6237C9.42688 17.1653 9.87254 18.6895 10.775 19.9423C11.6774 21.1951 12.982 22.1007 14.4713 22.508C15.9605 22.9153 17.5444 22.7997 18.9588 22.1806C20.3732 21.5614 21.5326 20.4761 22.2436 19.1056C22.9546 17.7351 23.1743 16.1622 22.866 14.6494C22.7833 14.2435 23.0453 13.8474 23.4512 13.7647C23.8571 13.682 24.2531 13.944 24.3358 14.3499C24.7126 16.199 24.4441 18.1213 23.5751 19.7964C22.706 21.4714 21.289 22.7979 19.5603 23.5547C17.8317 24.3114 15.8958 24.4527 14.0756 23.9548C12.2553 23.457 10.6608 22.3502 9.55785 20.8191C8.45489 19.2879 7.9102 17.4249 8.01459 15.5407C8.11899 13.6565 8.86617 11.8651 10.1315 10.4651C11.3969 9.06514 13.1039 8.14129 14.968 7.84761C16.8321 7.55392 18.7405 7.90817 20.375 8.85126C20.7338 9.05827 20.8568 9.51693 20.6498 9.8757C20.4428 10.2345 19.9841 10.3575 19.6254 10.1505Z" fill="#FEB10A"/>
<path fill-rule="evenodd" clip-rule="evenodd" d="M24.2803 9.46967C24.5732 9.76256 24.5732 10.2374 24.2803 10.5303L16.7803 18.0303C16.4874 18.3232 16.0126 18.3232 15.7197 18.0303L13.4697 15.7803C13.1768 15.4874 13.1768 15.0126 13.4697 14.7197C13.7626 14.4268 14.2374 14.4268 14.5303 14.7197L16.25 16.4393L23.2197 9.46967C23.5126 9.17678 23.9874 9.17678 24.2803 9.46967Z" fill="#FEB10A"/>
</svg>
