<svg width="33" height="32" viewBox="0 0 33 32" fill="none" xmlns="http://www.w3.org/2000/svg">
<path d="M0.25 6C0.25 2.68629 2.93629 0 6.25 0H26.25C29.5637 0 32.25 2.68629 32.25 6V26C32.25 29.3137 29.5637 32 26.25 32H6.25C2.93629 32 0.25 29.3137 0.25 26V6Z" fill="#E6F0FF"/>
<path d="M6.25 0.5H26.25C29.2876 0.5 31.75 2.96243 31.75 6V26C31.75 29.0376 29.2876 31.5 26.25 31.5H6.25C3.21243 31.5 0.75 29.0376 0.75 26V6C0.75 2.96243 3.21243 0.5 6.25 0.5Z" stroke="#1D4ED8" stroke-opacity="0.1"/>
<path fill-rule="evenodd" clip-rule="evenodd" d="M10.159 8.40901C10.581 7.98705 11.1533 7.75 11.75 7.75H18.5C18.6989 7.75 18.8897 7.82902 19.0303 7.96967L22.7803 11.7197C22.921 11.8603 23 12.0511 23 12.25V22C23 22.5967 22.7629 23.169 22.341 23.591C21.919 24.0129 21.3467 24.25 20.75 24.25H19.25C18.8358 24.25 18.5 23.9142 18.5 23.5C18.5 23.0858 18.8358 22.75 19.25 22.75H20.75C20.9489 22.75 21.1397 22.671 21.2803 22.5303C21.421 22.3897 21.5 22.1989 21.5 22V12.5607L18.1893 9.25H11.75C11.5511 9.25 11.3603 9.32902 11.2197 9.46967C11.079 9.61032 11 9.80109 11 10V12.25C11 12.6642 10.6642 13 10.25 13C9.83579 13 9.5 12.6642 9.5 12.25V10C9.5 9.40326 9.73705 8.83097 10.159 8.40901Z" fill="#1D4ED8"/>
<path fill-rule="evenodd" clip-rule="evenodd" d="M17.75 7.75C18.1642 7.75 18.5 8.08579 18.5 8.5V11.5C18.5 11.6989 18.579 11.8897 18.7197 12.0303C18.8603 12.171 19.0511 12.25 19.25 12.25H22.25C22.6642 12.25 23 12.5858 23 13C23 13.4142 22.6642 13.75 22.25 13.75H19.25C18.6533 13.75 18.081 13.5129 17.659 13.091C17.2371 12.669 17 12.0967 17 11.5V8.5C17 8.08579 17.3358 7.75 17.75 7.75Z" fill="#1D4ED8"/>
<path fill-rule="evenodd" clip-rule="evenodd" d="M13.25 15.25C11.1789 15.25 9.5 16.9289 9.5 19C9.5 21.0711 11.1789 22.75 13.25 22.75C15.3211 22.75 17 21.0711 17 19C17 16.9289 15.3211 15.25 13.25 15.25ZM8 19C8 16.1005 10.3505 13.75 13.25 13.75C16.1495 13.75 18.5 16.1005 18.5 19C18.5 21.8995 16.1495 24.25 13.25 24.25C10.3505 24.25 8 21.8995 8 19Z" fill="#1D4ED8"/>
<path fill-rule="evenodd" clip-rule="evenodd" d="M13.25 16.75C13.6642 16.75 14 17.0858 14 17.5V18.8362L14.8551 19.5488C15.1733 19.814 15.2163 20.2869 14.9512 20.6051C14.686 20.9233 14.2131 20.9663 13.8949 20.7012L12.7699 19.7637C12.5989 19.6212 12.5 19.4101 12.5 19.1875V17.5C12.5 17.0858 12.8358 16.75 13.25 16.75Z" fill="#1D4ED8"/>
</svg>
