<svg width="24" height="24" viewBox="0 0 24 24" fill="none" xmlns="http://www.w3.org/2000/svg">
<g clip-path="url(#clip0_21362_5715)">
<path d="M19.9798 2.45873C19.8903 2.28643 19.6779 2.21923 19.5058 2.30877C19.3335 2.39831 19.2663 2.61052 19.3558 2.78283C19.8145 3.66576 19.9108 4.68052 19.627 5.63999C19.5138 6.02341 18.5198 9.39034 18.4764 9.55752C18.4678 9.59084 18.4379 9.61428 18.404 9.61428H10.1076C9.91329 9.61428 9.756 9.77157 9.756 9.96584C9.756 10.1599 9.91329 10.3174 10.1076 10.3174H17.3373L17.1419 11.3917C17.1353 11.4272 17.1045 11.4528 17.0685 11.4528H6.93875C6.90268 11.4528 6.87192 11.4272 6.86551 11.3917L6.66995 10.3174H8.57662C8.77071 10.3174 8.92818 10.1599 8.92818 9.96584C8.92818 9.77157 8.77071 9.61428 8.57662 9.61428H5.60318C5.56931 9.61428 5.53946 9.59103 5.53086 9.5577C5.52994 9.55404 5.52884 9.55038 5.52793 9.54671L4.38023 5.63999C4.03288 4.46519 4.25407 3.22869 4.98722 2.24724C5.72037 1.26599 6.84335 0.703122 8.06832 0.703122C8.43288 0.703122 8.79342 0.754025 9.14004 0.854367C11.0134 1.39691 12.994 1.39691 14.8672 0.854367C15.2138 0.754025 15.5743 0.703122 15.9389 0.703122C16.8813 0.703122 17.7857 1.04516 18.4857 1.66625C18.6309 1.79516 18.8532 1.78198 18.9821 1.63677C19.111 1.49139 19.0976 1.26928 18.9524 1.14038C18.1237 0.405028 17.0535 0 15.9389 0C15.5082 0 15.0818 0.0602414 14.6716 0.178893C12.9263 0.684446 11.0809 0.684446 9.33559 0.178893C8.92544 0.0602414 8.49899 0 8.06832 0C6.61942 0 5.29099 0.665769 4.42381 1.82647C3.55662 2.98717 3.29497 4.44981 3.70585 5.83866L4.8519 9.74026C4.94291 10.0805 5.25107 10.3174 5.60318 10.3174H5.95529L6.17374 11.5175C6.24094 11.8875 6.56284 12.156 6.93875 12.156H8.47079L8.71908 14.2946L8.47134 14.3609C8.21499 14.4296 8.00076 14.594 7.86819 14.8238C7.73544 15.0536 7.70028 15.3213 7.76895 15.5775C7.88778 16.0208 8.29006 16.3137 8.7286 16.3137C8.80202 16.3137 8.87655 16.3049 8.95089 16.2879L9.07723 17.3757L8.74215 17.4656C8.21316 17.6074 7.89804 18.153 8.03976 18.6822C8.15859 19.1253 8.56087 19.4184 8.99941 19.4184C9.08437 19.4184 9.17043 19.4075 9.25631 19.3844L9.30886 19.3703L9.4352 20.457L9.14827 20.5339C8.89193 20.6026 8.67788 20.767 8.54513 20.9968C8.41256 21.2266 8.3774 21.4941 8.44607 21.7505C8.51455 22.0066 8.67898 22.2209 8.90877 22.3536C9.06185 22.4419 9.23159 22.4871 9.40371 22.4871C9.48995 22.4871 9.57692 22.4757 9.66243 22.4529L9.66701 22.4516L9.76277 23.2757C9.81056 23.6886 10.1603 24.0001 10.5761 24.0001H13.4313C13.8469 24.0001 14.1967 23.6886 14.2446 23.2757L14.4905 21.1592L14.8591 21.0603C15.3879 20.9186 15.7031 20.373 15.5613 19.844C15.454 19.4437 15.1155 19.1663 14.7278 19.1161L14.8716 17.8798L15.2653 17.7743C15.7941 17.6328 16.1092 17.087 15.9675 16.558C15.858 16.1493 15.5077 15.8686 15.11 15.8272L15.2526 14.6006L15.5359 14.5248C16.0651 14.3829 16.38 13.8372 16.2383 13.3082C16.1385 12.936 15.8387 12.6701 15.4855 12.5943L15.5366 12.1561H17.0685C17.4446 12.1561 17.7663 11.8875 17.8337 11.5177L18.0521 10.3174H18.404C18.7583 10.3174 19.068 10.0775 19.157 9.73421C19.1879 9.61483 19.8583 7.33957 20.3014 5.83939C20.6368 4.70469 20.5227 3.50408 19.9798 2.45873ZM13.5461 23.1944C13.5393 23.2528 13.4899 23.2968 13.4313 23.2968H10.5759C10.5173 23.2968 10.4679 23.2528 10.4611 23.1944L10.3535 22.2676L13.76 21.3548L13.5461 23.1944ZM14.882 20.0258C14.9236 20.1803 14.8315 20.3396 14.6769 20.3812L9.48043 21.7735C9.40554 21.7937 9.32735 21.7832 9.26033 21.7446C9.19314 21.7058 9.14516 21.6433 9.1252 21.5685C9.10506 21.4936 9.11532 21.4154 9.15413 21.3484C9.19295 21.2812 9.25539 21.2332 9.33028 21.2131L14.5268 19.8207C14.5519 19.8139 14.577 19.8108 14.6019 19.8108C14.7299 19.8107 14.8474 19.8963 14.882 20.0258ZM14.0064 19.2322L10.1217 20.2732L9.9955 19.1863L14.1408 18.0756L14.0064 19.2322ZM15.2883 16.7398C15.3297 16.8943 15.2376 17.0538 15.0831 17.0952L9.0743 18.7052C8.91976 18.7468 8.76028 18.6547 8.71889 18.5002C8.67751 18.3456 8.76961 18.1863 8.92415 18.1448L14.9329 16.5347C14.958 16.528 14.9833 16.5248 15.008 16.5248C15.1362 16.5248 15.2537 16.6103 15.2883 16.7398ZM15.5591 13.4901C15.6005 13.6446 15.5084 13.8041 15.3539 13.8455L13.2057 14.4211C13.0182 14.4713 12.9069 14.6641 12.9572 14.8516C13.0074 15.0391 13.2 15.1505 13.3877 15.1003L14.5219 14.7963L14.3875 15.953L9.76369 17.1919L9.63753 16.1052L11.9077 15.4969C12.0953 15.4465 12.2065 15.2537 12.1563 15.0662C12.1061 14.8787 11.9133 14.7674 11.7257 14.8176L8.80349 15.6007C8.64895 15.6421 8.48965 15.55 8.44808 15.3954C8.42812 15.3207 8.43838 15.2426 8.4772 15.1754C8.51583 15.1083 8.57845 15.0602 8.65334 15.0402L15.2037 13.285C15.3583 13.2434 15.5178 13.3357 15.5591 13.4901ZM14.7685 12.6736L9.40572 14.1106L9.17867 12.156H14.8287L14.7685 12.6736Z" fill="white"/>
<path d="M14.6722 2.05394C12.9268 2.55949 11.0815 2.55949 9.33612 2.05394C9.14972 2.0001 8.95453 2.1074 8.9007 2.29399C8.84668 2.48039 8.95398 2.67539 9.14056 2.72941C10.0771 3.00077 11.0406 3.13645 12.0041 3.13645C12.9676 3.13645 13.9311 3.00077 14.8677 2.72941C15.0543 2.67539 15.1618 2.48039 15.1078 2.29399C15.0537 2.1074 14.8586 2.0001 14.6722 2.05394Z" fill="white"/>
</g>
<defs>
<clipPath id="clip0_21362_5715">
<rect width="24" height="24" fill="white"/>
</clipPath>
</defs>
</svg>
