<svg width="59" height="41" viewBox="0 0 59 41" fill="none" xmlns="http://www.w3.org/2000/svg">
<path d="M55.5415 26.5684C55.5415 26.5684 50.3622 39.3451 45.646 39.5852C40.9469 39.8253 36.2993 39.1564 33.7268 38.8477C31.1543 38.539 25.7177 37.4414 18.3261 39.0878C18.3261 39.0878 7.86458 34.8861 4.70898 26.9628C4.70898 26.9628 27.1755 36.8412 55.5415 26.5684Z" stroke="#231F20" stroke-width="1.372" stroke-miterlimit="10"/>
<path d="M55.4209 26.8762C55.4209 26.8762 33.1602 35.8628 4.82845 27.305C4.82845 27.305 0.935405 19.9991 1.05545 14.3053C1.05545 14.3053 29.3356 24.4923 57.856 12.7446C57.856 12.7446 58.2848 12.4018 58.1078 13.6021C58.1032 15.6473 57.8549 21.0752 55.4209 26.8762Z" stroke="#231F20" stroke-width="1.372" stroke-miterlimit="10"/>
<path d="M28.6324 18.1308C28.6324 18.1308 11.4996 18.5081 1.03807 14.5636C1.03807 14.5636 0.489267 9.07556 3.45621 5.06247C6.42316 1.04937 10.6935 -0.528427 16.8847 2.90157C23.0758 6.33157 26.9002 9.52146 33.0914 6.82892C39.2825 4.13637 45.6452 1.27232 49.2981 1.01507C52.9511 0.757821 58.8164 3.75907 58.1475 12.6942C58.1475 12.7114 52.0078 17.8392 28.6324 18.1308Z" stroke="#231F20" stroke-width="1.372" stroke-miterlimit="10"/>
</svg>
