<svg width="56" height="47" viewBox="0 0 56 47" fill="none" xmlns="http://www.w3.org/2000/svg">
<path d="M37.2923 26.802C37.4469 27.0979 37.7213 27.354 38.1595 27.4737C39.3565 27.8007 40.5826 27.9545 41.8288 27.9689C45.7204 27.9812 49.4519 26.1926 51.9976 23.1741C52.8978 22.1337 51.5664 20.9729 50.6079 21.9611C50.3518 22.2354 50.0789 22.505 49.8151 22.741C46.8849 25.3102 42.6374 26.0701 38.927 24.9297C38.8933 24.9205 38.8596 24.9114 38.8259 24.9021C37.5569 24.5735 36.8451 25.919 37.2923 26.802Z" fill="#07AD94"/>
<path d="M37.293 26.8019C37.4476 27.0978 37.722 27.3539 38.1602 27.4737C39.3572 27.8007 40.5833 27.9544 41.8295 27.9688C41.8341 27.9519 41.8341 27.9519 41.8556 27.9397C42.5488 26.8609 43.6343 26.0704 44.8913 25.7798C48.1948 24.9612 49.7852 22.7869 49.8112 22.7578C46.881 25.3271 42.6335 26.0869 38.9231 24.9466C38.8893 24.9373 38.8557 24.9282 38.822 24.9189L37.293 26.8019Z" fill="#0E8D7A"/>
<path d="M39.2481 25.2158C39.1132 25.1789 38.9952 25.1466 38.8603 25.1099C38.7592 25.0823 38.7148 24.9795 38.7424 24.8784C38.7701 24.7773 38.8774 24.716 38.9739 24.7605C42.9831 26.0006 47.3979 24.9603 50.2072 22.1044C50.2808 22.0339 50.3912 22.0279 50.4617 22.1014C50.5322 22.175 50.5382 22.2854 50.4647 22.3558C47.6506 25.2285 43.2941 26.321 39.2481 25.2158Z" fill="#076355"/>
<path d="M38.1101 27.6587C38.009 27.6311 37.9478 27.5237 37.9754 27.4226C38.003 27.3215 38.1104 27.2602 38.2115 27.2879C43.0161 28.6004 48.6943 26.7819 52.0144 22.8517C52.0711 22.7766 52.203 22.7584 52.2734 22.8319C52.3485 22.8886 52.3668 23.0205 52.2933 23.0909C50.6095 25.0766 48.3771 26.5501 45.8109 27.389C43.24 28.245 40.5715 28.3312 38.1101 27.6587Z" fill="#076355"/>
<path d="M13.0814 26.947C14.9863 31.4907 15.9824 37.4676 15.9824 41.6445C15.9824 43.6892 16.8562 45.0699 18.062 45.5766C19.3028 46.1184 20.9107 45.7514 22.2388 44.2659C24.633 41.627 27.1147 37.7822 29.5089 36.6637C29.7535 36.5414 29.9983 36.4715 30.2429 36.4191C32.1478 41.8017 31.274 45.297 34.2799 45.297C34.6469 45.297 35.0314 45.1572 35.4159 44.9125C39.0684 42.5881 43.3327 30.3198 44.3463 27.0518C45.4648 23.4342 50.7775 6.77948 42.9307 1.9386C42.8783 1.9036 42.8258 1.86873 42.7734 1.83373C42.7734 1.83373 42.7734 1.83373 42.7559 1.83373C42.7035 1.79873 42.6685 1.78135 42.6162 1.74635C42.4239 1.64147 42.2317 1.5366 42.0569 1.44923C42.0045 1.43173 41.952 1.39685 41.9172 1.37935C41.7249 1.29198 41.5502 1.2046 41.3579 1.13473C41.3229 1.11723 41.288 1.09973 41.253 1.09973C41.0084 0.99485 40.7463 0.907475 40.5015 0.8201C34.6295 -1.10227 29.2119 2.72498 26.3633 3.63373C26.3283 3.65123 26.2759 3.65123 26.2409 3.66873C26.2409 3.66873 25.5593 3.56385 24.2312 3.16198C24.1788 3.14448 24.1263 3.12698 24.0914 3.12698C24.0739 3.12698 24.0739 3.12698 24.0564 3.10948C24.0389 3.10948 24.0389 3.10948 24.0389 3.10948C23.2 2.84735 22.1165 2.46285 20.8058 1.9211C20.2115 1.67648 19.565 1.48423 18.9009 1.34435C14.2872 0.4181 8.18805 2.20073 6.9298 9.08635C5.4618 16.9681 11.1765 22.4032 13.0814 26.947Z" fill="#07AD94"/>
<path d="M25.5309 16.6613C26.4167 16.209 26.9674 15.5146 26.761 15.1104C26.5546 14.7063 25.6692 14.7453 24.7835 15.1976C23.8977 15.6499 23.347 16.3443 23.5534 16.7484C23.7598 17.1526 24.6452 17.1136 25.5309 16.6613Z" fill="#231F20"/>
<path d="M24.1955 17.2298C23.7935 17.2298 23.4965 17.09 23.3741 16.8453C23.2344 16.5831 23.3218 16.2336 23.6014 15.884C23.846 15.5694 24.2305 15.2724 24.6849 15.0451C25.1393 14.8179 25.6111 14.6781 26.0131 14.6606C26.4675 14.6431 26.7821 14.783 26.9219 15.0451C27.0616 15.3073 26.9743 15.6568 26.6946 16.0064C26.45 16.321 26.0655 16.618 25.6111 16.8453C25.1568 17.0725 24.6849 17.2123 24.2829 17.2298C24.248 17.2298 24.213 17.2298 24.1955 17.2298ZM26.083 15.0278C26.0655 15.0278 26.048 15.0278 26.0131 15.0278C25.6636 15.0453 25.2441 15.1675 24.8423 15.3773C24.4403 15.587 24.0908 15.8491 23.881 16.1288C23.7063 16.356 23.6364 16.5656 23.6888 16.688C23.7586 16.8104 23.9684 16.8803 24.248 16.8628C24.5975 16.8453 25.017 16.723 25.4189 16.5133C25.8209 16.3035 26.1704 16.0414 26.3801 15.7618C26.5549 15.5345 26.6248 15.3249 26.5724 15.2025C26.5199 15.0978 26.3276 15.0278 26.083 15.0278Z" fill="#076355"/>
<path d="M36.9842 16.0588C37.0813 15.6156 36.3726 15.0838 35.4013 14.8711C34.43 14.6583 33.5639 14.8451 33.4668 15.2883C33.3697 15.7315 34.0784 16.2633 35.0497 16.476C36.0211 16.6888 36.8872 16.502 36.9842 16.0588Z" fill="#231F20"/>
<path d="M35.8009 16.7577C35.5387 16.7577 35.2591 16.7227 34.9795 16.6703C33.8785 16.4257 33.127 15.8139 33.2494 15.2547C33.3192 14.9575 33.5989 14.7479 34.0357 14.6604C34.4202 14.573 34.9095 14.5905 35.4164 14.6954C36.5174 14.94 37.2689 15.5518 37.1465 16.111C37.0766 16.4082 36.797 16.6178 36.3601 16.7053C36.2027 16.7402 36.0105 16.7577 35.8009 16.7577ZM34.6125 14.9575C34.4377 14.9575 34.2805 14.975 34.1231 15.0099C33.8435 15.0798 33.6512 15.1847 33.6164 15.3245C33.5465 15.6217 34.1581 16.0935 35.0669 16.3032C35.5037 16.408 35.9406 16.408 36.2902 16.3382C36.5699 16.2683 36.7621 16.1634 36.797 16.0235C36.8669 15.7264 36.2552 15.2545 35.3465 15.0449C35.1017 14.9925 34.8396 14.9575 34.6125 14.9575Z" fill="#076355"/>
<path d="M26.3633 3.61615C27.7089 3.8259 29.4915 3.94815 31.3265 3.65115C31.3265 3.65115 36.0625 0.505397 40.5015 0.802522C34.6295 -1.11985 29.2119 2.7074 26.3633 3.61615Z" fill="#076355"/>
<path d="M29.5098 36.6639C29.7544 36.5415 29.9991 36.4716 30.2438 36.4193C32.1486 41.8019 31.2749 45.2971 34.2808 45.2971C33.1274 45.035 32.673 43.934 32.603 41.5921C32.5506 39.2504 32.603 36.3318 32.603 36.3318C30.6108 35.9998 29.5798 36.629 29.5098 36.6639Z" fill="#076355"/>
<path d="M13.082 26.9464C14.9869 31.4902 15.983 37.4671 15.983 41.6439C15.983 43.6887 16.8567 45.0693 18.0626 45.5761C15.983 43.5488 17.416 39.1798 16.5422 34.3563C15.6685 29.5154 13.2217 24.5872 11.0022 20.7074C8.78274 16.8277 7.13999 12.8082 9.53424 6.90132C11.9285 0.97694 18.884 1.34394 18.884 1.34394C14.2702 0.41769 8.17112 2.20031 6.91287 9.08594C5.46237 16.9676 11.1771 22.4027 13.082 26.9464Z" fill="#076355"/>
<path d="M35.4336 44.8947C39.0861 42.5703 43.3503 30.3021 44.364 27.0341C45.4825 23.4165 50.7952 6.7617 42.9483 1.92083C42.3891 1.57133 41.8298 1.2917 41.2706 1.06445C41.2706 1.06445 45.063 3.16158 45.727 11.288C46.3562 19.3971 41.725 36.7683 35.4336 44.8947Z" fill="#076355"/>
<path d="M19.2146 46.0131C18.8301 46.0131 18.4631 45.9432 18.0961 45.8033C16.6456 45.2441 15.7892 43.6887 15.7892 41.6439C15.7892 37.7817 14.898 31.7699 12.9056 27.0164C12.3989 25.7931 11.5774 24.4824 10.7386 23.1018C8.48423 19.4318 5.65298 14.8531 6.73661 9.03357C7.31336 5.90532 8.93861 3.52857 11.4552 2.16544C14.199 0.662441 17.904 0.50519 20.8749 1.72857C24.0905 3.05682 25.943 3.40632 26.2226 3.45869C26.8692 3.26644 27.6731 2.89944 28.5819 2.48007C32.147 0.854816 37.5296 -1.60931 43.0346 1.78107C46.6347 4.00057 49.8154 10.1696 44.5725 26.9817L44.5375 27.1041C44.4851 27.2963 38.7704 45.4716 34.2965 45.4716C32.1644 45.4716 31.8324 43.7938 31.3081 41.2598C31.046 39.9841 30.7314 38.4112 30.1197 36.6287C28.3197 37.1354 26.3974 39.5123 24.5274 41.8366C23.8284 42.7103 23.0944 43.6192 22.3777 44.4056C21.4341 45.4538 20.2981 46.0131 19.2146 46.0131ZM7.10361 9.10344C6.05498 14.7657 8.71136 19.0998 11.0707 22.9096C11.9271 24.3077 12.7485 25.6358 13.2727 26.8767C15.2825 31.6827 16.1912 37.7468 16.1912 41.6441C16.1912 43.5314 16.9602 44.9646 18.2534 45.4538C19.4941 45.9432 20.9447 45.4538 22.1331 44.1431C22.8321 43.3741 23.5661 42.4653 24.2652 41.5916C26.2226 39.1624 28.2499 36.6458 30.2246 36.2264C30.312 36.2089 30.4169 36.2614 30.4344 36.3488C31.0985 38.2013 31.413 39.8616 31.6926 41.1897C32.1994 43.7237 32.479 45.1043 34.314 45.1043C37.7917 45.1043 42.6326 32.0322 44.2055 26.9991L44.2405 26.8767C49.4134 10.2918 46.3376 4.24507 42.8599 2.11294C37.5296 -1.17256 32.2519 1.23919 28.7566 2.82944C27.8129 3.26632 26.974 3.63332 26.2925 3.84307C26.275 3.84307 26.2401 3.86057 26.2051 3.84307C26.1352 3.82557 24.2652 3.54594 20.7176 2.07794C17.834 0.889566 14.2689 1.06432 11.6125 2.49732C9.21823 3.80819 7.64536 6.09757 7.10361 9.10344Z" fill="#07AD94"/>
<path d="M28.9836 4.01807C27.3584 4.01807 26.2224 3.84332 26.2049 3.84332C26.1 3.82582 26.0301 3.73844 26.0476 3.63357C26.0651 3.52869 26.1525 3.45882 26.2574 3.47632C26.2749 3.47632 28.7914 3.86082 31.6575 3.47632C31.7624 3.45882 31.8497 3.52869 31.8672 3.63357C31.8847 3.73844 31.8149 3.82582 31.71 3.84332C30.7487 3.96557 29.805 4.01807 28.9836 4.01807Z" fill="#0E8D7A"/>
<path d="M30.2419 36.5931C30.1545 36.5931 30.0671 36.5233 30.0671 36.4359C30.0496 36.331 30.1195 36.2436 30.2244 36.2261C30.2768 36.2086 31.5001 35.9989 32.9331 36.0514C33.038 36.0514 33.1079 36.1388 33.1079 36.2436C33.1079 36.3485 33.0205 36.4184 32.9156 36.4184C31.5175 36.3834 30.2943 36.5931 30.2768 36.5931C30.2594 36.5931 30.2594 36.5931 30.2419 36.5931Z" fill="#0E8D7A"/>
<path d="M52.5782 8.01089C52.4412 7.84414 52.2751 7.69177 52.0801 7.58989C51.9247 7.51352 51.7621 7.45877 51.5776 7.43302C50.7493 7.31139 49.9736 7.89552 49.8628 8.72739L45.3012 41.3538C45.1796 42.182 45.7637 42.9578 46.5956 43.0685C46.7692 43.0906 46.9501 43.0911 47.1202 43.0518C47.7319 42.9195 48.2253 42.4215 48.3103 41.7741L52.8719 9.14777C52.9272 8.73189 52.8088 8.32989 52.5782 8.01089Z" fill="#074C55"/>
<path d="M52.5784 8.01084C52.4414 7.84409 52.2753 7.69159 52.0803 7.58984C51.4685 7.72209 50.9751 8.22009 50.8901 8.86747L46.3285 41.4938C46.2399 42.1521 46.5784 42.7608 47.1204 43.0517C47.7321 42.9195 48.2255 42.4215 48.3105 41.7741L52.8721 9.14772C52.9274 8.73184 52.809 8.32984 52.5784 8.01084Z" fill="#00A2B5"/>
<path d="M45.1632 41.3319L49.7249 8.70557C49.8539 7.81945 50.6804 7.1922 51.581 7.31395C51.78 7.33257 51.9535 7.39095 52.1269 7.48545C52.3329 7.59095 52.5205 7.75057 52.6611 7.9427C52.9279 8.29795 53.039 8.72157 52.9762 9.1592L48.4146 41.7856C48.3187 42.4656 47.8071 43.0177 47.1302 43.1643C46.9347 43.2072 46.7502 43.2176 46.5549 43.1881C46.4645 43.1697 46.3632 43.1478 46.2656 43.1149C45.5391 42.8706 45.0564 42.1168 45.1632 41.3319ZM52.745 9.1297C52.7966 8.76082 52.7035 8.39145 52.4764 8.09782C52.3501 7.9347 52.2022 7.80045 52.0179 7.7022C51.877 7.61857 51.7144 7.56395 51.5516 7.54545C50.7776 7.44207 50.0779 7.97932 49.9674 8.73882L45.4056 41.3652C45.3022 42.1392 45.8395 42.8389 46.599 42.9494C46.7617 42.9679 46.9319 42.9648 47.0875 42.9327C47.6595 42.8112 48.0985 42.3312 48.1832 41.7561L52.745 9.1297Z" fill="#074C55"/>
<path d="M47.051 43.1493C46.4476 42.8257 46.1057 42.1554 46.2015 41.4755L50.7631 8.84915C50.859 8.16915 51.3706 7.61703 52.0475 7.4704C52.0729 7.4669 52.1054 7.47778 52.127 7.48503C52.333 7.59053 52.5206 7.75015 52.6612 7.94228C52.928 8.29753 53.0391 8.72115 52.9764 9.15878L48.4148 41.7852C48.3189 42.4652 47.8072 43.0173 47.1304 43.1639C47.1195 43.1603 47.0942 43.1638 47.0725 43.1565C47.0727 43.1565 47.0619 43.1529 47.051 43.1493ZM52.7452 9.1294C52.7969 8.76053 52.7038 8.39115 52.4766 8.09753C52.3576 7.9489 52.2205 7.81828 52.0579 7.7274C51.5147 7.87065 51.0939 8.33265 51.0128 8.8969L46.4511 41.5233C46.37 42.0875 46.6435 42.6382 47.1385 42.9253C47.6816 42.782 48.1025 42.32 48.1836 41.7558L52.7452 9.1294Z" fill="#074C55"/>
<path d="M54.3085 8.89541L52.8546 8.69616C52.0118 8.58178 51.2397 9.15503 51.1253 9.99766L50.2255 16.4427C50.1111 17.2854 50.6843 18.0575 51.527 18.1719L52.9808 18.3712L54.3085 8.89541Z" fill="white"/>
<path d="M50.1026 16.449L51.0025 10.004C51.0651 9.56636 51.2905 9.18349 51.6457 8.91661C51.9865 8.65699 52.4246 8.53874 52.8622 8.60149L54.5585 8.83386C54.62 8.83036 54.6705 8.89561 54.6595 8.96436L53.4044 18.4404C53.3934 18.4729 53.3825 18.5055 53.3535 18.5199C53.3245 18.5342 53.2991 18.5379 53.263 18.5377L51.5089 18.298C51.4076 18.276 51.3064 18.254 51.2087 18.2212C50.4712 17.9731 49.9885 17.2194 50.1026 16.449ZM54.3915 9.04336L52.8219 8.82936C52.453 8.77774 52.0836 8.87086 51.7791 9.09436C51.4855 9.32149 51.2892 9.65386 51.2376 10.0227L50.3377 16.4677C50.2272 17.2272 50.7607 17.9377 51.5311 18.052L53.1695 18.277L54.3915 9.04336Z" fill="#258B7B"/>
<path d="M55.5111 9.51721C55.2767 9.20908 54.9408 8.98746 54.525 8.93208C54.4092 8.91733 54.2898 8.91333 54.1777 8.92396C53.5046 8.98733 52.9425 9.51046 52.8392 10.2121L51.932 16.715C51.8288 17.4166 52.236 18.0726 52.8648 18.3202C52.9696 18.3675 53.0926 18.3968 53.2083 18.4116C54.0402 18.5223 54.787 17.9526 54.905 17.1353L55.8122 10.6325C55.8782 10.2201 55.7562 9.82908 55.5111 9.51721Z" fill="white"/>
<path d="M54.8467 9.41423C54.7204 9.25111 54.5726 9.11686 54.3991 9.02236C54.3268 8.98598 54.2654 8.95323 54.1894 8.92773C53.5163 8.99111 52.9542 9.51423 52.8509 10.2159L51.9437 16.7187C51.8406 17.4204 52.2477 18.0764 52.8766 18.324C52.9526 18.3134 53.0177 18.299 53.0974 18.2775C53.6767 18.1342 54.1266 17.6579 54.2151 17.0359L55.1223 10.533C55.1886 10.1206 55.0666 9.72948 54.8467 9.41423Z" fill="#07AD94"/>
<path d="M50.5518 13.2083C50.5592 13.1504 50.6244 13.0999 50.6932 13.1109L52.4112 13.3506C52.4727 13.3471 52.5232 13.4124 52.5122 13.4811C52.5048 13.539 52.4396 13.5895 52.3708 13.5785L50.6528 13.3388C50.6419 13.3351 50.6419 13.3351 50.6311 13.3315C50.5768 13.3133 50.5444 13.2661 50.5518 13.2083Z" fill="#258B7B"/>
<path d="M50.3636 14.594C50.3709 14.5361 50.4362 14.4856 50.5049 14.4966L52.2228 14.7364C52.2843 14.7329 52.3348 14.7981 52.3238 14.8669C52.3164 14.9248 52.2512 14.9753 52.1824 14.9643L50.4646 14.7245C50.4537 14.7209 50.4537 14.7209 50.4428 14.7173C50.3887 14.699 50.3454 14.6483 50.3636 14.594Z" fill="#258B7B"/>
<path d="M50.1644 15.9758C50.1718 15.918 50.237 15.8675 50.3058 15.8785L52.0236 16.1182C52.0851 16.1147 52.132 16.1908 52.1246 16.2487C52.1173 16.3066 52.052 16.3571 51.9833 16.3461L50.2654 16.1063C50.2545 16.1027 50.2545 16.1027 50.2436 16.0991C50.1895 16.0808 50.1606 16.0228 50.1644 15.9758Z" fill="#258B7B"/>
<path d="M50.2804 17.3899C50.2877 17.332 50.353 17.2815 50.4217 17.2925L52.1035 17.5322C52.165 17.5287 52.2155 17.5939 52.2045 17.6627C52.1971 17.7205 52.1319 17.771 52.0631 17.76L50.3814 17.5204C50.3705 17.5168 50.3705 17.5168 50.3596 17.5132C50.3054 17.4949 50.2729 17.4478 50.2804 17.3899Z" fill="#258B7B"/>
<path d="M50.7472 11.8382C50.7546 11.7803 50.8198 11.7298 50.8886 11.7408L52.6065 11.9805C52.668 11.977 52.7185 12.0423 52.7075 12.111C52.7001 12.1689 52.6348 12.2194 52.5661 12.2084L50.8482 11.9686C50.8373 11.965 50.8373 11.965 50.8265 11.9614C50.7722 11.9431 50.7326 11.8815 50.7472 11.8382Z" fill="#258B7B"/>
<path d="M50.9346 10.4524C50.942 10.3945 51.0073 10.344 51.076 10.355L52.7939 10.5948C52.8554 10.5913 52.9023 10.6674 52.8949 10.7253C52.8875 10.7832 52.8223 10.8337 52.7535 10.8227L51.0356 10.5829C51.0248 10.5793 51.0248 10.5793 51.0139 10.5757C50.9598 10.5574 50.9273 10.5103 50.9346 10.4524Z" fill="#258B7B"/>
<path d="M51.4425 9.12624C51.4499 9.06836 51.5151 9.01786 51.5839 9.02886L53.244 9.26123C53.3055 9.25773 53.356 9.32299 53.345 9.39174C53.3376 9.44961 53.2724 9.50011 53.2036 9.48911L51.5435 9.25674C51.5326 9.25311 51.5326 9.25311 51.5218 9.24949C51.4675 9.23124 51.4279 9.16961 51.4425 9.12624Z" fill="#258B7B"/>
<path d="M54.3943 9.03254C54.3366 8.98891 54.2643 8.95254 54.1992 8.93066C53.5261 8.99404 52.9639 9.51716 52.8607 10.2188L51.9534 16.7217C51.8503 17.4233 52.2574 18.0793 52.8863 18.3269C52.9623 18.3163 53.0274 18.3019 53.1072 18.2804C53.0999 18.2659 52.6398 17.1575 53.1449 13.5734C53.6501 9.98929 54.3762 9.05054 54.3943 9.03254Z" fill="#F5F8FF"/>
<path d="M51.8177 16.6993L52.7249 10.1965C52.7839 9.7697 53.0093 9.3867 53.35 9.1272C53.7017 8.8712 54.1253 8.7602 54.552 8.8192C54.9788 8.8782 55.3618 9.10358 55.6213 9.44433C55.8773 9.79595 55.9883 10.2196 55.9293 10.6463L55.022 17.1492C54.893 18.0353 54.081 18.6554 53.1949 18.5265C53.0937 18.5044 53.0033 18.4862 52.9057 18.4533C52.1899 18.2127 51.7107 17.4842 51.8177 16.6993ZM53.228 18.2842C53.9875 18.3947 54.6835 17.8683 54.7905 17.1197L55.6869 10.6132C55.7349 10.2552 55.6527 9.88945 55.4255 9.59583C55.2092 9.30583 54.8877 9.1132 54.5188 9.06158C53.7702 8.9547 53.074 9.48108 52.9672 10.2297L52.0599 16.7326C51.953 17.4812 52.4794 18.1773 53.228 18.2842Z" fill="#258B7B"/>
<path d="M52.2086 22.0713C52.2086 22.0713 52.6578 21.6868 52.4434 21.2115C52.2291 20.7363 51.4489 20.5413 50.8878 21.0039C50.3267 21.4665 51.1097 21.916 51.6002 21.9775C52.0813 22.0728 52.2086 22.0713 52.2086 22.0713Z" fill="#07AD94"/>
<path d="M51.3558 22.1466C51.0018 22.0499 50.591 21.829 50.5008 21.4964C50.461 21.3767 50.4411 21.1177 50.7433 20.8741C51.0714 20.6014 51.476 20.5127 51.8853 20.6064C52.2101 20.677 52.4814 20.8779 52.5901 21.1431C52.8489 21.7211 52.3383 22.1975 52.3169 22.2097C52.274 22.2342 52.231 22.2587 52.1759 22.2617C52.1759 22.2617 52.0318 22.2586 51.546 22.1802C51.5121 22.1712 51.44 22.1696 51.3558 22.1466ZM51.8391 20.9742C51.8223 20.9696 51.8223 20.9696 51.8054 20.965C51.5141 20.9036 51.2245 20.9694 50.9914 21.1594C50.8488 21.2835 50.8641 21.3601 50.8764 21.3816C50.9193 21.5564 51.2961 21.768 51.6135 21.8004C51.8925 21.8404 52.0534 21.8481 52.1209 21.8665C52.2036 21.7622 52.3739 21.5371 52.2606 21.2887C52.1915 21.143 52.0414 21.0295 51.8391 20.9742Z" fill="#076355"/>
<path d="M52.1125 23.023C52.1125 23.023 53.04 22.4793 52.3443 21.9088C51.6487 21.3383 50.9878 21.9005 50.8252 22.1642C50.646 22.4232 50.7298 23.2432 52.1125 23.023Z" fill="#07AD94"/>
<path d="M51.2826 23.0446C51.236 23.1336 51.1269 23.1713 51.0366 23.1275C50.7881 23.007 50.6773 22.8253 50.6213 22.7068C50.5079 22.4585 50.5601 22.201 50.6521 22.0631C50.7534 21.8915 51.0785 21.5636 51.5338 21.4887C51.8526 21.449 52.1729 21.5365 52.4518 21.7757C52.7184 21.9935 52.7765 22.2448 52.7688 22.4058C52.741 22.9055 52.122 23.3228 52.0576 23.3596C51.9718 23.4086 51.913 23.3496 51.864 23.2637C51.815 23.1778 51.8375 23.0548 51.8375 23.0548L51.9163 23.0062C52.0496 22.9158 52.3778 22.6431 52.3916 22.3933C52.4024 22.2876 52.3411 22.1802 52.2079 22.0713C52.0164 21.9103 51.8018 21.8336 51.5934 21.8672C51.2914 21.9116 51.0491 22.1352 50.9571 22.2731C50.9265 22.3191 50.9111 22.4417 50.9509 22.5612C50.996 22.6566 51.078 22.731 51.1921 22.7831C51.2908 22.8281 51.3359 22.9438 51.2853 23.0397C51.2843 23.0413 51.2835 23.043 51.2826 23.0446Z" fill="#076355"/>
<path d="M38.1622 22.3561C38.5282 20.608 37.7832 18.9727 36.4981 18.7036C35.213 18.4346 33.8745 19.6335 33.5085 21.3816C33.1424 23.1298 33.8875 24.765 35.1725 25.0341C36.4576 25.3032 37.7961 24.1042 38.1622 22.3561Z" fill="white"/>
<path d="M37.1129 22.181C37.3504 21.0471 36.8688 19.9867 36.0373 19.8126C35.2058 19.6385 34.3392 20.4165 34.1018 21.5504C33.8644 22.6843 34.3459 23.7447 35.1775 23.9188C36.009 24.0929 36.8755 23.3148 37.1129 22.181Z" fill="#22213F"/>
<path d="M35.6602 20.2358C35.9748 20.3582 36.1146 20.6727 35.9748 20.9348C35.8525 21.2145 35.4855 21.3368 35.1885 21.2145C34.8915 21.0921 34.7341 20.7776 34.8738 20.5155C34.9962 20.2358 35.3457 20.1135 35.6602 20.2358Z" fill="white"/>
<path d="M35.5198 25.2511C35.4325 25.2511 35.3451 25.2511 35.2577 25.2336C34.6985 25.1638 34.2091 24.8491 33.8421 24.3599C33.3003 23.6259 33.0906 22.5948 33.2828 21.5288C33.5975 19.6763 34.9781 18.3131 36.3936 18.5054C36.9528 18.5753 37.4422 18.8899 37.8092 19.3791C38.351 20.1131 38.5607 21.1443 38.3685 22.2103C38.0713 23.9579 36.8306 25.2511 35.5198 25.2511ZM36.114 18.8549C34.978 18.8549 33.8945 20.0258 33.6323 21.5811C33.4751 22.5424 33.6498 23.486 34.1217 24.1326C34.4363 24.552 34.8382 24.7968 35.2926 24.8666C36.4985 25.0239 37.7043 23.8006 37.984 22.1579C38.1412 21.1966 37.9665 20.253 37.4946 19.6064C37.18 19.187 36.7781 18.9423 36.3237 18.8724C36.2538 18.8549 36.184 18.8549 36.114 18.8549Z" fill="#076355"/>
<path d="M27.9885 28.7815C25.1224 28.2398 24.301 26.23 24.668 25.0765C24.6855 25.0242 24.703 24.9892 24.7204 24.9368C24.8078 24.7445 24.9302 24.5873 25.0874 24.4649C25.8913 23.8533 27.0448 25.1639 28.705 25.5309C30.3653 25.8979 31.9556 24.9542 32.4624 25.8455C32.5848 26.0553 32.6371 26.2999 32.6021 26.562C32.5149 27.7854 30.8722 29.3233 27.9885 28.7815Z" fill="#EA2A21"/>
<path d="M32.6021 26.562C27.7087 28.4494 24.668 25.0765 24.668 25.0765L24.7203 24.9368C24.8077 24.7445 24.9301 24.5873 25.0873 24.4649C25.8912 23.8533 27.0447 25.1639 28.705 25.5309C30.3652 25.8979 31.9556 24.9542 32.4623 25.8455C32.5846 26.0728 32.637 26.3174 32.6021 26.562Z" fill="white"/>
<path d="M29.124 29.0791C28.757 29.0791 28.3725 29.0441 27.9532 28.9742C25.1919 28.45 24.5803 26.7198 24.4579 26.213C24.2832 25.444 24.4754 24.71 24.9647 24.343C25.5414 23.9061 26.2054 24.2556 26.9919 24.675C27.4987 24.9371 28.0754 25.2342 28.7395 25.3915C29.4385 25.5487 30.1377 25.4613 30.7318 25.374C31.5532 25.2691 32.2697 25.1817 32.6192 25.776C32.9163 26.3002 32.8289 27.0167 32.3745 27.646C31.8503 28.3801 30.7493 29.0791 29.124 29.0791ZM25.1919 24.6227C24.8249 24.9023 24.6852 25.4791 24.8249 26.1082C24.9298 26.5801 25.489 28.118 28.023 28.5898C30.1202 28.9743 31.5008 28.2403 32.0775 27.4015C32.4445 26.8947 32.5319 26.3355 32.3047 25.9335C32.0949 25.5665 31.623 25.6015 30.7843 25.7062C30.1377 25.7936 29.4212 25.881 28.6522 25.7062C27.9532 25.549 27.3414 25.2343 26.8172 24.9547C26.0307 24.5702 25.5589 24.3431 25.1919 24.6227Z" fill="#22213F"/>
<path d="M22.3617 23.2247C22.2918 23.2247 22.2219 23.1897 22.1869 23.1198C22.1345 23.0324 22.1869 22.91 22.2743 22.8752C22.3442 22.8402 23.8995 22.0888 26.0142 22.1762C25.5248 21.9489 24.8258 21.7393 24.0743 21.7917C23.9694 21.7917 23.882 21.7218 23.882 21.6169C23.882 21.512 23.9519 21.4247 24.0568 21.4247C25.6472 21.3373 26.9578 22.281 27.0103 22.3159C27.0802 22.3683 27.0977 22.4557 27.0802 22.5432C27.0452 22.6305 26.9578 22.6655 26.8704 22.648C24.4238 22.2635 22.4489 23.2073 22.4314 23.2073C22.4142 23.2247 22.3792 23.2247 22.3617 23.2247Z" fill="#22213F"/>
<path d="M28.2685 29.9003C28.2161 29.9003 26.818 29.9003 25.7518 29.1663C25.6645 29.1139 25.647 28.9916 25.6995 28.9042C25.7518 28.8168 25.8742 28.7993 25.9616 28.8518C26.9402 29.5159 28.251 29.5334 28.2685 29.5334C28.3733 29.5334 28.4607 29.6208 28.4607 29.7257C28.4432 29.8304 28.3733 29.9003 28.2685 29.9003Z" fill="#8196C9"/>
<path d="M0.199219 21.4449C5.33709 18.8447 7.74322 14.4033 7.74322 14.4033C7.74322 14.4033 11.8245 16.6817 17.3575 15.6931C17.3575 15.6931 22.2557 31.6801 14.53 41.6648C3.42097 37.9992 0.199219 21.4449 0.199219 21.4449Z" fill="#00A2B5"/>
<path d="M3.05469 23.1585C6.85981 21.2338 8.63606 17.9521 8.63606 17.9521C8.63606 17.9521 11.6551 19.6225 15.7541 18.9114C15.7541 18.9114 19.3768 30.7431 13.6618 38.1114C5.43394 35.4001 3.05469 23.1585 3.05469 23.1585Z" fill="#074C55"/>
<path d="M14.5724 41.8556C14.5596 41.8576 14.5341 41.8616 14.5186 41.8459C8.71789 39.9436 5.09739 34.4987 3.07702 30.2617C0.899894 25.6893 0.0638934 21.5016 0.0583934 21.4663C0.0446434 21.3784 0.0692684 21.2847 0.130393 21.2572C5.18439 18.7059 7.59864 14.3173 7.61877 14.2782C7.64889 14.2196 7.72264 14.1901 7.77927 14.2172C7.82302 14.2463 11.8934 16.4544 17.327 15.4993C17.3909 15.4893 17.4656 15.5497 17.492 15.6356C17.4975 15.6707 18.7309 19.7246 18.9818 24.9392C19.2234 29.7594 18.6578 36.6127 14.6435 41.8086C14.6208 41.8299 14.5979 41.8516 14.5724 41.8556ZM0.361143 21.5631C0.535394 22.3456 1.38952 26.0627 3.31314 30.0989C5.29152 34.2346 8.82914 39.5664 14.4839 41.4556C18.3941 36.3478 18.9334 29.6607 18.7055 24.9283C18.4739 20.3404 17.4976 16.6783 17.2723 15.9038C17.1956 15.9158 17.1319 15.9257 17.068 15.9357C12.1795 16.6978 8.44389 14.9593 7.80377 14.6273C7.40189 15.3196 4.97477 19.2064 0.361143 21.5631Z" fill="#05606B"/>
<path d="M13.6711 38.2539C13.6584 38.2559 13.6456 38.2579 13.6329 38.2599C9.34576 36.8413 6.66813 32.8326 5.17313 29.7011C3.56051 26.3181 2.94813 23.229 2.94263 23.1939C2.93163 23.1236 2.94901 23.0669 2.99726 23.0414C6.72851 21.1463 8.51026 17.8996 8.53313 17.8781C8.55313 17.839 8.60151 17.8135 8.64526 17.8426C8.67351 17.8563 11.687 19.4915 15.7094 18.7924C15.7604 18.7844 15.8069 18.8311 15.8279 18.8819C15.8334 18.917 16.7439 21.9056 16.927 25.7635C17.1046 29.3343 16.689 34.3829 13.7194 38.2284C13.7195 38.2284 13.6966 38.2499 13.6711 38.2539ZM3.17338 23.2479C3.30201 23.8215 3.92901 26.5847 5.36088 29.5639C6.81938 32.629 9.44488 36.5558 13.6273 37.9728C16.5158 34.1939 16.9223 29.2546 16.7429 25.7561C16.5771 22.3455 15.8409 19.6355 15.6866 19.0658C15.6356 19.0738 15.5845 19.0816 15.5335 19.0896C11.9086 19.6548 9.14401 18.3586 8.67626 18.1256C8.37476 18.6226 6.58651 21.4923 3.17338 23.2479Z" fill="#05606B"/>
</svg>
