<svg width="545" height="545" viewBox="0 0 545 545" fill="none" xmlns="http://www.w3.org/2000/svg">
<rect width="545" height="545" fill="white"/>
<g clip-path="url(#clip0_22070_8550)">
<path d="M326.781 105.975C321.957 99.5411 313.916 95.609 304.268 95.0728C297.478 94.7153 290.689 95.2515 284.256 95.9664C276.931 96.6814 269.248 97.3963 261.565 96.6814C259.778 96.5026 257.991 96.3239 256.205 96.1452C251.202 95.609 246.02 94.894 240.839 95.2515C230.833 95.609 222.792 99.3623 217.79 105.975C206.533 120.989 210.464 141.186 214.037 159.059C214.573 161.919 215.109 164.599 215.645 167.28C216.36 171.749 217.254 176.038 217.968 180.507C219.219 187.12 220.291 193.912 221.542 200.525C221.542 200.703 221.72 200.882 221.899 200.882C230.654 203.742 248.343 208.389 271.392 208.389C286.579 208.389 304.089 206.423 323.029 200.525C323.207 200.525 323.386 200.346 323.386 200.167C324.458 193.554 325.709 186.941 326.781 180.328C327.496 175.86 328.389 171.57 329.104 167.102C329.64 164.421 330.176 161.74 330.712 158.88C333.928 141.186 338.037 120.81 326.781 105.975Z" stroke="#231F20" stroke-width="3" stroke-miterlimit="10"/>
<path d="M188.487 331.892C187.236 330.641 185.271 329.569 184.556 329.211C184.735 328.496 184.735 327.603 184.735 327.066C186.7 326.352 187.951 325.458 188.13 324.564V324.386L190.095 308.657C190.095 308.478 190.274 308.3 190.274 308.121C190.274 303.831 168.654 301.329 148.464 301.329C128.095 301.329 106.654 303.653 106.654 308.121C106.654 308.3 106.654 308.478 106.833 308.657L108.798 324.028C108.798 324.207 108.798 324.207 108.798 324.386C108.798 325.458 110.049 326.352 112.372 327.066C112.372 327.245 112.372 327.424 112.372 327.603C110.406 328.675 109.156 329.39 108.977 330.105C108.798 330.284 108.798 330.82 108.977 331.535V331.714C108.977 332.071 110.228 333.322 113.265 335.288C113.444 337.075 113.801 338.863 113.98 340.829C113.801 340.829 113.623 340.829 113.623 340.829C111.479 341.901 110.406 342.795 110.049 343.331C109.87 343.51 109.87 344.046 110.049 344.582V344.761C110.049 345.118 111.479 346.727 115.052 348.693C115.409 351.374 115.767 354.055 116.124 357.093C113.444 358.523 113.087 359.238 112.908 359.417C112.729 359.596 112.729 359.953 112.908 360.668V360.847C112.908 361.204 114.159 362.455 117.196 364.421C117.553 366.924 117.911 369.605 118.447 372.464C115.945 373.716 115.409 374.43 115.409 374.788C115.231 374.967 115.231 375.503 115.409 375.86V376.039C115.409 376.575 116.66 377.826 119.698 379.435C120.055 382.116 120.591 384.797 120.948 387.478C118.625 388.55 118.268 389.086 118.268 389.444C118.268 389.623 118.268 390.159 118.268 390.874V391.053C118.268 391.41 119.34 392.482 122.02 393.912C122.378 396.414 122.914 398.738 123.271 401.419C123.092 401.419 123.092 401.419 122.914 401.419C120.77 402.491 120.412 403.206 120.234 403.385C120.055 403.564 120.055 404.1 120.234 404.994V405.172C120.234 405.709 121.484 406.96 124.343 408.568C124.7 411.07 125.236 413.573 125.594 416.075C125.415 416.075 125.415 416.075 125.236 416.075C123.092 417.147 122.914 417.684 122.914 417.862C122.914 418.041 122.914 418.398 122.914 419.292V419.471C122.914 419.828 124.164 421.079 126.844 422.509C127.381 425.548 127.917 428.586 128.631 431.625C127.202 432.518 127.023 432.876 127.023 433.055C127.023 433.233 127.023 433.591 127.023 434.306V434.484C127.023 434.842 127.917 435.735 129.703 436.987C130.239 440.025 130.954 443.063 131.49 446.102V446.281C131.669 446.459 134.885 451.821 147.035 451.643C147.571 451.643 148.285 451.643 148.821 451.643C149.357 451.643 149.893 451.643 150.608 451.643C150.966 451.643 151.144 451.643 151.502 451.643C162.937 451.643 165.974 446.459 166.153 446.281C166.153 446.281 166.153 446.281 166.153 446.102C166.332 445.566 166.332 445.208 166.51 444.672C169.369 444.493 169.548 443.957 169.726 443.6C169.726 443.421 169.726 442.527 169.726 441.991C169.726 441.812 169.726 441.455 169.369 441.097C168.833 440.383 167.94 439.846 167.582 439.668C168.118 436.629 168.833 433.591 169.369 430.552C172.585 430.374 172.764 429.837 172.942 429.48C172.942 429.301 172.942 428.229 172.942 427.871C172.942 427.693 172.764 427.335 172.585 426.978C171.87 426.263 170.798 425.726 170.441 425.369C170.977 422.867 171.334 420.365 171.87 417.862C175.623 417.684 175.801 416.969 175.98 416.611C175.98 416.432 175.98 415.181 175.98 414.824C175.98 414.645 175.801 414.288 175.444 413.93C174.551 413.037 173.3 412.322 172.942 412.143C173.479 409.462 173.836 406.781 174.372 404.1C178.303 404.1 178.481 403.385 178.66 402.849C178.66 402.67 178.66 401.598 178.66 401.062C178.66 400.883 178.481 400.525 178.124 400.168C177.231 399.274 175.801 398.559 175.444 398.381C175.801 395.878 176.337 393.376 176.695 390.874C181.162 390.695 181.34 389.98 181.519 389.444C181.519 389.265 181.519 388.372 181.519 388.014C181.519 387.657 181.34 387.478 180.983 386.942C180.089 385.869 178.303 384.976 177.767 384.618C178.124 381.937 178.66 379.256 179.017 376.754C183.484 376.575 183.663 375.682 183.842 375.145C183.842 374.967 184.02 373.894 183.842 373.537C183.842 373.179 183.663 373.001 183.306 372.464C182.412 371.571 180.804 370.498 180.089 370.141C180.447 367.102 180.983 364.421 181.34 361.562C186.343 361.383 186.7 360.489 186.7 359.953C186.7 359.774 186.879 358.523 186.7 358.166C186.7 357.808 186.522 357.451 186.164 357.272C184.914 356.021 182.591 354.77 182.234 354.591C182.591 352.625 182.77 350.838 182.948 349.051C187.772 348.872 187.951 347.978 188.13 347.442C188.13 347.263 188.308 345.833 188.13 345.655C188.13 345.297 187.951 344.94 187.594 344.761C186.522 343.689 184.735 342.616 183.842 342.259C184.02 340.293 184.378 338.327 184.556 336.539C189.559 336.361 189.738 335.467 189.917 334.931C189.917 334.752 190.095 333.501 189.917 333.143C188.845 332.607 188.666 332.25 188.487 331.892Z" stroke="#231F20" stroke-width="3" stroke-miterlimit="10"/>
<path d="M203.138 106.512C198.135 100.077 190.274 96.3238 180.625 95.7876C173.836 95.4301 167.225 95.9663 160.793 96.6813C153.467 97.3962 145.963 98.1111 138.28 97.2175C136.493 97.0387 134.706 96.86 132.919 96.6813C127.916 96.1451 122.735 95.4301 117.553 95.7876C108.084 96.3238 100.043 100.077 95.219 106.512C83.9625 121.346 88.0721 141.543 91.4669 159.237C92.0029 162.097 92.5389 164.778 93.0749 167.28C93.7896 171.57 94.683 176.038 95.3977 180.328C96.4698 186.941 97.7205 193.733 98.7925 200.346C98.7925 200.524 98.9712 200.703 99.1499 200.703C107.726 203.563 125.236 208.21 148.107 208.21C163.115 208.21 180.447 206.244 199.208 200.346C199.386 200.346 199.565 200.167 199.565 199.988C200.637 193.375 201.888 186.762 202.96 180.328C203.674 176.038 204.568 171.57 205.282 167.28C205.818 164.599 206.176 161.918 206.89 159.237C210.285 141.543 214.216 121.346 203.138 106.512Z" stroke="#231F20" stroke-width="3" stroke-miterlimit="10"/>
<path d="M450.602 105.975C445.778 99.5411 437.738 95.609 428.089 95.0728C421.3 94.7153 414.51 95.2515 408.078 95.9664C400.752 96.6814 393.069 97.3963 385.386 96.6814C383.599 96.5026 381.813 96.3239 380.026 96.1452C375.023 95.609 369.842 94.894 364.66 95.2515C355.012 95.7877 346.971 99.7198 342.147 106.154C330.891 121.168 334.821 141.364 338.395 159.238C338.931 162.097 339.467 164.778 340.003 167.459C340.718 171.749 341.611 176.217 342.326 180.507C343.576 187.12 344.648 193.912 345.899 200.525C345.899 200.703 346.078 200.882 346.257 200.882C355.012 203.742 372.7 208.389 395.749 208.389C410.937 208.389 428.447 206.423 447.386 200.525C447.565 200.525 447.744 200.346 447.744 200.167C448.816 193.554 450.066 186.762 451.138 180.328C451.853 176.038 452.746 171.57 453.461 167.28C453.997 164.599 454.533 161.919 455.069 159.059C457.928 141.186 461.859 120.81 450.602 105.975Z" stroke="#231F20" stroke-width="3" stroke-miterlimit="10"/>
<path d="M150.072 269.873C150.072 269.873 133.098 269.337 125.594 266.834C118.089 264.332 117.553 260.043 121.663 255.932C125.594 251.821 130.418 240.025 134.706 229.122C134.706 229.122 149.357 230.731 163.294 229.122C163.294 229.122 169.19 249.14 174.55 254.681C179.911 260.221 180.268 265.941 167.939 267.371C155.432 268.979 150.072 269.873 150.072 269.873Z" stroke="#231F20" stroke-width="3" stroke-miterlimit="10"/>
<path d="M149 230.73C156.796 230.73 163.115 229.61 163.115 228.228C163.115 226.846 156.796 225.726 149 225.726C141.204 225.726 134.885 226.846 134.885 228.228C134.885 229.61 141.204 230.73 149 230.73Z" stroke="#231F20" stroke-width="3" stroke-miterlimit="10"/>
<path d="M131.133 268.085C131.133 268.085 131.49 285.422 147.035 288.639C162.579 291.856 166.867 267.549 166.867 267.549L152.037 269.515C149.715 269.872 147.213 269.872 144.89 269.515L131.133 268.085Z" stroke="#231F20" stroke-width="3" stroke-miterlimit="10"/>
<path d="M112.014 327.245C112.014 327.245 141.317 331.535 184.556 327.96" stroke="#231F20" stroke-width="3" stroke-miterlimit="10"/>
<path d="M113.086 335.109C113.086 335.109 155.432 339.399 183.841 335.109L182.769 341.901C182.769 341.901 159.72 348.514 114.873 342.795L113.086 335.109Z" stroke="#231F20" stroke-width="3" stroke-miterlimit="10"/>
<path d="M114.158 347.621C114.158 347.621 155.432 351.911 183.127 347.621L182.055 354.413C182.055 354.413 159.72 361.026 115.945 355.307L114.158 347.621Z" stroke="#231F20" stroke-width="3" stroke-miterlimit="10"/>
<path d="M116.302 361.741C116.302 361.741 155.075 366.924 180.804 361.741L179.732 370.142C179.732 370.142 158.648 378.185 117.732 371.393L116.302 361.741Z" stroke="#231F20" stroke-width="3" stroke-miterlimit="10"/>
<path d="M118.625 378.005C118.625 378.005 154.182 382.473 177.945 378.005L177.052 385.333C177.052 385.333 157.755 392.303 120.055 386.405L118.625 378.005Z" stroke="#231F20" stroke-width="3" stroke-miterlimit="10"/>
<path d="M120.948 391.768C120.948 391.768 153.288 395.878 174.908 391.768L174.015 398.381C174.015 398.381 156.504 404.815 122.199 399.274L120.948 391.768Z" stroke="#231F20" stroke-width="3" stroke-miterlimit="10"/>
<path d="M123.807 408.033C123.807 408.033 151.323 408.926 173.121 404.815L172.228 411.429C172.228 411.429 159.363 420.901 125.058 415.539L123.807 408.033Z" stroke="#231F20" stroke-width="3" stroke-miterlimit="10"/>
<path d="M126.666 422.688C126.666 422.688 152.931 426.084 171.156 417.505L169.726 425.012C169.726 425.012 158.291 435.021 128.095 430.731L126.666 422.688Z" stroke="#231F20" stroke-width="3" stroke-miterlimit="10"/>
<path d="M129.703 436.63C129.703 436.63 151.323 439.311 168.654 430.91L167.046 439.311C167.046 439.311 159.72 448.426 131.133 444.315L129.703 436.63Z" stroke="#231F20" stroke-width="3" stroke-miterlimit="10"/>
<path d="M436.13 331.892C434.879 330.641 432.914 329.569 432.199 329.211C432.378 328.496 432.378 327.603 432.378 327.066C434.343 326.352 435.594 325.458 435.772 324.564V324.386L437.738 308.657C437.738 308.478 437.916 308.3 437.916 308.121C437.916 303.831 416.297 301.329 396.107 301.329C375.738 301.329 354.297 303.653 354.297 308.121C354.297 308.3 354.297 308.478 354.476 308.657L356.441 324.028C356.441 324.207 356.441 324.207 356.441 324.386C356.441 325.458 357.692 326.352 360.014 327.066C360.014 327.245 360.014 327.424 360.014 327.603C358.049 328.675 356.798 329.39 356.62 330.105C356.441 330.284 356.441 330.82 356.62 331.535V331.714C356.62 332.071 357.87 333.322 360.908 335.288C361.086 337.075 361.444 338.863 361.623 340.829C361.444 340.829 361.265 340.829 361.265 340.829C359.121 341.901 358.049 342.795 357.692 343.331C357.513 343.51 357.513 344.046 357.692 344.582V344.761C357.692 345.118 359.121 346.727 362.695 348.693C363.052 351.374 363.409 354.055 363.767 357.093C361.086 358.523 360.729 359.238 360.55 359.417C360.372 359.596 360.372 359.953 360.55 360.668V360.847C360.55 361.204 361.801 362.455 364.839 364.421C365.196 366.924 365.553 369.605 366.089 372.464C363.588 373.716 363.052 374.43 363.052 374.788C362.873 374.967 362.873 375.503 363.052 375.86V376.039C363.052 376.575 364.303 377.826 367.34 379.435C367.697 382.116 368.233 384.797 368.591 387.478C366.268 388.55 365.911 389.086 365.911 389.444C365.911 389.623 365.911 390.159 365.911 390.874V391.053C365.911 391.41 366.983 392.482 369.663 393.912C370.02 396.414 370.556 398.738 370.914 401.419C370.735 401.419 370.735 401.419 370.556 401.419C368.412 402.491 368.055 403.206 367.876 403.385C367.697 403.564 367.697 404.1 367.876 404.994V405.172C367.876 405.709 369.127 406.96 371.986 408.568C372.343 411.07 372.879 413.573 373.236 416.075C373.058 416.075 373.058 416.075 372.879 416.075C370.735 417.147 370.556 417.684 370.556 417.862C370.556 418.041 370.556 418.398 370.556 419.292V419.471C370.556 419.828 371.807 421.079 374.487 422.509C375.023 425.548 375.559 428.586 376.274 431.625C374.844 432.518 374.666 432.876 374.666 433.055C374.666 433.233 374.666 433.591 374.666 434.306V434.484C374.666 434.842 375.559 435.735 377.346 436.987C377.882 440.025 378.597 443.063 379.133 446.102V446.281C379.311 446.459 382.527 451.821 394.677 451.643C395.213 451.643 395.928 451.643 396.464 451.643C397 451.643 397.536 451.643 398.251 451.643C398.608 451.643 398.787 451.643 399.144 451.643C410.579 451.643 413.617 446.459 413.795 446.281C413.795 446.281 413.795 446.281 413.795 446.102C413.974 445.566 413.974 445.208 414.153 444.672C417.012 444.493 417.19 443.957 417.369 443.6C417.369 443.421 417.369 442.527 417.369 441.991C417.369 441.812 417.369 441.455 417.012 441.097C416.476 440.383 415.582 439.846 415.225 439.668C415.761 436.629 416.476 433.591 417.012 430.552C420.228 430.374 420.406 429.837 420.585 429.48C420.585 429.301 420.585 428.229 420.585 427.871C420.585 427.693 420.406 427.335 420.228 426.978C419.513 426.263 418.441 425.726 418.084 425.369C418.62 422.867 418.977 420.365 419.513 417.862C423.265 417.684 423.444 416.969 423.623 416.611C423.623 416.432 423.623 415.181 423.623 414.824C423.623 414.645 423.444 414.288 423.087 413.93C422.193 413.037 420.942 412.322 420.585 412.143C421.121 409.462 421.478 406.781 422.014 404.1C425.945 404.1 426.124 403.385 426.303 402.849C426.303 402.67 426.303 401.598 426.303 401.062C426.303 400.883 426.124 400.525 425.767 400.168C424.873 399.274 423.444 398.559 423.087 398.381C423.444 395.878 423.98 393.376 424.337 390.874C428.804 390.695 428.983 389.98 429.161 389.444C429.161 389.265 429.161 388.372 429.161 388.014C429.161 387.657 428.983 387.478 428.625 386.942C427.732 385.869 425.945 384.976 425.409 384.618C425.767 381.937 426.303 379.256 426.66 376.754C431.127 376.575 431.306 375.682 431.484 375.145C431.484 374.967 431.663 373.894 431.484 373.537C431.484 373.179 431.306 373.001 430.948 372.464C430.055 371.571 428.447 370.498 427.732 370.141C428.089 367.102 428.625 364.421 428.983 361.562C433.986 361.383 434.343 360.489 434.343 359.953C434.343 359.774 434.522 358.523 434.343 358.166C434.343 357.808 434.164 357.451 433.807 357.272C432.556 356.021 430.233 354.77 429.876 354.591C430.233 352.625 430.412 350.838 430.591 349.051C435.415 348.872 435.594 347.978 435.772 347.442C435.772 347.263 435.951 345.833 435.772 345.655C435.772 345.297 435.594 344.94 435.236 344.761C434.164 343.689 432.378 342.616 431.484 342.259C431.663 340.293 432.02 338.327 432.199 336.539C437.202 336.361 437.38 335.467 437.559 334.931C437.559 334.752 437.738 333.501 437.559 333.143C436.666 332.607 436.487 332.25 436.13 331.892Z" stroke="#231F20" stroke-width="3" stroke-miterlimit="10"/>
<path d="M397.893 269.873C397.893 269.873 380.919 269.337 373.415 266.834C365.732 264.332 365.375 260.043 369.484 255.932C373.415 251.821 378.239 240.025 382.527 229.122C382.527 229.122 397.179 230.731 411.115 229.122C411.115 229.122 417.011 249.14 422.372 254.681C427.732 260.221 428.089 265.941 415.761 267.371C403.254 268.979 397.893 269.873 397.893 269.873Z" stroke="#231F20" stroke-width="3" stroke-miterlimit="10"/>
<path d="M396.821 230.73C404.617 230.73 410.937 229.61 410.937 228.228C410.937 226.846 404.617 225.726 396.821 225.726C389.026 225.726 382.706 226.846 382.706 228.228C382.706 229.61 389.026 230.73 396.821 230.73Z" stroke="#231F20" stroke-width="3" stroke-miterlimit="10"/>
<path d="M378.775 268.085C378.775 268.085 379.132 285.422 394.677 288.639C410.222 291.856 414.51 267.549 414.51 267.549L399.68 269.515C397.357 269.872 394.856 269.872 392.533 269.515L378.775 268.085Z" stroke="#231F20" stroke-width="3" stroke-miterlimit="10"/>
<path d="M359.836 327.245C359.836 327.245 389.138 331.535 432.377 327.96" stroke="#231F20" stroke-width="3" stroke-miterlimit="10"/>
<path d="M360.908 335.109C360.908 335.109 403.254 339.399 431.663 335.109L430.591 341.901C430.591 341.901 407.542 348.514 362.694 342.795L360.908 335.109Z" stroke="#231F20" stroke-width="3" stroke-miterlimit="10"/>
<path d="M361.98 347.621C361.98 347.621 403.254 351.911 430.948 347.621L429.876 354.413C429.876 354.413 407.542 361.026 363.766 355.307L361.98 347.621Z" stroke="#231F20" stroke-width="3" stroke-miterlimit="10"/>
<path d="M363.945 361.741C363.945 361.741 402.718 366.924 428.447 361.741L427.375 370.142C427.375 370.142 406.291 378.185 365.375 371.393L363.945 361.741Z" stroke="#231F20" stroke-width="3" stroke-miterlimit="10"/>
<path d="M366.268 378.005C366.268 378.005 401.824 382.473 425.588 378.005L424.695 385.333C424.695 385.333 405.398 392.303 367.697 386.405L366.268 378.005Z" stroke="#231F20" stroke-width="3" stroke-miterlimit="10"/>
<path d="M368.77 391.768C368.77 391.768 401.11 395.878 422.729 391.768L421.836 398.381C421.836 398.381 404.326 404.815 370.02 399.274L368.77 391.768Z" stroke="#231F20" stroke-width="3" stroke-miterlimit="10"/>
<path d="M371.628 408.033C371.628 408.033 399.144 408.926 420.942 404.815L420.049 411.429C420.049 411.429 407.184 420.901 372.879 415.539L371.628 408.033Z" stroke="#231F20" stroke-width="3" stroke-miterlimit="10"/>
<path d="M374.487 422.688C374.487 422.688 400.752 426.084 418.977 417.505L417.548 425.012C417.548 425.012 406.112 435.021 375.916 430.731L374.487 422.688Z" stroke="#231F20" stroke-width="3" stroke-miterlimit="10"/>
<path d="M377.524 436.63C377.524 436.63 399.144 439.311 416.475 430.91L414.867 439.311C414.867 439.311 407.542 448.426 378.954 444.315L377.524 436.63Z" stroke="#231F20" stroke-width="3" stroke-miterlimit="10"/>
<path d="M98.2566 118.308C98.2566 118.308 116.839 102.579 149.179 110.265C181.519 117.95 193.311 108.12 193.311 108.12" stroke="#231F20" stroke-width="3" stroke-miterlimit="10"/>
<path d="M222.792 118.308C222.792 118.308 236.193 102.579 259.421 110.265C275.859 115.627 283.542 112.946 286.401 110.98C288.723 109.371 291.225 108.12 293.905 107.405C299.98 105.797 309.807 104.903 319.098 110.801" stroke="#231F20" stroke-width="3" stroke-miterlimit="10"/>
<path d="M444.349 118.308C444.349 118.308 425.767 102.579 393.427 110.265C361.086 117.95 349.294 108.12 349.294 108.12" stroke="#231F20" stroke-width="3" stroke-miterlimit="10"/>
</g>
<defs>
<clipPath id="clip0_22070_8550">
<rect width="374" height="361" fill="white" transform="translate(86 93)"/>
</clipPath>
</defs>
</svg>
