<svg width="545" height="545" viewBox="0 0 545 545" fill="none" xmlns="http://www.w3.org/2000/svg">
<rect width="545" height="545" fill="white"/>
<g clip-path="url(#clip0_22112_7110)">
<path d="M192.668 148.21C192.668 148.21 176.191 151.23 168.899 144.152C161.606 137.074 160.12 130.222 159.895 122.513C159.67 114.803 147.291 107.725 139.593 121.431C131.895 135.136 122.486 161.284 97.8623 188.514C73.2381 215.744 63.0193 230.081 66.2605 261.369C69.5017 292.656 75.2638 325.432 79.3154 340.625C79.3154 340.625 78.8652 361.814 88.7239 373.4C98.5825 384.986 114.608 402.118 149.046 416.049C183.484 429.979 211.71 432.324 232.057 432.324C252.405 432.324 258.257 432.955 262.264 420.963C262.264 420.963 305.435 420.196 335.911 397.069C366.387 373.941 408.748 334.403 422.883 319.3C437.019 304.198 456.421 285.082 464.614 277.508C472.807 269.934 480.325 264.524 480.325 249.422C480.325 234.319 477.759 227.331 477.759 227.331C477.759 227.331 471.862 214.167 457.951 226.384C444.041 238.602 426.71 254.651 396.549 274.262C366.387 293.874 350.046 310.013 322.451 316.415C322.451 316.415 299.988 326.063 268.521 329.264C237.054 332.465 208.198 336.973 194.378 340.85C180.558 344.727 156.834 352.436 135.991 325.747C115.149 299.058 112.223 297.48 103.264 284.631C94.2609 271.783 84.9875 252.487 93.0005 223.589C93.0005 223.589 94.3059 213.31 105.2 198.523C116.094 183.735 145.625 150.915 151.702 126.164" stroke="#231F20" stroke-width="3" stroke-miterlimit="10"/>
<path d="M72.9228 219.847C72.9228 219.847 68.2861 252.622 76.6142 269.979C84.9423 287.336 92.1449 295.226 105.38 307.849C118.66 320.472 120.37 326.288 123.342 330.571C126.358 334.854 148.146 371.687 194.063 356.584C239.98 341.481 248.308 343.735 259.517 342.428C270.772 341.12 317.274 340.174 361.255 314.476C405.237 288.779 432.517 273.676 463.623 239.593" stroke="#231F20" stroke-width="3" stroke-miterlimit="10"/>
<path d="M79.5 341C79.5 341 77.6551 328.8 86.4249 324.922C95.1947 321.045 102.22 330.378 105.396 334.706C108.573 339.034 133.003 372.488 153.093 378.259C173.183 384.03 189.47 380.829 201.238 376.32C213.05 371.811 258.018 370.549 262 421" stroke="#231F20" stroke-width="3" stroke-miterlimit="10"/>
<path d="M87.7334 332.825C87.7334 332.825 113.528 367.855 134.686 379.441C155.844 391.028 169.394 396.753 203.381 387.782C237.369 378.81 248.938 403.831 248.938 403.831" stroke="#231F20" stroke-width="3" stroke-miterlimit="10"/>
<path d="M146.75 336.342C146.75 336.342 131.355 307.264 134.236 278.32C137.117 249.377 165.207 201.994 173.535 185.269C181.863 168.543 194.378 142.53 199.195 134.189C204.012 125.849 214.906 119.718 221.973 138.698C229.041 157.678 224.854 173.727 220.038 183.06C215.221 192.392 198.88 220.974 188.931 241.217C178.982 261.459 161.246 287.517 168.358 303.567C168.358 303.567 178.037 322.006 217.202 323.539C256.366 325.116 275.948 315.469 286.212 308.075C296.476 300.681 360.67 243.786 397.584 205.556C397.584 205.556 404.741 198.884 409.468 196.224C414.195 193.564 424.459 192.797 426.575 209.298C428.735 225.798 429.996 231.163 447.733 235.446" stroke="#231F20" stroke-width="3" stroke-miterlimit="10"/>
<path d="M206.443 337.965C206.443 337.965 134.326 324.936 135.631 269.89" stroke="#231F20" stroke-width="3" stroke-miterlimit="10"/>
<path d="M204.327 157.678C204.327 157.678 176.822 210.064 170.204 226.114C163.587 242.163 144.545 279.041 169.574 305.37" stroke="#231F20" stroke-width="3" stroke-miterlimit="10"/>
<path d="M410 214C410 214 323.695 306.523 293 325" stroke="#231F20" stroke-width="3" stroke-miterlimit="10"/>
<path d="M425.764 228.999C425.764 228.999 361.255 299.689 343.924 308.39" stroke="#231F20" stroke-width="3" stroke-miterlimit="10"/>
</g>
<defs>
<clipPath id="clip0_22112_7110">
<rect width="418" height="322" fill="white" transform="translate(64 112)"/>
</clipPath>
</defs>
</svg>
