<svg width="545" height="545" viewBox="0 0 545 545" fill="none" xmlns="http://www.w3.org/2000/svg">
<rect width="545" height="545" fill="white"/>
<g clip-path="url(#clip0_22102_7001)">
<path d="M307.428 382C292.669 382 280.408 380.718 270.929 378.18C261.475 380.693 249.369 381.974 234.893 381.974C221.086 381.974 205.966 380.795 189.919 378.488C160.296 374.233 134.049 366.952 123.076 359.928C114.086 354.186 104.452 350.93 95.9522 348.059C84.0003 344.06 73.6454 340.548 68.5453 331.576C63.3163 322.347 71.456 304.685 92.7839 279.024C93.2218 278.486 93.7885 277.819 93.9945 277.537C95.2052 274.641 96.3643 272.103 97.137 270.539C95.6688 269.232 94.3809 267.54 93.4021 265.643C91.7793 262.515 91.0323 259.157 90.3111 255.927C88.3792 247.314 86.164 237.572 87.8383 228.087C85.2882 222.884 66.5877 183.483 72.6666 171.024C74.9591 166.384 78.8229 164.077 84.4639 164C84.567 164 84.67 164 84.773 164C89.4868 164 94.9991 165.461 100.846 167.025H100.872C105.405 168.23 110.093 169.486 114.807 170.178C116.456 170.434 118.697 170.537 121.607 170.537C130.803 170.537 144.996 169.358 161.43 167.973C181.135 166.307 203.467 164.436 220.906 164.436C228.092 164.436 233.888 164.743 238.653 165.359C255.448 167.589 264.18 174.715 268.507 180.304C270.156 182.432 271.495 184.713 272.474 187.071C273.453 184.713 274.792 182.432 276.441 180.304C280.82 174.741 289.526 167.589 306.346 165.384C311.112 164.769 316.907 164.461 324.094 164.461C341.532 164.461 363.865 166.333 383.57 167.999C400.004 169.383 414.196 170.563 423.392 170.563C426.303 170.563 428.518 170.434 430.192 170.204C434.906 169.512 439.594 168.255 444.128 167.051H444.153C450 165.487 455.539 164.026 460.252 164.026C460.355 164.026 460.458 164.026 460.561 164.026C466.228 164.103 470.066 166.41 472.359 171.05C478.438 183.483 459.763 222.909 457.239 228.113C458.913 237.598 456.698 247.365 454.766 255.953C454.045 259.208 453.272 262.541 451.675 265.668C450.696 267.591 449.408 269.257 447.94 270.565C448.713 272.128 449.872 274.666 451.082 277.563C451.288 277.819 451.804 278.435 452.293 279.024C473.621 304.659 481.76 322.347 476.532 331.576C471.431 340.548 461.077 344.06 449.099 348.111C440.599 350.982 430.991 354.237 421.975 359.98C411.208 366.85 383.724 374.31 353.587 378.539C336.999 380.846 321.518 382 307.428 382ZM271.341 375.13C280.459 377.616 292.952 378.949 307.402 378.949C321.312 378.949 336.69 377.796 353.046 375.489C382.797 371.31 409.766 364.056 420.198 357.39C423.16 355.493 426.329 353.776 429.832 352.135C436.065 349.238 442.402 347.085 447.966 345.214C459.351 341.369 469.19 338.036 473.724 330.089C476.506 325.167 474.136 316.246 466.846 304.223C465.584 302.147 464.168 299.942 462.622 297.712C460.149 294.098 457.393 290.406 454.225 286.433C455.822 291.56 456.337 295.302 455.77 297.558C455.435 298.866 454.766 299.814 453.761 300.327C451.907 301.301 449.743 301.788 447.27 301.788C445.106 301.788 443.123 301.404 441.681 301.019C442.015 305.838 441.449 308.504 439.852 309.863C439.156 310.453 438.28 310.76 437.276 310.76C436.632 310.76 435.885 310.632 435.086 310.376C432.459 309.53 429.703 308.197 427.616 307.095C427.668 308.633 427.668 310.171 427.616 311.658V311.837L427.565 312.016C427.539 312.145 426.612 315.118 424.629 316.913C424.113 317.374 423.547 317.733 422.98 317.964C422.413 318.194 421.821 318.323 421.203 318.323C420.301 318.323 419.4 318.066 418.498 317.579C418.292 317.451 418.086 317.349 417.88 317.22C416.489 316.426 415.201 315.58 414.042 314.682C414.042 315.323 414.016 315.964 413.965 316.554C413.681 320.835 412.548 323.988 410.59 325.911C409.148 327.346 407.345 328.064 405.207 328.064C404.795 328.064 404.357 328.038 403.919 327.987C396.681 327.09 388.515 316.451 385.321 311.914C384.574 310.863 383.853 309.761 383.158 308.684C381.741 306.479 380.453 304.275 379.32 302.096C379.371 303.916 379.397 305.71 379.423 307.479C379.423 310.119 379.371 312.657 379.268 314.99C378.598 329.91 375.61 338.241 370.459 339.779C369.789 339.984 369.094 340.087 368.372 340.087C366.209 340.087 363.839 339.164 361.366 337.318C357.193 334.216 353.046 328.679 350.29 324.603C348.178 321.45 346.504 318.605 345.396 316.605C345.216 321.245 344.778 327.397 343.644 333.242C342.228 340.651 340.038 345.803 337.153 348.521C335.453 350.11 333.521 350.93 331.383 350.93C331.177 350.93 330.997 350.93 330.791 350.905C324.815 350.495 319.354 344.778 314.486 333.934C313.095 330.833 311.807 327.397 310.622 323.655C310.339 326.859 309.901 329.833 309.36 332.55C307.943 339.523 305.728 344.445 302.817 347.188C300.963 348.931 298.799 349.802 296.404 349.802C296.146 349.802 295.888 349.802 295.631 349.777C281.18 348.649 276.029 346.316 275.797 346.214L275.256 345.957L275.024 345.393C273.942 342.778 273.066 340.01 272.423 336.985C271.779 339.984 270.929 342.753 269.821 345.393L269.589 345.957L269.048 346.214C268.842 346.316 263.69 348.649 249.214 349.777C248.957 349.802 248.699 349.802 248.442 349.802C246.046 349.802 243.882 348.931 242.028 347.188C240.482 345.752 239.117 343.676 237.984 341.01C235.743 335.78 234.687 329.089 234.197 323.655C231.493 332.191 227.191 342.394 221.241 347.598C218.922 349.623 216.501 350.725 214.028 350.879C213.822 350.905 213.642 350.905 213.436 350.905C211.298 350.905 209.366 350.084 207.666 348.495C205.219 346.162 203.236 342.061 201.845 336.267C200.196 329.474 199.629 321.604 199.423 316.579C195.379 323.885 189.12 333.088 183.453 337.318C180.98 339.164 178.636 340.087 176.447 340.087C175.726 340.087 175.03 339.984 174.361 339.779C169.183 338.241 166.221 329.91 165.551 314.99C165.345 310.299 165.397 305.685 165.5 302.096C163.774 305.351 161.739 308.71 159.498 311.914C157.309 315.041 152.904 320.835 148.087 324.552C145.485 326.551 143.064 327.705 140.926 327.987C140.488 328.038 140.05 328.064 139.638 328.064C137.5 328.064 135.672 327.346 134.255 325.911C133.456 325.116 132.787 324.116 132.271 322.886C131.138 320.271 130.829 317.118 130.829 314.657C129.49 315.682 127.996 316.656 126.373 317.528C125.471 318.015 124.57 318.271 123.668 318.271C123.05 318.271 122.457 318.143 121.891 317.913C118.748 316.631 117.357 312.145 117.306 311.965L117.254 311.786V311.606C117.203 310.119 117.203 308.581 117.254 307.043C115.168 308.146 112.386 309.453 109.784 310.325C108.986 310.581 108.265 310.709 107.595 310.709C106.59 310.709 105.74 310.401 105.019 309.812C103.422 308.453 102.855 305.787 103.19 300.968C101.748 301.352 99.7644 301.737 97.6007 301.737C95.1536 301.737 92.9642 301.25 91.1096 300.276C90.105 299.737 89.4353 298.814 89.1004 297.507C88.5338 295.226 89.0489 291.483 90.6459 286.381C85.5458 292.765 81.3214 298.763 78.0244 304.172C71.7393 314.529 69.0862 322.732 70.3226 327.91C70.5029 328.705 70.7863 329.397 71.1469 330.038C75.6803 338.01 85.4943 341.317 96.9052 345.163C105.56 348.085 115.374 351.392 124.698 357.339C130.314 360.928 140.797 364.825 154.243 368.311C165.242 371.156 177.709 373.643 190.305 375.437C206.224 377.719 221.215 378.898 234.841 378.898C249.034 378.898 261.346 377.591 270.439 375.079L270.748 375.002L270.774 374.95L270.851 374.976L270.929 374.95L270.954 375.002L271.341 375.13ZM311.137 313.631C311.395 314.759 313.275 322.758 316.547 330.679C319.689 338.267 324.738 347.418 331.1 347.854C331.229 347.854 331.358 347.88 331.486 347.88C332.826 347.88 334.011 347.367 335.118 346.316C342.769 339.061 342.511 311.478 342.485 310.299V310.171C342.485 309.658 341.841 301.916 341.223 294.405C338.699 291.483 334.5 289.817 329.683 289.817C328.859 289.817 328.035 289.868 327.21 289.97C322.316 290.586 317.5 292.995 312.863 295.328L312.554 295.482C312.168 295.687 311.781 295.866 311.395 296.046L311.137 296.174V313.631ZM202.514 310.196C202.514 310.658 202.154 338.984 209.881 346.29C210.989 347.341 212.174 347.854 213.513 347.854C213.642 347.854 213.771 347.854 213.9 347.829C216.063 347.675 218.253 346.47 220.416 344.24C222.451 342.138 224.46 339.113 226.367 335.267C227.088 333.806 227.783 332.268 228.479 330.627C231.75 322.706 233.63 314.734 233.888 313.58V296.123L233.63 295.995C233.218 295.79 232.806 295.584 232.394 295.379L232.162 295.251C227.5 292.918 222.683 290.509 217.815 289.893C217.016 289.791 216.192 289.74 215.342 289.74C210.525 289.74 206.327 291.406 203.802 294.328C203.364 299.455 203.004 304.172 202.772 306.966C202.592 309.197 202.54 309.914 202.54 310.094L202.514 310.196ZM236.953 313.298V313.811C236.953 313.811 236.953 314.426 236.953 315.528C237.031 320.322 237.597 332.268 240.997 340.036C241.925 342.163 243.032 343.829 244.243 344.957C245.531 346.162 246.948 346.752 248.545 346.752C248.725 346.752 248.905 346.752 249.085 346.726C260.29 345.855 265.674 344.24 267.322 343.65C270.516 335.575 270.954 326.936 270.98 320.271C270.98 320.015 270.98 319.733 270.98 319.451C270.98 316.374 270.877 313.401 270.774 310.504C270.697 308.376 270.594 306.095 270.31 303.941C269.744 299.686 268.585 296.712 266.524 294.303C265.751 293.38 264.824 292.56 263.742 291.816L263.536 291.688C262.866 291.842 262.222 291.97 261.578 292.072C257.895 292.739 254.134 293.072 250.399 293.072C246.819 293.072 243.187 292.765 239.581 292.149C238.653 292.765 237.778 293.482 236.953 294.226V313.298ZM277.703 343.65C279.352 344.24 284.709 345.855 295.94 346.726C296.12 346.752 296.3 346.752 296.481 346.752C298.078 346.752 299.495 346.162 300.782 344.957C308.252 337.985 308.072 314.042 308.072 313.811V313.298V294.226C307.248 293.457 306.346 292.765 305.445 292.149C301.839 292.765 298.207 293.072 294.626 293.072C290.891 293.072 287.131 292.739 283.447 292.072C282.803 291.97 282.159 291.842 281.489 291.688L281.309 291.816C280.227 292.56 279.3 293.405 278.527 294.303C274.973 298.507 274.483 304.147 274.277 310.504L274.226 311.94C274.148 314.324 274.071 316.887 274.071 319.451C274.071 319.707 274.071 319.989 274.071 320.271C274.071 321.296 274.097 322.27 274.123 323.219C274.2 326.475 274.432 329.371 274.818 332.114C275.359 336.421 276.338 340.189 277.703 343.65ZM169.106 294.328C169.029 295.251 168.745 299.327 168.642 304.582C168.565 308.248 168.616 311.734 168.745 314.913C169.338 327.808 171.733 335.806 175.365 336.882C175.726 336.985 176.112 337.036 176.524 337.036C179.821 337.036 184.381 333.396 189.352 326.782C189.738 326.27 190.099 325.782 190.434 325.295C192.288 322.706 194.117 319.81 195.894 316.708C197.878 313.247 199.166 310.607 199.449 309.914C199.501 309.171 199.655 306.864 199.964 303.07C200.299 298.943 200.686 294.2 200.84 292.406C198.007 288.689 193.035 287.227 188.991 286.356C188.785 286.305 188.605 286.279 188.399 286.228C187.755 286.099 187.085 285.971 186.184 285.792C184.947 285.561 183.711 285.459 182.449 285.459C178.25 285.459 174.026 286.715 170.523 289.022C170.291 290.586 169.801 292.354 169.106 294.328ZM345.55 309.914C345.705 310.299 346.194 311.324 346.941 312.76C347.663 314.144 349.182 316.99 351.243 320.297C352.351 322.065 353.484 323.757 354.566 325.295C355.854 327.115 357.167 328.782 358.404 330.217C362.293 334.678 365.771 337.036 368.45 337.036C368.862 337.036 369.248 336.985 369.609 336.882C373.215 335.806 375.636 327.808 376.229 314.913C376.563 307.633 376.254 300.455 376.048 296.841C375.971 295.61 375.919 294.738 375.894 294.354C375.172 292.38 374.709 290.611 374.451 289.073C370.948 286.792 366.724 285.51 362.525 285.51C361.263 285.51 360.001 285.612 358.79 285.843C357.914 285.997 357.245 286.125 356.601 286.253C356.369 286.305 356.189 286.33 356.008 286.381C351.964 287.253 346.993 288.714 344.134 292.431C344.391 295.431 345.447 307.915 345.55 309.914ZM134.152 311.324C134.152 311.427 133.07 320.373 136.522 323.783C137.372 324.629 138.402 325.013 139.716 325.013C139.999 325.013 140.308 324.988 140.617 324.962C144.79 324.449 150.92 318.912 157.051 310.171C159.086 307.274 161.018 304.121 162.64 301.07C165.397 295.918 167.122 291.303 167.535 288.099C167.432 286.869 167.097 285.561 166.582 284.305C162.589 284.305 157.412 282.844 154.449 278.819C153.007 279.921 151.255 280.87 149.658 281.716C148.628 282.28 147.623 282.793 146.851 283.305C144.764 284.664 142.497 285.459 140.308 285.587V285.612L139.638 288.407C139.072 290.739 138.325 293.867 137.578 296.994L137.526 297.251C134.384 310.248 134.306 310.478 134.281 310.607L134.255 310.658L134.152 311.324ZM377.439 288.125C377.8 290.944 379.242 294.969 381.483 299.455C382.694 301.865 384.085 304.326 385.656 306.787C386.403 307.966 387.15 309.094 387.923 310.196C391.684 315.554 395.47 319.758 398.896 322.322C400.982 323.885 402.811 324.783 404.357 324.988C404.666 325.039 404.975 325.039 405.258 325.039C406.572 325.039 407.628 324.629 408.452 323.809C411.904 320.399 410.822 311.427 410.822 311.35L410.745 310.735L410.719 310.683C410.668 310.555 410.59 310.325 407.473 297.328L406.366 292.688L404.666 285.638C402.476 285.484 400.21 284.715 398.123 283.357C397.35 282.844 396.372 282.331 395.316 281.767C393.744 280.921 391.967 279.973 390.524 278.87C387.562 282.895 382.385 284.356 378.392 284.356C377.903 285.587 377.568 286.894 377.439 288.125ZM413.681 310.248C414.222 310.786 416.334 312.862 420.044 314.888C420.481 315.118 420.868 315.246 421.228 315.246C421.434 315.246 421.641 315.195 421.847 315.118C423.186 314.58 424.216 312.427 424.577 311.299C424.706 307.966 424.5 304.531 423.985 301.147C423.907 300.609 423.83 300.147 423.753 299.712C423.212 296.661 422.388 293.636 421.331 290.714C419.837 286.587 417.906 282.664 415.536 279.075C413.372 282.485 410.899 284.536 407.963 285.305C407.911 285.33 407.86 285.33 407.808 285.356C408.246 287.176 408.993 290.329 409.817 293.739L410.436 296.302C411.518 300.814 412.934 306.659 413.475 308.838C413.63 309.504 413.681 309.658 413.681 309.684L413.81 310.171L413.681 310.248ZM120.397 311.324C120.835 312.606 121.891 314.631 123.127 315.144C123.333 315.221 123.539 315.272 123.745 315.272C124.106 315.272 124.492 315.144 124.93 314.913C128.639 312.888 130.752 310.812 131.293 310.273L131.138 310.222L131.267 309.735C131.37 309.402 132.452 304.89 134.358 297.046C135.465 292.431 136.599 287.791 137.165 285.382C137.114 285.356 137.062 285.356 136.985 285.33C134.049 284.561 131.576 282.536 129.412 279.101C126.27 283.869 123.9 289.124 122.329 294.738C120.86 300.25 120.191 305.813 120.397 311.324ZM427.41 303.454C427.745 303.634 428.183 303.89 428.724 304.172C430.656 305.198 433.541 306.607 436.117 307.453C436.606 307.607 436.992 307.684 437.327 307.684C437.714 307.684 437.843 307.582 437.92 307.505C438.409 307.095 439.388 305.223 438.152 296.584C438.074 296.097 438.023 295.661 437.971 295.328C437.74 293.841 437.379 292.303 436.864 290.714C436.452 289.432 435.936 288.099 435.344 286.792C433.18 281.998 430.321 278.076 428.673 276.025C427.951 276.307 427.23 276.512 426.483 276.64C424.912 276.871 423.65 276.999 422.465 276.999C420.353 276.999 418.627 276.615 417.339 275.845C417.313 275.922 417.262 275.999 417.236 276.076C420.533 280.793 423.135 286.023 424.938 291.637C425.144 292.278 425.324 292.918 425.504 293.534C426.406 296.789 427.05 300.122 427.41 303.454ZM116.327 276.051C114.833 277.896 112.772 280.742 110.918 284.254C108.883 288.073 107.595 291.816 107.054 295.354C105.715 304.249 106.333 306.889 107.106 307.53C107.183 307.582 107.312 307.71 107.698 307.71C108.033 307.71 108.419 307.633 108.909 307.479C112.283 306.377 116.172 304.275 117.615 303.48C117.924 300.429 118.516 297.379 119.315 294.38C121.067 287.843 124.003 281.511 127.815 276.102C127.789 276.025 127.738 275.948 127.712 275.871C126.399 276.64 124.698 277.025 122.586 277.025C121.401 277.025 120.139 276.922 118.568 276.666C117.769 276.538 117.022 276.333 116.327 276.051ZM267.322 290.765C267.889 291.278 268.404 291.79 268.868 292.329C270.516 294.277 271.701 296.559 272.5 299.301C273.273 296.559 274.457 294.303 276.132 292.329C276.595 291.79 277.111 291.252 277.677 290.765C276.286 290.381 274.921 289.945 273.582 289.458L273.247 289.637L272.526 289.15L271.804 289.637L271.444 289.458C270.104 289.919 268.713 290.355 267.322 290.765ZM96.6734 279.075C96.5446 279.357 96.4416 279.665 96.3128 279.973C92.9642 288.33 91.496 294.328 92.2172 296.866C92.3202 297.251 92.4748 297.507 92.6551 297.584C94.046 298.302 95.7203 298.686 97.678 298.686C100.254 298.686 102.598 298.02 103.602 297.712C103.705 296.815 103.834 295.866 103.989 294.892C104.478 291.611 105.612 288.125 107.312 284.561C109.475 280.024 112.077 276.409 113.622 274.461C112.669 273.692 111.845 272.744 111.227 271.718C109.501 272.872 107.106 273.564 104.71 273.564C103.448 273.564 102.263 273.385 101.233 273.026C100.692 272.846 100.177 272.615 99.6614 272.333C98.9916 273.692 98.0128 275.871 96.9567 278.435L96.8022 278.87C96.7764 278.922 96.7249 278.999 96.6734 279.075ZM441.397 297.712C442.402 298.045 444.746 298.686 447.322 298.686C449.253 298.686 450.954 298.327 452.344 297.584C452.525 297.481 452.679 297.251 452.782 296.866C453.504 294.226 451.932 287.894 448.3 279.075C448.249 278.973 448.197 278.896 448.172 278.845L447.966 278.358H447.991C447.785 277.896 447.605 277.435 447.399 276.973C446.678 275.256 445.905 273.564 445.287 272.308C444.772 272.564 444.256 272.795 443.715 273C442.711 273.359 441.5 273.538 440.238 273.538C439.027 273.538 437.791 273.359 436.632 273.026C436.142 272.897 435.679 272.718 435.241 272.513C434.674 272.257 434.159 271.975 433.695 271.667C433.077 272.692 432.253 273.641 431.3 274.41C432.871 276.409 435.524 280.101 437.714 284.715C438.152 285.612 438.538 286.51 438.873 287.381C439.877 289.945 440.573 292.457 440.934 294.841C441.062 295.687 441.165 296.482 441.268 297.251C441.371 297.456 441.371 297.584 441.397 297.712ZM309.437 291.329C309.875 291.688 310.287 292.072 310.674 292.431C310.802 292.534 310.905 292.662 311.034 292.765L311.472 292.534C316.366 290.073 321.415 287.535 326.824 286.869C327.803 286.74 328.782 286.689 329.735 286.689C334.346 286.689 338.544 288.048 341.661 290.534C343.928 287.561 347.147 285.792 350.393 284.664C348.435 284.587 346.504 284.356 344.623 284.1C343 283.895 341.403 283.767 339.884 283.613C336.664 283.331 333.624 283.075 330.353 282.177C324.171 286.433 316.959 289.586 309.437 291.329ZM215.265 286.715C216.218 286.715 217.197 286.766 218.175 286.894C223.585 287.561 228.633 290.099 233.527 292.559L233.965 292.79C234.094 292.662 234.197 292.559 234.326 292.431C234.712 292.047 235.124 291.688 235.562 291.329C228.015 289.56 220.829 286.433 214.647 282.229C211.375 283.126 208.336 283.382 205.116 283.664C203.57 283.792 201.999 283.921 200.376 284.151C198.496 284.408 196.564 284.638 194.607 284.715C197.852 285.843 201.072 287.612 203.339 290.586C206.43 288.099 210.654 286.715 215.265 286.715ZM274.741 286.612C277.729 287.663 280.82 288.484 283.962 289.048C287.465 289.663 291.046 289.996 294.6 289.996C298.207 289.996 301.89 289.663 305.496 289.022C313.79 287.561 321.724 284.382 328.447 279.819L323.862 239.213L323.836 239.111C323.785 238.88 323.63 238.418 323.424 237.778C322.986 236.419 322.265 234.317 321.209 231.881C318.865 226.472 314.846 219.346 309.077 216.295C307.196 215.296 305.213 214.783 303.152 214.783C301.607 214.783 299.984 215.065 298.361 215.655C289.294 218.859 283.524 221.063 280.202 224.806C277.188 228.19 275.848 232.932 274.87 243.545C273.298 260.746 274.406 282.305 274.741 286.612ZM216.553 279.819C223.276 284.382 231.209 287.535 239.503 289.022C243.11 289.663 246.793 289.996 250.399 289.996C253.954 289.996 257.534 289.688 261.037 289.048C264.18 288.484 267.271 287.663 270.259 286.612C270.413 284.587 270.697 279.691 270.851 273.461C271.006 266.873 271.083 257.106 270.465 247.903C270.362 246.391 270.259 244.93 270.13 243.571C269.744 239.521 269.332 236.496 268.816 234.009C267.941 229.779 266.73 227.036 264.772 224.832C261.449 221.089 255.705 218.885 246.613 215.68C244.99 215.116 243.367 214.809 241.822 214.809C239.761 214.809 237.778 215.321 235.897 216.321C226.186 221.448 221.447 238.085 221.112 239.239L216.553 279.819ZM169.776 284.023C169.956 284.561 170.11 285.074 170.239 285.587C173.948 283.485 178.147 282.382 182.449 282.382C183.196 282.382 183.943 282.408 184.664 282.485C183.144 281.562 181.882 280.357 180.98 278.999C180.362 279.332 179.744 279.665 179.203 279.973C176.267 281.639 173.227 283.357 169.776 284.023ZM362.525 282.408C366.827 282.408 371.025 283.51 374.735 285.612C374.863 285.1 375.018 284.561 375.198 284.049C371.747 283.382 368.707 281.665 365.745 280.024C365.204 279.716 364.586 279.383 363.968 279.05C363.066 280.434 361.804 281.613 360.284 282.536C361.031 282.434 361.778 282.408 362.525 282.408ZM391.838 275.922C392.121 276.179 392.482 276.461 392.894 276.768C393.822 277.409 394.929 278.024 395.779 278.512C396.114 278.691 396.423 278.87 396.758 279.024L396.81 279.05C397.917 279.639 398.947 280.203 399.849 280.767C401.652 281.947 403.635 282.587 405.439 282.587C405.567 282.587 405.696 282.587 405.851 282.587H405.902C406.366 282.562 406.804 282.485 407.216 282.382C409.637 281.742 411.672 279.845 413.63 276.358C413.604 276.307 413.552 276.256 413.527 276.204L413.218 275.794L414.402 274.897C414.712 274.282 415.021 273.615 415.356 272.872C415.381 272.667 415.433 272.436 415.459 272.231C416.025 268.642 416.721 262.977 417.493 255.363C417.751 252.928 417.983 250.339 418.24 247.647C418.91 240.469 419.4 234.394 419.554 232.625C418.833 228.369 416.051 217.218 411.801 215.911C411.569 215.834 411.311 215.808 411.08 215.808C409.972 215.808 408.71 216.526 407.345 217.962C398.613 226.985 396.372 230.83 395.934 231.702C395.856 232.881 395.47 237.906 394.955 244.289C394.723 247.109 394.491 249.877 394.259 252.492C394.079 254.517 393.899 256.594 393.719 258.619H393.203L393.719 258.67L393.306 263.028L392.894 267.206L392.611 269.975L392.456 271.359L392.302 272.795C392.302 272.795 392.199 273.769 392.147 274C392.147 274 392.07 274.564 392.044 274.794V274.871C391.941 275.205 391.89 275.563 391.838 275.922ZM131.396 276.333C133.353 279.793 135.388 281.716 137.809 282.357C138.222 282.459 138.659 282.536 139.149 282.562H139.175C139.303 282.562 139.458 282.562 139.587 282.562C141.39 282.562 143.373 281.921 145.176 280.742C146.052 280.178 147.108 279.614 148.19 279.024C148.525 278.845 148.86 278.665 149.195 278.486C150.663 277.691 152.131 276.845 153.136 275.922C153.084 275.589 153.033 275.205 152.981 274.846L152.852 273.923C152.827 273.692 152.646 272.282 152.646 272.282L152.466 270.565L152.286 268.898L152.08 267.001L151.77 263.874L151.436 260.234L151.204 257.722L151.049 256.03L150.508 249.877L149.787 241.213L149.581 238.444C149.298 234.983 149.117 232.497 149.066 231.676C148.628 230.805 146.413 226.985 137.655 217.936C136.29 216.526 135.028 215.783 133.92 215.783C133.662 215.783 133.431 215.808 133.199 215.885C128.949 217.193 126.192 228.344 125.445 232.599C125.574 234.112 126.141 241.187 126.914 249.288C127.97 260.388 128.897 268.54 129.644 272.872C129.979 273.615 130.288 274.282 130.597 274.897L131.782 275.794L131.473 276.204C131.473 276.23 131.447 276.281 131.396 276.333ZM183.196 276.615C184.226 278.768 186.57 280.46 189.481 281.203C189.687 281.254 189.867 281.306 190.073 281.331C191.129 281.536 192.263 281.639 193.55 281.639C195.663 281.639 197.852 281.357 199.964 281.075C201.639 280.844 203.261 280.716 204.833 280.588C207.795 280.332 210.603 280.101 213.487 279.357L218.021 239.316C216.372 236.88 208.825 226.396 197.337 221.781C196.075 221.269 194.916 221.038 193.757 221.038C192.52 221.038 191.361 221.32 190.202 221.909C183.994 225.063 180.929 235.599 180.517 237.162C180.62 238.521 181.006 244.314 181.47 251.056C181.933 257.773 182.732 269.437 183.067 274.487L183.221 274.41L183.196 276.615ZM331.512 279.357C334.397 280.101 337.205 280.332 340.141 280.588C341.712 280.716 343.335 280.87 345.035 281.075C347.147 281.357 349.311 281.639 351.423 281.639C352.711 281.639 353.87 281.536 354.926 281.331C355.107 281.306 355.287 281.254 355.467 281.203C358.404 280.485 360.748 278.768 361.778 276.615V274.436L361.933 274.512C362.396 267.591 363.762 247.493 364.199 241.29L364.483 237.162C364.045 235.599 360.98 225.063 354.772 221.909C353.613 221.32 352.454 221.038 351.217 221.038C350.084 221.038 348.873 221.294 347.637 221.781C336.174 226.396 328.627 236.855 326.953 239.316L331.512 279.357ZM156.278 275.974C158.313 279.87 163.078 281.254 166.582 281.254C166.891 281.254 167.174 281.254 167.457 281.229H167.612C171.141 280.972 174.335 279.204 177.709 277.307L177.761 277.281C178.508 276.871 179.28 276.435 180.053 276.025C180.027 275.692 180.002 275.256 179.976 274.769C179.77 271.539 179.332 265.335 178.894 258.875C178.611 254.902 178.353 250.826 178.095 247.288C177.761 242.52 177.503 238.726 177.426 237.521C176.395 236.009 171.682 229.574 162.975 223.883C161.507 222.935 160.168 222.448 158.957 222.448C158.416 222.448 157.875 222.55 157.386 222.755C153.883 224.242 152.389 230.343 152.183 231.343L152.93 241.084L153.599 249.262C153.599 249.262 153.78 251.338 153.831 252.082L154.218 256.44L154.604 260.644L155.119 265.899L155.428 268.873L155.608 270.565L155.815 272.257L155.892 272.821C155.918 273.103 155.995 273.718 155.995 273.718C156.021 273.974 156.098 274.589 156.098 274.589C156.124 274.794 156.201 275.384 156.201 275.384C156.227 275.589 156.278 275.974 156.278 275.974ZM377.491 281.229C377.8 281.254 378.109 281.254 378.418 281.254C381.921 281.254 386.686 279.87 388.721 275.974C388.721 275.974 388.773 275.589 388.799 275.41L388.824 275.23C388.85 275.025 388.876 274.82 388.902 274.615L389.03 273.641C389.056 273.385 389.108 273.128 389.134 272.846L389.288 271.59L389.52 269.591L389.829 266.668L390.215 262.746L390.602 258.619L391.065 253.517L391.168 252.313L391.812 244.494L392.276 238.88L392.714 233.061L392.843 231.317C392.611 230.318 391.143 224.217 387.64 222.73C387.15 222.525 386.635 222.422 386.068 222.422C384.883 222.422 383.518 222.909 382.05 223.858C373.344 229.549 368.63 235.983 367.6 237.496L366.543 253.03C366.106 259.413 365.642 266.386 365.307 271.154C365.153 273.282 365.049 274.974 364.972 275.999C365.745 276.409 366.518 276.845 367.265 277.255L367.651 277.46C368.243 277.794 368.81 278.101 369.403 278.409C371.85 279.716 374.503 280.947 377.413 281.178H377.465L377.491 281.229ZM118.619 273.538C118.748 273.564 118.877 273.59 118.98 273.615C120.423 273.846 121.556 273.948 122.586 273.948C124.441 273.948 125.78 273.59 126.553 272.872C126.476 272.462 126.424 272.026 126.347 271.59C126.064 269.616 125.729 267.13 125.394 264.156C124.982 260.516 124.518 256.132 124.029 251.108C123.204 242.417 122.535 234.471 122.432 233.061C121.814 232.189 119.238 228.805 113.004 224.165C112.077 223.473 111.227 223.114 110.557 223.114C110.3 223.114 110.068 223.166 109.862 223.268C107.827 224.165 106.616 228.677 106.307 231.548C106.513 232.779 107.44 238.418 108.599 244.955C110.171 253.876 112.257 265.258 113.288 268.719C113.7 270.026 114.55 271.231 115.683 272.154C115.838 272 115.966 271.872 116.069 271.795L116.482 271.488L117.847 273.308H118.98L118.619 273.538ZM418.447 272.872C419.219 273.59 420.559 273.948 422.413 273.948H422.439C423.444 273.948 424.577 273.846 425.994 273.615C426.277 273.564 426.586 273.513 426.869 273.41L427.179 273.359L427.488 273.205L428.286 272.795C428.466 272.692 428.647 272.59 428.827 272.487L428.853 272.462C428.956 272.539 429.214 271.949 429.368 272.103C430.501 271.206 431.351 270.001 431.764 268.668C432.305 266.822 433.232 262.49 434.468 255.799C434.777 254.107 435.138 252.236 435.499 250.236C436.039 247.262 436.606 244.032 437.199 240.623C437.971 236.137 438.564 232.599 438.744 231.523C438.409 228.651 437.199 224.114 435.189 223.242C434.983 223.14 434.752 223.089 434.494 223.089C433.798 223.089 432.974 223.448 432.047 224.14C425.813 228.78 423.238 232.163 422.619 233.035C422.491 234.548 421.975 240.828 421.306 248.134L421.151 249.672C420.069 260.541 419.168 268.334 418.447 272.872ZM90.7747 229.036C89.6671 235.727 90.6975 242.597 91.702 247.826C92.1914 250.39 92.7581 252.851 93.299 255.261C93.9945 258.311 94.69 261.464 96.1325 264.258C97.137 266.207 98.4507 267.796 99.9705 268.924C100.692 269.437 101.464 269.847 102.263 270.129C102.933 270.36 103.757 270.488 104.633 270.488C105.843 270.488 107.106 270.257 108.162 269.847C108.909 269.565 109.553 269.18 110.016 268.745C109.424 266.514 108.574 262.413 107.492 256.542C106.951 253.671 106.359 250.364 105.715 246.75C104.504 239.905 103.499 233.804 103.242 232.292C100.82 229.779 97.884 228.498 94.5097 228.498C92.8869 228.472 91.5475 228.78 90.7747 229.036ZM434.958 268.719C435.859 269.539 437.302 270.129 438.95 270.36C439.414 270.437 439.903 270.462 440.367 270.462C441.268 270.462 442.093 270.334 442.737 270.103C443.535 269.821 444.308 269.411 445.029 268.898C446.549 267.796 447.863 266.181 448.867 264.258C450.31 261.49 451.005 258.311 451.701 255.261C452.293 252.595 452.988 249.595 453.529 246.596C454.328 242.135 455.281 235.496 454.225 229.036C453.426 228.805 452.087 228.498 450.464 228.498C447.09 228.498 444.153 229.779 441.732 232.292C441.552 233.445 440.805 237.803 439.877 243.135C439.774 243.699 439.671 244.263 439.568 244.853C438.1 253.364 436.091 264.31 434.958 268.719ZM241.822 211.732C243.728 211.732 245.685 212.091 247.643 212.783C249.832 213.552 252.151 214.373 254.289 215.193C259.827 217.321 264.128 219.448 267.091 222.781C270.207 226.293 271.624 230.959 272.5 237.137C273.376 230.959 274.792 226.293 277.909 222.781C278.295 222.345 278.708 221.909 279.171 221.499C283.035 217.962 288.882 215.757 297.357 212.758C299.34 212.066 301.298 211.707 303.178 211.707C305.728 211.707 308.201 212.348 310.545 213.578C312.296 214.501 313.971 215.783 315.593 217.372C318.633 220.397 321.363 224.575 323.707 229.779C323.81 229.984 323.888 230.215 323.991 230.42C324.841 232.369 325.485 234.112 325.948 235.445C328.653 231.856 333.805 225.934 341.068 221.627C342.846 220.576 344.7 219.654 346.529 218.91C348.126 218.269 349.723 217.936 351.269 217.936C352.995 217.936 354.669 218.346 356.24 219.141C358.687 220.371 360.928 222.576 362.886 225.652C364.637 228.395 365.874 231.343 366.647 233.573C368.192 231.625 370.613 228.933 373.988 226.037C375.997 224.319 378.135 222.73 380.35 221.269C382.333 219.961 384.265 219.32 386.043 219.32C386.996 219.32 387.949 219.5 388.824 219.884C390.215 220.474 391.503 221.551 392.585 223.037C393.641 224.473 394.388 226.114 394.878 227.447C395.779 226.19 396.887 224.781 398.226 223.217C400.107 220.987 402.425 218.474 405.052 215.731C407.036 213.681 409.045 212.63 411.002 212.63C411.569 212.63 412.136 212.706 412.677 212.886C413.707 213.194 414.686 213.834 415.613 214.757C417.416 216.552 419.039 219.551 420.43 223.653C421.074 225.601 421.563 227.472 421.924 228.933C423.521 227.19 426.122 224.678 430.167 221.653C431.661 220.551 433.103 219.987 434.468 219.987C435.138 219.987 435.808 220.115 436.426 220.397C439.337 221.679 440.727 225.703 441.346 228.472C443.973 226.447 447.038 225.421 450.464 225.421C452.216 225.421 453.735 225.703 454.792 225.985C456.234 222.96 460.355 214.091 463.961 204.324L464.116 203.914C467.181 195.582 469.165 188.558 470.015 183.072C470.787 178.176 470.607 174.562 469.551 172.357C467.774 168.742 464.812 167.051 460.227 167.051C455.976 167.051 450.85 168.409 444.9 169.999C440.29 171.229 435.499 172.485 430.63 173.229C428.853 173.485 426.483 173.613 423.392 173.613C414.016 173.613 399.797 172.408 383.338 171.05H383.312C363.633 169.383 341.352 167.512 324.068 167.512C317.139 167.512 311.292 167.82 306.733 168.409C290.969 170.486 282.906 177.048 278.914 182.201C274.689 187.635 274.045 192.634 274.02 192.686L273.968 193.198L273.453 193.147L272.5 193.044L271.032 193.224L270.98 192.711C270.98 192.66 270.285 187.584 266.009 182.124C260.265 174.818 250.682 170.075 238.267 168.435C233.63 167.82 227.964 167.538 220.932 167.538C204.987 167.538 185.849 169.024 164.263 170.845L161.713 171.05C145.228 172.434 131.009 173.639 121.607 173.639C118.542 173.639 116.172 173.511 114.369 173.254C109.475 172.536 104.71 171.255 100.099 170.024C94.1491 168.435 89.0232 167.076 84.773 167.076C80.1881 167.076 77.2258 168.768 75.4485 172.383C74.1864 174.946 74.1864 179.407 75.4228 185.61C76.4273 190.686 78.2819 196.838 80.8835 203.965C84.5412 213.86 88.7398 222.935 90.208 226.037C91.2641 225.755 92.7581 225.473 94.5354 225.473C97.9613 225.473 101.027 226.498 103.654 228.523C104.272 225.755 105.663 221.73 108.574 220.448C109.192 220.166 109.862 220.038 110.531 220.038C111.897 220.038 113.339 220.602 114.833 221.704C118.877 224.704 121.479 227.216 123.076 228.985C123.411 227.524 123.9 225.652 124.57 223.704C126.63 217.526 129.258 213.886 132.323 212.937C132.864 212.758 133.431 212.681 133.997 212.681C135.955 212.681 137.964 213.732 139.947 215.783C145.434 221.474 148.473 225.216 150.122 227.498C151.204 224.601 153.058 221.243 156.201 219.936C157.077 219.551 158.03 219.372 158.983 219.372C160.786 219.372 162.692 220.038 164.675 221.32C171.579 225.832 176.061 230.702 178.379 233.625C179.95 229.087 183.221 222.012 188.811 219.192C189.996 218.577 191.258 218.218 192.52 218.064C192.932 218.013 193.37 217.987 193.782 217.987C195.328 217.987 196.899 218.321 198.522 218.961C200.634 219.807 202.746 220.884 204.781 222.166C211.607 226.447 216.501 232.061 219.077 235.47C220.7 230.702 224.641 221.038 231.389 215.655C232.394 214.86 233.424 214.168 234.48 213.604C236.799 212.348 239.272 211.732 241.822 211.732Z" fill="#231F20"/>
</g>
<defs>
<clipPath id="clip0_22102_7001">
<rect width="411" height="218" fill="white" transform="translate(67 164)"/>
</clipPath>
</defs>
</svg>
